%TF.GenerationSoftware,KiCad,Pcbnew,8.0.8*%
%TF.CreationDate,2025-09-27T22:11:16+09:00*%
%TF.ProjectId,esp_bluepill_board,6573705f-626c-4756-9570-696c6c5f626f,rev?*%
%TF.SameCoordinates,Original*%
%TF.FileFunction,Copper,L2,Bot*%
%TF.FilePolarity,Positive*%
%FSLAX46Y46*%
G04 Gerber Fmt 4.6, Leading zero omitted, Abs format (unit mm)*
G04 Created by KiCad (PCBNEW 8.0.8) date 2025-09-27 22:11:16*
%MOMM*%
%LPD*%
G01*
G04 APERTURE LIST*
G04 Aperture macros list*
%AMRoundRect*
0 Rectangle with rounded corners*
0 $1 Rounding radius*
0 $2 $3 $4 $5 $6 $7 $8 $9 X,Y pos of 4 corners*
0 Add a 4 corners polygon primitive as box body*
4,1,4,$2,$3,$4,$5,$6,$7,$8,$9,$2,$3,0*
0 Add four circle primitives for the rounded corners*
1,1,$1+$1,$2,$3*
1,1,$1+$1,$4,$5*
1,1,$1+$1,$6,$7*
1,1,$1+$1,$8,$9*
0 Add four rect primitives between the rounded corners*
20,1,$1+$1,$2,$3,$4,$5,0*
20,1,$1+$1,$4,$5,$6,$7,0*
20,1,$1+$1,$6,$7,$8,$9,0*
20,1,$1+$1,$8,$9,$2,$3,0*%
G04 Aperture macros list end*
%TA.AperFunction,HeatsinkPad*%
%ADD10O,2.100000X1.000000*%
%TD*%
%TA.AperFunction,HeatsinkPad*%
%ADD11O,1.800000X1.000000*%
%TD*%
%TA.AperFunction,ComponentPad*%
%ADD12R,1.700000X1.700000*%
%TD*%
%TA.AperFunction,ComponentPad*%
%ADD13O,1.700000X1.700000*%
%TD*%
%TA.AperFunction,ComponentPad*%
%ADD14RoundRect,0.250000X-0.600000X-0.725000X0.600000X-0.725000X0.600000X0.725000X-0.600000X0.725000X0*%
%TD*%
%TA.AperFunction,ComponentPad*%
%ADD15O,1.700000X1.950000*%
%TD*%
%TA.AperFunction,ComponentPad*%
%ADD16C,1.397000*%
%TD*%
%TA.AperFunction,ComponentPad*%
%ADD17C,2.133600*%
%TD*%
%TA.AperFunction,ComponentPad*%
%ADD18RoundRect,0.250000X-0.600000X-0.750000X0.600000X-0.750000X0.600000X0.750000X-0.600000X0.750000X0*%
%TD*%
%TA.AperFunction,ComponentPad*%
%ADD19O,1.700000X2.000000*%
%TD*%
%TA.AperFunction,ComponentPad*%
%ADD20R,1.508000X1.508000*%
%TD*%
%TA.AperFunction,ComponentPad*%
%ADD21C,1.508000*%
%TD*%
%TA.AperFunction,ComponentPad*%
%ADD22RoundRect,0.250000X-0.750000X0.600000X-0.750000X-0.600000X0.750000X-0.600000X0.750000X0.600000X0*%
%TD*%
%TA.AperFunction,ComponentPad*%
%ADD23O,2.000000X1.700000*%
%TD*%
%TA.AperFunction,ComponentPad*%
%ADD24C,1.524000*%
%TD*%
%TA.AperFunction,ComponentPad*%
%ADD25R,2.000000X1.905000*%
%TD*%
%TA.AperFunction,ComponentPad*%
%ADD26O,2.000000X1.905000*%
%TD*%
%TA.AperFunction,ComponentPad*%
%ADD27RoundRect,0.760000X-1.140000X-1.140000X1.140000X-1.140000X1.140000X1.140000X-1.140000X1.140000X0*%
%TD*%
%TA.AperFunction,ComponentPad*%
%ADD28C,4.000000*%
%TD*%
%TA.AperFunction,ViaPad*%
%ADD29C,0.600000*%
%TD*%
%TA.AperFunction,Conductor*%
%ADD30C,0.200000*%
%TD*%
%TA.AperFunction,Conductor*%
%ADD31C,0.500000*%
%TD*%
%TA.AperFunction,Conductor*%
%ADD32C,1.000000*%
%TD*%
G04 APERTURE END LIST*
D10*
%TO.P,J19,S1,SHIELD*%
%TO.N,GND*%
X97300000Y-56120000D03*
D11*
X101500000Y-56120000D03*
D10*
X97300000Y-47480000D03*
D11*
X101500000Y-47480000D03*
%TD*%
D12*
%TO.P,J20,1,Pin_1*%
%TO.N,other_3*%
X39900000Y-37320000D03*
D13*
%TO.P,J20,2,Pin_2*%
%TO.N,other_2*%
X39900000Y-39860000D03*
%TO.P,J20,3,Pin_3*%
%TO.N,other_1*%
X39900000Y-42400000D03*
%TD*%
D12*
%TO.P,SW2,1,A*%
%TO.N,unconnected-(SW2A-A-Pad1)*%
X84125000Y-54600000D03*
D13*
%TO.P,SW2,2,B*%
%TO.N,Net-(SW2A-B)*%
X81585000Y-54600000D03*
%TO.P,SW2,3,C*%
%TO.N,GND*%
X79045000Y-54600000D03*
%TD*%
D12*
%TO.P,J4,1,Pin_1*%
%TO.N,unconnected-(J4-Pin_1-Pad1)*%
X77760000Y-25100000D03*
D13*
%TO.P,J4,2,Pin_2*%
%TO.N,Net-(J4-Pin_2)*%
X80300000Y-25100000D03*
%TO.P,J4,3,Pin_3*%
%TO.N,Net-(J4-Pin_3)*%
X82840000Y-25100000D03*
%TD*%
D12*
%TO.P,J1,1,Pin_1*%
%TO.N,GND*%
X93700000Y-72700000D03*
D13*
%TO.P,J1,2,Pin_2*%
%TO.N,UART_1*%
X91160000Y-72700000D03*
%TO.P,J1,3,Pin_3*%
%TO.N,UART_2*%
X88620000Y-72700000D03*
%TD*%
D14*
%TO.P,J14,1,Pin_1*%
%TO.N,DC_DIR_2*%
X36000000Y-52000000D03*
D15*
%TO.P,J14,2,Pin_2*%
%TO.N,Net-(J14-Pin_2)*%
X38500000Y-52000000D03*
%TO.P,J14,3,Pin_3*%
%TO.N,GND*%
X41000000Y-52000000D03*
%TD*%
D16*
%TO.P,J3,1*%
%TO.N,Net-(U4-CANH)*%
X25811000Y-39684000D03*
%TO.P,J3,2*%
%TO.N,Net-(J4-Pin_3)*%
X27589000Y-38668000D03*
%TO.P,J3,3*%
%TO.N,GND*%
X25811000Y-37652000D03*
%TO.P,J3,4*%
%TO.N,unconnected-(J3-Pad4)*%
X27589000Y-36636000D03*
%TO.P,J3,5*%
%TO.N,unconnected-(J3-Pad5)*%
X25811000Y-35620000D03*
%TO.P,J3,6*%
%TO.N,Net-(J3-Pad6)*%
X27589000Y-34604000D03*
%TO.P,J3,7*%
%TO.N,GND*%
X25811000Y-33588000D03*
%TO.P,J3,8*%
X27589000Y-32572000D03*
%TO.P,J3,9*%
%TO.N,Net-(J3-Pad9)*%
X32415000Y-42986000D03*
%TO.P,J3,10*%
%TO.N,+3V3*%
X32415000Y-40700000D03*
%TO.P,J3,11*%
%TO.N,Net-(J3-Pad11)*%
X32415000Y-31556000D03*
%TO.P,J3,12*%
%TO.N,CAN_LED_Yello*%
X32415000Y-29270000D03*
D17*
%TO.P,J3,SH*%
%TO.N,GND*%
X26700000Y-28000000D03*
X26700000Y-44256000D03*
%TD*%
D18*
%TO.P,J12,1,Pin_1*%
%TO.N,Net-(D9-K)*%
X44000000Y-90600000D03*
D19*
%TO.P,J12,2,Pin_2*%
%TO.N,24V_GND*%
X46500000Y-90600000D03*
%TD*%
D16*
%TO.P,J2,1*%
%TO.N,Net-(U4-CANH)*%
X98889000Y-32616000D03*
%TO.P,J2,2*%
%TO.N,Net-(J4-Pin_3)*%
X97111000Y-33632000D03*
%TO.P,J2,3*%
%TO.N,GND*%
X98889000Y-34648000D03*
%TO.P,J2,4*%
%TO.N,unconnected-(J2-Pad4)*%
X97111000Y-35664000D03*
%TO.P,J2,5*%
%TO.N,unconnected-(J2-Pad5)*%
X98889000Y-36680000D03*
%TO.P,J2,6*%
%TO.N,Net-(J2-Pad6)*%
X97111000Y-37696000D03*
%TO.P,J2,7*%
%TO.N,GND*%
X98889000Y-38712000D03*
%TO.P,J2,8*%
X97111000Y-39728000D03*
%TO.P,J2,9*%
%TO.N,Net-(J2-Pad9)*%
X92285000Y-29314000D03*
%TO.P,J2,10*%
%TO.N,+3V3*%
X92285000Y-31600000D03*
%TO.P,J2,11*%
%TO.N,Net-(J2-Pad11)*%
X92285000Y-40744000D03*
%TO.P,J2,12*%
%TO.N,CAN_LED_Yello*%
X92285000Y-43030000D03*
D17*
%TO.P,J2,SH*%
%TO.N,GND*%
X98000000Y-44300000D03*
X98000000Y-28044000D03*
%TD*%
D20*
%TO.P,PS1,1,+VIN*%
%TO.N,+24V*%
X80400000Y-85820000D03*
D21*
%TO.P,PS1,2,GND*%
%TO.N,24V_GND*%
X80400000Y-88360000D03*
%TO.P,PS1,3,+VOUT*%
%TO.N,Net-(J8-Pin_1)*%
X80400000Y-90900000D03*
%TD*%
D14*
%TO.P,J16,1,Pin_1*%
%TO.N,DC_DIR_4*%
X36100000Y-63200000D03*
D15*
%TO.P,J16,2,Pin_2*%
%TO.N,Net-(J16-Pin_2)*%
X38600000Y-63200000D03*
%TO.P,J16,3,Pin_3*%
%TO.N,GND*%
X41100000Y-63200000D03*
%TD*%
D14*
%TO.P,J8,1,Pin_1*%
%TO.N,Net-(J8-Pin_1)*%
X89600000Y-90300000D03*
D15*
%TO.P,J8,2,Pin_2*%
%TO.N,Net-(J8-Pin_2)*%
X92100000Y-90300000D03*
%TO.P,J8,3,Pin_3*%
%TO.N,24V_GND*%
X94600000Y-90300000D03*
%TD*%
D18*
%TO.P,J11,1,Pin_1*%
%TO.N,Net-(D8-K)*%
X53200000Y-90600000D03*
D19*
%TO.P,J11,2,Pin_2*%
%TO.N,24V_GND*%
X55700000Y-90600000D03*
%TD*%
D14*
%TO.P,J18,1,Pin_1*%
%TO.N,DC_DIR_6*%
X36200000Y-74700000D03*
D15*
%TO.P,J18,2,Pin_2*%
%TO.N,Net-(J18-Pin_2)*%
X38700000Y-74700000D03*
%TO.P,J18,3,Pin_3*%
%TO.N,GND*%
X41200000Y-74700000D03*
%TD*%
D18*
%TO.P,J9,1,Pin_1*%
%TO.N,Net-(D6-K)*%
X71500000Y-90600000D03*
D19*
%TO.P,J9,2,Pin_2*%
%TO.N,24V_GND*%
X74000000Y-90600000D03*
%TD*%
D22*
%TO.P,J5,1,Pin_1*%
%TO.N,+5V*%
X92400000Y-49200000D03*
D23*
%TO.P,J5,2,Pin_2*%
%TO.N,GND*%
X92400000Y-51700000D03*
%TD*%
D14*
%TO.P,J15,1,Pin_1*%
%TO.N,DC_DIR_3*%
X23700000Y-63000000D03*
D15*
%TO.P,J15,2,Pin_2*%
%TO.N,Net-(J15-Pin_2)*%
X26200000Y-63000000D03*
%TO.P,J15,3,Pin_3*%
%TO.N,GND*%
X28700000Y-63000000D03*
%TD*%
D24*
%TO.P,U1,3V3,3.3V*%
%TO.N,+3V3*%
X66800000Y-24020000D03*
X51560000Y-67200000D03*
%TO.P,U1,5V,5V*%
%TO.N,unconnected-(U1-Pad5V)*%
X66800000Y-29100000D03*
%TO.P,U1,G,GND*%
%TO.N,GND*%
X66800000Y-26560000D03*
X51560000Y-72280000D03*
X51560000Y-69740000D03*
%TO.P,U1,NRST,RESET*%
%TO.N,unconnected-(U1-RESET-PadNRST)*%
X51560000Y-64660000D03*
%TO.P,U1,PA0,PA0*%
%TO.N,Net-(J13-Pin_2)*%
X51560000Y-34180000D03*
%TO.P,U1,PA1,PA1*%
%TO.N,Net-(J14-Pin_2)*%
X51560000Y-36720000D03*
%TO.P,U1,PA2,PA2*%
%TO.N,Net-(J15-Pin_2)*%
X51560000Y-39260000D03*
%TO.P,U1,PA3,PA3*%
%TO.N,Net-(J16-Pin_2)*%
X51560000Y-41800000D03*
%TO.P,U1,PA4,PA4*%
%TO.N,denji_3*%
X51560000Y-44340000D03*
%TO.P,U1,PA5,PA5*%
%TO.N,other_1*%
X51560000Y-46880000D03*
%TO.P,U1,PA6,PA6*%
%TO.N,Net-(J17-Pin_2)*%
X51560000Y-49420000D03*
%TO.P,U1,PA7,PA7*%
%TO.N,Net-(J18-Pin_2)*%
X51560000Y-51960000D03*
%TO.P,U1,PA8,PA8*%
%TO.N,neopixel_tim*%
X66800000Y-62120000D03*
%TO.P,U1,PA9,PA9*%
%TO.N,UART_2*%
X66800000Y-59580000D03*
%TO.P,U1,PA10,PA10*%
%TO.N,UART_1*%
X66800000Y-57040000D03*
%TO.P,U1,PA11,PA11*%
%TO.N,Net-(U4-RXD)*%
X66800000Y-54500000D03*
%TO.P,U1,PA12,PA12*%
%TO.N,Net-(U4-TXD)*%
X66800000Y-51960000D03*
%TO.P,U1,PA15,PA15*%
%TO.N,other_2*%
X66800000Y-49420000D03*
%TO.P,U1,PB0,PB0*%
%TO.N,denji_1*%
X51560000Y-54500000D03*
%TO.P,U1,PB1,PB1*%
%TO.N,denji_2*%
X51560000Y-57040000D03*
%TO.P,U1,PB3,PB3*%
%TO.N,denji_4*%
X66800000Y-46880000D03*
%TO.P,U1,PB4,PB4*%
%TO.N,other_3*%
X66800000Y-44340000D03*
%TO.P,U1,PB5,PB5*%
%TO.N,CAN_LED_Yello*%
X66800000Y-41800000D03*
%TO.P,U1,PB6,PB6*%
%TO.N,Net-(J7-Pin_1)*%
X66800000Y-39260000D03*
%TO.P,U1,PB7,PB7*%
%TO.N,Net-(J7-Pin_3)*%
X66800000Y-36720000D03*
%TO.P,U1,PB8,PB8*%
%TO.N,Net-(J7-Pin_5)*%
X66800000Y-34180000D03*
%TO.P,U1,PB9,PB9*%
%TO.N,EMS*%
X66800000Y-31640000D03*
%TO.P,U1,PB10,PB10*%
%TO.N,DC_DIR_1*%
X51560000Y-59580000D03*
%TO.P,U1,PB11,PB11*%
%TO.N,DC_DIR_2*%
X51560000Y-62120000D03*
%TO.P,U1,PB12,PB12*%
%TO.N,DC_DIR_3*%
X66800000Y-72280000D03*
%TO.P,U1,PB13,PB13*%
%TO.N,DC_DIR_4*%
X66800000Y-69740000D03*
%TO.P,U1,PB14,PB14*%
%TO.N,DC_DIR_5*%
X66800000Y-67200000D03*
%TO.P,U1,PB15,PB15*%
%TO.N,DC_DIR_6*%
X66800000Y-64660000D03*
%TO.P,U1,PC13,PC13*%
%TO.N,Net-(D2-A)*%
X51560000Y-26560000D03*
%TO.P,U1,PC14,PC14*%
%TO.N,Net-(D3-A)*%
X51560000Y-29100000D03*
%TO.P,U1,PC15,PC15*%
%TO.N,Net-(D1-A)*%
X51560000Y-31640000D03*
%TO.P,U1,VBAT,Vbat*%
%TO.N,unconnected-(U1-Vbat-PadVBAT)*%
X51560000Y-24020000D03*
%TD*%
D14*
%TO.P,J7,1,Pin_1*%
%TO.N,Net-(J7-Pin_1)*%
X89000000Y-78000000D03*
D15*
%TO.P,J7,2,Pin_2*%
%TO.N,GND*%
X91500000Y-78000000D03*
%TO.P,J7,3,Pin_3*%
%TO.N,Net-(J7-Pin_3)*%
X94000000Y-78000000D03*
%TO.P,J7,4,Pin_4*%
%TO.N,GND*%
X96500000Y-78000000D03*
%TO.P,J7,5,Pin_5*%
%TO.N,Net-(J7-Pin_5)*%
X99000000Y-78000000D03*
%TO.P,J7,6,Pin_6*%
%TO.N,GND*%
X101500000Y-78000000D03*
%TD*%
D18*
%TO.P,J10,1,Pin_1*%
%TO.N,Net-(D7-K)*%
X62350000Y-90575000D03*
D19*
%TO.P,J10,2,Pin_2*%
%TO.N,24V_GND*%
X64850000Y-90575000D03*
%TD*%
D14*
%TO.P,J13,1,Pin_1*%
%TO.N,DC_DIR_1*%
X23700000Y-52000000D03*
D15*
%TO.P,J13,2,Pin_2*%
%TO.N,Net-(J13-Pin_2)*%
X26200000Y-52000000D03*
%TO.P,J13,3,Pin_3*%
%TO.N,GND*%
X28700000Y-52000000D03*
%TD*%
D25*
%TO.P,U3,1,VO*%
%TO.N,+3V3*%
X82555000Y-44660000D03*
D26*
%TO.P,U3,2,VI*%
%TO.N,+5V*%
X82555000Y-47200000D03*
%TO.P,U3,3,ADJ*%
%TO.N,GND*%
X82555000Y-49740000D03*
%TD*%
D24*
%TO.P,U7,1,3V3*%
%TO.N,+3V3*%
X103200000Y-59780000D03*
%TO.P,U7,2,EN*%
%TO.N,Net-(U7-EN)*%
X100660000Y-59780000D03*
%TO.P,U7,3,IO14*%
%TO.N,unconnected-(U7-IO14-Pad3)*%
X98120000Y-59780000D03*
%TO.P,U7,4,IO12*%
%TO.N,Net-(D5-A)*%
X95580000Y-59780000D03*
%TO.P,U7,5,IO13*%
%TO.N,Net-(D4-A)*%
X93040000Y-59780000D03*
%TO.P,U7,6,IO15*%
%TO.N,Net-(U7-IO15)*%
X90500000Y-59780000D03*
%TO.P,U7,7,IO2*%
%TO.N,Net-(U7-IO2)*%
X87960000Y-59780000D03*
%TO.P,U7,8,IO0*%
%TO.N,Net-(SW2A-B)*%
X85420000Y-59780000D03*
%TO.P,U7,9,G*%
%TO.N,GND*%
X82880000Y-59780000D03*
%TO.P,U7,10,G*%
X103200000Y-67400000D03*
%TO.P,U7,11,IO16*%
%TO.N,unconnected-(U7-IO16-Pad11)*%
X100660000Y-67400000D03*
%TO.P,U7,12,TOUT*%
%TO.N,unconnected-(U7-TOUT-Pad12)*%
X98120000Y-67400000D03*
%TO.P,U7,13,RST*%
%TO.N,Net-(U7-RST)*%
X95580000Y-67400000D03*
%TO.P,U7,14,IO5*%
%TO.N,unconnected-(U7-IO5-Pad14)*%
X93040000Y-67400000D03*
%TO.P,U7,15,G*%
%TO.N,GND*%
X90500000Y-67400000D03*
%TO.P,U7,16,TXD*%
%TO.N,UART_1*%
X87960000Y-67400000D03*
%TO.P,U7,17,RXD*%
%TO.N,UART_2*%
X85420000Y-67400000D03*
%TO.P,U7,18,IO4*%
%TO.N,unconnected-(U7-IO4-Pad18)*%
X82880000Y-67400000D03*
%TD*%
D14*
%TO.P,J17,1,Pin_1*%
%TO.N,DC_DIR_5*%
X23300000Y-74400000D03*
D15*
%TO.P,J17,2,Pin_2*%
%TO.N,Net-(J17-Pin_2)*%
X25800000Y-74400000D03*
%TO.P,J17,3,Pin_3*%
%TO.N,GND*%
X28300000Y-74400000D03*
%TD*%
D27*
%TO.P,J6,1,Pin_1*%
%TO.N,24V_GND*%
X31300000Y-90200000D03*
D28*
%TO.P,J6,2,Pin_2*%
%TO.N,+24V*%
X36300000Y-90200000D03*
%TD*%
D29*
%TO.N,GND*%
X28800000Y-31300000D03*
X36000000Y-32800000D03*
X91500000Y-80400000D03*
X96600000Y-80400000D03*
X59200000Y-78400000D03*
X64500000Y-78400000D03*
X53700000Y-78300000D03*
X28700000Y-33400000D03*
X44200000Y-28800000D03*
X39600000Y-34000000D03*
X33500000Y-41900000D03*
X37300000Y-40100000D03*
X43700000Y-43200000D03*
X75900000Y-46600000D03*
X76800000Y-43100000D03*
X50000000Y-45400000D03*
X41400000Y-41100000D03*
X100800000Y-72000000D03*
X38400000Y-71900000D03*
X29100000Y-71200000D03*
X68500000Y-62700000D03*
X54000000Y-72100000D03*
X54800000Y-70100000D03*
X65000000Y-69800000D03*
X60700000Y-69800000D03*
X56900000Y-72500000D03*
X61000000Y-72200000D03*
X65300000Y-71800000D03*
X64900000Y-65200000D03*
X60200000Y-67800000D03*
X62800000Y-67000000D03*
X59500000Y-63800000D03*
X56100000Y-60300000D03*
X53500000Y-57700000D03*
X53400000Y-53200000D03*
X48800000Y-23700000D03*
X50500000Y-25300000D03*
X50400000Y-27900000D03*
X40300000Y-32100000D03*
X47600000Y-32000000D03*
X36100000Y-35300000D03*
X39000000Y-45300000D03*
X29300000Y-56200000D03*
X58500000Y-49600000D03*
X87200000Y-37600000D03*
X80800000Y-36700000D03*
X77800000Y-39200000D03*
X65100000Y-31600000D03*
X57400000Y-22200000D03*
X71500000Y-22400000D03*
X86200000Y-28700000D03*
X99500000Y-45700000D03*
X94600000Y-36700000D03*
X89300000Y-39300000D03*
X89200000Y-36900000D03*
X101900000Y-39400000D03*
X86900000Y-32500000D03*
X95800000Y-34800000D03*
X96100000Y-31200000D03*
X91200000Y-30500000D03*
X70900000Y-44800000D03*
X68100000Y-42300000D03*
X72100000Y-37700000D03*
X77300000Y-32900000D03*
X73900000Y-43600000D03*
X81300000Y-42100000D03*
X88200000Y-45500000D03*
X84000000Y-34300000D03*
X103800000Y-45700000D03*
X37600000Y-61200000D03*
X29300000Y-59100000D03*
X56400000Y-67000000D03*
X53500000Y-47200000D03*
X53400000Y-60400000D03*
X60000000Y-33600000D03*
X58100000Y-36900000D03*
X53900000Y-39200000D03*
X53500000Y-33700000D03*
X65100000Y-41500000D03*
X60500000Y-57100000D03*
X65200000Y-50400000D03*
X64600000Y-62300000D03*
X56700000Y-58100000D03*
X63400000Y-44500000D03*
X53300000Y-44300000D03*
X68500000Y-51600000D03*
X69900000Y-54400000D03*
X72400000Y-63100000D03*
X89400000Y-24600000D03*
X79500000Y-30900000D03*
X75800000Y-28200000D03*
X62600000Y-27300000D03*
X53600000Y-27700000D03*
X53700000Y-24300000D03*
X37200000Y-32400000D03*
X38600000Y-27300000D03*
X46400000Y-22800000D03*
X37100000Y-22400000D03*
X28300000Y-23500000D03*
X35500000Y-20900000D03*
X32100000Y-37300000D03*
X22500000Y-33200000D03*
X22500000Y-38900000D03*
X44100000Y-38550000D03*
X50000000Y-33700000D03*
X50100000Y-36900000D03*
X49900000Y-39400000D03*
X46900000Y-49700000D03*
X50308863Y-52125245D03*
X50600000Y-48100000D03*
X47600000Y-39400000D03*
X45100000Y-44400000D03*
X39200000Y-47500000D03*
X31400000Y-47400000D03*
X23400000Y-55200000D03*
X23800000Y-61000000D03*
X27900000Y-57600000D03*
X36900000Y-54300000D03*
X33900000Y-57500000D03*
X39600000Y-57000000D03*
X41000000Y-56000000D03*
X44600000Y-57600000D03*
X42500000Y-57100000D03*
X41200000Y-58600000D03*
X39900000Y-69600000D03*
X35500000Y-68600000D03*
X23500000Y-69200000D03*
X30200000Y-80700000D03*
X51000000Y-76100000D03*
X56400000Y-76200000D03*
X62000000Y-76300000D03*
X49900000Y-71900000D03*
X49900000Y-69900000D03*
X46100000Y-66350000D03*
X43100000Y-66300000D03*
X50000000Y-67700000D03*
X50150000Y-60180000D03*
X49900000Y-57400000D03*
X58700000Y-65500000D03*
X56400000Y-63500000D03*
X67100000Y-76100000D03*
X84400000Y-75100000D03*
X78500000Y-70900000D03*
X74800000Y-69500000D03*
X84200000Y-68500000D03*
X81400000Y-67900000D03*
X96900000Y-68600000D03*
X85400000Y-63800000D03*
X97200000Y-62300000D03*
X103900000Y-61300000D03*
X84300000Y-51400000D03*
X85700000Y-53900000D03*
X87700000Y-51400000D03*
X91800000Y-55400000D03*
X85100000Y-58100000D03*
X76100000Y-53000000D03*
X79500000Y-58900000D03*
X77700000Y-47400000D03*
X74200000Y-50700000D03*
X74400000Y-60500000D03*
X76800000Y-67000000D03*
X79400000Y-63000000D03*
X74400000Y-64900000D03*
X69100000Y-66800000D03*
X53300000Y-31700000D03*
X65200000Y-38900000D03*
X79700000Y-35500000D03*
X79400000Y-26700000D03*
X82400000Y-26600000D03*
X87400000Y-21600000D03*
X93300000Y-22200000D03*
X96100000Y-23000000D03*
X81000000Y-20800000D03*
X76000000Y-22400000D03*
X88200000Y-80600000D03*
X76700000Y-80700000D03*
X74200000Y-80700000D03*
X39800000Y-80600000D03*
X20800000Y-80700000D03*
X103900000Y-80700000D03*
X103900000Y-20800000D03*
X20800000Y-20800000D03*
%TO.N,+5V*%
X84900000Y-45300000D03*
X81800000Y-37600000D03*
%TO.N,+3V3*%
X73300000Y-63600000D03*
X73300000Y-70100000D03*
%TO.N,Net-(J8-Pin_1)*%
X82300000Y-84400000D03*
%TO.N,denji_4*%
X57700000Y-64300000D03*
%TO.N,GND*%
X89800000Y-55000000D03*
%TO.N,EMS*%
X38400000Y-33900000D03*
%TO.N,denji_3*%
X58400000Y-67100000D03*
%TD*%
D30*
%TO.N,GND*%
X27589000Y-32572000D02*
X27872000Y-32572000D01*
X27872000Y-32572000D02*
X28700000Y-33400000D01*
X27589000Y-32572000D02*
X27589000Y-32511000D01*
X27589000Y-32511000D02*
X28800000Y-31300000D01*
X91500000Y-80400000D02*
X91500000Y-78000000D01*
X96600000Y-80400000D02*
X96500000Y-80300000D01*
X96500000Y-80300000D02*
X96500000Y-78000000D01*
%TO.N,other_3*%
X43722000Y-40322000D02*
X40720000Y-37320000D01*
X40720000Y-37320000D02*
X39900000Y-37320000D01*
%TO.N,other_2*%
X67862000Y-48358000D02*
X67862000Y-46440105D01*
X45726529Y-43278000D02*
X42308529Y-39860000D01*
X67862000Y-46440105D02*
X67239895Y-45818000D01*
X67239895Y-45818000D02*
X66360105Y-45818000D01*
X66800000Y-49420000D02*
X67862000Y-48358000D01*
X66360105Y-45818000D02*
X63820105Y-43278000D01*
X63820105Y-43278000D02*
X45726529Y-43278000D01*
X42308529Y-39860000D02*
X39900000Y-39860000D01*
%TO.N,other_1*%
X51560000Y-46880000D02*
X44380000Y-46880000D01*
X44380000Y-46880000D02*
X39900000Y-42400000D01*
%TO.N,Net-(J4-Pin_3)*%
X81600000Y-23600000D02*
X82700000Y-23600000D01*
X82700000Y-23600000D02*
X83000000Y-23600000D01*
X82840000Y-23760000D02*
X82840000Y-23740000D01*
X82840000Y-23740000D02*
X82700000Y-23600000D01*
X83000000Y-23600000D02*
X89900000Y-23600000D01*
X82840000Y-23760000D02*
X82840000Y-25100000D01*
X83000000Y-23600000D02*
X82840000Y-23760000D01*
D31*
%TO.N,+3V3*%
X82555000Y-39775000D02*
X79590000Y-36810000D01*
X79590000Y-36810000D02*
X66800000Y-24020000D01*
D30*
X92285000Y-31600000D02*
X84800000Y-31600000D01*
X84800000Y-31600000D02*
X79590000Y-36810000D01*
X32415000Y-40700000D02*
X37457000Y-35658000D01*
X37457000Y-35658000D02*
X37457000Y-33994471D01*
X65680000Y-22900000D02*
X66800000Y-24020000D01*
X37457000Y-33994471D02*
X48551471Y-22900000D01*
X48551471Y-22900000D02*
X65680000Y-22900000D01*
%TO.N,other_3*%
X66800000Y-44340000D02*
X62782000Y-40322000D01*
X62782000Y-40322000D02*
X43722000Y-40322000D01*
%TO.N,+5V*%
X84900000Y-40700000D02*
X84900000Y-45300000D01*
X81800000Y-37600000D02*
X84900000Y-40700000D01*
%TO.N,+3V3*%
X52060000Y-67700000D02*
X51560000Y-67200000D01*
D31*
X82555000Y-44660000D02*
X94965000Y-57070000D01*
D30*
X62880000Y-63598000D02*
X58778000Y-67700000D01*
X67239895Y-63598000D02*
X62880000Y-63598000D01*
X73300000Y-70100000D02*
X73300000Y-69658105D01*
D31*
X94965000Y-57070000D02*
X100490000Y-57070000D01*
D30*
X58778000Y-67700000D02*
X52060000Y-67700000D01*
D31*
X82555000Y-44660000D02*
X82555000Y-39775000D01*
X100490000Y-57070000D02*
X103200000Y-59780000D01*
D30*
X73300000Y-69658105D02*
X67239895Y-63598000D01*
X73300000Y-70100000D02*
X73300000Y-63600000D01*
%TO.N,Net-(J4-Pin_3)*%
X74600000Y-23600000D02*
X81200000Y-23600000D01*
X36600000Y-21300000D02*
X72300000Y-21300000D01*
X25414907Y-38668000D02*
X24812500Y-38065593D01*
X81400000Y-23600000D02*
X81400000Y-23800000D01*
X24812500Y-33087500D02*
X36600000Y-21300000D01*
X97111000Y-30811000D02*
X97111000Y-33632000D01*
X27589000Y-38668000D02*
X25414907Y-38668000D01*
X24812500Y-38065593D02*
X24812500Y-33087500D01*
X81600000Y-23600000D02*
X81400000Y-23800000D01*
X89900000Y-23600000D02*
X97111000Y-30811000D01*
X72300000Y-21300000D02*
X74600000Y-23600000D01*
X81200000Y-23600000D02*
X81400000Y-23800000D01*
X81200000Y-23600000D02*
X81400000Y-23600000D01*
X81400000Y-23600000D02*
X81600000Y-23600000D01*
%TO.N,Net-(J7-Pin_1)*%
X89000000Y-78000000D02*
X71900000Y-60900000D01*
X71900000Y-44360000D02*
X66800000Y-39260000D01*
X71900000Y-60900000D02*
X71900000Y-44360000D01*
%TO.N,Net-(J7-Pin_3)*%
X92167157Y-76167157D02*
X87732843Y-76167157D01*
X87732843Y-76167157D02*
X87732843Y-76132843D01*
X72300000Y-60700000D02*
X72300000Y-42220000D01*
X87732843Y-76132843D02*
X72300000Y-60700000D01*
X94000000Y-78000000D02*
X92167157Y-76167157D01*
X72300000Y-42220000D02*
X66800000Y-36720000D01*
%TO.N,Net-(J7-Pin_5)*%
X87865686Y-75700000D02*
X96700000Y-75700000D01*
X72732843Y-60567157D02*
X87865686Y-75700000D01*
X66800000Y-34180000D02*
X72732843Y-40112843D01*
X72732843Y-40112843D02*
X72732843Y-60567157D01*
X96700000Y-75700000D02*
X99000000Y-78000000D01*
%TO.N,DC_DIR_1*%
X23700000Y-52000000D02*
X31280000Y-59580000D01*
X31280000Y-59580000D02*
X51560000Y-59580000D01*
%TO.N,DC_DIR_2*%
X51999895Y-58518000D02*
X52700000Y-59218105D01*
X42518000Y-58518000D02*
X51999895Y-58518000D01*
X36000000Y-52000000D02*
X42518000Y-58518000D01*
X52700000Y-60980000D02*
X51560000Y-62120000D01*
X52700000Y-59218105D02*
X52700000Y-60980000D01*
%TO.N,DC_DIR_3*%
X23700000Y-63000000D02*
X31700000Y-71000000D01*
X65520000Y-71000000D02*
X66800000Y-72280000D01*
X31700000Y-71000000D02*
X65520000Y-71000000D01*
%TO.N,DC_DIR_4*%
X41578000Y-68678000D02*
X65738000Y-68678000D01*
X36100000Y-63200000D02*
X41578000Y-68678000D01*
X65738000Y-68678000D02*
X66800000Y-69740000D01*
%TO.N,DC_DIR_5*%
X67862000Y-72838000D02*
X67862000Y-68262000D01*
X50689053Y-72910948D02*
X51120105Y-73342000D01*
X51120105Y-73342000D02*
X67358000Y-73342000D01*
X23300000Y-74400000D02*
X24789052Y-72910948D01*
X67862000Y-68262000D02*
X66800000Y-67200000D01*
X24789052Y-72910948D02*
X50689053Y-72910948D01*
X67358000Y-73342000D02*
X67862000Y-72838000D01*
%TO.N,DC_DIR_6*%
X68262000Y-66122000D02*
X66800000Y-64660000D01*
X68262000Y-73238000D02*
X68262000Y-66122000D01*
X50625000Y-73425000D02*
X50942000Y-73742000D01*
X37475000Y-73425000D02*
X50625000Y-73425000D01*
X36200000Y-74700000D02*
X37475000Y-73425000D01*
X67758000Y-73742000D02*
X68262000Y-73238000D01*
X50942000Y-73742000D02*
X67758000Y-73742000D01*
D31*
%TO.N,Net-(J8-Pin_1)*%
X82300000Y-89000000D02*
X80400000Y-90900000D01*
D32*
X89000000Y-90900000D02*
X89600000Y-90300000D01*
X80400000Y-90900000D02*
X89000000Y-90900000D01*
D31*
X82300000Y-84400000D02*
X82300000Y-89000000D01*
D30*
%TO.N,denji_4*%
X57700000Y-64300000D02*
X57700000Y-55980000D01*
X57700000Y-55980000D02*
X66800000Y-46880000D01*
D31*
%TO.N,GND*%
X97300000Y-47480000D02*
X101500000Y-47480000D01*
X92400000Y-51700000D02*
X96620000Y-47480000D01*
X97300000Y-56120000D02*
X101500000Y-56120000D01*
X96620000Y-47480000D02*
X97300000Y-47480000D01*
D30*
%TO.N,EMS*%
X39598000Y-32702000D02*
X38400000Y-33900000D01*
X66800000Y-31640000D02*
X65738000Y-32702000D01*
X65738000Y-32702000D02*
X39598000Y-32702000D01*
%TO.N,denji_3*%
X54900000Y-47500000D02*
X54720000Y-47500000D01*
X58400000Y-67100000D02*
X54900000Y-63600000D01*
X54900000Y-63600000D02*
X54900000Y-47500000D01*
X54720000Y-47500000D02*
X51560000Y-44340000D01*
%TD*%
%TA.AperFunction,Conductor*%
%TO.N,GND*%
G36*
X36391091Y-20520185D02*
G01*
X36436846Y-20572989D01*
X36446790Y-20642147D01*
X36417765Y-20705703D01*
X36375252Y-20736357D01*
X36375254Y-20736359D01*
X36375236Y-20736368D01*
X36371502Y-20739062D01*
X36368211Y-20740424D01*
X36231290Y-20819475D01*
X36231282Y-20819481D01*
X36119478Y-20931286D01*
X28373631Y-28677132D01*
X28312308Y-28710617D01*
X28242616Y-28705633D01*
X28186683Y-28663761D01*
X28162266Y-28598297D01*
X28171389Y-28541998D01*
X28194723Y-28485664D01*
X28252294Y-28245862D01*
X28271644Y-28000000D01*
X28252294Y-27754137D01*
X28194723Y-27514335D01*
X28100346Y-27286487D01*
X27973711Y-27079839D01*
X27425643Y-27627908D01*
X27420294Y-27614995D01*
X27331343Y-27481870D01*
X27218130Y-27368657D01*
X27085005Y-27279706D01*
X27072089Y-27274356D01*
X27620159Y-26726287D01*
X27413512Y-26599653D01*
X27185664Y-26505276D01*
X26945862Y-26447705D01*
X26700000Y-26428355D01*
X26454137Y-26447705D01*
X26214335Y-26505276D01*
X25986495Y-26599650D01*
X25986490Y-26599653D01*
X25779839Y-26726287D01*
X26327909Y-27274356D01*
X26314995Y-27279706D01*
X26181870Y-27368657D01*
X26068657Y-27481870D01*
X25979706Y-27614995D01*
X25974356Y-27627909D01*
X25426287Y-27079839D01*
X25299653Y-27286490D01*
X25299650Y-27286495D01*
X25205276Y-27514335D01*
X25147705Y-27754137D01*
X25128355Y-28000000D01*
X25147705Y-28245862D01*
X25205276Y-28485664D01*
X25299653Y-28713512D01*
X25426287Y-28920159D01*
X25974356Y-28372089D01*
X25979706Y-28385005D01*
X26068657Y-28518130D01*
X26181870Y-28631343D01*
X26314995Y-28720294D01*
X26327908Y-28725643D01*
X25779839Y-29273711D01*
X25986487Y-29400346D01*
X26214335Y-29494723D01*
X26454137Y-29552294D01*
X26700000Y-29571644D01*
X26945862Y-29552294D01*
X27185664Y-29494723D01*
X27241998Y-29471389D01*
X27311467Y-29463920D01*
X27373946Y-29495195D01*
X27409599Y-29555283D01*
X27407106Y-29625109D01*
X27377132Y-29673631D01*
X24443786Y-32606978D01*
X24331981Y-32718782D01*
X24331979Y-32718784D01*
X24321155Y-32737534D01*
X24311071Y-32755000D01*
X24285668Y-32799000D01*
X24256055Y-32850291D01*
X24252923Y-32855715D01*
X24211999Y-33008443D01*
X24211999Y-33008445D01*
X24211999Y-33176546D01*
X24212000Y-33176559D01*
X24212000Y-37978923D01*
X24211999Y-37978941D01*
X24211999Y-38144647D01*
X24211998Y-38144647D01*
X24250724Y-38289174D01*
X24252923Y-38297378D01*
X24281011Y-38346027D01*
X24331979Y-38434307D01*
X24331981Y-38434310D01*
X24450849Y-38553178D01*
X24450855Y-38553183D01*
X24780001Y-38882329D01*
X24813486Y-38943652D01*
X24808502Y-39013344D01*
X24791277Y-39044733D01*
X24787223Y-39050101D01*
X24688180Y-39249005D01*
X24688174Y-39249020D01*
X24627366Y-39462738D01*
X24627365Y-39462740D01*
X24606863Y-39683999D01*
X24606863Y-39684000D01*
X24627365Y-39905259D01*
X24627366Y-39905261D01*
X24688174Y-40118979D01*
X24688180Y-40118994D01*
X24787222Y-40317896D01*
X24921133Y-40495224D01*
X25085344Y-40644921D01*
X25085346Y-40644923D01*
X25274266Y-40761897D01*
X25274272Y-40761900D01*
X25303206Y-40773109D01*
X25481472Y-40842170D01*
X25699896Y-40883000D01*
X25699899Y-40883000D01*
X25922101Y-40883000D01*
X25922104Y-40883000D01*
X26140528Y-40842170D01*
X26347730Y-40761899D01*
X26536655Y-40644922D01*
X26676200Y-40517709D01*
X26700866Y-40495224D01*
X26712621Y-40479658D01*
X26834778Y-40317896D01*
X26933824Y-40118984D01*
X26994634Y-39905260D01*
X26995735Y-39893370D01*
X27021517Y-39828436D01*
X27078316Y-39787746D01*
X27148097Y-39784223D01*
X27163990Y-39789180D01*
X27259472Y-39826170D01*
X27477896Y-39867000D01*
X27477899Y-39867000D01*
X27700101Y-39867000D01*
X27700104Y-39867000D01*
X27918528Y-39826170D01*
X28125730Y-39745899D01*
X28314655Y-39628922D01*
X28478868Y-39479222D01*
X28612778Y-39301896D01*
X28711824Y-39102984D01*
X28772634Y-38889260D01*
X28793137Y-38668000D01*
X28792110Y-38656922D01*
X28772634Y-38446740D01*
X28772633Y-38446738D01*
X28770451Y-38439070D01*
X28711824Y-38233016D01*
X28704285Y-38217876D01*
X28643847Y-38096500D01*
X28612778Y-38034104D01*
X28524541Y-37917259D01*
X28478866Y-37856775D01*
X28354758Y-37743637D01*
X28318476Y-37683926D01*
X28320237Y-37614079D01*
X28354758Y-37560363D01*
X28398879Y-37520142D01*
X28478868Y-37447222D01*
X28612778Y-37269896D01*
X28711824Y-37070984D01*
X28772634Y-36857260D01*
X28793137Y-36636000D01*
X28792110Y-36624922D01*
X28772634Y-36414740D01*
X28772633Y-36414738D01*
X28736160Y-36286550D01*
X28711824Y-36201016D01*
X28692443Y-36162094D01*
X28634687Y-36046103D01*
X28612778Y-36002104D01*
X28512093Y-35868775D01*
X28478866Y-35824775D01*
X28377761Y-35732607D01*
X28354757Y-35711636D01*
X28318476Y-35651926D01*
X28320237Y-35582079D01*
X28354758Y-35528363D01*
X28361925Y-35521830D01*
X28448684Y-35442738D01*
X28478866Y-35415224D01*
X28483367Y-35409264D01*
X28612778Y-35237896D01*
X28711824Y-35038984D01*
X28772634Y-34825260D01*
X28793137Y-34604000D01*
X28792110Y-34592922D01*
X28772634Y-34382740D01*
X28772633Y-34382738D01*
X28770451Y-34375070D01*
X28711824Y-34169016D01*
X28612778Y-33970104D01*
X28478868Y-33792778D01*
X28478866Y-33792775D01*
X28314655Y-33643078D01*
X28314654Y-33643077D01*
X28305534Y-33637430D01*
X28283132Y-33619685D01*
X27673094Y-33009647D01*
X27760571Y-32986208D01*
X27861930Y-32927689D01*
X27944689Y-32844930D01*
X28003208Y-32743571D01*
X28026647Y-32656094D01*
X28596788Y-33226235D01*
X28596789Y-33226235D01*
X28612349Y-33205632D01*
X28612350Y-33205629D01*
X28711350Y-33006813D01*
X28711356Y-33006798D01*
X28772139Y-32793168D01*
X28772140Y-32793166D01*
X28792634Y-32572000D01*
X28792634Y-32571999D01*
X28772140Y-32350833D01*
X28772139Y-32350831D01*
X28711356Y-32137201D01*
X28711350Y-32137186D01*
X28612351Y-31938370D01*
X28612349Y-31938367D01*
X28596788Y-31917762D01*
X28026647Y-32487904D01*
X28003208Y-32400429D01*
X27944689Y-32299070D01*
X27861930Y-32216311D01*
X27760571Y-32157792D01*
X27673093Y-32134352D01*
X28241237Y-31566208D01*
X28241236Y-31566207D01*
X28125509Y-31494552D01*
X28125503Y-31494549D01*
X27918392Y-31414315D01*
X27700055Y-31373500D01*
X27675096Y-31373500D01*
X27608057Y-31353815D01*
X27562302Y-31301011D01*
X27552358Y-31231853D01*
X27581383Y-31168297D01*
X27587401Y-31161833D01*
X29479235Y-29269999D01*
X31210863Y-29269999D01*
X31210863Y-29270000D01*
X31231365Y-29491259D01*
X31231366Y-29491261D01*
X31292174Y-29704979D01*
X31292180Y-29704994D01*
X31391222Y-29903896D01*
X31525133Y-30081224D01*
X31643133Y-30188794D01*
X31689345Y-30230922D01*
X31804358Y-30302135D01*
X31813141Y-30307573D01*
X31859776Y-30359601D01*
X31870880Y-30428583D01*
X31842927Y-30492617D01*
X31813141Y-30518427D01*
X31689343Y-30595079D01*
X31525133Y-30744775D01*
X31391222Y-30922103D01*
X31292180Y-31121005D01*
X31292174Y-31121020D01*
X31231366Y-31334738D01*
X31231365Y-31334740D01*
X31210863Y-31555999D01*
X31210863Y-31556000D01*
X31231365Y-31777259D01*
X31231366Y-31777261D01*
X31292174Y-31990979D01*
X31292180Y-31990994D01*
X31391222Y-32189896D01*
X31525133Y-32367224D01*
X31689344Y-32516921D01*
X31689346Y-32516923D01*
X31878266Y-32633897D01*
X31878272Y-32633900D01*
X31907206Y-32645109D01*
X32085472Y-32714170D01*
X32303896Y-32755000D01*
X32303899Y-32755000D01*
X32526101Y-32755000D01*
X32526104Y-32755000D01*
X32744528Y-32714170D01*
X32951730Y-32633899D01*
X33140655Y-32516922D01*
X33304868Y-32367222D01*
X33438778Y-32189896D01*
X33537824Y-31990984D01*
X33598634Y-31777260D01*
X33619137Y-31556000D01*
X33617478Y-31538102D01*
X33598634Y-31334740D01*
X33598633Y-31334738D01*
X33570412Y-31235553D01*
X33537824Y-31121016D01*
X33537059Y-31119480D01*
X33460687Y-30966103D01*
X33438778Y-30922104D01*
X33304868Y-30744778D01*
X33304866Y-30744775D01*
X33140655Y-30595078D01*
X33140653Y-30595076D01*
X33016859Y-30518427D01*
X32970223Y-30466399D01*
X32959119Y-30397418D01*
X32987072Y-30333383D01*
X33016859Y-30307573D01*
X33069594Y-30274921D01*
X33140655Y-30230922D01*
X33304868Y-30081222D01*
X33438778Y-29903896D01*
X33537824Y-29704984D01*
X33598634Y-29491260D01*
X33619137Y-29270000D01*
X33598634Y-29048740D01*
X33537824Y-28835016D01*
X33438778Y-28636104D01*
X33364951Y-28538341D01*
X33304866Y-28458775D01*
X33140655Y-28309078D01*
X33140653Y-28309076D01*
X32951733Y-28192102D01*
X32951727Y-28192099D01*
X32844080Y-28150397D01*
X32744528Y-28111830D01*
X32526104Y-28071000D01*
X32303896Y-28071000D01*
X32085472Y-28111830D01*
X32040713Y-28129170D01*
X31878272Y-28192099D01*
X31878266Y-28192102D01*
X31689346Y-28309076D01*
X31689344Y-28309078D01*
X31525133Y-28458775D01*
X31391222Y-28636103D01*
X31292180Y-28835005D01*
X31292174Y-28835020D01*
X31231366Y-29048738D01*
X31231365Y-29048740D01*
X31210863Y-29269999D01*
X29479235Y-29269999D01*
X36812416Y-21936819D01*
X36873739Y-21903334D01*
X36900097Y-21900500D01*
X71999903Y-21900500D01*
X72066942Y-21920185D01*
X72087584Y-21936819D01*
X74115139Y-23964374D01*
X74115149Y-23964385D01*
X74119479Y-23968715D01*
X74119480Y-23968716D01*
X74231284Y-24080520D01*
X74314763Y-24128716D01*
X74354715Y-24151783D01*
X74368215Y-24159577D01*
X74520942Y-24200500D01*
X74520943Y-24200500D01*
X76285500Y-24200500D01*
X76352539Y-24220185D01*
X76398294Y-24272989D01*
X76409500Y-24324500D01*
X76409500Y-25997870D01*
X76409501Y-25997876D01*
X76415908Y-26057483D01*
X76466202Y-26192328D01*
X76466206Y-26192335D01*
X76552452Y-26307544D01*
X76552455Y-26307547D01*
X76667664Y-26393793D01*
X76667671Y-26393797D01*
X76802517Y-26444091D01*
X76802516Y-26444091D01*
X76809444Y-26444835D01*
X76862127Y-26450500D01*
X78657872Y-26450499D01*
X78717483Y-26444091D01*
X78852331Y-26393796D01*
X78967546Y-26307546D01*
X79053796Y-26192331D01*
X79102810Y-26060916D01*
X79144681Y-26004984D01*
X79210145Y-25980566D01*
X79278418Y-25995417D01*
X79306673Y-26016569D01*
X79428599Y-26138495D01*
X79516309Y-26199910D01*
X79622165Y-26274032D01*
X79622167Y-26274033D01*
X79622170Y-26274035D01*
X79836337Y-26373903D01*
X80064592Y-26435063D01*
X80241034Y-26450500D01*
X80299999Y-26455659D01*
X80300000Y-26455659D01*
X80300001Y-26455659D01*
X80358966Y-26450500D01*
X80535408Y-26435063D01*
X80763663Y-26373903D01*
X80977830Y-26274035D01*
X81171401Y-26138495D01*
X81338495Y-25971401D01*
X81468425Y-25785842D01*
X81523002Y-25742217D01*
X81592500Y-25735023D01*
X81654855Y-25766546D01*
X81671575Y-25785842D01*
X81801500Y-25971395D01*
X81801505Y-25971401D01*
X81968599Y-26138495D01*
X82056309Y-26199910D01*
X82162165Y-26274032D01*
X82162167Y-26274033D01*
X82162170Y-26274035D01*
X82376337Y-26373903D01*
X82604592Y-26435063D01*
X82781034Y-26450500D01*
X82839999Y-26455659D01*
X82840000Y-26455659D01*
X82840001Y-26455659D01*
X82898966Y-26450500D01*
X83075408Y-26435063D01*
X83303663Y-26373903D01*
X83517830Y-26274035D01*
X83711401Y-26138495D01*
X83878495Y-25971401D01*
X84014035Y-25777830D01*
X84113903Y-25563663D01*
X84175063Y-25335408D01*
X84195659Y-25100000D01*
X84175063Y-24864592D01*
X84113903Y-24636337D01*
X84014035Y-24422171D01*
X83995445Y-24395622D01*
X83973119Y-24329418D01*
X83990129Y-24261650D01*
X84041077Y-24213837D01*
X84097021Y-24200500D01*
X89599903Y-24200500D01*
X89666942Y-24220185D01*
X89687584Y-24236819D01*
X96474181Y-31023416D01*
X96507666Y-31084739D01*
X96510500Y-31111097D01*
X96510500Y-32524517D01*
X96490815Y-32591556D01*
X96451778Y-32629944D01*
X96385343Y-32671079D01*
X96221133Y-32820775D01*
X96087222Y-32998103D01*
X95988180Y-33197005D01*
X95988174Y-33197020D01*
X95927366Y-33410738D01*
X95927365Y-33410740D01*
X95906863Y-33631999D01*
X95906863Y-33632000D01*
X95927365Y-33853259D01*
X95927366Y-33853261D01*
X95988174Y-34066979D01*
X95988180Y-34066994D01*
X96087222Y-34265896D01*
X96221133Y-34443224D01*
X96345241Y-34556363D01*
X96381523Y-34616074D01*
X96379762Y-34685922D01*
X96345241Y-34739637D01*
X96221133Y-34852775D01*
X96087222Y-35030103D01*
X95988180Y-35229005D01*
X95988174Y-35229020D01*
X95927366Y-35442738D01*
X95927365Y-35442740D01*
X95906863Y-35663999D01*
X95906863Y-35664000D01*
X95927365Y-35885259D01*
X95927366Y-35885261D01*
X95988174Y-36098979D01*
X95988180Y-36098994D01*
X96087222Y-36297896D01*
X96221133Y-36475224D01*
X96345241Y-36588363D01*
X96381523Y-36648074D01*
X96379762Y-36717922D01*
X96345241Y-36771637D01*
X96221133Y-36884775D01*
X96087222Y-37062103D01*
X95988180Y-37261005D01*
X95988174Y-37261020D01*
X95927366Y-37474738D01*
X95927365Y-37474740D01*
X95906863Y-37695999D01*
X95906863Y-37696000D01*
X95927365Y-37917259D01*
X95927366Y-37917261D01*
X95988174Y-38130979D01*
X95988180Y-38130994D01*
X96087222Y-38329896D01*
X96221133Y-38507224D01*
X96385344Y-38656921D01*
X96385346Y-38656923D01*
X96394463Y-38662568D01*
X96416867Y-38680314D01*
X97026906Y-39290352D01*
X96939429Y-39313792D01*
X96838070Y-39372311D01*
X96755311Y-39455070D01*
X96696792Y-39556429D01*
X96673352Y-39643905D01*
X96103210Y-39073762D01*
X96087651Y-39094367D01*
X96087646Y-39094374D01*
X95988649Y-39293186D01*
X95988643Y-39293201D01*
X95927860Y-39506831D01*
X95927859Y-39506833D01*
X95907366Y-39727999D01*
X95907366Y-39728000D01*
X95927859Y-39949166D01*
X95927860Y-39949168D01*
X95988643Y-40162798D01*
X95988649Y-40162813D01*
X96087646Y-40361626D01*
X96087651Y-40361634D01*
X96103209Y-40382235D01*
X96673352Y-39812093D01*
X96696792Y-39899571D01*
X96755311Y-40000930D01*
X96838070Y-40083689D01*
X96939429Y-40142208D01*
X97026905Y-40165647D01*
X96458761Y-40733790D01*
X96458762Y-40733791D01*
X96574490Y-40805447D01*
X96574496Y-40805450D01*
X96781607Y-40885684D01*
X96999945Y-40926500D01*
X97222055Y-40926500D01*
X97440392Y-40885684D01*
X97647505Y-40805449D01*
X97647506Y-40805448D01*
X97763237Y-40733790D01*
X97195095Y-40165647D01*
X97282571Y-40142208D01*
X97383930Y-40083689D01*
X97466689Y-40000930D01*
X97525208Y-39899571D01*
X97548647Y-39812093D01*
X98118788Y-40382235D01*
X98118789Y-40382235D01*
X98134349Y-40361632D01*
X98134350Y-40361629D01*
X98233350Y-40162813D01*
X98233356Y-40162798D01*
X98294139Y-39949168D01*
X98294140Y-39949164D01*
X98295298Y-39936667D01*
X98321081Y-39871729D01*
X98377880Y-39831039D01*
X98447661Y-39827517D01*
X98463563Y-39832477D01*
X98559607Y-39869684D01*
X98777945Y-39910500D01*
X99000055Y-39910500D01*
X99218392Y-39869684D01*
X99425505Y-39789449D01*
X99425506Y-39789448D01*
X99541237Y-39717790D01*
X98973094Y-39149647D01*
X99060571Y-39126208D01*
X99161930Y-39067689D01*
X99244689Y-38984930D01*
X99303208Y-38883571D01*
X99326647Y-38796094D01*
X99896788Y-39366235D01*
X99896789Y-39366235D01*
X99912349Y-39345632D01*
X99912350Y-39345629D01*
X100011350Y-39146813D01*
X100011356Y-39146798D01*
X100072139Y-38933168D01*
X100072140Y-38933166D01*
X100092634Y-38712000D01*
X100092634Y-38711999D01*
X100072140Y-38490833D01*
X100072139Y-38490831D01*
X100011356Y-38277201D01*
X100011350Y-38277186D01*
X99912351Y-38078370D01*
X99912349Y-38078367D01*
X99896788Y-38057762D01*
X99326647Y-38627904D01*
X99303208Y-38540429D01*
X99244689Y-38439070D01*
X99161930Y-38356311D01*
X99060571Y-38297792D01*
X98973091Y-38274352D01*
X99583129Y-37664315D01*
X99605532Y-37646570D01*
X99614655Y-37640922D01*
X99778868Y-37491222D01*
X99912778Y-37313896D01*
X100011824Y-37114984D01*
X100072634Y-36901260D01*
X100093137Y-36680000D01*
X100092469Y-36672796D01*
X100072634Y-36458740D01*
X100072633Y-36458738D01*
X100062216Y-36422127D01*
X100011824Y-36245016D01*
X100003187Y-36227671D01*
X99939109Y-36098984D01*
X99912778Y-36046104D01*
X99806509Y-35905381D01*
X99778866Y-35868775D01*
X99614655Y-35719078D01*
X99614654Y-35719077D01*
X99605534Y-35713430D01*
X99583132Y-35695685D01*
X98973094Y-35085647D01*
X99060571Y-35062208D01*
X99161930Y-35003689D01*
X99244689Y-34920930D01*
X99303208Y-34819571D01*
X99326647Y-34732094D01*
X99896788Y-35302235D01*
X99896789Y-35302235D01*
X99912349Y-35281632D01*
X99912350Y-35281629D01*
X100011350Y-35082813D01*
X100011356Y-35082798D01*
X100072139Y-34869168D01*
X100072140Y-34869166D01*
X100092634Y-34648000D01*
X100092634Y-34647999D01*
X100072140Y-34426833D01*
X100072139Y-34426831D01*
X100011356Y-34213201D01*
X100011350Y-34213186D01*
X99912351Y-34014370D01*
X99912349Y-34014367D01*
X99896788Y-33993762D01*
X99326647Y-34563904D01*
X99303208Y-34476429D01*
X99244689Y-34375070D01*
X99161930Y-34292311D01*
X99060571Y-34233792D01*
X98973091Y-34210352D01*
X99583129Y-33600315D01*
X99605532Y-33582570D01*
X99614655Y-33576922D01*
X99760302Y-33444147D01*
X99778866Y-33427224D01*
X99787018Y-33416429D01*
X99912778Y-33249896D01*
X100011824Y-33050984D01*
X100072634Y-32837260D01*
X100093137Y-32616000D01*
X100072634Y-32394740D01*
X100011824Y-32181016D01*
X99989999Y-32137186D01*
X99954142Y-32065175D01*
X99912778Y-31982104D01*
X99820625Y-31860073D01*
X99778866Y-31804775D01*
X99614655Y-31655078D01*
X99614653Y-31655076D01*
X99425733Y-31538102D01*
X99425727Y-31538099D01*
X99313310Y-31494549D01*
X99218528Y-31457830D01*
X99000104Y-31417000D01*
X98777896Y-31417000D01*
X98559472Y-31457830D01*
X98509695Y-31477113D01*
X98352272Y-31538099D01*
X98352266Y-31538102D01*
X98163346Y-31655076D01*
X98163344Y-31655078D01*
X97999133Y-31804776D01*
X97934454Y-31890425D01*
X97878345Y-31932061D01*
X97808633Y-31936752D01*
X97747451Y-31903010D01*
X97714224Y-31841547D01*
X97711500Y-31815698D01*
X97711500Y-30900059D01*
X97711501Y-30900046D01*
X97711501Y-30731945D01*
X97711501Y-30731943D01*
X97670577Y-30579215D01*
X97637602Y-30522101D01*
X97591520Y-30442284D01*
X97479716Y-30330480D01*
X97479715Y-30330479D01*
X97475385Y-30326149D01*
X97475374Y-30326139D01*
X96848261Y-29699026D01*
X99552900Y-29699026D01*
X99552900Y-29944973D01*
X99585000Y-30188791D01*
X99648654Y-30426350D01*
X99742765Y-30653554D01*
X99742767Y-30653558D01*
X99865733Y-30866541D01*
X99865736Y-30866546D01*
X99865738Y-30866548D01*
X100015445Y-31061651D01*
X100015451Y-31061658D01*
X100189341Y-31235548D01*
X100189348Y-31235554D01*
X100327109Y-31341261D01*
X100384459Y-31385267D01*
X100597442Y-31508233D01*
X100824654Y-31602347D01*
X101062206Y-31665999D01*
X101306034Y-31698100D01*
X101306041Y-31698100D01*
X101551959Y-31698100D01*
X101551966Y-31698100D01*
X101795794Y-31665999D01*
X102033346Y-31602347D01*
X102260558Y-31508233D01*
X102473541Y-31385267D01*
X102668653Y-31235553D01*
X102842553Y-31061653D01*
X102992267Y-30866541D01*
X103115233Y-30653558D01*
X103209347Y-30426346D01*
X103272999Y-30188794D01*
X103305100Y-29944966D01*
X103305100Y-29699034D01*
X103272999Y-29455206D01*
X103209347Y-29217654D01*
X103115233Y-28990442D01*
X102992267Y-28777459D01*
X102917564Y-28680104D01*
X102842554Y-28582348D01*
X102842548Y-28582341D01*
X102668658Y-28408451D01*
X102668651Y-28408445D01*
X102473548Y-28258738D01*
X102473546Y-28258736D01*
X102473541Y-28258733D01*
X102260558Y-28135767D01*
X102260554Y-28135765D01*
X102033350Y-28041654D01*
X101795791Y-27978000D01*
X101551973Y-27945900D01*
X101551966Y-27945900D01*
X101306034Y-27945900D01*
X101306026Y-27945900D01*
X101062208Y-27978000D01*
X100824649Y-28041654D01*
X100597445Y-28135765D01*
X100597441Y-28135767D01*
X100499872Y-28192099D01*
X100384459Y-28258733D01*
X100384456Y-28258734D01*
X100384451Y-28258738D01*
X100189348Y-28408445D01*
X100189341Y-28408451D01*
X100015451Y-28582341D01*
X100015445Y-28582348D01*
X99865738Y-28777451D01*
X99865734Y-28777456D01*
X99865733Y-28777459D01*
X99832500Y-28835020D01*
X99742767Y-28990441D01*
X99742765Y-28990445D01*
X99648654Y-29217649D01*
X99585000Y-29455208D01*
X99552900Y-29699026D01*
X96848261Y-29699026D01*
X95193235Y-28044000D01*
X96428355Y-28044000D01*
X96447705Y-28289862D01*
X96505276Y-28529664D01*
X96599653Y-28757512D01*
X96726287Y-28964159D01*
X97274356Y-28416090D01*
X97279706Y-28429005D01*
X97368657Y-28562130D01*
X97481870Y-28675343D01*
X97614995Y-28764294D01*
X97627908Y-28769643D01*
X97079839Y-29317711D01*
X97286487Y-29444346D01*
X97514335Y-29538723D01*
X97754137Y-29596294D01*
X98000000Y-29615644D01*
X98245862Y-29596294D01*
X98485664Y-29538723D01*
X98713512Y-29444346D01*
X98920159Y-29317711D01*
X98372090Y-28769643D01*
X98385005Y-28764294D01*
X98518130Y-28675343D01*
X98631343Y-28562130D01*
X98720294Y-28429005D01*
X98725643Y-28416090D01*
X99273711Y-28964159D01*
X99400346Y-28757512D01*
X99494723Y-28529664D01*
X99552294Y-28289862D01*
X99571644Y-28044000D01*
X99552294Y-27798137D01*
X99494723Y-27558335D01*
X99400346Y-27330487D01*
X99273711Y-27123839D01*
X98725642Y-27671908D01*
X98720294Y-27658995D01*
X98631343Y-27525870D01*
X98518130Y-27412657D01*
X98385005Y-27323706D01*
X98372089Y-27318356D01*
X98920159Y-26770287D01*
X98713512Y-26643653D01*
X98485664Y-26549276D01*
X98245862Y-26491705D01*
X98000000Y-26472355D01*
X97754137Y-26491705D01*
X97514335Y-26549276D01*
X97286495Y-26643650D01*
X97286490Y-26643653D01*
X97079839Y-26770287D01*
X97627909Y-27318356D01*
X97614995Y-27323706D01*
X97481870Y-27412657D01*
X97368657Y-27525870D01*
X97279706Y-27658995D01*
X97274356Y-27671909D01*
X96726287Y-27123839D01*
X96599653Y-27330490D01*
X96599650Y-27330495D01*
X96505276Y-27558335D01*
X96447705Y-27798137D01*
X96428355Y-28044000D01*
X95193235Y-28044000D01*
X90387590Y-23238355D01*
X90387588Y-23238352D01*
X90334494Y-23185258D01*
X99649500Y-23185258D01*
X99649500Y-23414741D01*
X99663383Y-23520185D01*
X99679452Y-23642238D01*
X99721703Y-23799923D01*
X99738842Y-23863887D01*
X99826650Y-24075876D01*
X99826656Y-24075888D01*
X99933905Y-24261650D01*
X99941392Y-24274617D01*
X100081081Y-24456661D01*
X100081089Y-24456670D01*
X100243330Y-24618911D01*
X100243338Y-24618918D01*
X100243339Y-24618919D01*
X100266048Y-24636344D01*
X100425382Y-24758607D01*
X100425385Y-24758608D01*
X100425388Y-24758611D01*
X100624112Y-24873344D01*
X100624117Y-24873346D01*
X100624123Y-24873349D01*
X100715480Y-24911190D01*
X100836113Y-24961158D01*
X101057762Y-25020548D01*
X101285266Y-25050500D01*
X101285273Y-25050500D01*
X101514727Y-25050500D01*
X101514734Y-25050500D01*
X101742238Y-25020548D01*
X101963887Y-24961158D01*
X102175888Y-24873344D01*
X102374612Y-24758611D01*
X102556661Y-24618919D01*
X102556665Y-24618914D01*
X102556670Y-24618911D01*
X102718911Y-24456670D01*
X102718914Y-24456665D01*
X102718919Y-24456661D01*
X102858611Y-24274612D01*
X102973344Y-24075888D01*
X103061158Y-23863887D01*
X103120548Y-23642238D01*
X103150500Y-23414734D01*
X103150500Y-23185266D01*
X103120548Y-22957762D01*
X103061158Y-22736113D01*
X102979244Y-22538355D01*
X102973349Y-22524123D01*
X102973346Y-22524117D01*
X102973344Y-22524112D01*
X102858611Y-22325388D01*
X102858608Y-22325385D01*
X102858607Y-22325382D01*
X102718918Y-22143338D01*
X102718911Y-22143330D01*
X102556670Y-21981089D01*
X102556661Y-21981081D01*
X102374617Y-21841392D01*
X102175890Y-21726657D01*
X102175876Y-21726650D01*
X101963887Y-21638842D01*
X101742238Y-21579452D01*
X101704215Y-21574446D01*
X101514741Y-21549500D01*
X101514734Y-21549500D01*
X101285266Y-21549500D01*
X101285258Y-21549500D01*
X101068715Y-21578009D01*
X101057762Y-21579452D01*
X100964076Y-21604554D01*
X100836112Y-21638842D01*
X100624123Y-21726650D01*
X100624109Y-21726657D01*
X100425382Y-21841392D01*
X100243338Y-21981081D01*
X100081081Y-22143338D01*
X99941392Y-22325382D01*
X99826657Y-22524109D01*
X99826650Y-22524123D01*
X99738842Y-22736112D01*
X99713925Y-22829104D01*
X99688910Y-22922466D01*
X99679453Y-22957759D01*
X99679451Y-22957770D01*
X99649500Y-23185258D01*
X90334494Y-23185258D01*
X90268717Y-23119481D01*
X90268716Y-23119480D01*
X90181904Y-23069360D01*
X90181904Y-23069359D01*
X90181900Y-23069358D01*
X90131785Y-23040423D01*
X89979057Y-22999499D01*
X89820943Y-22999499D01*
X89813347Y-22999499D01*
X89813331Y-22999500D01*
X82786669Y-22999500D01*
X82786653Y-22999499D01*
X82779057Y-22999499D01*
X82620943Y-22999499D01*
X82613347Y-22999499D01*
X82613331Y-22999500D01*
X81686670Y-22999500D01*
X81686654Y-22999499D01*
X81679058Y-22999499D01*
X81520943Y-22999499D01*
X81513347Y-22999499D01*
X81513331Y-22999500D01*
X81286669Y-22999500D01*
X81286653Y-22999499D01*
X81279057Y-22999499D01*
X81120943Y-22999499D01*
X81113347Y-22999499D01*
X81113331Y-22999500D01*
X74900097Y-22999500D01*
X74833058Y-22979815D01*
X74812416Y-22963181D01*
X72787590Y-20938355D01*
X72787588Y-20938352D01*
X72668717Y-20819481D01*
X72668716Y-20819480D01*
X72581904Y-20769360D01*
X72581904Y-20769359D01*
X72581900Y-20769358D01*
X72564412Y-20759260D01*
X72531786Y-20740423D01*
X72528494Y-20739060D01*
X72526144Y-20737166D01*
X72524746Y-20736359D01*
X72524871Y-20736140D01*
X72474092Y-20695217D01*
X72452029Y-20628923D01*
X72469310Y-20561224D01*
X72520448Y-20513615D01*
X72575950Y-20500500D01*
X104075500Y-20500500D01*
X104142539Y-20520185D01*
X104188294Y-20572989D01*
X104199500Y-20624500D01*
X104199500Y-45741324D01*
X104179815Y-45808363D01*
X104163181Y-45829005D01*
X104028505Y-45963681D01*
X103967182Y-45997166D01*
X103940824Y-46000000D01*
X98613474Y-46000000D01*
X98546435Y-45980315D01*
X98500680Y-45927511D01*
X98490736Y-45858353D01*
X98519761Y-45794797D01*
X98566021Y-45761439D01*
X98713512Y-45700346D01*
X98920159Y-45573711D01*
X98372090Y-45025643D01*
X98385005Y-45020294D01*
X98518130Y-44931343D01*
X98631343Y-44818130D01*
X98720294Y-44685005D01*
X98725643Y-44672091D01*
X99273711Y-45220159D01*
X99400346Y-45013512D01*
X99494723Y-44785664D01*
X99552294Y-44545862D01*
X99571644Y-44300000D01*
X99552294Y-44054137D01*
X99494723Y-43814335D01*
X99400346Y-43586487D01*
X99273711Y-43379839D01*
X98725642Y-43927908D01*
X98720294Y-43914995D01*
X98631343Y-43781870D01*
X98518130Y-43668657D01*
X98385005Y-43579706D01*
X98372089Y-43574356D01*
X98920159Y-43026287D01*
X98713512Y-42899653D01*
X98485664Y-42805276D01*
X98245862Y-42747705D01*
X98000000Y-42728355D01*
X97754137Y-42747705D01*
X97514335Y-42805276D01*
X97286495Y-42899650D01*
X97286490Y-42899653D01*
X97079839Y-43026287D01*
X97627909Y-43574356D01*
X97614995Y-43579706D01*
X97481870Y-43668657D01*
X97368657Y-43781870D01*
X97279706Y-43914995D01*
X97274356Y-43927909D01*
X96726287Y-43379839D01*
X96599653Y-43586490D01*
X96599650Y-43586495D01*
X96505276Y-43814335D01*
X96447705Y-44054137D01*
X96428355Y-44300000D01*
X96447705Y-44545862D01*
X96505276Y-44785664D01*
X96599653Y-45013512D01*
X96726287Y-45220159D01*
X97274356Y-44672090D01*
X97279706Y-44685005D01*
X97368657Y-44818130D01*
X97481870Y-44931343D01*
X97614995Y-45020294D01*
X97627908Y-45025643D01*
X97079839Y-45573711D01*
X97286487Y-45700346D01*
X97433979Y-45761439D01*
X97488382Y-45805280D01*
X97510447Y-45871574D01*
X97493168Y-45939273D01*
X97442031Y-45986884D01*
X97386526Y-46000000D01*
X88155093Y-46000000D01*
X88088054Y-45980315D01*
X88063072Y-45959115D01*
X85532479Y-43157387D01*
X85502152Y-43094443D01*
X85500500Y-43074272D01*
X85500500Y-40789059D01*
X85500501Y-40789046D01*
X85500501Y-40743999D01*
X91080863Y-40743999D01*
X91080863Y-40744000D01*
X91101365Y-40965259D01*
X91101366Y-40965261D01*
X91162174Y-41178979D01*
X91162180Y-41178994D01*
X91261222Y-41377896D01*
X91395133Y-41555224D01*
X91511077Y-41660920D01*
X91559345Y-41704922D01*
X91653763Y-41763383D01*
X91683141Y-41781573D01*
X91729776Y-41833601D01*
X91740880Y-41902583D01*
X91712927Y-41966617D01*
X91683141Y-41992427D01*
X91559343Y-42069079D01*
X91395133Y-42218775D01*
X91261222Y-42396103D01*
X91162180Y-42595005D01*
X91162174Y-42595020D01*
X91101366Y-42808738D01*
X91101365Y-42808740D01*
X91080863Y-43029999D01*
X91080863Y-43030000D01*
X91101365Y-43251259D01*
X91101366Y-43251261D01*
X91162174Y-43464979D01*
X91162180Y-43464994D01*
X91261222Y-43663896D01*
X91395133Y-43841224D01*
X91559344Y-43990921D01*
X91559346Y-43990923D01*
X91748266Y-44107897D01*
X91748272Y-44107900D01*
X91777206Y-44119109D01*
X91955472Y-44188170D01*
X92173896Y-44229000D01*
X92173899Y-44229000D01*
X92396101Y-44229000D01*
X92396104Y-44229000D01*
X92614528Y-44188170D01*
X92821730Y-44107899D01*
X93010655Y-43990922D01*
X93174868Y-43841222D01*
X93308778Y-43663896D01*
X93407824Y-43464984D01*
X93468634Y-43251260D01*
X93489137Y-43030000D01*
X93480135Y-42932859D01*
X93468634Y-42808740D01*
X93468633Y-42808738D01*
X93465348Y-42797194D01*
X93407824Y-42595016D01*
X93378364Y-42535853D01*
X93344944Y-42468735D01*
X93310233Y-42399026D01*
X99552900Y-42399026D01*
X99552900Y-42644973D01*
X99585000Y-42888791D01*
X99648654Y-43126350D01*
X99741274Y-43349954D01*
X99742767Y-43353558D01*
X99865733Y-43566541D01*
X99865736Y-43566546D01*
X99865738Y-43566548D01*
X100015445Y-43761651D01*
X100015451Y-43761658D01*
X100189341Y-43935548D01*
X100189348Y-43935554D01*
X100356613Y-44063900D01*
X100384459Y-44085267D01*
X100597442Y-44208233D01*
X100824654Y-44302347D01*
X101062206Y-44365999D01*
X101306034Y-44398100D01*
X101306041Y-44398100D01*
X101551959Y-44398100D01*
X101551966Y-44398100D01*
X101795794Y-44365999D01*
X102033346Y-44302347D01*
X102260558Y-44208233D01*
X102473541Y-44085267D01*
X102668653Y-43935553D01*
X102842553Y-43761653D01*
X102992267Y-43566541D01*
X103115233Y-43353558D01*
X103209347Y-43126346D01*
X103272999Y-42888794D01*
X103305100Y-42644966D01*
X103305100Y-42399034D01*
X103272999Y-42155206D01*
X103209347Y-41917654D01*
X103115233Y-41690442D01*
X102992267Y-41477459D01*
X102907164Y-41366550D01*
X102842554Y-41282348D01*
X102842548Y-41282341D01*
X102668658Y-41108451D01*
X102668651Y-41108445D01*
X102473548Y-40958738D01*
X102473546Y-40958736D01*
X102473541Y-40958733D01*
X102260558Y-40835767D01*
X102260554Y-40835765D01*
X102033350Y-40741654D01*
X101795791Y-40678000D01*
X101551973Y-40645900D01*
X101551966Y-40645900D01*
X101306034Y-40645900D01*
X101306026Y-40645900D01*
X101062208Y-40678000D01*
X100824649Y-40741654D01*
X100597445Y-40835765D01*
X100597441Y-40835767D01*
X100488794Y-40898495D01*
X100384459Y-40958733D01*
X100384456Y-40958734D01*
X100384451Y-40958738D01*
X100189348Y-41108445D01*
X100189341Y-41108451D01*
X100015451Y-41282341D01*
X100015445Y-41282348D01*
X99865738Y-41477451D01*
X99865734Y-41477456D01*
X99865733Y-41477459D01*
X99836207Y-41528599D01*
X99742767Y-41690441D01*
X99742765Y-41690445D01*
X99648654Y-41917649D01*
X99585000Y-42155208D01*
X99552900Y-42399026D01*
X93310233Y-42399026D01*
X93308778Y-42396104D01*
X93174868Y-42218778D01*
X93174866Y-42218775D01*
X93010655Y-42069078D01*
X93010653Y-42069076D01*
X92886859Y-41992427D01*
X92840223Y-41940399D01*
X92829119Y-41871418D01*
X92857072Y-41807383D01*
X92886859Y-41781573D01*
X92916237Y-41763383D01*
X93010655Y-41704922D01*
X93174868Y-41555222D01*
X93308778Y-41377896D01*
X93407824Y-41178984D01*
X93468634Y-40965260D01*
X93489137Y-40744000D01*
X93468634Y-40522740D01*
X93407824Y-40309016D01*
X93308778Y-40110104D01*
X93190355Y-39953286D01*
X93174866Y-39932775D01*
X93010655Y-39783078D01*
X93010653Y-39783076D01*
X92821733Y-39666102D01*
X92821727Y-39666099D01*
X92677836Y-39610356D01*
X92614528Y-39585830D01*
X92396104Y-39545000D01*
X92173896Y-39545000D01*
X91955472Y-39585830D01*
X91905695Y-39605113D01*
X91748272Y-39666099D01*
X91748266Y-39666102D01*
X91559346Y-39783076D01*
X91559344Y-39783078D01*
X91395133Y-39932775D01*
X91261222Y-40110103D01*
X91162180Y-40309005D01*
X91162174Y-40309020D01*
X91101366Y-40522738D01*
X91101365Y-40522740D01*
X91080863Y-40743999D01*
X85500501Y-40743999D01*
X85500501Y-40620945D01*
X85500501Y-40620943D01*
X85459577Y-40468215D01*
X85420803Y-40401057D01*
X85380520Y-40331284D01*
X85268716Y-40219480D01*
X85268715Y-40219479D01*
X85264385Y-40215149D01*
X85264374Y-40215139D01*
X82630700Y-37581465D01*
X82597215Y-37520142D01*
X82595163Y-37507686D01*
X82585368Y-37420745D01*
X82525789Y-37250478D01*
X82429816Y-37097738D01*
X82302262Y-36970184D01*
X82149523Y-36874211D01*
X81979254Y-36814631D01*
X81979249Y-36814630D01*
X81800004Y-36794435D01*
X81799996Y-36794435D01*
X81620750Y-36814630D01*
X81620745Y-36814631D01*
X81450476Y-36874211D01*
X81297737Y-36970184D01*
X81170182Y-37097739D01*
X81170179Y-37097743D01*
X81163738Y-37107994D01*
X81111402Y-37154283D01*
X81042348Y-37164929D01*
X80978501Y-37136551D01*
X80971066Y-37129699D01*
X80817627Y-36976260D01*
X80632979Y-36791612D01*
X80599496Y-36730291D01*
X80604480Y-36660599D01*
X80632979Y-36616254D01*
X85012417Y-32236819D01*
X85073740Y-32203334D01*
X85100098Y-32200500D01*
X91174258Y-32200500D01*
X91241297Y-32220185D01*
X91273212Y-32249773D01*
X91395133Y-32411224D01*
X91559344Y-32560921D01*
X91559346Y-32560923D01*
X91748266Y-32677897D01*
X91748272Y-32677900D01*
X91777206Y-32689109D01*
X91955472Y-32758170D01*
X92173896Y-32799000D01*
X92173899Y-32799000D01*
X92396101Y-32799000D01*
X92396104Y-32799000D01*
X92614528Y-32758170D01*
X92821730Y-32677899D01*
X93010655Y-32560922D01*
X93174868Y-32411222D01*
X93308778Y-32233896D01*
X93407824Y-32034984D01*
X93468634Y-31821260D01*
X93489137Y-31600000D01*
X93468634Y-31378740D01*
X93407824Y-31165016D01*
X93406232Y-31161819D01*
X93356355Y-31061651D01*
X93308778Y-30966104D01*
X93202509Y-30825381D01*
X93174866Y-30788775D01*
X93010655Y-30639078D01*
X93010653Y-30639076D01*
X92886859Y-30562427D01*
X92840223Y-30510399D01*
X92829119Y-30441418D01*
X92857072Y-30377383D01*
X92886859Y-30351573D01*
X92927936Y-30326139D01*
X93010655Y-30274922D01*
X93174868Y-30125222D01*
X93308778Y-29947896D01*
X93407824Y-29748984D01*
X93468634Y-29535260D01*
X93489137Y-29314000D01*
X93468634Y-29092740D01*
X93407824Y-28879016D01*
X93374852Y-28812800D01*
X93347322Y-28757512D01*
X93308778Y-28680104D01*
X93234951Y-28582341D01*
X93174866Y-28502775D01*
X93010655Y-28353078D01*
X93010653Y-28353076D01*
X92821733Y-28236102D01*
X92821727Y-28236099D01*
X92708148Y-28192099D01*
X92614528Y-28155830D01*
X92396104Y-28115000D01*
X92173896Y-28115000D01*
X91955472Y-28155830D01*
X91905695Y-28175113D01*
X91748272Y-28236099D01*
X91748266Y-28236102D01*
X91559346Y-28353076D01*
X91559344Y-28353078D01*
X91395133Y-28502775D01*
X91261222Y-28680103D01*
X91162180Y-28879005D01*
X91162174Y-28879020D01*
X91101366Y-29092738D01*
X91101365Y-29092740D01*
X91080863Y-29313999D01*
X91080863Y-29314000D01*
X91101365Y-29535259D01*
X91101366Y-29535261D01*
X91162174Y-29748979D01*
X91162180Y-29748994D01*
X91261222Y-29947896D01*
X91395133Y-30125224D01*
X91511077Y-30230920D01*
X91559345Y-30274922D01*
X91649075Y-30330480D01*
X91683141Y-30351573D01*
X91729776Y-30403601D01*
X91740880Y-30472583D01*
X91712927Y-30536617D01*
X91683141Y-30562427D01*
X91559343Y-30639079D01*
X91395133Y-30788775D01*
X91273212Y-30950227D01*
X91217103Y-30991863D01*
X91174258Y-30999500D01*
X84886670Y-30999500D01*
X84886654Y-30999499D01*
X84879058Y-30999499D01*
X84720943Y-30999499D01*
X84653193Y-31017653D01*
X84568214Y-31040423D01*
X84568209Y-31040426D01*
X84431290Y-31119475D01*
X84431282Y-31119481D01*
X79783746Y-35767017D01*
X79722423Y-35800502D01*
X79652731Y-35795518D01*
X79608384Y-35767017D01*
X68091640Y-24250272D01*
X68058155Y-24188949D01*
X68055793Y-24151786D01*
X68067323Y-24020000D01*
X68062457Y-23964385D01*
X68048070Y-23799937D01*
X68048070Y-23799932D01*
X67990894Y-23586550D01*
X67897534Y-23386339D01*
X67793913Y-23238352D01*
X67770827Y-23205381D01*
X67750704Y-23185258D01*
X67614620Y-23049174D01*
X67614616Y-23049171D01*
X67614615Y-23049170D01*
X67433666Y-22922468D01*
X67433662Y-22922466D01*
X67233450Y-22829106D01*
X67233447Y-22829105D01*
X67233445Y-22829104D01*
X67020070Y-22771930D01*
X67020062Y-22771929D01*
X66800002Y-22752677D01*
X66799998Y-22752677D01*
X66579937Y-22771929D01*
X66579923Y-22771932D01*
X66508092Y-22791178D01*
X66438242Y-22789514D01*
X66388319Y-22759084D01*
X66167590Y-22538355D01*
X66167588Y-22538352D01*
X66048717Y-22419481D01*
X66048716Y-22419480D01*
X65961904Y-22369360D01*
X65961904Y-22369359D01*
X65961900Y-22369358D01*
X65911785Y-22340423D01*
X65759057Y-22299499D01*
X65600943Y-22299499D01*
X65593347Y-22299499D01*
X65593331Y-22299500D01*
X48472411Y-22299500D01*
X48431490Y-22310464D01*
X48431490Y-22310465D01*
X48394222Y-22320451D01*
X48319685Y-22340423D01*
X48319680Y-22340426D01*
X48182761Y-22419475D01*
X48182753Y-22419481D01*
X36976481Y-33625753D01*
X36976475Y-33625761D01*
X36933915Y-33699479D01*
X36933915Y-33699481D01*
X36897423Y-33762685D01*
X36889360Y-33792778D01*
X36856499Y-33915414D01*
X36856499Y-33915416D01*
X36856499Y-34083517D01*
X36856500Y-34083530D01*
X36856500Y-35357902D01*
X36836815Y-35424941D01*
X36820181Y-35445583D01*
X32773395Y-39492368D01*
X32712072Y-39525853D01*
X32662930Y-39526576D01*
X32595326Y-39513939D01*
X32526104Y-39501000D01*
X32303896Y-39501000D01*
X32085472Y-39541830D01*
X32047788Y-39556429D01*
X31878272Y-39622099D01*
X31878266Y-39622102D01*
X31689346Y-39739076D01*
X31689344Y-39739078D01*
X31525133Y-39888775D01*
X31391222Y-40066103D01*
X31292180Y-40265005D01*
X31292174Y-40265020D01*
X31231366Y-40478738D01*
X31231365Y-40478740D01*
X31210863Y-40699999D01*
X31210863Y-40700000D01*
X31231365Y-40921259D01*
X31231366Y-40921261D01*
X31292174Y-41134979D01*
X31292180Y-41134994D01*
X31391222Y-41333896D01*
X31525133Y-41511224D01*
X31630031Y-41606850D01*
X31689345Y-41660922D01*
X31788263Y-41722169D01*
X31813141Y-41737573D01*
X31859776Y-41789601D01*
X31870880Y-41858583D01*
X31842927Y-41922617D01*
X31813141Y-41948427D01*
X31689343Y-42025079D01*
X31525133Y-42174775D01*
X31391222Y-42352103D01*
X31292180Y-42551005D01*
X31292174Y-42551020D01*
X31231366Y-42764738D01*
X31231365Y-42764740D01*
X31210863Y-42985999D01*
X31210863Y-42986000D01*
X31231365Y-43207259D01*
X31231366Y-43207261D01*
X31292174Y-43420979D01*
X31292180Y-43420994D01*
X31391222Y-43619896D01*
X31525133Y-43797224D01*
X31689344Y-43946921D01*
X31689346Y-43946923D01*
X31878266Y-44063897D01*
X31878272Y-44063900D01*
X31907206Y-44075109D01*
X32085472Y-44144170D01*
X32303896Y-44185000D01*
X32303899Y-44185000D01*
X32526101Y-44185000D01*
X32526104Y-44185000D01*
X32744528Y-44144170D01*
X32951730Y-44063899D01*
X33140655Y-43946922D01*
X33304868Y-43797222D01*
X33438778Y-43619896D01*
X33537824Y-43420984D01*
X33598634Y-43207260D01*
X33619137Y-42986000D01*
X33607853Y-42864233D01*
X33598634Y-42764740D01*
X33598633Y-42764738D01*
X33588281Y-42728355D01*
X33537824Y-42551016D01*
X33522428Y-42520097D01*
X33460687Y-42396103D01*
X33438778Y-42352104D01*
X33304868Y-42174778D01*
X33304866Y-42174775D01*
X33140655Y-42025078D01*
X33140653Y-42025076D01*
X33016859Y-41948427D01*
X32970223Y-41896399D01*
X32959119Y-41827418D01*
X32987072Y-41763383D01*
X33016859Y-41737573D01*
X33069594Y-41704921D01*
X33140655Y-41660922D01*
X33304868Y-41511222D01*
X33438778Y-41333896D01*
X33537824Y-41134984D01*
X33598634Y-40921260D01*
X33619137Y-40700000D01*
X33617099Y-40678001D01*
X33598634Y-40478739D01*
X33593515Y-40460749D01*
X33594101Y-40390882D01*
X33625098Y-40339135D01*
X37937520Y-36026716D01*
X38016577Y-35889784D01*
X38057501Y-35737057D01*
X38057501Y-35578942D01*
X38057501Y-35571347D01*
X38057500Y-35571329D01*
X38057500Y-34803007D01*
X38077185Y-34735968D01*
X38129989Y-34690213D01*
X38199147Y-34680269D01*
X38213945Y-34683886D01*
X38213961Y-34683819D01*
X38220738Y-34685365D01*
X38220745Y-34685368D01*
X38220752Y-34685368D01*
X38220753Y-34685369D01*
X38399996Y-34705565D01*
X38400000Y-34705565D01*
X38400004Y-34705565D01*
X38579249Y-34685369D01*
X38579252Y-34685368D01*
X38579255Y-34685368D01*
X38749522Y-34625789D01*
X38902262Y-34529816D01*
X39029816Y-34402262D01*
X39125789Y-34249522D01*
X39185368Y-34079255D01*
X39195161Y-33992329D01*
X39222226Y-33927918D01*
X39230690Y-33918543D01*
X39810416Y-33338819D01*
X39871739Y-33305334D01*
X39898097Y-33302500D01*
X50395002Y-33302500D01*
X50462041Y-33322185D01*
X50507796Y-33374989D01*
X50517740Y-33444147D01*
X50496579Y-33497619D01*
X50462466Y-33546339D01*
X50462466Y-33546340D01*
X50462464Y-33546343D01*
X50369107Y-33746548D01*
X50369104Y-33746554D01*
X50311930Y-33959929D01*
X50311929Y-33959937D01*
X50292677Y-34179997D01*
X50292677Y-34180002D01*
X50311929Y-34400062D01*
X50311930Y-34400070D01*
X50369104Y-34613445D01*
X50369105Y-34613447D01*
X50369106Y-34613450D01*
X50402900Y-34685922D01*
X50462466Y-34813662D01*
X50462468Y-34813666D01*
X50589170Y-34994615D01*
X50589175Y-34994621D01*
X50745378Y-35150824D01*
X50745384Y-35150829D01*
X50926333Y-35277531D01*
X50926335Y-35277532D01*
X50926338Y-35277534D01*
X50979310Y-35302235D01*
X51055189Y-35337618D01*
X51107628Y-35383790D01*
X51126780Y-35450984D01*
X51106564Y-35517865D01*
X51055189Y-35562382D01*
X50926340Y-35622465D01*
X50926338Y-35622466D01*
X50745377Y-35749175D01*
X50589175Y-35905377D01*
X50462466Y-36086338D01*
X50462465Y-36086340D01*
X50369107Y-36286548D01*
X50369104Y-36286554D01*
X50311930Y-36499929D01*
X50311929Y-36499937D01*
X50292677Y-36719997D01*
X50292677Y-36720002D01*
X50311929Y-36940062D01*
X50311930Y-36940070D01*
X50369104Y-37153445D01*
X50369105Y-37153447D01*
X50369106Y-37153450D01*
X50435723Y-37296311D01*
X50462466Y-37353662D01*
X50462468Y-37353666D01*
X50589170Y-37534615D01*
X50589175Y-37534621D01*
X50745378Y-37690824D01*
X50745384Y-37690829D01*
X50926333Y-37817531D01*
X50926335Y-37817532D01*
X50926338Y-37817534D01*
X51045748Y-37873215D01*
X51055189Y-37877618D01*
X51107628Y-37923790D01*
X51126780Y-37990984D01*
X51106564Y-38057865D01*
X51055189Y-38102382D01*
X50926340Y-38162465D01*
X50926338Y-38162466D01*
X50745377Y-38289175D01*
X50589175Y-38445377D01*
X50462466Y-38626338D01*
X50462465Y-38626340D01*
X50369107Y-38826548D01*
X50369104Y-38826554D01*
X50311930Y-39039929D01*
X50311929Y-39039937D01*
X50292677Y-39259997D01*
X50292677Y-39260002D01*
X50311929Y-39480062D01*
X50311930Y-39480069D01*
X50311931Y-39480072D01*
X50334796Y-39565407D01*
X50333134Y-39635256D01*
X50293972Y-39693119D01*
X50229744Y-39720623D01*
X50215022Y-39721500D01*
X44022097Y-39721500D01*
X43955058Y-39701815D01*
X43934416Y-39685181D01*
X41286818Y-37037583D01*
X41253333Y-36976260D01*
X41250499Y-36949902D01*
X41250499Y-36422129D01*
X41250498Y-36422123D01*
X41250497Y-36422116D01*
X41244091Y-36362517D01*
X41215756Y-36286548D01*
X41193797Y-36227671D01*
X41193793Y-36227664D01*
X41107547Y-36112455D01*
X41107544Y-36112452D01*
X40992335Y-36026206D01*
X40992328Y-36026202D01*
X40857482Y-35975908D01*
X40857483Y-35975908D01*
X40797883Y-35969501D01*
X40797881Y-35969500D01*
X40797873Y-35969500D01*
X40797864Y-35969500D01*
X39002129Y-35969500D01*
X39002123Y-35969501D01*
X38942516Y-35975908D01*
X38807671Y-36026202D01*
X38807664Y-36026206D01*
X38692455Y-36112452D01*
X38692452Y-36112455D01*
X38606206Y-36227664D01*
X38606202Y-36227671D01*
X38555908Y-36362517D01*
X38550294Y-36414738D01*
X38549501Y-36422123D01*
X38549500Y-36422135D01*
X38549500Y-38217870D01*
X38549501Y-38217876D01*
X38555908Y-38277483D01*
X38606202Y-38412328D01*
X38606206Y-38412335D01*
X38692452Y-38527544D01*
X38692455Y-38527547D01*
X38807664Y-38613793D01*
X38807671Y-38613797D01*
X38939081Y-38662810D01*
X38995015Y-38704681D01*
X39019432Y-38770145D01*
X39004580Y-38838418D01*
X38983430Y-38866673D01*
X38861503Y-38988600D01*
X38725965Y-39182169D01*
X38725964Y-39182171D01*
X38626098Y-39396335D01*
X38626094Y-39396344D01*
X38564938Y-39624586D01*
X38564936Y-39624596D01*
X38544341Y-39859999D01*
X38544341Y-39860000D01*
X38564936Y-40095403D01*
X38564938Y-40095413D01*
X38626094Y-40323655D01*
X38626096Y-40323659D01*
X38626097Y-40323663D01*
X38722773Y-40530984D01*
X38725965Y-40537830D01*
X38725967Y-40537834D01*
X38800952Y-40644923D01*
X38841244Y-40702466D01*
X38861501Y-40731395D01*
X38861506Y-40731402D01*
X39028597Y-40898493D01*
X39028603Y-40898498D01*
X39214158Y-41028425D01*
X39257783Y-41083002D01*
X39264977Y-41152500D01*
X39233454Y-41214855D01*
X39214158Y-41231575D01*
X39028597Y-41361505D01*
X38861505Y-41528597D01*
X38725965Y-41722169D01*
X38725964Y-41722171D01*
X38626098Y-41936335D01*
X38626094Y-41936344D01*
X38564938Y-42164586D01*
X38564936Y-42164596D01*
X38544341Y-42399999D01*
X38544341Y-42400000D01*
X38564936Y-42635403D01*
X38564938Y-42635413D01*
X38626094Y-42863655D01*
X38626096Y-42863659D01*
X38626097Y-42863663D01*
X38721855Y-43069017D01*
X38725965Y-43077830D01*
X38725967Y-43077834D01*
X38834281Y-43232521D01*
X38861505Y-43271401D01*
X39028599Y-43438495D01*
X39079927Y-43474435D01*
X39222165Y-43574032D01*
X39222167Y-43574033D01*
X39222170Y-43574035D01*
X39436337Y-43673903D01*
X39664592Y-43735063D01*
X39852918Y-43751539D01*
X39899999Y-43755659D01*
X39900000Y-43755659D01*
X39900001Y-43755659D01*
X39939234Y-43752226D01*
X40135408Y-43735063D01*
X40263757Y-43700672D01*
X40333606Y-43702335D01*
X40383530Y-43732765D01*
X44011284Y-47360520D01*
X44011286Y-47360521D01*
X44011290Y-47360524D01*
X44115944Y-47420945D01*
X44148216Y-47439577D01*
X44300943Y-47480501D01*
X44300945Y-47480501D01*
X44466654Y-47480501D01*
X44466670Y-47480500D01*
X50374695Y-47480500D01*
X50441734Y-47500185D01*
X50476270Y-47533377D01*
X50559887Y-47652794D01*
X50589170Y-47694615D01*
X50589175Y-47694621D01*
X50745378Y-47850824D01*
X50745384Y-47850829D01*
X50926333Y-47977531D01*
X50926335Y-47977532D01*
X50926338Y-47977534D01*
X50990146Y-48007288D01*
X51055189Y-48037618D01*
X51107628Y-48083790D01*
X51126780Y-48150984D01*
X51106564Y-48217865D01*
X51055189Y-48262382D01*
X50926340Y-48322465D01*
X50926338Y-48322466D01*
X50745377Y-48449175D01*
X50589175Y-48605377D01*
X50462466Y-48786338D01*
X50462465Y-48786340D01*
X50369107Y-48986548D01*
X50369104Y-48986554D01*
X50311930Y-49199929D01*
X50311929Y-49199937D01*
X50292677Y-49419997D01*
X50292677Y-49420002D01*
X50311929Y-49640062D01*
X50311930Y-49640070D01*
X50369104Y-49853445D01*
X50369105Y-49853447D01*
X50369106Y-49853450D01*
X50415432Y-49952797D01*
X50462466Y-50053662D01*
X50462468Y-50053666D01*
X50589170Y-50234615D01*
X50589175Y-50234621D01*
X50745378Y-50390824D01*
X50745384Y-50390829D01*
X50926333Y-50517531D01*
X50926335Y-50517532D01*
X50926338Y-50517534D01*
X51013635Y-50558241D01*
X51055189Y-50577618D01*
X51107628Y-50623790D01*
X51126780Y-50690984D01*
X51106564Y-50757865D01*
X51055189Y-50802382D01*
X50926340Y-50862465D01*
X50926338Y-50862466D01*
X50745377Y-50989175D01*
X50589175Y-51145377D01*
X50462466Y-51326338D01*
X50462465Y-51326340D01*
X50369107Y-51526548D01*
X50369104Y-51526554D01*
X50311930Y-51739929D01*
X50311929Y-51739937D01*
X50292677Y-51959997D01*
X50292677Y-51960002D01*
X50311929Y-52180062D01*
X50311930Y-52180070D01*
X50369104Y-52393445D01*
X50369105Y-52393447D01*
X50369106Y-52393450D01*
X50462466Y-52593662D01*
X50462468Y-52593666D01*
X50589170Y-52774615D01*
X50589175Y-52774621D01*
X50745378Y-52930824D01*
X50745384Y-52930829D01*
X50926333Y-53057531D01*
X50926335Y-53057532D01*
X50926338Y-53057534D01*
X51045748Y-53113215D01*
X51055189Y-53117618D01*
X51107628Y-53163790D01*
X51126780Y-53230984D01*
X51106564Y-53297865D01*
X51055189Y-53342382D01*
X50926340Y-53402465D01*
X50926338Y-53402466D01*
X50745377Y-53529175D01*
X50589175Y-53685377D01*
X50462466Y-53866338D01*
X50462465Y-53866340D01*
X50369107Y-54066548D01*
X50369104Y-54066554D01*
X50311930Y-54279929D01*
X50311929Y-54279937D01*
X50292677Y-54499997D01*
X50292677Y-54500002D01*
X50311929Y-54720062D01*
X50311930Y-54720070D01*
X50369104Y-54933445D01*
X50369105Y-54933447D01*
X50369106Y-54933450D01*
X50429825Y-55063663D01*
X50462466Y-55133662D01*
X50462468Y-55133666D01*
X50589170Y-55314615D01*
X50589175Y-55314621D01*
X50745378Y-55470824D01*
X50745384Y-55470829D01*
X50926333Y-55597531D01*
X50926335Y-55597532D01*
X50926338Y-55597534D01*
X51014180Y-55638495D01*
X51055189Y-55657618D01*
X51107628Y-55703790D01*
X51126780Y-55770984D01*
X51106564Y-55837865D01*
X51055189Y-55882382D01*
X50926340Y-55942465D01*
X50926338Y-55942466D01*
X50745377Y-56069175D01*
X50589175Y-56225377D01*
X50462466Y-56406338D01*
X50462465Y-56406340D01*
X50369107Y-56606548D01*
X50369104Y-56606554D01*
X50311930Y-56819929D01*
X50311929Y-56819937D01*
X50292677Y-57039997D01*
X50292677Y-57040002D01*
X50311929Y-57260062D01*
X50311930Y-57260070D01*
X50369104Y-57473445D01*
X50369105Y-57473447D01*
X50369106Y-57473450D01*
X50404063Y-57548416D01*
X50462466Y-57673662D01*
X50462468Y-57673666D01*
X50496576Y-57722377D01*
X50518903Y-57788583D01*
X50501893Y-57856350D01*
X50450944Y-57904163D01*
X50395001Y-57917500D01*
X42818097Y-57917500D01*
X42751058Y-57897815D01*
X42730416Y-57881181D01*
X38535314Y-53686079D01*
X38501829Y-53624756D01*
X38506813Y-53555064D01*
X38548685Y-53499131D01*
X38603598Y-53475925D01*
X38606281Y-53475500D01*
X38606287Y-53475500D01*
X38776265Y-53448577D01*
X38816238Y-53442247D01*
X38816238Y-53442246D01*
X38816243Y-53442246D01*
X39018412Y-53376557D01*
X39207816Y-53280051D01*
X39273021Y-53232677D01*
X39379786Y-53155109D01*
X39379788Y-53155106D01*
X39379792Y-53155104D01*
X39530104Y-53004792D01*
X39649991Y-52839779D01*
X39705320Y-52797115D01*
X39774933Y-52791136D01*
X39836729Y-52823741D01*
X39850627Y-52839781D01*
X39970272Y-53004459D01*
X39970276Y-53004464D01*
X40120535Y-53154723D01*
X40120540Y-53154727D01*
X40292442Y-53279620D01*
X40481782Y-53376095D01*
X40683871Y-53441757D01*
X40750000Y-53452231D01*
X40750000Y-52404145D01*
X40816657Y-52442630D01*
X40937465Y-52475000D01*
X41062535Y-52475000D01*
X41183343Y-52442630D01*
X41250000Y-52404145D01*
X41250000Y-53452230D01*
X41316126Y-53441757D01*
X41316129Y-53441757D01*
X41518217Y-53376095D01*
X41707557Y-53279620D01*
X41879459Y-53154727D01*
X41879464Y-53154723D01*
X42029723Y-53004464D01*
X42029727Y-53004459D01*
X42154620Y-52832557D01*
X42251095Y-52643217D01*
X42316757Y-52441130D01*
X42316757Y-52441127D01*
X42347030Y-52250000D01*
X41404146Y-52250000D01*
X41442630Y-52183343D01*
X41475000Y-52062535D01*
X41475000Y-51937465D01*
X41442630Y-51816657D01*
X41404146Y-51750000D01*
X42347030Y-51750000D01*
X42316757Y-51558872D01*
X42316757Y-51558869D01*
X42251095Y-51356782D01*
X42154620Y-51167442D01*
X42029727Y-50995540D01*
X42029723Y-50995535D01*
X41879464Y-50845276D01*
X41879459Y-50845272D01*
X41707557Y-50720379D01*
X41518215Y-50623903D01*
X41316124Y-50558241D01*
X41250000Y-50547768D01*
X41250000Y-51595854D01*
X41183343Y-51557370D01*
X41062535Y-51525000D01*
X40937465Y-51525000D01*
X40816657Y-51557370D01*
X40750000Y-51595854D01*
X40750000Y-50547768D01*
X40749999Y-50547768D01*
X40683875Y-50558241D01*
X40481784Y-50623903D01*
X40292442Y-50720379D01*
X40120540Y-50845272D01*
X40120535Y-50845276D01*
X39970276Y-50995535D01*
X39970272Y-50995540D01*
X39850627Y-51160218D01*
X39795297Y-51202884D01*
X39725684Y-51208863D01*
X39663889Y-51176257D01*
X39649991Y-51160218D01*
X39530109Y-50995214D01*
X39530105Y-50995209D01*
X39379786Y-50844890D01*
X39207820Y-50719951D01*
X39018414Y-50623444D01*
X39018413Y-50623443D01*
X39018412Y-50623443D01*
X38816243Y-50557754D01*
X38816241Y-50557753D01*
X38816240Y-50557753D01*
X38654957Y-50532208D01*
X38606287Y-50524500D01*
X38393713Y-50524500D01*
X38345042Y-50532208D01*
X38183760Y-50557753D01*
X37981585Y-50623444D01*
X37792179Y-50719951D01*
X37620215Y-50844889D01*
X37481398Y-50983706D01*
X37420075Y-51017190D01*
X37350383Y-51012206D01*
X37294450Y-50970334D01*
X37288178Y-50961120D01*
X37227327Y-50862465D01*
X37192712Y-50806344D01*
X37068656Y-50682288D01*
X36919334Y-50590186D01*
X36752797Y-50535001D01*
X36752795Y-50535000D01*
X36650010Y-50524500D01*
X35349998Y-50524500D01*
X35349981Y-50524501D01*
X35247203Y-50535000D01*
X35247200Y-50535001D01*
X35080668Y-50590185D01*
X35080663Y-50590187D01*
X34931342Y-50682289D01*
X34807289Y-50806342D01*
X34715187Y-50955663D01*
X34715185Y-50955668D01*
X34704082Y-50989175D01*
X34660001Y-51122203D01*
X34660001Y-51122204D01*
X34660000Y-51122204D01*
X34649500Y-51224983D01*
X34649500Y-52775001D01*
X34649501Y-52775018D01*
X34660000Y-52877796D01*
X34660001Y-52877799D01*
X34677572Y-52930824D01*
X34715186Y-53044334D01*
X34807288Y-53193656D01*
X34931344Y-53317712D01*
X35080666Y-53409814D01*
X35247203Y-53464999D01*
X35349991Y-53475500D01*
X36574902Y-53475499D01*
X36641941Y-53495184D01*
X36662583Y-53511818D01*
X41918584Y-58767819D01*
X41952069Y-58829142D01*
X41947085Y-58898834D01*
X41905213Y-58954767D01*
X41839749Y-58979184D01*
X41830903Y-58979500D01*
X31580098Y-58979500D01*
X31513059Y-58959815D01*
X31492417Y-58943181D01*
X26235315Y-53686079D01*
X26201830Y-53624756D01*
X26206814Y-53555064D01*
X26248686Y-53499131D01*
X26303599Y-53475925D01*
X26306282Y-53475500D01*
X26306287Y-53475500D01*
X26469590Y-53449635D01*
X26516238Y-53442247D01*
X26516238Y-53442246D01*
X26516243Y-53442246D01*
X26718412Y-53376557D01*
X26907816Y-53280051D01*
X26973021Y-53232677D01*
X27079786Y-53155109D01*
X27079788Y-53155106D01*
X27079792Y-53155104D01*
X27230104Y-53004792D01*
X27349991Y-52839779D01*
X27405320Y-52797115D01*
X27474933Y-52791136D01*
X27536729Y-52823741D01*
X27550627Y-52839781D01*
X27670272Y-53004459D01*
X27670276Y-53004464D01*
X27820535Y-53154723D01*
X27820540Y-53154727D01*
X27992442Y-53279620D01*
X28181782Y-53376095D01*
X28383871Y-53441757D01*
X28450000Y-53452231D01*
X28450000Y-52404145D01*
X28516657Y-52442630D01*
X28637465Y-52475000D01*
X28762535Y-52475000D01*
X28883343Y-52442630D01*
X28950000Y-52404145D01*
X28950000Y-53452230D01*
X29016126Y-53441757D01*
X29016129Y-53441757D01*
X29218217Y-53376095D01*
X29407557Y-53279620D01*
X29579459Y-53154727D01*
X29579464Y-53154723D01*
X29729723Y-53004464D01*
X29729727Y-53004459D01*
X29854620Y-52832557D01*
X29951095Y-52643217D01*
X30016757Y-52441130D01*
X30016757Y-52441127D01*
X30047030Y-52250000D01*
X29104146Y-52250000D01*
X29142630Y-52183343D01*
X29175000Y-52062535D01*
X29175000Y-51937465D01*
X29142630Y-51816657D01*
X29104146Y-51750000D01*
X30047030Y-51750000D01*
X30016757Y-51558872D01*
X30016757Y-51558869D01*
X29951095Y-51356782D01*
X29854620Y-51167442D01*
X29729727Y-50995540D01*
X29729723Y-50995535D01*
X29579464Y-50845276D01*
X29579459Y-50845272D01*
X29407557Y-50720379D01*
X29218215Y-50623903D01*
X29016124Y-50558241D01*
X28950000Y-50547768D01*
X28950000Y-51595854D01*
X28883343Y-51557370D01*
X28762535Y-51525000D01*
X28637465Y-51525000D01*
X28516657Y-51557370D01*
X28450000Y-51595854D01*
X28450000Y-50547768D01*
X28449999Y-50547768D01*
X28383875Y-50558241D01*
X28181784Y-50623903D01*
X27992442Y-50720379D01*
X27820540Y-50845272D01*
X27820535Y-50845276D01*
X27670276Y-50995535D01*
X27670272Y-50995540D01*
X27550627Y-51160218D01*
X27495297Y-51202884D01*
X27425684Y-51208863D01*
X27363889Y-51176257D01*
X27349991Y-51160218D01*
X27230109Y-50995214D01*
X27230105Y-50995209D01*
X27079786Y-50844890D01*
X26907820Y-50719951D01*
X26718414Y-50623444D01*
X26718413Y-50623443D01*
X26718412Y-50623443D01*
X26516243Y-50557754D01*
X26516241Y-50557753D01*
X26516240Y-50557753D01*
X26354957Y-50532208D01*
X26306287Y-50524500D01*
X26093713Y-50524500D01*
X26045042Y-50532208D01*
X25883760Y-50557753D01*
X25681585Y-50623444D01*
X25492179Y-50719951D01*
X25320215Y-50844889D01*
X25181398Y-50983706D01*
X25120075Y-51017190D01*
X25050383Y-51012206D01*
X24994450Y-50970334D01*
X24988178Y-50961120D01*
X24927327Y-50862465D01*
X24892712Y-50806344D01*
X24768656Y-50682288D01*
X24619334Y-50590186D01*
X24452797Y-50535001D01*
X24452795Y-50535000D01*
X24350010Y-50524500D01*
X23049998Y-50524500D01*
X23049981Y-50524501D01*
X22947203Y-50535000D01*
X22947200Y-50535001D01*
X22780668Y-50590185D01*
X22780663Y-50590187D01*
X22631342Y-50682289D01*
X22507289Y-50806342D01*
X22415187Y-50955663D01*
X22415185Y-50955668D01*
X22404082Y-50989175D01*
X22360001Y-51122203D01*
X22360001Y-51122204D01*
X22360000Y-51122204D01*
X22349500Y-51224983D01*
X22349500Y-52775001D01*
X22349501Y-52775018D01*
X22360000Y-52877796D01*
X22360001Y-52877799D01*
X22377572Y-52930824D01*
X22415186Y-53044334D01*
X22507288Y-53193656D01*
X22631344Y-53317712D01*
X22780666Y-53409814D01*
X22947203Y-53464999D01*
X23049991Y-53475500D01*
X24274901Y-53475499D01*
X24341940Y-53495184D01*
X24362582Y-53511818D01*
X30911284Y-60060520D01*
X31048215Y-60139577D01*
X31200943Y-60180501D01*
X31200946Y-60180501D01*
X31366654Y-60180501D01*
X31366670Y-60180500D01*
X50374695Y-60180500D01*
X50441734Y-60200185D01*
X50476270Y-60233377D01*
X50559887Y-60352794D01*
X50589170Y-60394615D01*
X50589175Y-60394621D01*
X50745378Y-60550824D01*
X50745384Y-60550829D01*
X50926333Y-60677531D01*
X50926335Y-60677532D01*
X50926338Y-60677534D01*
X51041565Y-60731265D01*
X51055189Y-60737618D01*
X51107628Y-60783790D01*
X51126780Y-60850984D01*
X51106564Y-60917865D01*
X51055189Y-60962382D01*
X50926340Y-61022465D01*
X50926338Y-61022466D01*
X50745379Y-61149174D01*
X50589175Y-61305377D01*
X50462466Y-61486338D01*
X50462465Y-61486340D01*
X50369107Y-61686548D01*
X50369104Y-61686554D01*
X50311930Y-61899929D01*
X50311929Y-61899937D01*
X50292677Y-62119997D01*
X50292677Y-62120002D01*
X50311929Y-62340062D01*
X50311930Y-62340070D01*
X50369104Y-62553445D01*
X50369105Y-62553447D01*
X50369106Y-62553450D01*
X50449101Y-62725000D01*
X50462466Y-62753662D01*
X50462468Y-62753666D01*
X50589170Y-62934615D01*
X50589175Y-62934621D01*
X50745378Y-63090824D01*
X50745384Y-63090829D01*
X50926333Y-63217531D01*
X50926335Y-63217532D01*
X50926338Y-63217534D01*
X51045748Y-63273215D01*
X51055189Y-63277618D01*
X51107628Y-63323790D01*
X51126780Y-63390984D01*
X51106564Y-63457865D01*
X51055189Y-63502382D01*
X50926340Y-63562465D01*
X50926338Y-63562466D01*
X50745377Y-63689175D01*
X50589175Y-63845377D01*
X50462466Y-64026338D01*
X50462465Y-64026340D01*
X50369107Y-64226548D01*
X50369104Y-64226554D01*
X50311930Y-64439929D01*
X50311929Y-64439937D01*
X50292677Y-64659997D01*
X50292677Y-64660002D01*
X50311929Y-64880062D01*
X50311930Y-64880070D01*
X50369104Y-65093445D01*
X50369105Y-65093447D01*
X50369106Y-65093450D01*
X50436645Y-65238289D01*
X50462466Y-65293662D01*
X50462468Y-65293666D01*
X50589170Y-65474615D01*
X50589175Y-65474621D01*
X50745378Y-65630824D01*
X50745384Y-65630829D01*
X50926333Y-65757531D01*
X50926335Y-65757532D01*
X50926338Y-65757534D01*
X51045748Y-65813215D01*
X51055189Y-65817618D01*
X51107628Y-65863790D01*
X51126780Y-65930984D01*
X51106564Y-65997865D01*
X51055189Y-66042382D01*
X50926340Y-66102465D01*
X50926338Y-66102466D01*
X50745377Y-66229175D01*
X50589175Y-66385377D01*
X50462466Y-66566338D01*
X50462465Y-66566340D01*
X50369107Y-66766548D01*
X50369104Y-66766554D01*
X50311930Y-66979929D01*
X50311929Y-66979937D01*
X50292677Y-67199997D01*
X50292677Y-67200002D01*
X50311929Y-67420062D01*
X50311930Y-67420070D01*
X50369104Y-67633445D01*
X50369105Y-67633447D01*
X50369106Y-67633450D01*
X50461983Y-67832627D01*
X50462466Y-67833662D01*
X50462468Y-67833666D01*
X50496576Y-67882377D01*
X50518903Y-67948583D01*
X50501893Y-68016350D01*
X50450944Y-68064163D01*
X50395001Y-68077500D01*
X41878097Y-68077500D01*
X41811058Y-68057815D01*
X41790416Y-68041181D01*
X38635314Y-64886079D01*
X38601829Y-64824756D01*
X38606813Y-64755064D01*
X38648685Y-64699131D01*
X38703598Y-64675925D01*
X38706281Y-64675500D01*
X38706287Y-64675500D01*
X38876265Y-64648577D01*
X38916238Y-64642247D01*
X38916238Y-64642246D01*
X38916243Y-64642246D01*
X39118412Y-64576557D01*
X39307816Y-64480051D01*
X39359849Y-64442247D01*
X39479786Y-64355109D01*
X39479788Y-64355106D01*
X39479792Y-64355104D01*
X39630104Y-64204792D01*
X39749991Y-64039779D01*
X39805320Y-63997115D01*
X39874933Y-63991136D01*
X39936729Y-64023741D01*
X39950627Y-64039781D01*
X40070272Y-64204459D01*
X40070276Y-64204464D01*
X40220535Y-64354723D01*
X40220540Y-64354727D01*
X40392442Y-64479620D01*
X40581782Y-64576095D01*
X40783871Y-64641757D01*
X40850000Y-64652231D01*
X40850000Y-63604145D01*
X40916657Y-63642630D01*
X41037465Y-63675000D01*
X41162535Y-63675000D01*
X41283343Y-63642630D01*
X41350000Y-63604145D01*
X41350000Y-64652230D01*
X41416126Y-64641757D01*
X41416129Y-64641757D01*
X41618217Y-64576095D01*
X41807557Y-64479620D01*
X41979459Y-64354727D01*
X41979464Y-64354723D01*
X42129723Y-64204464D01*
X42129727Y-64204459D01*
X42254620Y-64032557D01*
X42351095Y-63843217D01*
X42416757Y-63641130D01*
X42416757Y-63641127D01*
X42447030Y-63450000D01*
X41504146Y-63450000D01*
X41542630Y-63383343D01*
X41575000Y-63262535D01*
X41575000Y-63137465D01*
X41542630Y-63016657D01*
X41504146Y-62950000D01*
X42447030Y-62950000D01*
X42416757Y-62758872D01*
X42416757Y-62758869D01*
X42351095Y-62556782D01*
X42254620Y-62367442D01*
X42129727Y-62195540D01*
X42129723Y-62195535D01*
X41979464Y-62045276D01*
X41979459Y-62045272D01*
X41807557Y-61920379D01*
X41618215Y-61823903D01*
X41416124Y-61758241D01*
X41350000Y-61747768D01*
X41350000Y-62795854D01*
X41283343Y-62757370D01*
X41162535Y-62725000D01*
X41037465Y-62725000D01*
X40916657Y-62757370D01*
X40850000Y-62795854D01*
X40850000Y-61747768D01*
X40849999Y-61747768D01*
X40783875Y-61758241D01*
X40581784Y-61823903D01*
X40392442Y-61920379D01*
X40220540Y-62045272D01*
X40220535Y-62045276D01*
X40070276Y-62195535D01*
X40070272Y-62195540D01*
X39950627Y-62360218D01*
X39895297Y-62402884D01*
X39825684Y-62408863D01*
X39763889Y-62376257D01*
X39749991Y-62360218D01*
X39630109Y-62195214D01*
X39630105Y-62195209D01*
X39479786Y-62044890D01*
X39307820Y-61919951D01*
X39118414Y-61823444D01*
X39118413Y-61823443D01*
X39118412Y-61823443D01*
X38916243Y-61757754D01*
X38916241Y-61757753D01*
X38916240Y-61757753D01*
X38754957Y-61732208D01*
X38706287Y-61724500D01*
X38493713Y-61724500D01*
X38445042Y-61732208D01*
X38283760Y-61757753D01*
X38081585Y-61823444D01*
X37892179Y-61919951D01*
X37720215Y-62044889D01*
X37581398Y-62183706D01*
X37520075Y-62217190D01*
X37450383Y-62212206D01*
X37394450Y-62170334D01*
X37388178Y-62161120D01*
X37292712Y-62006344D01*
X37168657Y-61882289D01*
X37168656Y-61882288D01*
X37073253Y-61823443D01*
X37019336Y-61790187D01*
X37019331Y-61790185D01*
X37017862Y-61789698D01*
X36852797Y-61735001D01*
X36852795Y-61735000D01*
X36750010Y-61724500D01*
X35449998Y-61724500D01*
X35449981Y-61724501D01*
X35347203Y-61735000D01*
X35347200Y-61735001D01*
X35180668Y-61790185D01*
X35180663Y-61790187D01*
X35031342Y-61882289D01*
X34907289Y-62006342D01*
X34815187Y-62155663D01*
X34815185Y-62155668D01*
X34811369Y-62167184D01*
X34760001Y-62322203D01*
X34760001Y-62322204D01*
X34760000Y-62322204D01*
X34749500Y-62424983D01*
X34749500Y-63975001D01*
X34749501Y-63975018D01*
X34760000Y-64077796D01*
X34760001Y-64077799D01*
X34790482Y-64169783D01*
X34815186Y-64244334D01*
X34907288Y-64393656D01*
X35031344Y-64517712D01*
X35180666Y-64609814D01*
X35347203Y-64664999D01*
X35449991Y-64675500D01*
X36674902Y-64675499D01*
X36741941Y-64695184D01*
X36762583Y-64711818D01*
X41093139Y-69042374D01*
X41093149Y-69042385D01*
X41097479Y-69046715D01*
X41097480Y-69046716D01*
X41209284Y-69158520D01*
X41296095Y-69208639D01*
X41296097Y-69208641D01*
X41334151Y-69230611D01*
X41346215Y-69237577D01*
X41498943Y-69278501D01*
X41498946Y-69278501D01*
X41664653Y-69278501D01*
X41664669Y-69278500D01*
X50215540Y-69278500D01*
X50282579Y-69298185D01*
X50328334Y-69350989D01*
X50338278Y-69420147D01*
X50335315Y-69434594D01*
X50312425Y-69520017D01*
X50312424Y-69520023D01*
X50293179Y-69739999D01*
X50293179Y-69740000D01*
X50312424Y-69959976D01*
X50312426Y-69959986D01*
X50369575Y-70173270D01*
X50369580Y-70173284D01*
X50392808Y-70223096D01*
X50403300Y-70292173D01*
X50374780Y-70355957D01*
X50316303Y-70394196D01*
X50280426Y-70399500D01*
X32000097Y-70399500D01*
X31933058Y-70379815D01*
X31912416Y-70363181D01*
X26235314Y-64686079D01*
X26201829Y-64624756D01*
X26206813Y-64555064D01*
X26248685Y-64499131D01*
X26303598Y-64475925D01*
X26306281Y-64475500D01*
X26306287Y-64475500D01*
X26476265Y-64448577D01*
X26516238Y-64442247D01*
X26516238Y-64442246D01*
X26516243Y-64442246D01*
X26718412Y-64376557D01*
X26907816Y-64280051D01*
X26981449Y-64226554D01*
X27079786Y-64155109D01*
X27079788Y-64155106D01*
X27079792Y-64155104D01*
X27230104Y-64004792D01*
X27349991Y-63839779D01*
X27405320Y-63797115D01*
X27474933Y-63791136D01*
X27536729Y-63823741D01*
X27550627Y-63839781D01*
X27670272Y-64004459D01*
X27670276Y-64004464D01*
X27820535Y-64154723D01*
X27820540Y-64154727D01*
X27992442Y-64279620D01*
X28181782Y-64376095D01*
X28383871Y-64441757D01*
X28450000Y-64452231D01*
X28450000Y-63404145D01*
X28516657Y-63442630D01*
X28637465Y-63475000D01*
X28762535Y-63475000D01*
X28883343Y-63442630D01*
X28950000Y-63404145D01*
X28950000Y-64452230D01*
X29016126Y-64441757D01*
X29016129Y-64441757D01*
X29218217Y-64376095D01*
X29407557Y-64279620D01*
X29579459Y-64154727D01*
X29579464Y-64154723D01*
X29729723Y-64004464D01*
X29729727Y-64004459D01*
X29854620Y-63832557D01*
X29951095Y-63643217D01*
X30016757Y-63441130D01*
X30016757Y-63441127D01*
X30047030Y-63250000D01*
X29104146Y-63250000D01*
X29142630Y-63183343D01*
X29175000Y-63062535D01*
X29175000Y-62937465D01*
X29142630Y-62816657D01*
X29104146Y-62750000D01*
X30047030Y-62750000D01*
X30016757Y-62558872D01*
X30016757Y-62558869D01*
X29951095Y-62356782D01*
X29854620Y-62167442D01*
X29729727Y-61995540D01*
X29729723Y-61995535D01*
X29579464Y-61845276D01*
X29579459Y-61845272D01*
X29407557Y-61720379D01*
X29218215Y-61623903D01*
X29016124Y-61558241D01*
X28950000Y-61547768D01*
X28950000Y-62595854D01*
X28883343Y-62557370D01*
X28762535Y-62525000D01*
X28637465Y-62525000D01*
X28516657Y-62557370D01*
X28450000Y-62595854D01*
X28450000Y-61547768D01*
X28449999Y-61547768D01*
X28383875Y-61558241D01*
X28181784Y-61623903D01*
X27992442Y-61720379D01*
X27820540Y-61845272D01*
X27820535Y-61845276D01*
X27670276Y-61995535D01*
X27670272Y-61995540D01*
X27550627Y-62160218D01*
X27495297Y-62202884D01*
X27425684Y-62208863D01*
X27363889Y-62176257D01*
X27349991Y-62160218D01*
X27230109Y-61995214D01*
X27230105Y-61995209D01*
X27079786Y-61844890D01*
X26907820Y-61719951D01*
X26718414Y-61623444D01*
X26718413Y-61623443D01*
X26718412Y-61623443D01*
X26516243Y-61557754D01*
X26516241Y-61557753D01*
X26516240Y-61557753D01*
X26354957Y-61532208D01*
X26306287Y-61524500D01*
X26093713Y-61524500D01*
X26045042Y-61532208D01*
X25883760Y-61557753D01*
X25681585Y-61623444D01*
X25492179Y-61719951D01*
X25320215Y-61844889D01*
X25181398Y-61983706D01*
X25120075Y-62017190D01*
X25050383Y-62012206D01*
X24994450Y-61970334D01*
X24988178Y-61961120D01*
X24892712Y-61806344D01*
X24768657Y-61682289D01*
X24768656Y-61682288D01*
X24619334Y-61590186D01*
X24452797Y-61535001D01*
X24452795Y-61535000D01*
X24350010Y-61524500D01*
X23049998Y-61524500D01*
X23049981Y-61524501D01*
X22947203Y-61535000D01*
X22947200Y-61535001D01*
X22780668Y-61590185D01*
X22780663Y-61590187D01*
X22631342Y-61682289D01*
X22507289Y-61806342D01*
X22415187Y-61955663D01*
X22415185Y-61955668D01*
X22398393Y-62006344D01*
X22360001Y-62122203D01*
X22360001Y-62122204D01*
X22360000Y-62122204D01*
X22349500Y-62224983D01*
X22349500Y-63775001D01*
X22349501Y-63775018D01*
X22360000Y-63877796D01*
X22360001Y-63877799D01*
X22415185Y-64044331D01*
X22415187Y-64044336D01*
X22437506Y-64080521D01*
X22507288Y-64193656D01*
X22631344Y-64317712D01*
X22780666Y-64409814D01*
X22947203Y-64464999D01*
X23049991Y-64475500D01*
X24274902Y-64475499D01*
X24341941Y-64495184D01*
X24362583Y-64511818D01*
X31215139Y-71364374D01*
X31215149Y-71364385D01*
X31219479Y-71368715D01*
X31219480Y-71368716D01*
X31331284Y-71480520D01*
X31331286Y-71480521D01*
X31331290Y-71480524D01*
X31410001Y-71525967D01*
X31468216Y-71559577D01*
X31580019Y-71589534D01*
X31620942Y-71600500D01*
X31620943Y-71600500D01*
X50289752Y-71600500D01*
X50356791Y-71620185D01*
X50402546Y-71672989D01*
X50412490Y-71742147D01*
X50402134Y-71776904D01*
X50369580Y-71846715D01*
X50369575Y-71846729D01*
X50312426Y-72060013D01*
X50312424Y-72060023D01*
X50300418Y-72197256D01*
X50274965Y-72262324D01*
X50218374Y-72303303D01*
X50176890Y-72310448D01*
X24875722Y-72310448D01*
X24875706Y-72310447D01*
X24868110Y-72310447D01*
X24709995Y-72310447D01*
X24633631Y-72330909D01*
X24557266Y-72351371D01*
X24557261Y-72351374D01*
X24420342Y-72430423D01*
X24420334Y-72430429D01*
X23962582Y-72888181D01*
X23901259Y-72921666D01*
X23874901Y-72924500D01*
X22649998Y-72924500D01*
X22649981Y-72924501D01*
X22547203Y-72935000D01*
X22547200Y-72935001D01*
X22380668Y-72990185D01*
X22380663Y-72990187D01*
X22231342Y-73082289D01*
X22107289Y-73206342D01*
X22015187Y-73355663D01*
X22015185Y-73355668D01*
X21987349Y-73439670D01*
X21960001Y-73522203D01*
X21960001Y-73522204D01*
X21960000Y-73522204D01*
X21949500Y-73624983D01*
X21949500Y-75175001D01*
X21949501Y-75175018D01*
X21960000Y-75277796D01*
X21960001Y-75277799D01*
X22015185Y-75444331D01*
X22015187Y-75444336D01*
X22047741Y-75497115D01*
X22107288Y-75593656D01*
X22231344Y-75717712D01*
X22380666Y-75809814D01*
X22547203Y-75864999D01*
X22649991Y-75875500D01*
X23950008Y-75875499D01*
X24052797Y-75864999D01*
X24219334Y-75809814D01*
X24368656Y-75717712D01*
X24492712Y-75593656D01*
X24584814Y-75444334D01*
X24584814Y-75444331D01*
X24588178Y-75438879D01*
X24640126Y-75392154D01*
X24709088Y-75380931D01*
X24773170Y-75408774D01*
X24781398Y-75416294D01*
X24920213Y-75555109D01*
X25092179Y-75680048D01*
X25092181Y-75680049D01*
X25092184Y-75680051D01*
X25281588Y-75776557D01*
X25483757Y-75842246D01*
X25693713Y-75875500D01*
X25693714Y-75875500D01*
X25906286Y-75875500D01*
X25906287Y-75875500D01*
X26116243Y-75842246D01*
X26318412Y-75776557D01*
X26507816Y-75680051D01*
X26529789Y-75664086D01*
X26679786Y-75555109D01*
X26679788Y-75555106D01*
X26679792Y-75555104D01*
X26830104Y-75404792D01*
X26949991Y-75239779D01*
X27005320Y-75197115D01*
X27074933Y-75191136D01*
X27136729Y-75223741D01*
X27150627Y-75239781D01*
X27270272Y-75404459D01*
X27270276Y-75404464D01*
X27420535Y-75554723D01*
X27420540Y-75554727D01*
X27592442Y-75679620D01*
X27781782Y-75776095D01*
X27983871Y-75841757D01*
X28050000Y-75852231D01*
X28050000Y-74804145D01*
X28116657Y-74842630D01*
X28237465Y-74875000D01*
X28362535Y-74875000D01*
X28483343Y-74842630D01*
X28550000Y-74804145D01*
X28550000Y-75852230D01*
X28616126Y-75841757D01*
X28616129Y-75841757D01*
X28818217Y-75776095D01*
X29007557Y-75679620D01*
X29179459Y-75554727D01*
X29179464Y-75554723D01*
X29329723Y-75404464D01*
X29329727Y-75404459D01*
X29454620Y-75232557D01*
X29551095Y-75043217D01*
X29616757Y-74841130D01*
X29616757Y-74841127D01*
X29647030Y-74650000D01*
X28704146Y-74650000D01*
X28742630Y-74583343D01*
X28775000Y-74462535D01*
X28775000Y-74337465D01*
X28742630Y-74216657D01*
X28704146Y-74150000D01*
X29647030Y-74150000D01*
X29616757Y-73958872D01*
X29616757Y-73958869D01*
X29551095Y-73756782D01*
X29517956Y-73691743D01*
X29505060Y-73623074D01*
X29531336Y-73558333D01*
X29588443Y-73518076D01*
X29628441Y-73511448D01*
X34791255Y-73511448D01*
X34858294Y-73531133D01*
X34904049Y-73583937D01*
X34913993Y-73653095D01*
X34908961Y-73674452D01*
X34860001Y-73822203D01*
X34860000Y-73822204D01*
X34849500Y-73924983D01*
X34849500Y-75475001D01*
X34849501Y-75475018D01*
X34860000Y-75577796D01*
X34860001Y-75577799D01*
X34905894Y-75716294D01*
X34915186Y-75744334D01*
X35007288Y-75893656D01*
X35131344Y-76017712D01*
X35280666Y-76109814D01*
X35447203Y-76164999D01*
X35549991Y-76175500D01*
X36850008Y-76175499D01*
X36952797Y-76164999D01*
X37119334Y-76109814D01*
X37268656Y-76017712D01*
X37392712Y-75893656D01*
X37484814Y-75744334D01*
X37484814Y-75744331D01*
X37488178Y-75738879D01*
X37540126Y-75692154D01*
X37609088Y-75680931D01*
X37673170Y-75708774D01*
X37681398Y-75716294D01*
X37820213Y-75855109D01*
X37992179Y-75980048D01*
X37992181Y-75980049D01*
X37992184Y-75980051D01*
X38181588Y-76076557D01*
X38383757Y-76142246D01*
X38593713Y-76175500D01*
X38593714Y-76175500D01*
X38806286Y-76175500D01*
X38806287Y-76175500D01*
X39016243Y-76142246D01*
X39218412Y-76076557D01*
X39407816Y-75980051D01*
X39429789Y-75964086D01*
X39579786Y-75855109D01*
X39579788Y-75855106D01*
X39579792Y-75855104D01*
X39730104Y-75704792D01*
X39849991Y-75539779D01*
X39905320Y-75497115D01*
X39974933Y-75491136D01*
X40036729Y-75523741D01*
X40050627Y-75539781D01*
X40170272Y-75704459D01*
X40170276Y-75704464D01*
X40320535Y-75854723D01*
X40320540Y-75854727D01*
X40492442Y-75979620D01*
X40681782Y-76076095D01*
X40883871Y-76141757D01*
X40950000Y-76152231D01*
X40950000Y-75104145D01*
X41016657Y-75142630D01*
X41137465Y-75175000D01*
X41262535Y-75175000D01*
X41383343Y-75142630D01*
X41450000Y-75104145D01*
X41450000Y-76152230D01*
X41516126Y-76141757D01*
X41516129Y-76141757D01*
X41718217Y-76076095D01*
X41907557Y-75979620D01*
X42079459Y-75854727D01*
X42079464Y-75854723D01*
X42229723Y-75704464D01*
X42229727Y-75704459D01*
X42354620Y-75532557D01*
X42451095Y-75343217D01*
X42516757Y-75141130D01*
X42516757Y-75141127D01*
X42547030Y-74950000D01*
X41604146Y-74950000D01*
X41642630Y-74883343D01*
X41675000Y-74762535D01*
X41675000Y-74637465D01*
X41642630Y-74516657D01*
X41604146Y-74450000D01*
X42547030Y-74450000D01*
X42516757Y-74258872D01*
X42516757Y-74258869D01*
X42493671Y-74187818D01*
X42491676Y-74117977D01*
X42527756Y-74058144D01*
X42590457Y-74027316D01*
X42611602Y-74025500D01*
X50324902Y-74025500D01*
X50391941Y-74045185D01*
X50412583Y-74061819D01*
X50573284Y-74222520D01*
X50573286Y-74222521D01*
X50573290Y-74222524D01*
X50710209Y-74301573D01*
X50710212Y-74301575D01*
X50710216Y-74301577D01*
X50862943Y-74342501D01*
X50862945Y-74342501D01*
X51028654Y-74342501D01*
X51028670Y-74342500D01*
X67671331Y-74342500D01*
X67671347Y-74342501D01*
X67678943Y-74342501D01*
X67837054Y-74342501D01*
X67837057Y-74342501D01*
X67989785Y-74301577D01*
X68063951Y-74258757D01*
X68126716Y-74222520D01*
X68238520Y-74110716D01*
X68238521Y-74110714D01*
X68742520Y-73606716D01*
X68821577Y-73469784D01*
X68862501Y-73317057D01*
X68862501Y-73158942D01*
X68862501Y-73151347D01*
X68862500Y-73151329D01*
X68862500Y-66369202D01*
X68882185Y-66302163D01*
X68934989Y-66256408D01*
X69004147Y-66246464D01*
X69067703Y-66275489D01*
X69074180Y-66281520D01*
X70795379Y-68002720D01*
X72511062Y-69718403D01*
X72544547Y-69779726D01*
X72540423Y-69847038D01*
X72514631Y-69920747D01*
X72494435Y-70099996D01*
X72494435Y-70100003D01*
X72514630Y-70279249D01*
X72514631Y-70279254D01*
X72574211Y-70449523D01*
X72670184Y-70602262D01*
X72797738Y-70729816D01*
X72950478Y-70825789D01*
X73120745Y-70885368D01*
X73120750Y-70885369D01*
X73299996Y-70905565D01*
X73300000Y-70905565D01*
X73300004Y-70905565D01*
X73479249Y-70885369D01*
X73479252Y-70885368D01*
X73479255Y-70885368D01*
X73649522Y-70825789D01*
X73802262Y-70729816D01*
X73929816Y-70602262D01*
X74025789Y-70449522D01*
X74085368Y-70279255D01*
X74085369Y-70279249D01*
X74105565Y-70100003D01*
X74105565Y-70099996D01*
X74085369Y-69920750D01*
X74085368Y-69920745D01*
X74036023Y-69779726D01*
X74025789Y-69750478D01*
X74019206Y-69740002D01*
X73929813Y-69597734D01*
X73927550Y-69594896D01*
X73926659Y-69592715D01*
X73926111Y-69591842D01*
X73926264Y-69591745D01*
X73901144Y-69530209D01*
X73900500Y-69517587D01*
X73900500Y-64182412D01*
X73920185Y-64115373D01*
X73927555Y-64105097D01*
X73929812Y-64102266D01*
X73929816Y-64102262D01*
X73971812Y-64035425D01*
X74024142Y-63989138D01*
X74093196Y-63978488D01*
X74157044Y-64006863D01*
X74164484Y-64013719D01*
X87613181Y-77462416D01*
X87646666Y-77523739D01*
X87649500Y-77550097D01*
X87649500Y-78775001D01*
X87649501Y-78775018D01*
X87660000Y-78877796D01*
X87660001Y-78877799D01*
X87690795Y-78970728D01*
X87715186Y-79044334D01*
X87807288Y-79193656D01*
X87931344Y-79317712D01*
X88080666Y-79409814D01*
X88247203Y-79464999D01*
X88349991Y-79475500D01*
X89650008Y-79475499D01*
X89752797Y-79464999D01*
X89919334Y-79409814D01*
X90068656Y-79317712D01*
X90192712Y-79193656D01*
X90284814Y-79044334D01*
X90284814Y-79044331D01*
X90288448Y-79038441D01*
X90340395Y-78991716D01*
X90409358Y-78980493D01*
X90473440Y-79008336D01*
X90481668Y-79015856D01*
X90620535Y-79154723D01*
X90620540Y-79154727D01*
X90792442Y-79279620D01*
X90981782Y-79376095D01*
X91183871Y-79441757D01*
X91250000Y-79452231D01*
X91250000Y-78404145D01*
X91316657Y-78442630D01*
X91437465Y-78475000D01*
X91562535Y-78475000D01*
X91683343Y-78442630D01*
X91750000Y-78404145D01*
X91750000Y-79452230D01*
X91816126Y-79441757D01*
X91816129Y-79441757D01*
X92018217Y-79376095D01*
X92207557Y-79279620D01*
X92379459Y-79154727D01*
X92379464Y-79154723D01*
X92529721Y-79004466D01*
X92649371Y-78839781D01*
X92704701Y-78797115D01*
X92774314Y-78791136D01*
X92836110Y-78823741D01*
X92850008Y-78839781D01*
X92969890Y-79004785D01*
X92969894Y-79004790D01*
X93120213Y-79155109D01*
X93292179Y-79280048D01*
X93292181Y-79280049D01*
X93292184Y-79280051D01*
X93481588Y-79376557D01*
X93683757Y-79442246D01*
X93893713Y-79475500D01*
X93893714Y-79475500D01*
X94106286Y-79475500D01*
X94106287Y-79475500D01*
X94316243Y-79442246D01*
X94518412Y-79376557D01*
X94707816Y-79280051D01*
X94729789Y-79264086D01*
X94879786Y-79155109D01*
X94879788Y-79155106D01*
X94879792Y-79155104D01*
X95030104Y-79004792D01*
X95149991Y-78839779D01*
X95205320Y-78797115D01*
X95274933Y-78791136D01*
X95336729Y-78823741D01*
X95350627Y-78839781D01*
X95470272Y-79004459D01*
X95470276Y-79004464D01*
X95620535Y-79154723D01*
X95620540Y-79154727D01*
X95792442Y-79279620D01*
X95981782Y-79376095D01*
X96183871Y-79441757D01*
X96250000Y-79452231D01*
X96250000Y-78404145D01*
X96316657Y-78442630D01*
X96437465Y-78475000D01*
X96562535Y-78475000D01*
X96683343Y-78442630D01*
X96750000Y-78404145D01*
X96750000Y-79452230D01*
X96816126Y-79441757D01*
X96816129Y-79441757D01*
X97018217Y-79376095D01*
X97207557Y-79279620D01*
X97379459Y-79154727D01*
X97379464Y-79154723D01*
X97529721Y-79004466D01*
X97649371Y-78839781D01*
X97704701Y-78797115D01*
X97774314Y-78791136D01*
X97836110Y-78823741D01*
X97850008Y-78839781D01*
X97969890Y-79004785D01*
X97969894Y-79004790D01*
X98120213Y-79155109D01*
X98292179Y-79280048D01*
X98292181Y-79280049D01*
X98292184Y-79280051D01*
X98481588Y-79376557D01*
X98683757Y-79442246D01*
X98893713Y-79475500D01*
X98893714Y-79475500D01*
X99106286Y-79475500D01*
X99106287Y-79475500D01*
X99316243Y-79442246D01*
X99518412Y-79376557D01*
X99707816Y-79280051D01*
X99729789Y-79264086D01*
X99879786Y-79155109D01*
X99879788Y-79155106D01*
X99879792Y-79155104D01*
X100030104Y-79004792D01*
X100149991Y-78839779D01*
X100205320Y-78797115D01*
X100274933Y-78791136D01*
X100336729Y-78823741D01*
X100350627Y-78839781D01*
X100470272Y-79004459D01*
X100470276Y-79004464D01*
X100620535Y-79154723D01*
X100620540Y-79154727D01*
X100792442Y-79279620D01*
X100981782Y-79376095D01*
X101183871Y-79441757D01*
X101250000Y-79452231D01*
X101250000Y-78404145D01*
X101316657Y-78442630D01*
X101437465Y-78475000D01*
X101562535Y-78475000D01*
X101683343Y-78442630D01*
X101750000Y-78404145D01*
X101750000Y-79452230D01*
X101816126Y-79441757D01*
X101816129Y-79441757D01*
X102018217Y-79376095D01*
X102207557Y-79279620D01*
X102379459Y-79154727D01*
X102379464Y-79154723D01*
X102529723Y-79004464D01*
X102529727Y-79004459D01*
X102654620Y-78832557D01*
X102751095Y-78643217D01*
X102816757Y-78441130D01*
X102816757Y-78441127D01*
X102847030Y-78250000D01*
X101904146Y-78250000D01*
X101942630Y-78183343D01*
X101975000Y-78062535D01*
X101975000Y-77937465D01*
X101942630Y-77816657D01*
X101904146Y-77750000D01*
X102847030Y-77750000D01*
X102816757Y-77558872D01*
X102816757Y-77558869D01*
X102751095Y-77356782D01*
X102654620Y-77167442D01*
X102529727Y-76995540D01*
X102529723Y-76995535D01*
X102379464Y-76845276D01*
X102379459Y-76845272D01*
X102207557Y-76720379D01*
X102018215Y-76623903D01*
X101816124Y-76558241D01*
X101750000Y-76547768D01*
X101750000Y-77595854D01*
X101683343Y-77557370D01*
X101562535Y-77525000D01*
X101437465Y-77525000D01*
X101316657Y-77557370D01*
X101250000Y-77595854D01*
X101250000Y-76547768D01*
X101249999Y-76547768D01*
X101183875Y-76558241D01*
X100981784Y-76623903D01*
X100792442Y-76720379D01*
X100620540Y-76845272D01*
X100620535Y-76845276D01*
X100470276Y-76995535D01*
X100470272Y-76995540D01*
X100350627Y-77160218D01*
X100295297Y-77202884D01*
X100225684Y-77208863D01*
X100163889Y-77176257D01*
X100149991Y-77160218D01*
X100030109Y-76995214D01*
X100030105Y-76995209D01*
X99879786Y-76844890D01*
X99707820Y-76719951D01*
X99518414Y-76623444D01*
X99518413Y-76623443D01*
X99518412Y-76623443D01*
X99316243Y-76557754D01*
X99316241Y-76557753D01*
X99316240Y-76557753D01*
X99154957Y-76532208D01*
X99106287Y-76524500D01*
X98893713Y-76524500D01*
X98845042Y-76532208D01*
X98683760Y-76557753D01*
X98683757Y-76557754D01*
X98547129Y-76602147D01*
X98477290Y-76604142D01*
X98421132Y-76571897D01*
X97187590Y-75338355D01*
X97187588Y-75338352D01*
X97068717Y-75219481D01*
X97068712Y-75219477D01*
X96961744Y-75157720D01*
X96961742Y-75157719D01*
X96931787Y-75140424D01*
X96931786Y-75140423D01*
X96931785Y-75140423D01*
X96779057Y-75099499D01*
X96620943Y-75099499D01*
X96613347Y-75099499D01*
X96613331Y-75099500D01*
X88165783Y-75099500D01*
X88098744Y-75079815D01*
X88078102Y-75063181D01*
X85714920Y-72699999D01*
X87264341Y-72699999D01*
X87264341Y-72700000D01*
X87284936Y-72935403D01*
X87284938Y-72935413D01*
X87346094Y-73163655D01*
X87346096Y-73163659D01*
X87346097Y-73163663D01*
X87365999Y-73206342D01*
X87445965Y-73377830D01*
X87445967Y-73377834D01*
X87510356Y-73469790D01*
X87581505Y-73571401D01*
X87748599Y-73738495D01*
X87774716Y-73756782D01*
X87942165Y-73874032D01*
X87942167Y-73874033D01*
X87942170Y-73874035D01*
X88156337Y-73973903D01*
X88384592Y-74035063D01*
X88555319Y-74050000D01*
X88619999Y-74055659D01*
X88620000Y-74055659D01*
X88620001Y-74055659D01*
X88684681Y-74050000D01*
X88855408Y-74035063D01*
X89083663Y-73973903D01*
X89297830Y-73874035D01*
X89491401Y-73738495D01*
X89658495Y-73571401D01*
X89788425Y-73385842D01*
X89843002Y-73342217D01*
X89912500Y-73335023D01*
X89974855Y-73366546D01*
X89991575Y-73385842D01*
X90121500Y-73571395D01*
X90121505Y-73571401D01*
X90288599Y-73738495D01*
X90314716Y-73756782D01*
X90482165Y-73874032D01*
X90482167Y-73874033D01*
X90482170Y-73874035D01*
X90696337Y-73973903D01*
X90924592Y-74035063D01*
X91095319Y-74050000D01*
X91159999Y-74055659D01*
X91160000Y-74055659D01*
X91160001Y-74055659D01*
X91224681Y-74050000D01*
X91395408Y-74035063D01*
X91623663Y-73973903D01*
X91837830Y-73874035D01*
X92031401Y-73738495D01*
X92153717Y-73616178D01*
X92215036Y-73582696D01*
X92284728Y-73587680D01*
X92340662Y-73629551D01*
X92357577Y-73660528D01*
X92406646Y-73792088D01*
X92406649Y-73792093D01*
X92492809Y-73907187D01*
X92492812Y-73907190D01*
X92607906Y-73993350D01*
X92607913Y-73993354D01*
X92742620Y-74043596D01*
X92742627Y-74043598D01*
X92802155Y-74049999D01*
X92802172Y-74050000D01*
X93450000Y-74050000D01*
X93450000Y-73133012D01*
X93507007Y-73165925D01*
X93634174Y-73200000D01*
X93765826Y-73200000D01*
X93892993Y-73165925D01*
X93950000Y-73133012D01*
X93950000Y-74050000D01*
X94597828Y-74050000D01*
X94597844Y-74049999D01*
X94657372Y-74043598D01*
X94657379Y-74043596D01*
X94792086Y-73993354D01*
X94792093Y-73993350D01*
X94907187Y-73907190D01*
X94907190Y-73907187D01*
X94993350Y-73792093D01*
X94993354Y-73792086D01*
X95043596Y-73657379D01*
X95043598Y-73657372D01*
X95049999Y-73597844D01*
X95050000Y-73597827D01*
X95050000Y-72950000D01*
X94133012Y-72950000D01*
X94165925Y-72892993D01*
X94200000Y-72765826D01*
X94200000Y-72634174D01*
X94165925Y-72507007D01*
X94133012Y-72450000D01*
X95050000Y-72450000D01*
X95050000Y-71802172D01*
X95049999Y-71802155D01*
X95043598Y-71742627D01*
X95043596Y-71742620D01*
X94993354Y-71607913D01*
X94993350Y-71607906D01*
X94907190Y-71492812D01*
X94907187Y-71492809D01*
X94792093Y-71406649D01*
X94792086Y-71406645D01*
X94657379Y-71356403D01*
X94657372Y-71356401D01*
X94597844Y-71350000D01*
X93950000Y-71350000D01*
X93950000Y-72266988D01*
X93892993Y-72234075D01*
X93765826Y-72200000D01*
X93634174Y-72200000D01*
X93507007Y-72234075D01*
X93450000Y-72266988D01*
X93450000Y-71350000D01*
X92802155Y-71350000D01*
X92742627Y-71356401D01*
X92742620Y-71356403D01*
X92607913Y-71406645D01*
X92607906Y-71406649D01*
X92492812Y-71492809D01*
X92492809Y-71492812D01*
X92406649Y-71607906D01*
X92406645Y-71607913D01*
X92357578Y-71739470D01*
X92315707Y-71795404D01*
X92250242Y-71819821D01*
X92181969Y-71804969D01*
X92153715Y-71783819D01*
X92109366Y-71739470D01*
X92031401Y-71661505D01*
X92031397Y-71661502D01*
X92031396Y-71661501D01*
X91837834Y-71525967D01*
X91837830Y-71525965D01*
X91766727Y-71492809D01*
X91623663Y-71426097D01*
X91623659Y-71426096D01*
X91623655Y-71426094D01*
X91395413Y-71364938D01*
X91395403Y-71364936D01*
X91160001Y-71344341D01*
X91159999Y-71344341D01*
X90924596Y-71364936D01*
X90924586Y-71364938D01*
X90696344Y-71426094D01*
X90696335Y-71426098D01*
X90482171Y-71525964D01*
X90482169Y-71525965D01*
X90288597Y-71661505D01*
X90121505Y-71828597D01*
X89991575Y-72014158D01*
X89936998Y-72057783D01*
X89867500Y-72064977D01*
X89805145Y-72033454D01*
X89788425Y-72014158D01*
X89658494Y-71828597D01*
X89491402Y-71661506D01*
X89491395Y-71661501D01*
X89297834Y-71525967D01*
X89297830Y-71525965D01*
X89226727Y-71492809D01*
X89083663Y-71426097D01*
X89083659Y-71426096D01*
X89083655Y-71426094D01*
X88855413Y-71364938D01*
X88855403Y-71364936D01*
X88620001Y-71344341D01*
X88619999Y-71344341D01*
X88384596Y-71364936D01*
X88384586Y-71364938D01*
X88156344Y-71426094D01*
X88156335Y-71426098D01*
X87942171Y-71525964D01*
X87942169Y-71525965D01*
X87748597Y-71661505D01*
X87581505Y-71828597D01*
X87445965Y-72022169D01*
X87445964Y-72022171D01*
X87346098Y-72236335D01*
X87346094Y-72236344D01*
X87284938Y-72464586D01*
X87284936Y-72464596D01*
X87264341Y-72699999D01*
X85714920Y-72699999D01*
X73369662Y-60354741D01*
X73336177Y-60293418D01*
X73333343Y-60267060D01*
X73333343Y-54349999D01*
X77714364Y-54349999D01*
X77714364Y-54350000D01*
X78611988Y-54350000D01*
X78579075Y-54407007D01*
X78545000Y-54534174D01*
X78545000Y-54665826D01*
X78579075Y-54792993D01*
X78611988Y-54850000D01*
X77714364Y-54850000D01*
X77771567Y-55063486D01*
X77771570Y-55063492D01*
X77871399Y-55277578D01*
X78006894Y-55471082D01*
X78173917Y-55638105D01*
X78367421Y-55773600D01*
X78581507Y-55873429D01*
X78581516Y-55873433D01*
X78795000Y-55930634D01*
X78795000Y-55033012D01*
X78852007Y-55065925D01*
X78979174Y-55100000D01*
X79110826Y-55100000D01*
X79237993Y-55065925D01*
X79295000Y-55033012D01*
X79295000Y-55930633D01*
X79508483Y-55873433D01*
X79508492Y-55873429D01*
X79722578Y-55773600D01*
X79916082Y-55638105D01*
X80083105Y-55471082D01*
X80213119Y-55285405D01*
X80267696Y-55241781D01*
X80337195Y-55234588D01*
X80399549Y-55266110D01*
X80416269Y-55285405D01*
X80546505Y-55471401D01*
X80713599Y-55638495D01*
X80804486Y-55702135D01*
X80907165Y-55774032D01*
X80907167Y-55774033D01*
X80907170Y-55774035D01*
X81121337Y-55873903D01*
X81349592Y-55935063D01*
X81526034Y-55950500D01*
X81584999Y-55955659D01*
X81585000Y-55955659D01*
X81585001Y-55955659D01*
X81643966Y-55950500D01*
X81820408Y-55935063D01*
X82048663Y-55873903D01*
X82262830Y-55774035D01*
X82456401Y-55638495D01*
X82578329Y-55516566D01*
X82639648Y-55483084D01*
X82709340Y-55488068D01*
X82765274Y-55529939D01*
X82782189Y-55560917D01*
X82831202Y-55692328D01*
X82831206Y-55692335D01*
X82917452Y-55807544D01*
X82917455Y-55807547D01*
X83032664Y-55893793D01*
X83032671Y-55893797D01*
X83167517Y-55944091D01*
X83167516Y-55944091D01*
X83174444Y-55944835D01*
X83227127Y-55950500D01*
X85022872Y-55950499D01*
X85082483Y-55944091D01*
X85217331Y-55893796D01*
X85332546Y-55807546D01*
X85418796Y-55692331D01*
X85469091Y-55557483D01*
X85475500Y-55497873D01*
X85475499Y-53702128D01*
X85469091Y-53642517D01*
X85467810Y-53639083D01*
X85418797Y-53507671D01*
X85418793Y-53507664D01*
X85332547Y-53392455D01*
X85332544Y-53392452D01*
X85217335Y-53306206D01*
X85217328Y-53306202D01*
X85082482Y-53255908D01*
X85082483Y-53255908D01*
X85022883Y-53249501D01*
X85022881Y-53249500D01*
X85022873Y-53249500D01*
X85022864Y-53249500D01*
X83227129Y-53249500D01*
X83227123Y-53249501D01*
X83167516Y-53255908D01*
X83032671Y-53306202D01*
X83032664Y-53306206D01*
X82917455Y-53392452D01*
X82917452Y-53392455D01*
X82831206Y-53507664D01*
X82831203Y-53507669D01*
X82782189Y-53639083D01*
X82740317Y-53695016D01*
X82674853Y-53719433D01*
X82606580Y-53704581D01*
X82578326Y-53683430D01*
X82456402Y-53561506D01*
X82456395Y-53561501D01*
X82262834Y-53425967D01*
X82262830Y-53425965D01*
X82228190Y-53409812D01*
X82048663Y-53326097D01*
X82048659Y-53326096D01*
X82048655Y-53326094D01*
X81820413Y-53264938D01*
X81820403Y-53264936D01*
X81585001Y-53244341D01*
X81584999Y-53244341D01*
X81349596Y-53264936D01*
X81349586Y-53264938D01*
X81121344Y-53326094D01*
X81121335Y-53326098D01*
X80907171Y-53425964D01*
X80907169Y-53425965D01*
X80713597Y-53561505D01*
X80546508Y-53728594D01*
X80416269Y-53914595D01*
X80361692Y-53958219D01*
X80292193Y-53965412D01*
X80229839Y-53933890D01*
X80213119Y-53914594D01*
X80083113Y-53728926D01*
X80083108Y-53728920D01*
X79916082Y-53561894D01*
X79722578Y-53426399D01*
X79508492Y-53326570D01*
X79508486Y-53326567D01*
X79295000Y-53269364D01*
X79295000Y-54166988D01*
X79237993Y-54134075D01*
X79110826Y-54100000D01*
X78979174Y-54100000D01*
X78852007Y-54134075D01*
X78795000Y-54166988D01*
X78795000Y-53269364D01*
X78794999Y-53269364D01*
X78581513Y-53326567D01*
X78581507Y-53326570D01*
X78367422Y-53426399D01*
X78367420Y-53426400D01*
X78173926Y-53561886D01*
X78173920Y-53561891D01*
X78006891Y-53728920D01*
X78006886Y-53728926D01*
X77871400Y-53922420D01*
X77871399Y-53922422D01*
X77771570Y-54136507D01*
X77771567Y-54136513D01*
X77714364Y-54349999D01*
X73333343Y-54349999D01*
X73333343Y-40201902D01*
X73333344Y-40201889D01*
X73333344Y-40033788D01*
X73333344Y-40033786D01*
X73292420Y-39881058D01*
X73260730Y-39826170D01*
X73213363Y-39744127D01*
X73101559Y-39632323D01*
X73101558Y-39632322D01*
X73097228Y-39627992D01*
X73097217Y-39627982D01*
X68060914Y-34591679D01*
X68027429Y-34530356D01*
X68028821Y-34471902D01*
X68040899Y-34426831D01*
X68048070Y-34400068D01*
X68067323Y-34180000D01*
X68066362Y-34169020D01*
X68054419Y-34032500D01*
X68048070Y-33959932D01*
X67990894Y-33746550D01*
X67897534Y-33546339D01*
X67798568Y-33405000D01*
X67770827Y-33365381D01*
X67707946Y-33302500D01*
X67614620Y-33209174D01*
X67614616Y-33209171D01*
X67614615Y-33209170D01*
X67433666Y-33082468D01*
X67433658Y-33082464D01*
X67304811Y-33022382D01*
X67252371Y-32976210D01*
X67233219Y-32909017D01*
X67253435Y-32842135D01*
X67304811Y-32797618D01*
X67353028Y-32775134D01*
X67433662Y-32737534D01*
X67614620Y-32610826D01*
X67770826Y-32454620D01*
X67897534Y-32273662D01*
X67990894Y-32073450D01*
X68048070Y-31860068D01*
X68062509Y-31695017D01*
X68067323Y-31640002D01*
X68067323Y-31639997D01*
X68051946Y-31464234D01*
X68048070Y-31419932D01*
X67990894Y-31206550D01*
X67897534Y-31006339D01*
X67770826Y-30825380D01*
X67614620Y-30669174D01*
X67614616Y-30669171D01*
X67614615Y-30669170D01*
X67433666Y-30542468D01*
X67433658Y-30542464D01*
X67304811Y-30482382D01*
X67252371Y-30436210D01*
X67233219Y-30369017D01*
X67253435Y-30302135D01*
X67304811Y-30257618D01*
X67310802Y-30254824D01*
X67433662Y-30197534D01*
X67614620Y-30070826D01*
X67770826Y-29914620D01*
X67897534Y-29733662D01*
X67990894Y-29533450D01*
X68048070Y-29320068D01*
X68067323Y-29100000D01*
X68062838Y-29048740D01*
X68053889Y-28946442D01*
X68048070Y-28879932D01*
X67990894Y-28666550D01*
X67897534Y-28466339D01*
X67818227Y-28353076D01*
X67770827Y-28285381D01*
X67700179Y-28214733D01*
X67614620Y-28129174D01*
X67614616Y-28129171D01*
X67614615Y-28129170D01*
X67433666Y-28002468D01*
X67433662Y-28002466D01*
X67304218Y-27942105D01*
X67251779Y-27895932D01*
X67232627Y-27828739D01*
X67252843Y-27761858D01*
X67304219Y-27717340D01*
X67433416Y-27657095D01*
X67433417Y-27657094D01*
X67498188Y-27611741D01*
X66888585Y-27002137D01*
X66973694Y-26979333D01*
X67076306Y-26920090D01*
X67160090Y-26836306D01*
X67219333Y-26733694D01*
X67242138Y-26648584D01*
X67851741Y-27258188D01*
X67897094Y-27193417D01*
X67897100Y-27193407D01*
X67990419Y-26993284D01*
X67990424Y-26993270D01*
X68047573Y-26779986D01*
X68047575Y-26779975D01*
X68060684Y-26630135D01*
X68086136Y-26565066D01*
X68142727Y-26524088D01*
X68212489Y-26520209D01*
X68271893Y-26553261D01*
X79002707Y-37284074D01*
X79002728Y-37284097D01*
X81768181Y-40049548D01*
X81801666Y-40110871D01*
X81804500Y-40137229D01*
X81804500Y-42844269D01*
X81784815Y-42911308D01*
X81732011Y-42957063D01*
X81682839Y-42968247D01*
X79999999Y-43000000D01*
X78000000Y-45099999D01*
X78000000Y-45100000D01*
X78000000Y-49000000D01*
X81000000Y-52000000D01*
X83000000Y-52000000D01*
X83963681Y-51036319D01*
X84025004Y-51002834D01*
X84051362Y-51000000D01*
X87782271Y-51000000D01*
X87849310Y-51019685D01*
X87869952Y-51036319D01*
X91963681Y-55130048D01*
X91997166Y-55191371D01*
X92000000Y-55217729D01*
X92000000Y-58000000D01*
X100307270Y-58000000D01*
X100374309Y-58019685D01*
X100394951Y-58036319D01*
X100666276Y-58307644D01*
X100699761Y-58368967D01*
X100694777Y-58438659D01*
X100652905Y-58494592D01*
X100589402Y-58518853D01*
X100439937Y-58531929D01*
X100439929Y-58531930D01*
X100226554Y-58589104D01*
X100226548Y-58589107D01*
X100026340Y-58682465D01*
X100026338Y-58682466D01*
X99845377Y-58809175D01*
X99689175Y-58965377D01*
X99562466Y-59146338D01*
X99562465Y-59146340D01*
X99502382Y-59275189D01*
X99456209Y-59327628D01*
X99389016Y-59346780D01*
X99322135Y-59326564D01*
X99277618Y-59275189D01*
X99217651Y-59146590D01*
X99217534Y-59146339D01*
X99090826Y-58965380D01*
X98934620Y-58809174D01*
X98934616Y-58809171D01*
X98934615Y-58809170D01*
X98753666Y-58682468D01*
X98753662Y-58682466D01*
X98753660Y-58682465D01*
X98553450Y-58589106D01*
X98553447Y-58589105D01*
X98553445Y-58589104D01*
X98340070Y-58531930D01*
X98340062Y-58531929D01*
X98120002Y-58512677D01*
X98119998Y-58512677D01*
X97899937Y-58531929D01*
X97899929Y-58531930D01*
X97686554Y-58589104D01*
X97686548Y-58589107D01*
X97486340Y-58682465D01*
X97486338Y-58682466D01*
X97305377Y-58809175D01*
X97149175Y-58965377D01*
X97022466Y-59146338D01*
X97022465Y-59146340D01*
X96962382Y-59275189D01*
X96916209Y-59327628D01*
X96849016Y-59346780D01*
X96782135Y-59326564D01*
X96737618Y-59275189D01*
X96677651Y-59146590D01*
X96677534Y-59146339D01*
X96550826Y-58965380D01*
X96394620Y-58809174D01*
X96394616Y-58809171D01*
X96394615Y-58809170D01*
X96213666Y-58682468D01*
X96213662Y-58682466D01*
X96213660Y-58682465D01*
X96013450Y-58589106D01*
X96013447Y-58589105D01*
X96013445Y-58589104D01*
X95800070Y-58531930D01*
X95800062Y-58531929D01*
X95580002Y-58512677D01*
X95579998Y-58512677D01*
X95359937Y-58531929D01*
X95359929Y-58531930D01*
X95146554Y-58589104D01*
X95146548Y-58589107D01*
X94946340Y-58682465D01*
X94946338Y-58682466D01*
X94765377Y-58809175D01*
X94609175Y-58965377D01*
X94482466Y-59146338D01*
X94482465Y-59146340D01*
X94422382Y-59275189D01*
X94376209Y-59327628D01*
X94309016Y-59346780D01*
X94242135Y-59326564D01*
X94197618Y-59275189D01*
X94137651Y-59146590D01*
X94137534Y-59146339D01*
X94010826Y-58965380D01*
X93854620Y-58809174D01*
X93854616Y-58809171D01*
X93854615Y-58809170D01*
X93673666Y-58682468D01*
X93673662Y-58682466D01*
X93673660Y-58682465D01*
X93473450Y-58589106D01*
X93473447Y-58589105D01*
X93473445Y-58589104D01*
X93260070Y-58531930D01*
X93260062Y-58531929D01*
X93040002Y-58512677D01*
X93039998Y-58512677D01*
X92819937Y-58531929D01*
X92819929Y-58531930D01*
X92606554Y-58589104D01*
X92606548Y-58589107D01*
X92406340Y-58682465D01*
X92406338Y-58682466D01*
X92225377Y-58809175D01*
X92069175Y-58965377D01*
X91942466Y-59146338D01*
X91942465Y-59146340D01*
X91882382Y-59275189D01*
X91836209Y-59327628D01*
X91769016Y-59346780D01*
X91702135Y-59326564D01*
X91657618Y-59275189D01*
X91597651Y-59146590D01*
X91597534Y-59146339D01*
X91470826Y-58965380D01*
X91314620Y-58809174D01*
X91314616Y-58809171D01*
X91314615Y-58809170D01*
X91133666Y-58682468D01*
X91133662Y-58682466D01*
X91133660Y-58682465D01*
X90933450Y-58589106D01*
X90933447Y-58589105D01*
X90933445Y-58589104D01*
X90720070Y-58531930D01*
X90720062Y-58531929D01*
X90500002Y-58512677D01*
X90499998Y-58512677D01*
X90279937Y-58531929D01*
X90279929Y-58531930D01*
X90066554Y-58589104D01*
X90066548Y-58589107D01*
X89866340Y-58682465D01*
X89866338Y-58682466D01*
X89685377Y-58809175D01*
X89529175Y-58965377D01*
X89402466Y-59146338D01*
X89402465Y-59146340D01*
X89342382Y-59275189D01*
X89296209Y-59327628D01*
X89229016Y-59346780D01*
X89162135Y-59326564D01*
X89117618Y-59275189D01*
X89057651Y-59146590D01*
X89057534Y-59146339D01*
X88930826Y-58965380D01*
X88774620Y-58809174D01*
X88774616Y-58809171D01*
X88774615Y-58809170D01*
X88593666Y-58682468D01*
X88593662Y-58682466D01*
X88593660Y-58682465D01*
X88393450Y-58589106D01*
X88393447Y-58589105D01*
X88393445Y-58589104D01*
X88180070Y-58531930D01*
X88180062Y-58531929D01*
X87960002Y-58512677D01*
X87959998Y-58512677D01*
X87739937Y-58531929D01*
X87739929Y-58531930D01*
X87526554Y-58589104D01*
X87526548Y-58589107D01*
X87326340Y-58682465D01*
X87326338Y-58682466D01*
X87145377Y-58809175D01*
X86989175Y-58965377D01*
X86862466Y-59146338D01*
X86862465Y-59146340D01*
X86802382Y-59275189D01*
X86756209Y-59327628D01*
X86689016Y-59346780D01*
X86622135Y-59326564D01*
X86577618Y-59275189D01*
X86517651Y-59146590D01*
X86517534Y-59146339D01*
X86390826Y-58965380D01*
X86234620Y-58809174D01*
X86234616Y-58809171D01*
X86234615Y-58809170D01*
X86053666Y-58682468D01*
X86053662Y-58682466D01*
X86053660Y-58682465D01*
X85853450Y-58589106D01*
X85853447Y-58589105D01*
X85853445Y-58589104D01*
X85640070Y-58531930D01*
X85640062Y-58531929D01*
X85420002Y-58512677D01*
X85419998Y-58512677D01*
X85199937Y-58531929D01*
X85199929Y-58531930D01*
X84986554Y-58589104D01*
X84986548Y-58589107D01*
X84786340Y-58682465D01*
X84786338Y-58682466D01*
X84605377Y-58809175D01*
X84449175Y-58965377D01*
X84322467Y-59146337D01*
X84262105Y-59275782D01*
X84215932Y-59328221D01*
X84148738Y-59347372D01*
X84081857Y-59327156D01*
X84037341Y-59275780D01*
X83977098Y-59146589D01*
X83977097Y-59146587D01*
X83931741Y-59081811D01*
X83931740Y-59081810D01*
X83261000Y-59752551D01*
X83261000Y-59729840D01*
X83235036Y-59632939D01*
X83184876Y-59546060D01*
X83113940Y-59475124D01*
X83027061Y-59424964D01*
X82930160Y-59399000D01*
X82907447Y-59399000D01*
X83578188Y-58728258D01*
X83513411Y-58682901D01*
X83513405Y-58682898D01*
X83313284Y-58589580D01*
X83313270Y-58589575D01*
X83099986Y-58532426D01*
X83099976Y-58532424D01*
X82880001Y-58513179D01*
X82879999Y-58513179D01*
X82660023Y-58532424D01*
X82660013Y-58532426D01*
X82446729Y-58589575D01*
X82446720Y-58589579D01*
X82246590Y-58682901D01*
X82181811Y-58728258D01*
X82852554Y-59399000D01*
X82829840Y-59399000D01*
X82732939Y-59424964D01*
X82646060Y-59475124D01*
X82575124Y-59546060D01*
X82524964Y-59632939D01*
X82499000Y-59729840D01*
X82499000Y-59752553D01*
X81828258Y-59081811D01*
X81782901Y-59146590D01*
X81689579Y-59346720D01*
X81689575Y-59346729D01*
X81632426Y-59560013D01*
X81632424Y-59560023D01*
X81613179Y-59779999D01*
X81613179Y-59780000D01*
X81632424Y-59999976D01*
X81632426Y-59999986D01*
X81689575Y-60213270D01*
X81689580Y-60213284D01*
X81782898Y-60413405D01*
X81782901Y-60413411D01*
X81828258Y-60478187D01*
X81828258Y-60478188D01*
X82499000Y-59807446D01*
X82499000Y-59830160D01*
X82524964Y-59927061D01*
X82575124Y-60013940D01*
X82646060Y-60084876D01*
X82732939Y-60135036D01*
X82829840Y-60161000D01*
X82852553Y-60161000D01*
X82181810Y-60831740D01*
X82246590Y-60877099D01*
X82246592Y-60877100D01*
X82446715Y-60970419D01*
X82446729Y-60970424D01*
X82660013Y-61027573D01*
X82660023Y-61027575D01*
X82879999Y-61046821D01*
X82880001Y-61046821D01*
X83099976Y-61027575D01*
X83099986Y-61027573D01*
X83313270Y-60970424D01*
X83313284Y-60970419D01*
X83513407Y-60877100D01*
X83513417Y-60877094D01*
X83578188Y-60831741D01*
X82907448Y-60161000D01*
X82930160Y-60161000D01*
X83027061Y-60135036D01*
X83113940Y-60084876D01*
X83184876Y-60013940D01*
X83235036Y-59927061D01*
X83261000Y-59830160D01*
X83261000Y-59807447D01*
X83931741Y-60478188D01*
X83977094Y-60413417D01*
X83977095Y-60413416D01*
X84037340Y-60284219D01*
X84083512Y-60231780D01*
X84150706Y-60212627D01*
X84217587Y-60232842D01*
X84262105Y-60284218D01*
X84322466Y-60413662D01*
X84322468Y-60413666D01*
X84449170Y-60594615D01*
X84449175Y-60594621D01*
X84605378Y-60750824D01*
X84605384Y-60750829D01*
X84786333Y-60877531D01*
X84786335Y-60877532D01*
X84786338Y-60877534D01*
X84986550Y-60970894D01*
X85199932Y-61028070D01*
X85357123Y-61041822D01*
X85419998Y-61047323D01*
X85420000Y-61047323D01*
X85420002Y-61047323D01*
X85475017Y-61042509D01*
X85640068Y-61028070D01*
X85853450Y-60970894D01*
X86053662Y-60877534D01*
X86234620Y-60750826D01*
X86390826Y-60594620D01*
X86517534Y-60413662D01*
X86577618Y-60284811D01*
X86623790Y-60232371D01*
X86690983Y-60213219D01*
X86757865Y-60233435D01*
X86802382Y-60284811D01*
X86862464Y-60413658D01*
X86862468Y-60413666D01*
X86989170Y-60594615D01*
X86989175Y-60594621D01*
X87145378Y-60750824D01*
X87145384Y-60750829D01*
X87326333Y-60877531D01*
X87326335Y-60877532D01*
X87326338Y-60877534D01*
X87526550Y-60970894D01*
X87739932Y-61028070D01*
X87897123Y-61041822D01*
X87959998Y-61047323D01*
X87960000Y-61047323D01*
X87960002Y-61047323D01*
X88015017Y-61042509D01*
X88180068Y-61028070D01*
X88393450Y-60970894D01*
X88593662Y-60877534D01*
X88774620Y-60750826D01*
X88930826Y-60594620D01*
X89057534Y-60413662D01*
X89117618Y-60284811D01*
X89163790Y-60232371D01*
X89230983Y-60213219D01*
X89297865Y-60233435D01*
X89342382Y-60284811D01*
X89402464Y-60413658D01*
X89402468Y-60413666D01*
X89529170Y-60594615D01*
X89529175Y-60594621D01*
X89685378Y-60750824D01*
X89685384Y-60750829D01*
X89866333Y-60877531D01*
X89866335Y-60877532D01*
X89866338Y-60877534D01*
X90066550Y-60970894D01*
X90279932Y-61028070D01*
X90437123Y-61041822D01*
X90499998Y-61047323D01*
X90500000Y-61047323D01*
X90500002Y-61047323D01*
X90555017Y-61042509D01*
X90720068Y-61028070D01*
X90933450Y-60970894D01*
X91133662Y-60877534D01*
X91314620Y-60750826D01*
X91470826Y-60594620D01*
X91597534Y-60413662D01*
X91657618Y-60284811D01*
X91703790Y-60232371D01*
X91770983Y-60213219D01*
X91837865Y-60233435D01*
X91882382Y-60284811D01*
X91942464Y-60413658D01*
X91942468Y-60413666D01*
X92069170Y-60594615D01*
X92069175Y-60594621D01*
X92225378Y-60750824D01*
X92225384Y-60750829D01*
X92406333Y-60877531D01*
X92406335Y-60877532D01*
X92406338Y-60877534D01*
X92606550Y-60970894D01*
X92819932Y-61028070D01*
X92977123Y-61041822D01*
X93039998Y-61047323D01*
X93040000Y-61047323D01*
X93040002Y-61047323D01*
X93095017Y-61042509D01*
X93260068Y-61028070D01*
X93473450Y-60970894D01*
X93673662Y-60877534D01*
X93854620Y-60750826D01*
X94010826Y-60594620D01*
X94137534Y-60413662D01*
X94197618Y-60284811D01*
X94243790Y-60232371D01*
X94310983Y-60213219D01*
X94377865Y-60233435D01*
X94422382Y-60284811D01*
X94482464Y-60413658D01*
X94482468Y-60413666D01*
X94609170Y-60594615D01*
X94609175Y-60594621D01*
X94765378Y-60750824D01*
X94765384Y-60750829D01*
X94946333Y-60877531D01*
X94946335Y-60877532D01*
X94946338Y-60877534D01*
X95146550Y-60970894D01*
X95359932Y-61028070D01*
X95517123Y-61041822D01*
X95579998Y-61047323D01*
X95580000Y-61047323D01*
X95580002Y-61047323D01*
X95635017Y-61042509D01*
X95800068Y-61028070D01*
X96013450Y-60970894D01*
X96213662Y-60877534D01*
X96394620Y-60750826D01*
X96550826Y-60594620D01*
X96677534Y-60413662D01*
X96737618Y-60284811D01*
X96783790Y-60232371D01*
X96850983Y-60213219D01*
X96917865Y-60233435D01*
X96962382Y-60284811D01*
X97022464Y-60413658D01*
X97022468Y-60413666D01*
X97149170Y-60594615D01*
X97149175Y-60594621D01*
X97305378Y-60750824D01*
X97305384Y-60750829D01*
X97486333Y-60877531D01*
X97486335Y-60877532D01*
X97486338Y-60877534D01*
X97686550Y-60970894D01*
X97899932Y-61028070D01*
X98057123Y-61041822D01*
X98119998Y-61047323D01*
X98120000Y-61047323D01*
X98120002Y-61047323D01*
X98175017Y-61042509D01*
X98340068Y-61028070D01*
X98553450Y-60970894D01*
X98753662Y-60877534D01*
X98934620Y-60750826D01*
X99090826Y-60594620D01*
X99217534Y-60413662D01*
X99277618Y-60284811D01*
X99323790Y-60232371D01*
X99390983Y-60213219D01*
X99457865Y-60233435D01*
X99502382Y-60284811D01*
X99562464Y-60413658D01*
X99562468Y-60413666D01*
X99689170Y-60594615D01*
X99689175Y-60594621D01*
X99845378Y-60750824D01*
X99845384Y-60750829D01*
X100026333Y-60877531D01*
X100026335Y-60877532D01*
X100026338Y-60877534D01*
X100226550Y-60970894D01*
X100439932Y-61028070D01*
X100597123Y-61041822D01*
X100659998Y-61047323D01*
X100660000Y-61047323D01*
X100660002Y-61047323D01*
X100715017Y-61042509D01*
X100880068Y-61028070D01*
X101093450Y-60970894D01*
X101293662Y-60877534D01*
X101474620Y-60750826D01*
X101630826Y-60594620D01*
X101757534Y-60413662D01*
X101817618Y-60284811D01*
X101863790Y-60232371D01*
X101930983Y-60213219D01*
X101997865Y-60233435D01*
X102042382Y-60284811D01*
X102102464Y-60413658D01*
X102102468Y-60413666D01*
X102229170Y-60594615D01*
X102229175Y-60594621D01*
X102385378Y-60750824D01*
X102385384Y-60750829D01*
X102566333Y-60877531D01*
X102566335Y-60877532D01*
X102566338Y-60877534D01*
X102766550Y-60970894D01*
X102979932Y-61028070D01*
X103137123Y-61041822D01*
X103199998Y-61047323D01*
X103200000Y-61047323D01*
X103200002Y-61047323D01*
X103255017Y-61042509D01*
X103420068Y-61028070D01*
X103633450Y-60970894D01*
X103833662Y-60877534D01*
X104004378Y-60757997D01*
X104070582Y-60735671D01*
X104138350Y-60752681D01*
X104186163Y-60803629D01*
X104199500Y-60859573D01*
X104199500Y-66321038D01*
X104179815Y-66388077D01*
X104127011Y-66433832D01*
X104057853Y-66443776D01*
X104004376Y-66422613D01*
X103833409Y-66302900D01*
X103833407Y-66302899D01*
X103633284Y-66209580D01*
X103633270Y-66209575D01*
X103419986Y-66152426D01*
X103419976Y-66152424D01*
X103200001Y-66133179D01*
X103199999Y-66133179D01*
X102980023Y-66152424D01*
X102980013Y-66152426D01*
X102766729Y-66209575D01*
X102766720Y-66209579D01*
X102566590Y-66302901D01*
X102501811Y-66348258D01*
X103172553Y-67019000D01*
X103149840Y-67019000D01*
X103052939Y-67044964D01*
X102966060Y-67095124D01*
X102895124Y-67166060D01*
X102844964Y-67252939D01*
X102819000Y-67349840D01*
X102819000Y-67372553D01*
X102148258Y-66701811D01*
X102102901Y-66766590D01*
X102042658Y-66895781D01*
X101996485Y-66948220D01*
X101929292Y-66967372D01*
X101862411Y-66947156D01*
X101817894Y-66895781D01*
X101757651Y-66766590D01*
X101757534Y-66766339D01*
X101694180Y-66675859D01*
X101630827Y-66585381D01*
X101556108Y-66510662D01*
X101474620Y-66429174D01*
X101474616Y-66429171D01*
X101474615Y-66429170D01*
X101293666Y-66302468D01*
X101293662Y-66302466D01*
X101235809Y-66275489D01*
X101093450Y-66209106D01*
X101093447Y-66209105D01*
X101093445Y-66209104D01*
X100880070Y-66151930D01*
X100880062Y-66151929D01*
X100660002Y-66132677D01*
X100659998Y-66132677D01*
X100439937Y-66151929D01*
X100439929Y-66151930D01*
X100226554Y-66209104D01*
X100226548Y-66209107D01*
X100026340Y-66302465D01*
X100026338Y-66302466D01*
X99845377Y-66429175D01*
X99689175Y-66585377D01*
X99562466Y-66766338D01*
X99562465Y-66766340D01*
X99502382Y-66895189D01*
X99456209Y-66947628D01*
X99389016Y-66966780D01*
X99322135Y-66946564D01*
X99277618Y-66895189D01*
X99217651Y-66766590D01*
X99217534Y-66766339D01*
X99154180Y-66675859D01*
X99090827Y-66585381D01*
X99016108Y-66510662D01*
X98934620Y-66429174D01*
X98934616Y-66429171D01*
X98934615Y-66429170D01*
X98753666Y-66302468D01*
X98753662Y-66302466D01*
X98695809Y-66275489D01*
X98553450Y-66209106D01*
X98553447Y-66209105D01*
X98553445Y-66209104D01*
X98340070Y-66151930D01*
X98340062Y-66151929D01*
X98120002Y-66132677D01*
X98119998Y-66132677D01*
X97899937Y-66151929D01*
X97899929Y-66151930D01*
X97686554Y-66209104D01*
X97686548Y-66209107D01*
X97486340Y-66302465D01*
X97486338Y-66302466D01*
X97305377Y-66429175D01*
X97149175Y-66585377D01*
X97022466Y-66766338D01*
X97022465Y-66766340D01*
X96962382Y-66895189D01*
X96916209Y-66947628D01*
X96849016Y-66966780D01*
X96782135Y-66946564D01*
X96737618Y-66895189D01*
X96677651Y-66766590D01*
X96677534Y-66766339D01*
X96614180Y-66675859D01*
X96550827Y-66585381D01*
X96476108Y-66510662D01*
X96394620Y-66429174D01*
X96394616Y-66429171D01*
X96394615Y-66429170D01*
X96213666Y-66302468D01*
X96213662Y-66302466D01*
X96155809Y-66275489D01*
X96013450Y-66209106D01*
X96013447Y-66209105D01*
X96013445Y-66209104D01*
X95800070Y-66151930D01*
X95800062Y-66151929D01*
X95580002Y-66132677D01*
X95579998Y-66132677D01*
X95359937Y-66151929D01*
X95359929Y-66151930D01*
X95146554Y-66209104D01*
X95146548Y-66209107D01*
X94946340Y-66302465D01*
X94946338Y-66302466D01*
X94765377Y-66429175D01*
X94609175Y-66585377D01*
X94482466Y-66766338D01*
X94482465Y-66766340D01*
X94422382Y-66895189D01*
X94376209Y-66947628D01*
X94309016Y-66966780D01*
X94242135Y-66946564D01*
X94197618Y-66895189D01*
X94137651Y-66766590D01*
X94137534Y-66766339D01*
X94074180Y-66675859D01*
X94010827Y-66585381D01*
X93936108Y-66510662D01*
X93854620Y-66429174D01*
X93854616Y-66429171D01*
X93854615Y-66429170D01*
X93673666Y-66302468D01*
X93673662Y-66302466D01*
X93615809Y-66275489D01*
X93473450Y-66209106D01*
X93473447Y-66209105D01*
X93473445Y-66209104D01*
X93260070Y-66151930D01*
X93260062Y-66151929D01*
X93040002Y-66132677D01*
X93039998Y-66132677D01*
X92819937Y-66151929D01*
X92819929Y-66151930D01*
X92606554Y-66209104D01*
X92606548Y-66209107D01*
X92406340Y-66302465D01*
X92406338Y-66302466D01*
X92225377Y-66429175D01*
X92069175Y-66585377D01*
X91942467Y-66766337D01*
X91882105Y-66895782D01*
X91835932Y-66948221D01*
X91768738Y-66967372D01*
X91701857Y-66947156D01*
X91657341Y-66895780D01*
X91597098Y-66766589D01*
X91597097Y-66766587D01*
X91551741Y-66701811D01*
X91551740Y-66701810D01*
X90881000Y-67372551D01*
X90881000Y-67349840D01*
X90855036Y-67252939D01*
X90804876Y-67166060D01*
X90733940Y-67095124D01*
X90647061Y-67044964D01*
X90550160Y-67019000D01*
X90527447Y-67019000D01*
X91198188Y-66348258D01*
X91133411Y-66302901D01*
X91133405Y-66302898D01*
X90933284Y-66209580D01*
X90933270Y-66209575D01*
X90719986Y-66152426D01*
X90719976Y-66152424D01*
X90500001Y-66133179D01*
X90499999Y-66133179D01*
X90280023Y-66152424D01*
X90280013Y-66152426D01*
X90066729Y-66209575D01*
X90066720Y-66209579D01*
X89866590Y-66302901D01*
X89801811Y-66348258D01*
X90472554Y-67019000D01*
X90449840Y-67019000D01*
X90352939Y-67044964D01*
X90266060Y-67095124D01*
X90195124Y-67166060D01*
X90144964Y-67252939D01*
X90119000Y-67349840D01*
X90119000Y-67372553D01*
X89448258Y-66701811D01*
X89402901Y-66766590D01*
X89342658Y-66895781D01*
X89296485Y-66948220D01*
X89229292Y-66967372D01*
X89162411Y-66947156D01*
X89117894Y-66895781D01*
X89057651Y-66766590D01*
X89057534Y-66766339D01*
X88994180Y-66675859D01*
X88930827Y-66585381D01*
X88856108Y-66510662D01*
X88774620Y-66429174D01*
X88774616Y-66429171D01*
X88774615Y-66429170D01*
X88593666Y-66302468D01*
X88593662Y-66302466D01*
X88535809Y-66275489D01*
X88393450Y-66209106D01*
X88393447Y-66209105D01*
X88393445Y-66209104D01*
X88180070Y-66151930D01*
X88180062Y-66151929D01*
X87960002Y-66132677D01*
X87959998Y-66132677D01*
X87739937Y-66151929D01*
X87739929Y-66151930D01*
X87526554Y-66209104D01*
X87526548Y-66209107D01*
X87326340Y-66302465D01*
X87326338Y-66302466D01*
X87145377Y-66429175D01*
X86989175Y-66585377D01*
X86862466Y-66766338D01*
X86862465Y-66766340D01*
X86802382Y-66895189D01*
X86756209Y-66947628D01*
X86689016Y-66966780D01*
X86622135Y-66946564D01*
X86577618Y-66895189D01*
X86517651Y-66766590D01*
X86517534Y-66766339D01*
X86454180Y-66675859D01*
X86390827Y-66585381D01*
X86316108Y-66510662D01*
X86234620Y-66429174D01*
X86234616Y-66429171D01*
X86234615Y-66429170D01*
X86053666Y-66302468D01*
X86053662Y-66302466D01*
X85995809Y-66275489D01*
X85853450Y-66209106D01*
X85853447Y-66209105D01*
X85853445Y-66209104D01*
X85640070Y-66151930D01*
X85640062Y-66151929D01*
X85420002Y-66132677D01*
X85419998Y-66132677D01*
X85199937Y-66151929D01*
X85199929Y-66151930D01*
X84986554Y-66209104D01*
X84986548Y-66209107D01*
X84786340Y-66302465D01*
X84786338Y-66302466D01*
X84605377Y-66429175D01*
X84449175Y-66585377D01*
X84322466Y-66766338D01*
X84322465Y-66766340D01*
X84262382Y-66895189D01*
X84216209Y-66947628D01*
X84149016Y-66966780D01*
X84082135Y-66946564D01*
X84037618Y-66895189D01*
X83977651Y-66766590D01*
X83977534Y-66766339D01*
X83914180Y-66675859D01*
X83850827Y-66585381D01*
X83776108Y-66510662D01*
X83694620Y-66429174D01*
X83694616Y-66429171D01*
X83694615Y-66429170D01*
X83513666Y-66302468D01*
X83513662Y-66302466D01*
X83455809Y-66275489D01*
X83313450Y-66209106D01*
X83313447Y-66209105D01*
X83313445Y-66209104D01*
X83100070Y-66151930D01*
X83100062Y-66151929D01*
X82880002Y-66132677D01*
X82879998Y-66132677D01*
X82659937Y-66151929D01*
X82659929Y-66151930D01*
X82446554Y-66209104D01*
X82446548Y-66209107D01*
X82246340Y-66302465D01*
X82246338Y-66302466D01*
X82065377Y-66429175D01*
X81909175Y-66585377D01*
X81782466Y-66766338D01*
X81782465Y-66766340D01*
X81722106Y-66895781D01*
X81697224Y-66949142D01*
X81689107Y-66966548D01*
X81689104Y-66966554D01*
X81631930Y-67179929D01*
X81631929Y-67179937D01*
X81612677Y-67399997D01*
X81612677Y-67400002D01*
X81631929Y-67620062D01*
X81631930Y-67620070D01*
X81689104Y-67833445D01*
X81689105Y-67833447D01*
X81689106Y-67833450D01*
X81704200Y-67865819D01*
X81782466Y-68033662D01*
X81782468Y-68033666D01*
X81909170Y-68214615D01*
X81909175Y-68214621D01*
X82065378Y-68370824D01*
X82065384Y-68370829D01*
X82246333Y-68497531D01*
X82246335Y-68497532D01*
X82246338Y-68497534D01*
X82446550Y-68590894D01*
X82659932Y-68648070D01*
X82817123Y-68661822D01*
X82879998Y-68667323D01*
X82880000Y-68667323D01*
X82880002Y-68667323D01*
X82935017Y-68662509D01*
X83100068Y-68648070D01*
X83313450Y-68590894D01*
X83513662Y-68497534D01*
X83694620Y-68370826D01*
X83850826Y-68214620D01*
X83977534Y-68033662D01*
X84037618Y-67904811D01*
X84083790Y-67852371D01*
X84150983Y-67833219D01*
X84217865Y-67853435D01*
X84262382Y-67904811D01*
X84322464Y-68033658D01*
X84322468Y-68033666D01*
X84449170Y-68214615D01*
X84449175Y-68214621D01*
X84605378Y-68370824D01*
X84605384Y-68370829D01*
X84786333Y-68497531D01*
X84786335Y-68497532D01*
X84786338Y-68497534D01*
X84986550Y-68590894D01*
X85199932Y-68648070D01*
X85357123Y-68661822D01*
X85419998Y-68667323D01*
X85420000Y-68667323D01*
X85420002Y-68667323D01*
X85475017Y-68662509D01*
X85640068Y-68648070D01*
X85853450Y-68590894D01*
X86053662Y-68497534D01*
X86234620Y-68370826D01*
X86390826Y-68214620D01*
X86517534Y-68033662D01*
X86577618Y-67904811D01*
X86623790Y-67852371D01*
X86690983Y-67833219D01*
X86757865Y-67853435D01*
X86802382Y-67904811D01*
X86862464Y-68033658D01*
X86862468Y-68033666D01*
X86989170Y-68214615D01*
X86989175Y-68214621D01*
X87145378Y-68370824D01*
X87145384Y-68370829D01*
X87326333Y-68497531D01*
X87326335Y-68497532D01*
X87326338Y-68497534D01*
X87526550Y-68590894D01*
X87739932Y-68648070D01*
X87897123Y-68661822D01*
X87959998Y-68667323D01*
X87960000Y-68667323D01*
X87960002Y-68667323D01*
X88015017Y-68662509D01*
X88180068Y-68648070D01*
X88393450Y-68590894D01*
X88593662Y-68497534D01*
X88774620Y-68370826D01*
X88930826Y-68214620D01*
X89057534Y-68033662D01*
X89117894Y-67904218D01*
X89164066Y-67851779D01*
X89231259Y-67832627D01*
X89298141Y-67852843D01*
X89342658Y-67904219D01*
X89402898Y-68033405D01*
X89402901Y-68033411D01*
X89448258Y-68098187D01*
X89448258Y-68098188D01*
X90119000Y-67427446D01*
X90119000Y-67450160D01*
X90144964Y-67547061D01*
X90195124Y-67633940D01*
X90266060Y-67704876D01*
X90352939Y-67755036D01*
X90449840Y-67781000D01*
X90472553Y-67781000D01*
X89801810Y-68451740D01*
X89866590Y-68497099D01*
X89866592Y-68497100D01*
X90066715Y-68590419D01*
X90066729Y-68590424D01*
X90280013Y-68647573D01*
X90280023Y-68647575D01*
X90499999Y-68666821D01*
X90500001Y-68666821D01*
X90719976Y-68647575D01*
X90719986Y-68647573D01*
X90933270Y-68590424D01*
X90933284Y-68590419D01*
X91133407Y-68497100D01*
X91133417Y-68497094D01*
X91198188Y-68451741D01*
X90527448Y-67781000D01*
X90550160Y-67781000D01*
X90647061Y-67755036D01*
X90733940Y-67704876D01*
X90804876Y-67633940D01*
X90855036Y-67547061D01*
X90881000Y-67450160D01*
X90881000Y-67427447D01*
X91551741Y-68098188D01*
X91597094Y-68033417D01*
X91597095Y-68033416D01*
X91657340Y-67904219D01*
X91703512Y-67851780D01*
X91770706Y-67832627D01*
X91837587Y-67852842D01*
X91882105Y-67904218D01*
X91942466Y-68033662D01*
X91942468Y-68033666D01*
X92069170Y-68214615D01*
X92069175Y-68214621D01*
X92225378Y-68370824D01*
X92225384Y-68370829D01*
X92406333Y-68497531D01*
X92406335Y-68497532D01*
X92406338Y-68497534D01*
X92606550Y-68590894D01*
X92819932Y-68648070D01*
X92977123Y-68661822D01*
X93039998Y-68667323D01*
X93040000Y-68667323D01*
X93040002Y-68667323D01*
X93095017Y-68662509D01*
X93260068Y-68648070D01*
X93473450Y-68590894D01*
X93673662Y-68497534D01*
X93854620Y-68370826D01*
X94010826Y-68214620D01*
X94137534Y-68033662D01*
X94197618Y-67904811D01*
X94243790Y-67852371D01*
X94310983Y-67833219D01*
X94377865Y-67853435D01*
X94422382Y-67904811D01*
X94482464Y-68033658D01*
X94482468Y-68033666D01*
X94609170Y-68214615D01*
X94609175Y-68214621D01*
X94765378Y-68370824D01*
X94765384Y-68370829D01*
X94946333Y-68497531D01*
X94946335Y-68497532D01*
X94946338Y-68497534D01*
X95146550Y-68590894D01*
X95359932Y-68648070D01*
X95517123Y-68661822D01*
X95579998Y-68667323D01*
X95580000Y-68667323D01*
X95580002Y-68667323D01*
X95635017Y-68662509D01*
X95800068Y-68648070D01*
X96013450Y-68590894D01*
X96213662Y-68497534D01*
X96394620Y-68370826D01*
X96550826Y-68214620D01*
X96677534Y-68033662D01*
X96737618Y-67904811D01*
X96783790Y-67852371D01*
X96850983Y-67833219D01*
X96917865Y-67853435D01*
X96962382Y-67904811D01*
X97022464Y-68033658D01*
X97022468Y-68033666D01*
X97149170Y-68214615D01*
X97149175Y-68214621D01*
X97305378Y-68370824D01*
X97305384Y-68370829D01*
X97486333Y-68497531D01*
X97486335Y-68497532D01*
X97486338Y-68497534D01*
X97686550Y-68590894D01*
X97899932Y-68648070D01*
X98057123Y-68661822D01*
X98119998Y-68667323D01*
X98120000Y-68667323D01*
X98120002Y-68667323D01*
X98175017Y-68662509D01*
X98340068Y-68648070D01*
X98553450Y-68590894D01*
X98753662Y-68497534D01*
X98934620Y-68370826D01*
X99090826Y-68214620D01*
X99217534Y-68033662D01*
X99277618Y-67904811D01*
X99323790Y-67852371D01*
X99390983Y-67833219D01*
X99457865Y-67853435D01*
X99502382Y-67904811D01*
X99562464Y-68033658D01*
X99562468Y-68033666D01*
X99689170Y-68214615D01*
X99689175Y-68214621D01*
X99845378Y-68370824D01*
X99845384Y-68370829D01*
X100026333Y-68497531D01*
X100026335Y-68497532D01*
X100026338Y-68497534D01*
X100226550Y-68590894D01*
X100439932Y-68648070D01*
X100597123Y-68661822D01*
X100659998Y-68667323D01*
X100660000Y-68667323D01*
X100660002Y-68667323D01*
X100715017Y-68662509D01*
X100880068Y-68648070D01*
X101093450Y-68590894D01*
X101293662Y-68497534D01*
X101474620Y-68370826D01*
X101630826Y-68214620D01*
X101757534Y-68033662D01*
X101817894Y-67904218D01*
X101864066Y-67851779D01*
X101931259Y-67832627D01*
X101998141Y-67852843D01*
X102042658Y-67904219D01*
X102102898Y-68033405D01*
X102102901Y-68033411D01*
X102148258Y-68098187D01*
X102148258Y-68098188D01*
X102819000Y-67427446D01*
X102819000Y-67450160D01*
X102844964Y-67547061D01*
X102895124Y-67633940D01*
X102966060Y-67704876D01*
X103052939Y-67755036D01*
X103149840Y-67781000D01*
X103172552Y-67781000D01*
X102501810Y-68451740D01*
X102566590Y-68497099D01*
X102566592Y-68497100D01*
X102766715Y-68590419D01*
X102766729Y-68590424D01*
X102980013Y-68647573D01*
X102980023Y-68647575D01*
X103199999Y-68666821D01*
X103200001Y-68666821D01*
X103419976Y-68647575D01*
X103419986Y-68647573D01*
X103633270Y-68590424D01*
X103633284Y-68590419D01*
X103833407Y-68497100D01*
X103833417Y-68497094D01*
X104004376Y-68377387D01*
X104070582Y-68355059D01*
X104138349Y-68372069D01*
X104186163Y-68423016D01*
X104199500Y-68478961D01*
X104199500Y-80876000D01*
X104179815Y-80943039D01*
X104127011Y-80988794D01*
X104075500Y-81000000D01*
X88062625Y-81000000D01*
X87995586Y-80980315D01*
X87962829Y-80949599D01*
X86875680Y-79475499D01*
X82100000Y-73000000D01*
X78999999Y-73000000D01*
X78000000Y-73999999D01*
X78000000Y-78970728D01*
X77986909Y-79026182D01*
X77980780Y-79038441D01*
X77922637Y-79154727D01*
X77922446Y-79155109D01*
X77903173Y-79193655D01*
X77903172Y-79193657D01*
X77811723Y-79376555D01*
X77779122Y-79441757D01*
X77036245Y-80927511D01*
X77034273Y-80931454D01*
X76986686Y-80982613D01*
X76923364Y-81000000D01*
X74076636Y-81000000D01*
X74009597Y-80980315D01*
X73965727Y-80931454D01*
X73000001Y-79000001D01*
X73000000Y-79000000D01*
X72999999Y-79000000D01*
X41899999Y-79000000D01*
X40036665Y-80961405D01*
X39976220Y-80996451D01*
X39946765Y-81000000D01*
X20624500Y-81000000D01*
X20557461Y-80980315D01*
X20511706Y-80927511D01*
X20500500Y-80876000D01*
X20500500Y-42355026D01*
X21394900Y-42355026D01*
X21394900Y-42600973D01*
X21427000Y-42844791D01*
X21490654Y-43082350D01*
X21568959Y-43271395D01*
X21584767Y-43309558D01*
X21707733Y-43522541D01*
X21707736Y-43522546D01*
X21707738Y-43522548D01*
X21857445Y-43717651D01*
X21857451Y-43717658D01*
X22031341Y-43891548D01*
X22031348Y-43891554D01*
X22226451Y-44041261D01*
X22226459Y-44041267D01*
X22439442Y-44164233D01*
X22666654Y-44258347D01*
X22904206Y-44321999D01*
X23148034Y-44354100D01*
X23148041Y-44354100D01*
X23393959Y-44354100D01*
X23393966Y-44354100D01*
X23637794Y-44321999D01*
X23875346Y-44258347D01*
X23881012Y-44256000D01*
X25128355Y-44256000D01*
X25147705Y-44501862D01*
X25205276Y-44741664D01*
X25299653Y-44969512D01*
X25426287Y-45176159D01*
X25974356Y-44628089D01*
X25979706Y-44641005D01*
X26068657Y-44774130D01*
X26181870Y-44887343D01*
X26314995Y-44976294D01*
X26327908Y-44981643D01*
X25779839Y-45529711D01*
X25986487Y-45656346D01*
X26214335Y-45750723D01*
X26454137Y-45808294D01*
X26700000Y-45827644D01*
X26945862Y-45808294D01*
X27185664Y-45750723D01*
X27413512Y-45656346D01*
X27620159Y-45529711D01*
X27072090Y-44981643D01*
X27085005Y-44976294D01*
X27218130Y-44887343D01*
X27331343Y-44774130D01*
X27420294Y-44641005D01*
X27425643Y-44628090D01*
X27973711Y-45176159D01*
X28100346Y-44969512D01*
X28194723Y-44741664D01*
X28252294Y-44501862D01*
X28271644Y-44256000D01*
X28252294Y-44010137D01*
X28194723Y-43770335D01*
X28100346Y-43542487D01*
X27973711Y-43335839D01*
X27425642Y-43883908D01*
X27420294Y-43870995D01*
X27331343Y-43737870D01*
X27218130Y-43624657D01*
X27085005Y-43535706D01*
X27072089Y-43530356D01*
X27620159Y-42982287D01*
X27413512Y-42855653D01*
X27185664Y-42761276D01*
X26945862Y-42703705D01*
X26700000Y-42684355D01*
X26454137Y-42703705D01*
X26214335Y-42761276D01*
X25986495Y-42855650D01*
X25986490Y-42855653D01*
X25779839Y-42982287D01*
X26327909Y-43530356D01*
X26314995Y-43535706D01*
X26181870Y-43624657D01*
X26068657Y-43737870D01*
X25979706Y-43870995D01*
X25974356Y-43883909D01*
X25426287Y-43335839D01*
X25299653Y-43542490D01*
X25299650Y-43542495D01*
X25205276Y-43770335D01*
X25147705Y-44010137D01*
X25128355Y-44256000D01*
X23881012Y-44256000D01*
X24102558Y-44164233D01*
X24315541Y-44041267D01*
X24510653Y-43891553D01*
X24684553Y-43717653D01*
X24834267Y-43522541D01*
X24957233Y-43309558D01*
X25051347Y-43082346D01*
X25114999Y-42844794D01*
X25147100Y-42600966D01*
X25147100Y-42355034D01*
X25114999Y-42111206D01*
X25051347Y-41873654D01*
X24957233Y-41646442D01*
X24834267Y-41433459D01*
X24684553Y-41238347D01*
X24684548Y-41238341D01*
X24510658Y-41064451D01*
X24510651Y-41064445D01*
X24315548Y-40914738D01*
X24315546Y-40914736D01*
X24315541Y-40914733D01*
X24102558Y-40791767D01*
X24102554Y-40791765D01*
X23875350Y-40697654D01*
X23637791Y-40634000D01*
X23393973Y-40601900D01*
X23393966Y-40601900D01*
X23148034Y-40601900D01*
X23148026Y-40601900D01*
X22904208Y-40634000D01*
X22666649Y-40697654D01*
X22439445Y-40791765D01*
X22439441Y-40791767D01*
X22311152Y-40865835D01*
X22226459Y-40914733D01*
X22226456Y-40914734D01*
X22226451Y-40914738D01*
X22031348Y-41064445D01*
X22031341Y-41064451D01*
X21857451Y-41238341D01*
X21857445Y-41238348D01*
X21707738Y-41433451D01*
X21584767Y-41646441D01*
X21584765Y-41646445D01*
X21490654Y-41873649D01*
X21427000Y-42111208D01*
X21394900Y-42355026D01*
X20500500Y-42355026D01*
X20500500Y-29655026D01*
X21394900Y-29655026D01*
X21394900Y-29900973D01*
X21427000Y-30144791D01*
X21490654Y-30382350D01*
X21584765Y-30609554D01*
X21584767Y-30609558D01*
X21707733Y-30822541D01*
X21707736Y-30822546D01*
X21707738Y-30822548D01*
X21857445Y-31017651D01*
X21857451Y-31017658D01*
X22031341Y-31191548D01*
X22031348Y-31191554D01*
X22088689Y-31235553D01*
X22226459Y-31341267D01*
X22439442Y-31464233D01*
X22666654Y-31558347D01*
X22904206Y-31621999D01*
X23148034Y-31654100D01*
X23148041Y-31654100D01*
X23393959Y-31654100D01*
X23393966Y-31654100D01*
X23637794Y-31621999D01*
X23875346Y-31558347D01*
X24102558Y-31464233D01*
X24315541Y-31341267D01*
X24510653Y-31191553D01*
X24684553Y-31017653D01*
X24834267Y-30822541D01*
X24957233Y-30609558D01*
X25051347Y-30382346D01*
X25114999Y-30144794D01*
X25147100Y-29900966D01*
X25147100Y-29655034D01*
X25114999Y-29411206D01*
X25051347Y-29173654D01*
X24957233Y-28946442D01*
X24834267Y-28733459D01*
X24816740Y-28710617D01*
X24684554Y-28538348D01*
X24684548Y-28538341D01*
X24510658Y-28364451D01*
X24510651Y-28364445D01*
X24315548Y-28214738D01*
X24315546Y-28214736D01*
X24315541Y-28214733D01*
X24102558Y-28091767D01*
X24102554Y-28091765D01*
X23875350Y-27997654D01*
X23637791Y-27934000D01*
X23393973Y-27901900D01*
X23393966Y-27901900D01*
X23148034Y-27901900D01*
X23148026Y-27901900D01*
X22904208Y-27934000D01*
X22666649Y-27997654D01*
X22439445Y-28091765D01*
X22439441Y-28091767D01*
X22328482Y-28155830D01*
X22226459Y-28214733D01*
X22226456Y-28214734D01*
X22226451Y-28214738D01*
X22031348Y-28364445D01*
X22031341Y-28364451D01*
X21857451Y-28538341D01*
X21857445Y-28538348D01*
X21707738Y-28733451D01*
X21707734Y-28733456D01*
X21707733Y-28733459D01*
X21682334Y-28777451D01*
X21584767Y-28946441D01*
X21584765Y-28946445D01*
X21490654Y-29173649D01*
X21427000Y-29411208D01*
X21394900Y-29655026D01*
X20500500Y-29655026D01*
X20500500Y-23185258D01*
X21549500Y-23185258D01*
X21549500Y-23414741D01*
X21563383Y-23520185D01*
X21579452Y-23642238D01*
X21621703Y-23799923D01*
X21638842Y-23863887D01*
X21726650Y-24075876D01*
X21726656Y-24075888D01*
X21833905Y-24261650D01*
X21841392Y-24274617D01*
X21981081Y-24456661D01*
X21981089Y-24456670D01*
X22143330Y-24618911D01*
X22143338Y-24618918D01*
X22143339Y-24618919D01*
X22166048Y-24636344D01*
X22325382Y-24758607D01*
X22325385Y-24758608D01*
X22325388Y-24758611D01*
X22524112Y-24873344D01*
X22524117Y-24873346D01*
X22524123Y-24873349D01*
X22615480Y-24911190D01*
X22736113Y-24961158D01*
X22957762Y-25020548D01*
X23185266Y-25050500D01*
X23185273Y-25050500D01*
X23414727Y-25050500D01*
X23414734Y-25050500D01*
X23642238Y-25020548D01*
X23863887Y-24961158D01*
X24075888Y-24873344D01*
X24274612Y-24758611D01*
X24456661Y-24618919D01*
X24456665Y-24618914D01*
X24456670Y-24618911D01*
X24618911Y-24456670D01*
X24618914Y-24456665D01*
X24618919Y-24456661D01*
X24758611Y-24274612D01*
X24873344Y-24075888D01*
X24961158Y-23863887D01*
X25020548Y-23642238D01*
X25050500Y-23414734D01*
X25050500Y-23185266D01*
X25020548Y-22957762D01*
X24961158Y-22736113D01*
X24879244Y-22538355D01*
X24873349Y-22524123D01*
X24873346Y-22524117D01*
X24873344Y-22524112D01*
X24758611Y-22325388D01*
X24758608Y-22325385D01*
X24758607Y-22325382D01*
X24618918Y-22143338D01*
X24618911Y-22143330D01*
X24456670Y-21981089D01*
X24456661Y-21981081D01*
X24274617Y-21841392D01*
X24075890Y-21726657D01*
X24075876Y-21726650D01*
X23863887Y-21638842D01*
X23642238Y-21579452D01*
X23604215Y-21574446D01*
X23414741Y-21549500D01*
X23414734Y-21549500D01*
X23185266Y-21549500D01*
X23185258Y-21549500D01*
X22968715Y-21578009D01*
X22957762Y-21579452D01*
X22864076Y-21604554D01*
X22736112Y-21638842D01*
X22524123Y-21726650D01*
X22524109Y-21726657D01*
X22325382Y-21841392D01*
X22143338Y-21981081D01*
X21981081Y-22143338D01*
X21841392Y-22325382D01*
X21726657Y-22524109D01*
X21726650Y-22524123D01*
X21638842Y-22736112D01*
X21613925Y-22829104D01*
X21588910Y-22922466D01*
X21579453Y-22957759D01*
X21579451Y-22957770D01*
X21549500Y-23185258D01*
X20500500Y-23185258D01*
X20500500Y-20624500D01*
X20520185Y-20557461D01*
X20572989Y-20511706D01*
X20624500Y-20500500D01*
X36324052Y-20500500D01*
X36391091Y-20520185D01*
G37*
%TD.AperFunction*%
%TA.AperFunction,Conductor*%
G36*
X65286942Y-71620185D02*
G01*
X65307584Y-71636819D01*
X65539084Y-71868319D01*
X65572569Y-71929642D01*
X65571178Y-71988092D01*
X65551932Y-72059923D01*
X65551929Y-72059937D01*
X65532677Y-72279997D01*
X65532677Y-72280002D01*
X65551921Y-72499976D01*
X65551930Y-72500068D01*
X65574796Y-72585407D01*
X65573134Y-72655256D01*
X65533972Y-72713119D01*
X65469744Y-72740623D01*
X65455022Y-72741500D01*
X52904460Y-72741500D01*
X52837421Y-72721815D01*
X52791666Y-72669011D01*
X52781722Y-72599853D01*
X52784685Y-72585406D01*
X52807574Y-72499982D01*
X52807575Y-72499976D01*
X52826821Y-72280000D01*
X52826821Y-72279999D01*
X52807575Y-72060023D01*
X52807573Y-72060013D01*
X52750424Y-71846729D01*
X52750419Y-71846715D01*
X52717866Y-71776904D01*
X52707374Y-71707827D01*
X52735894Y-71644043D01*
X52794371Y-71605804D01*
X52830248Y-71600500D01*
X65219903Y-71600500D01*
X65286942Y-71620185D01*
G37*
%TD.AperFunction*%
%TA.AperFunction,Conductor*%
G36*
X65504942Y-69298185D02*
G01*
X65525584Y-69314819D01*
X65539084Y-69328319D01*
X65572569Y-69389642D01*
X65571178Y-69448092D01*
X65551932Y-69519923D01*
X65551929Y-69519937D01*
X65532677Y-69739997D01*
X65532677Y-69740002D01*
X65551929Y-69960062D01*
X65551930Y-69960070D01*
X65609104Y-70173445D01*
X65609105Y-70173447D01*
X65609106Y-70173450D01*
X65632256Y-70223095D01*
X65642747Y-70292173D01*
X65614227Y-70355957D01*
X65555750Y-70394196D01*
X65519873Y-70399499D01*
X65433347Y-70399499D01*
X65433331Y-70399500D01*
X52839574Y-70399500D01*
X52772535Y-70379815D01*
X52726780Y-70327011D01*
X52716836Y-70257853D01*
X52727192Y-70223096D01*
X52750419Y-70173284D01*
X52750424Y-70173270D01*
X52807573Y-69959986D01*
X52807575Y-69959976D01*
X52826821Y-69740000D01*
X52826821Y-69739999D01*
X52807575Y-69520023D01*
X52807574Y-69520017D01*
X52784685Y-69434594D01*
X52786348Y-69364744D01*
X52825510Y-69306881D01*
X52889739Y-69279377D01*
X52904460Y-69278500D01*
X65437903Y-69278500D01*
X65504942Y-69298185D01*
G37*
%TD.AperFunction*%
%TA.AperFunction,Conductor*%
G36*
X65522061Y-64218185D02*
G01*
X65567816Y-64270989D01*
X65577760Y-64340147D01*
X65574798Y-64354585D01*
X65563054Y-64398415D01*
X65551930Y-64439930D01*
X65551929Y-64439937D01*
X65532677Y-64659997D01*
X65532677Y-64660002D01*
X65551929Y-64880062D01*
X65551930Y-64880070D01*
X65609104Y-65093445D01*
X65609105Y-65093447D01*
X65609106Y-65093450D01*
X65676645Y-65238289D01*
X65702466Y-65293662D01*
X65702468Y-65293666D01*
X65829170Y-65474615D01*
X65829175Y-65474621D01*
X65985378Y-65630824D01*
X65985384Y-65630829D01*
X66166333Y-65757531D01*
X66166335Y-65757532D01*
X66166338Y-65757534D01*
X66285748Y-65813215D01*
X66295189Y-65817618D01*
X66347628Y-65863790D01*
X66366780Y-65930984D01*
X66346564Y-65997865D01*
X66295189Y-66042382D01*
X66166340Y-66102465D01*
X66166338Y-66102466D01*
X65985377Y-66229175D01*
X65829175Y-66385377D01*
X65702466Y-66566338D01*
X65702465Y-66566340D01*
X65609107Y-66766548D01*
X65609104Y-66766554D01*
X65551930Y-66979929D01*
X65551929Y-66979937D01*
X65532677Y-67199997D01*
X65532677Y-67200002D01*
X65551929Y-67420062D01*
X65551930Y-67420070D01*
X65609104Y-67633445D01*
X65609105Y-67633447D01*
X65609106Y-67633450D01*
X65701983Y-67832627D01*
X65702466Y-67833662D01*
X65702468Y-67833666D01*
X65736576Y-67882377D01*
X65758903Y-67948583D01*
X65741893Y-68016350D01*
X65690944Y-68064163D01*
X65635001Y-68077500D01*
X59549096Y-68077500D01*
X59482057Y-68057815D01*
X59436302Y-68005011D01*
X59426358Y-67935853D01*
X59455383Y-67872297D01*
X59461415Y-67865819D01*
X61194056Y-66133179D01*
X63092416Y-64234819D01*
X63153739Y-64201334D01*
X63180097Y-64198500D01*
X65455022Y-64198500D01*
X65522061Y-64218185D01*
G37*
%TD.AperFunction*%
%TA.AperFunction,Conductor*%
G36*
X68252671Y-41564108D02*
G01*
X68267626Y-41576861D01*
X71263181Y-44572416D01*
X71296666Y-44633739D01*
X71299500Y-44660097D01*
X71299500Y-60813330D01*
X71299499Y-60813348D01*
X71299499Y-60979054D01*
X71299498Y-60979054D01*
X71340423Y-61131785D01*
X71350463Y-61149174D01*
X71350464Y-61149177D01*
X71419475Y-61268709D01*
X71419481Y-61268717D01*
X71538349Y-61387585D01*
X71538355Y-61387590D01*
X72886280Y-62735515D01*
X72919765Y-62796838D01*
X72914781Y-62866530D01*
X72872909Y-62922463D01*
X72864571Y-62928190D01*
X72797737Y-62970184D01*
X72670184Y-63097737D01*
X72574211Y-63250476D01*
X72514631Y-63420745D01*
X72514630Y-63420750D01*
X72494435Y-63599996D01*
X72494435Y-63600003D01*
X72514630Y-63779249D01*
X72514631Y-63779254D01*
X72574211Y-63949523D01*
X72670185Y-64102263D01*
X72672445Y-64105097D01*
X72673334Y-64107275D01*
X72673889Y-64108158D01*
X72673734Y-64108255D01*
X72698855Y-64169783D01*
X72699500Y-64182412D01*
X72699500Y-67909007D01*
X72679815Y-67976046D01*
X72627011Y-68021801D01*
X72557853Y-68031745D01*
X72494297Y-68002720D01*
X72487819Y-67996688D01*
X67727485Y-63236355D01*
X67727483Y-63236352D01*
X67685969Y-63194838D01*
X67652484Y-63133515D01*
X67657468Y-63063823D01*
X67685965Y-63019480D01*
X67770826Y-62934620D01*
X67897534Y-62753662D01*
X67990894Y-62553450D01*
X68048070Y-62340068D01*
X68063726Y-62161120D01*
X68067323Y-62120002D01*
X68067323Y-62119997D01*
X68060103Y-62037474D01*
X68048070Y-61899932D01*
X67990894Y-61686550D01*
X67897534Y-61486339D01*
X67770826Y-61305380D01*
X67614620Y-61149174D01*
X67614616Y-61149171D01*
X67614615Y-61149170D01*
X67433666Y-61022468D01*
X67433658Y-61022464D01*
X67304811Y-60962382D01*
X67252371Y-60916210D01*
X67233219Y-60849017D01*
X67253435Y-60782135D01*
X67304811Y-60737618D01*
X67318435Y-60731265D01*
X67433662Y-60677534D01*
X67614620Y-60550826D01*
X67770826Y-60394620D01*
X67897534Y-60213662D01*
X67990894Y-60013450D01*
X68048070Y-59800068D01*
X68067323Y-59580000D01*
X68065574Y-59560013D01*
X68048070Y-59359937D01*
X68048070Y-59359932D01*
X67990894Y-59146550D01*
X67897534Y-58946339D01*
X67804324Y-58813220D01*
X67770827Y-58765381D01*
X67705872Y-58700426D01*
X67614620Y-58609174D01*
X67614616Y-58609171D01*
X67614615Y-58609170D01*
X67433666Y-58482468D01*
X67433658Y-58482464D01*
X67304811Y-58422382D01*
X67252371Y-58376210D01*
X67233219Y-58309017D01*
X67253435Y-58242135D01*
X67304811Y-58197618D01*
X67310802Y-58194824D01*
X67433662Y-58137534D01*
X67614620Y-58010826D01*
X67770826Y-57854620D01*
X67897534Y-57673662D01*
X67990894Y-57473450D01*
X68048070Y-57260068D01*
X68067323Y-57040000D01*
X68048070Y-56819932D01*
X67990894Y-56606550D01*
X67897534Y-56406339D01*
X67770826Y-56225380D01*
X67614620Y-56069174D01*
X67614616Y-56069171D01*
X67614615Y-56069170D01*
X67433666Y-55942468D01*
X67433658Y-55942464D01*
X67304811Y-55882382D01*
X67252371Y-55836210D01*
X67233219Y-55769017D01*
X67253435Y-55702135D01*
X67304811Y-55657618D01*
X67345820Y-55638495D01*
X67433662Y-55597534D01*
X67614620Y-55470826D01*
X67770826Y-55314620D01*
X67897534Y-55133662D01*
X67990894Y-54933450D01*
X68048070Y-54720068D01*
X68067323Y-54500000D01*
X68048070Y-54279932D01*
X67990894Y-54066550D01*
X67897534Y-53866339D01*
X67782553Y-53702128D01*
X67770827Y-53685381D01*
X67710202Y-53624756D01*
X67614620Y-53529174D01*
X67614616Y-53529171D01*
X67614615Y-53529170D01*
X67433666Y-53402468D01*
X67433658Y-53402464D01*
X67304811Y-53342382D01*
X67252371Y-53296210D01*
X67233219Y-53229017D01*
X67253435Y-53162135D01*
X67304811Y-53117618D01*
X67310802Y-53114824D01*
X67433662Y-53057534D01*
X67614620Y-52930826D01*
X67770826Y-52774620D01*
X67897534Y-52593662D01*
X67990894Y-52393450D01*
X68048070Y-52180068D01*
X68067323Y-51960000D01*
X68065351Y-51937465D01*
X68050588Y-51768713D01*
X68048070Y-51739932D01*
X67990894Y-51526550D01*
X67897534Y-51326339D01*
X67815277Y-51208863D01*
X67770827Y-51145381D01*
X67747649Y-51122203D01*
X67614620Y-50989174D01*
X67614616Y-50989171D01*
X67614615Y-50989170D01*
X67433666Y-50862468D01*
X67433658Y-50862464D01*
X67304811Y-50802382D01*
X67252371Y-50756210D01*
X67233219Y-50689017D01*
X67253435Y-50622135D01*
X67304811Y-50577618D01*
X67346365Y-50558241D01*
X67433662Y-50517534D01*
X67614620Y-50390826D01*
X67770826Y-50234620D01*
X67897534Y-50053662D01*
X67990894Y-49853450D01*
X68048070Y-49640068D01*
X68067323Y-49420000D01*
X68048070Y-49199932D01*
X68028821Y-49128095D01*
X68030482Y-49058246D01*
X68060911Y-49008322D01*
X68342520Y-48726716D01*
X68421577Y-48589785D01*
X68462501Y-48437057D01*
X68462501Y-48278942D01*
X68462501Y-48271347D01*
X68462500Y-48271329D01*
X68462500Y-46361050D01*
X68462500Y-46361048D01*
X68421577Y-46208321D01*
X68366544Y-46113000D01*
X68342524Y-46071395D01*
X68342521Y-46071391D01*
X68342520Y-46071389D01*
X68230716Y-45959585D01*
X68230715Y-45959584D01*
X68226385Y-45955254D01*
X68226374Y-45955244D01*
X67727485Y-45456355D01*
X67727483Y-45456352D01*
X67685969Y-45414838D01*
X67652484Y-45353515D01*
X67657468Y-45283823D01*
X67685965Y-45239480D01*
X67770826Y-45154620D01*
X67897534Y-44973662D01*
X67990894Y-44773450D01*
X68048070Y-44560068D01*
X68063819Y-44380054D01*
X68067323Y-44340002D01*
X68067323Y-44339997D01*
X68054040Y-44188169D01*
X68048070Y-44119932D01*
X67990894Y-43906550D01*
X67897534Y-43706339D01*
X67808865Y-43579706D01*
X67770827Y-43525381D01*
X67710425Y-43464979D01*
X67614620Y-43369174D01*
X67614616Y-43369171D01*
X67614615Y-43369170D01*
X67433666Y-43242468D01*
X67433658Y-43242464D01*
X67304811Y-43182382D01*
X67252371Y-43136210D01*
X67233219Y-43069017D01*
X67253435Y-43002135D01*
X67304811Y-42957618D01*
X67310802Y-42954824D01*
X67433662Y-42897534D01*
X67614620Y-42770826D01*
X67770826Y-42614620D01*
X67897534Y-42433662D01*
X67990894Y-42233450D01*
X68048070Y-42020068D01*
X68067323Y-41800000D01*
X68056417Y-41675347D01*
X68070183Y-41606850D01*
X68118798Y-41556667D01*
X68186827Y-41540733D01*
X68252671Y-41564108D01*
G37*
%TD.AperFunction*%
%TA.AperFunction,Conductor*%
G36*
X53012671Y-46644108D02*
G01*
X53027626Y-46656861D01*
X54235139Y-47864374D01*
X54235148Y-47864384D01*
X54239479Y-47868715D01*
X54239480Y-47868716D01*
X54263181Y-47892417D01*
X54296666Y-47953738D01*
X54299500Y-47980098D01*
X54299500Y-63513330D01*
X54299499Y-63513348D01*
X54299499Y-63679054D01*
X54299498Y-63679054D01*
X54340423Y-63831785D01*
X54359298Y-63864477D01*
X54359297Y-63864477D01*
X54359298Y-63864478D01*
X54419475Y-63968709D01*
X54419481Y-63968717D01*
X54538349Y-64087585D01*
X54538355Y-64087590D01*
X57338584Y-66887819D01*
X57372069Y-66949142D01*
X57367085Y-67018834D01*
X57325213Y-67074767D01*
X57259749Y-67099184D01*
X57250903Y-67099500D01*
X52932156Y-67099500D01*
X52865117Y-67079815D01*
X52819362Y-67027011D01*
X52808628Y-66986311D01*
X52808070Y-66979932D01*
X52750894Y-66766550D01*
X52657534Y-66566339D01*
X52564752Y-66433832D01*
X52530827Y-66385381D01*
X52460076Y-66314630D01*
X52374620Y-66229174D01*
X52374616Y-66229171D01*
X52374615Y-66229170D01*
X52193666Y-66102468D01*
X52193658Y-66102464D01*
X52064811Y-66042382D01*
X52012371Y-65996210D01*
X51993219Y-65929017D01*
X52013435Y-65862135D01*
X52064811Y-65817618D01*
X52070802Y-65814824D01*
X52193662Y-65757534D01*
X52374620Y-65630826D01*
X52530826Y-65474620D01*
X52657534Y-65293662D01*
X52750894Y-65093450D01*
X52808070Y-64880068D01*
X52824245Y-64695184D01*
X52827323Y-64660002D01*
X52827323Y-64659997D01*
X52819072Y-64565686D01*
X52808070Y-64439932D01*
X52750894Y-64226550D01*
X52657534Y-64026339D01*
X52553526Y-63877799D01*
X52530827Y-63845381D01*
X52453868Y-63768422D01*
X52374620Y-63689174D01*
X52374616Y-63689171D01*
X52374615Y-63689170D01*
X52193666Y-63562468D01*
X52193658Y-63562464D01*
X52064811Y-63502382D01*
X52012371Y-63456210D01*
X51993219Y-63389017D01*
X52013435Y-63322135D01*
X52064811Y-63277618D01*
X52070802Y-63274824D01*
X52193662Y-63217534D01*
X52374620Y-63090826D01*
X52530826Y-62934620D01*
X52657534Y-62753662D01*
X52750894Y-62553450D01*
X52808070Y-62340068D01*
X52823726Y-62161120D01*
X52827323Y-62120002D01*
X52827323Y-62119997D01*
X52823320Y-62074246D01*
X52808070Y-61899932D01*
X52808068Y-61899924D01*
X52788821Y-61828095D01*
X52790482Y-61758245D01*
X52820912Y-61708321D01*
X53058506Y-61470728D01*
X53058511Y-61470724D01*
X53068714Y-61460520D01*
X53068716Y-61460520D01*
X53180520Y-61348716D01*
X53259577Y-61211784D01*
X53300500Y-61059057D01*
X53300500Y-59307164D01*
X53300501Y-59307151D01*
X53300501Y-59139050D01*
X53300501Y-59139048D01*
X53259577Y-58986320D01*
X53208874Y-58898500D01*
X53180520Y-58849389D01*
X53068716Y-58737585D01*
X53064385Y-58733254D01*
X53064374Y-58733244D01*
X52487485Y-58156355D01*
X52487483Y-58156352D01*
X52445969Y-58114838D01*
X52412484Y-58053515D01*
X52417468Y-57983823D01*
X52445965Y-57939480D01*
X52530826Y-57854620D01*
X52657534Y-57673662D01*
X52750894Y-57473450D01*
X52808070Y-57260068D01*
X52827323Y-57040000D01*
X52808070Y-56819932D01*
X52750894Y-56606550D01*
X52657534Y-56406339D01*
X52530826Y-56225380D01*
X52374620Y-56069174D01*
X52374616Y-56069171D01*
X52374615Y-56069170D01*
X52193666Y-55942468D01*
X52193658Y-55942464D01*
X52064811Y-55882382D01*
X52012371Y-55836210D01*
X51993219Y-55769017D01*
X52013435Y-55702135D01*
X52064811Y-55657618D01*
X52105820Y-55638495D01*
X52193662Y-55597534D01*
X52374620Y-55470826D01*
X52530826Y-55314620D01*
X52657534Y-55133662D01*
X52750894Y-54933450D01*
X52808070Y-54720068D01*
X52827323Y-54500000D01*
X52808070Y-54279932D01*
X52750894Y-54066550D01*
X52657534Y-53866339D01*
X52542553Y-53702128D01*
X52530827Y-53685381D01*
X52470202Y-53624756D01*
X52374620Y-53529174D01*
X52374616Y-53529171D01*
X52374615Y-53529170D01*
X52193666Y-53402468D01*
X52193658Y-53402464D01*
X52064811Y-53342382D01*
X52012371Y-53296210D01*
X51993219Y-53229017D01*
X52013435Y-53162135D01*
X52064811Y-53117618D01*
X52070802Y-53114824D01*
X52193662Y-53057534D01*
X52374620Y-52930826D01*
X52530826Y-52774620D01*
X52657534Y-52593662D01*
X52750894Y-52393450D01*
X52808070Y-52180068D01*
X52827323Y-51960000D01*
X52825351Y-51937465D01*
X52810588Y-51768713D01*
X52808070Y-51739932D01*
X52750894Y-51526550D01*
X52657534Y-51326339D01*
X52575277Y-51208863D01*
X52530827Y-51145381D01*
X52507649Y-51122203D01*
X52374620Y-50989174D01*
X52374616Y-50989171D01*
X52374615Y-50989170D01*
X52193666Y-50862468D01*
X52193658Y-50862464D01*
X52064811Y-50802382D01*
X52012371Y-50756210D01*
X51993219Y-50689017D01*
X52013435Y-50622135D01*
X52064811Y-50577618D01*
X52106365Y-50558241D01*
X52193662Y-50517534D01*
X52374620Y-50390826D01*
X52530826Y-50234620D01*
X52657534Y-50053662D01*
X52750894Y-49853450D01*
X52808070Y-49640068D01*
X52827323Y-49420000D01*
X52808070Y-49199932D01*
X52750894Y-48986550D01*
X52657534Y-48786339D01*
X52530826Y-48605380D01*
X52374620Y-48449174D01*
X52374616Y-48449171D01*
X52374615Y-48449170D01*
X52193666Y-48322468D01*
X52193658Y-48322464D01*
X52064811Y-48262382D01*
X52012371Y-48216210D01*
X51993219Y-48149017D01*
X52013435Y-48082135D01*
X52064811Y-48037618D01*
X52070802Y-48034824D01*
X52193662Y-47977534D01*
X52374620Y-47850826D01*
X52530826Y-47694620D01*
X52657534Y-47513662D01*
X52750894Y-47313450D01*
X52808070Y-47100068D01*
X52827323Y-46880000D01*
X52816417Y-46755347D01*
X52830183Y-46686850D01*
X52878798Y-46636667D01*
X52946827Y-46620733D01*
X53012671Y-46644108D01*
G37*
%TD.AperFunction*%
%TA.AperFunction,Conductor*%
G36*
X65463388Y-49168359D02*
G01*
X65519321Y-49210231D01*
X65543738Y-49275695D01*
X65543582Y-49295348D01*
X65532677Y-49419997D01*
X65532677Y-49420002D01*
X65551929Y-49640062D01*
X65551930Y-49640070D01*
X65609104Y-49853445D01*
X65609105Y-49853447D01*
X65609106Y-49853450D01*
X65655432Y-49952797D01*
X65702466Y-50053662D01*
X65702468Y-50053666D01*
X65829170Y-50234615D01*
X65829175Y-50234621D01*
X65985378Y-50390824D01*
X65985384Y-50390829D01*
X66166333Y-50517531D01*
X66166335Y-50517532D01*
X66166338Y-50517534D01*
X66253635Y-50558241D01*
X66295189Y-50577618D01*
X66347628Y-50623790D01*
X66366780Y-50690984D01*
X66346564Y-50757865D01*
X66295189Y-50802382D01*
X66166340Y-50862465D01*
X66166338Y-50862466D01*
X65985377Y-50989175D01*
X65829175Y-51145377D01*
X65702466Y-51326338D01*
X65702465Y-51326340D01*
X65609107Y-51526548D01*
X65609104Y-51526554D01*
X65551930Y-51739929D01*
X65551929Y-51739937D01*
X65532677Y-51959997D01*
X65532677Y-51960002D01*
X65551929Y-52180062D01*
X65551930Y-52180070D01*
X65609104Y-52393445D01*
X65609105Y-52393447D01*
X65609106Y-52393450D01*
X65702466Y-52593662D01*
X65702468Y-52593666D01*
X65829170Y-52774615D01*
X65829175Y-52774621D01*
X65985378Y-52930824D01*
X65985384Y-52930829D01*
X66166333Y-53057531D01*
X66166335Y-53057532D01*
X66166338Y-53057534D01*
X66285748Y-53113215D01*
X66295189Y-53117618D01*
X66347628Y-53163790D01*
X66366780Y-53230984D01*
X66346564Y-53297865D01*
X66295189Y-53342382D01*
X66166340Y-53402465D01*
X66166338Y-53402466D01*
X65985377Y-53529175D01*
X65829175Y-53685377D01*
X65702466Y-53866338D01*
X65702465Y-53866340D01*
X65609107Y-54066548D01*
X65609104Y-54066554D01*
X65551930Y-54279929D01*
X65551929Y-54279937D01*
X65532677Y-54499997D01*
X65532677Y-54500002D01*
X65551929Y-54720062D01*
X65551930Y-54720070D01*
X65609104Y-54933445D01*
X65609105Y-54933447D01*
X65609106Y-54933450D01*
X65669825Y-55063663D01*
X65702466Y-55133662D01*
X65702468Y-55133666D01*
X65829170Y-55314615D01*
X65829175Y-55314621D01*
X65985378Y-55470824D01*
X65985384Y-55470829D01*
X66166333Y-55597531D01*
X66166335Y-55597532D01*
X66166338Y-55597534D01*
X66254180Y-55638495D01*
X66295189Y-55657618D01*
X66347628Y-55703790D01*
X66366780Y-55770984D01*
X66346564Y-55837865D01*
X66295189Y-55882382D01*
X66166340Y-55942465D01*
X66166338Y-55942466D01*
X65985377Y-56069175D01*
X65829175Y-56225377D01*
X65702466Y-56406338D01*
X65702465Y-56406340D01*
X65609107Y-56606548D01*
X65609104Y-56606554D01*
X65551930Y-56819929D01*
X65551929Y-56819937D01*
X65532677Y-57039997D01*
X65532677Y-57040002D01*
X65551929Y-57260062D01*
X65551930Y-57260070D01*
X65609104Y-57473445D01*
X65609105Y-57473447D01*
X65609106Y-57473450D01*
X65644063Y-57548416D01*
X65702466Y-57673662D01*
X65702468Y-57673666D01*
X65829170Y-57854615D01*
X65829175Y-57854621D01*
X65985378Y-58010824D01*
X65985384Y-58010829D01*
X66166333Y-58137531D01*
X66166335Y-58137532D01*
X66166338Y-58137534D01*
X66285748Y-58193215D01*
X66295189Y-58197618D01*
X66347628Y-58243790D01*
X66366780Y-58310984D01*
X66346564Y-58377865D01*
X66295189Y-58422382D01*
X66166340Y-58482465D01*
X66166338Y-58482466D01*
X65985377Y-58609175D01*
X65829175Y-58765377D01*
X65702466Y-58946338D01*
X65702465Y-58946340D01*
X65609107Y-59146548D01*
X65609104Y-59146554D01*
X65551930Y-59359929D01*
X65551929Y-59359937D01*
X65532677Y-59579997D01*
X65532677Y-59580002D01*
X65551929Y-59800062D01*
X65551930Y-59800070D01*
X65609104Y-60013445D01*
X65609105Y-60013447D01*
X65609106Y-60013450D01*
X65687002Y-60180500D01*
X65702466Y-60213662D01*
X65702468Y-60213666D01*
X65829170Y-60394615D01*
X65829175Y-60394621D01*
X65985378Y-60550824D01*
X65985384Y-60550829D01*
X66166333Y-60677531D01*
X66166335Y-60677532D01*
X66166338Y-60677534D01*
X66281565Y-60731265D01*
X66295189Y-60737618D01*
X66347628Y-60783790D01*
X66366780Y-60850984D01*
X66346564Y-60917865D01*
X66295189Y-60962382D01*
X66166340Y-61022465D01*
X66166338Y-61022466D01*
X65985379Y-61149174D01*
X65829175Y-61305377D01*
X65702466Y-61486338D01*
X65702465Y-61486340D01*
X65609107Y-61686548D01*
X65609104Y-61686554D01*
X65551930Y-61899929D01*
X65551929Y-61899937D01*
X65532677Y-62119997D01*
X65532677Y-62120002D01*
X65551929Y-62340062D01*
X65551930Y-62340070D01*
X65609104Y-62553445D01*
X65609105Y-62553447D01*
X65609106Y-62553450D01*
X65689101Y-62725000D01*
X65702466Y-62753662D01*
X65702468Y-62753666D01*
X65736576Y-62802377D01*
X65758903Y-62868583D01*
X65741893Y-62936350D01*
X65690944Y-62984163D01*
X65635001Y-62997500D01*
X62966669Y-62997500D01*
X62966653Y-62997499D01*
X62959057Y-62997499D01*
X62800943Y-62997499D01*
X62718929Y-63019475D01*
X62648210Y-63038424D01*
X62648209Y-63038425D01*
X62609602Y-63060716D01*
X62609600Y-63060717D01*
X62511290Y-63117475D01*
X62511282Y-63117481D01*
X59118102Y-66510662D01*
X59056779Y-66544147D01*
X58987087Y-66539163D01*
X58942740Y-66510662D01*
X58902262Y-66470184D01*
X58749521Y-66374210D01*
X58579249Y-66314630D01*
X58492330Y-66304837D01*
X58427916Y-66277770D01*
X58418533Y-66269298D01*
X57448847Y-65299612D01*
X57415362Y-65238289D01*
X57420346Y-65168597D01*
X57462218Y-65112664D01*
X57527682Y-65088247D01*
X57550411Y-65088711D01*
X57699996Y-65105565D01*
X57700000Y-65105565D01*
X57700004Y-65105565D01*
X57879249Y-65085369D01*
X57879252Y-65085368D01*
X57879255Y-65085368D01*
X58049522Y-65025789D01*
X58202262Y-64929816D01*
X58329816Y-64802262D01*
X58425789Y-64649522D01*
X58485368Y-64479255D01*
X58485369Y-64479249D01*
X58505565Y-64300003D01*
X58505565Y-64299996D01*
X58485369Y-64120750D01*
X58485368Y-64120745D01*
X58478901Y-64102263D01*
X58425789Y-63950478D01*
X58425188Y-63949522D01*
X58380120Y-63877796D01*
X58329816Y-63797738D01*
X58329814Y-63797736D01*
X58329813Y-63797734D01*
X58327550Y-63794896D01*
X58326659Y-63792715D01*
X58326111Y-63791842D01*
X58326264Y-63791745D01*
X58301144Y-63730209D01*
X58300500Y-63717587D01*
X58300500Y-56280096D01*
X58320185Y-56213057D01*
X58336814Y-56192420D01*
X65332375Y-49196858D01*
X65393696Y-49163375D01*
X65463388Y-49168359D01*
G37*
%TD.AperFunction*%
%TA.AperFunction,Conductor*%
G36*
X63587047Y-43898185D02*
G01*
X63607689Y-43914819D01*
X65726392Y-46033522D01*
X65759877Y-46094845D01*
X65754893Y-46164537D01*
X65740286Y-46192326D01*
X65702466Y-46246338D01*
X65702465Y-46246340D01*
X65678134Y-46298519D01*
X65612878Y-46438462D01*
X65609107Y-46446548D01*
X65609104Y-46446554D01*
X65551930Y-46659929D01*
X65551929Y-46659937D01*
X65532677Y-46879997D01*
X65532677Y-46880002D01*
X65551929Y-47100062D01*
X65551932Y-47100076D01*
X65571178Y-47171906D01*
X65569515Y-47241755D01*
X65539084Y-47291679D01*
X57331286Y-55499478D01*
X57219481Y-55611282D01*
X57219479Y-55611285D01*
X57173519Y-55690892D01*
X57173518Y-55690893D01*
X57140423Y-55748214D01*
X57140423Y-55748215D01*
X57099499Y-55900943D01*
X57099499Y-55900945D01*
X57099499Y-56069046D01*
X57099500Y-56069059D01*
X57099500Y-63717587D01*
X57079815Y-63784626D01*
X57072450Y-63794896D01*
X57070186Y-63797734D01*
X56974211Y-63950476D01*
X56914631Y-64120745D01*
X56914630Y-64120750D01*
X56894435Y-64299996D01*
X56894435Y-64300004D01*
X56911288Y-64449588D01*
X56899233Y-64518410D01*
X56851884Y-64569789D01*
X56784273Y-64587413D01*
X56717868Y-64565686D01*
X56700387Y-64551152D01*
X55536819Y-63387584D01*
X55503334Y-63326261D01*
X55500500Y-63299903D01*
X55500500Y-47420945D01*
X55500500Y-47420943D01*
X55459577Y-47268216D01*
X55403973Y-47171906D01*
X55380524Y-47131290D01*
X55380518Y-47131282D01*
X55268717Y-47019481D01*
X55268709Y-47019475D01*
X55131790Y-46940426D01*
X55131785Y-46940423D01*
X54997049Y-46904321D01*
X54941462Y-46872227D01*
X52820914Y-44751679D01*
X52787429Y-44690356D01*
X52788821Y-44631902D01*
X52808069Y-44560072D01*
X52808069Y-44560070D01*
X52808070Y-44560068D01*
X52825048Y-44365999D01*
X52827323Y-44340002D01*
X52827323Y-44339997D01*
X52814040Y-44188169D01*
X52808070Y-44119932D01*
X52785203Y-44034592D01*
X52786866Y-43964744D01*
X52826028Y-43906881D01*
X52890256Y-43879377D01*
X52904978Y-43878500D01*
X63520008Y-43878500D01*
X63587047Y-43898185D01*
G37*
%TD.AperFunction*%
%TA.AperFunction,Conductor*%
G36*
X42075471Y-40480185D02*
G01*
X42096113Y-40496819D01*
X45241668Y-43642374D01*
X45241678Y-43642385D01*
X45246008Y-43646715D01*
X45246009Y-43646716D01*
X45357813Y-43758520D01*
X45357815Y-43758521D01*
X45357816Y-43758522D01*
X45363248Y-43761658D01*
X45430392Y-43800423D01*
X45494744Y-43837577D01*
X45647472Y-43878501D01*
X45647475Y-43878501D01*
X45813182Y-43878501D01*
X45813198Y-43878500D01*
X50215022Y-43878500D01*
X50282061Y-43898185D01*
X50327816Y-43950989D01*
X50337760Y-44020147D01*
X50334798Y-44034585D01*
X50329560Y-44054137D01*
X50311930Y-44119930D01*
X50311929Y-44119937D01*
X50292677Y-44339997D01*
X50292677Y-44340002D01*
X50311929Y-44560062D01*
X50311930Y-44560070D01*
X50369104Y-44773445D01*
X50369105Y-44773447D01*
X50369106Y-44773450D01*
X50451655Y-44950478D01*
X50462466Y-44973662D01*
X50462468Y-44973666D01*
X50589170Y-45154615D01*
X50589175Y-45154621D01*
X50745378Y-45310824D01*
X50745384Y-45310829D01*
X50926333Y-45437531D01*
X50926335Y-45437532D01*
X50926338Y-45437534D01*
X51045748Y-45493215D01*
X51055189Y-45497618D01*
X51107628Y-45543790D01*
X51126780Y-45610984D01*
X51106564Y-45677865D01*
X51055189Y-45722382D01*
X50926340Y-45782465D01*
X50926338Y-45782466D01*
X50745377Y-45909175D01*
X50589175Y-46065377D01*
X50476271Y-46226623D01*
X50421694Y-46270248D01*
X50374696Y-46279500D01*
X44680098Y-46279500D01*
X44613059Y-46259815D01*
X44592417Y-46243181D01*
X42921652Y-44572416D01*
X41232765Y-42883530D01*
X41199281Y-42822208D01*
X41200672Y-42763757D01*
X41204973Y-42747705D01*
X41235063Y-42635408D01*
X41255659Y-42400000D01*
X41255574Y-42399034D01*
X41251468Y-42352103D01*
X41235063Y-42164592D01*
X41178127Y-41952101D01*
X41173905Y-41936344D01*
X41173904Y-41936343D01*
X41173903Y-41936337D01*
X41074035Y-41722171D01*
X41061958Y-41704922D01*
X40938494Y-41528597D01*
X40771402Y-41361506D01*
X40771396Y-41361501D01*
X40585842Y-41231575D01*
X40542217Y-41176998D01*
X40535023Y-41107500D01*
X40566546Y-41045145D01*
X40585842Y-41028425D01*
X40647321Y-40985377D01*
X40771401Y-40898495D01*
X40938495Y-40731401D01*
X41074035Y-40537830D01*
X41076707Y-40532097D01*
X41122878Y-40479658D01*
X41189091Y-40460500D01*
X42008432Y-40460500D01*
X42075471Y-40480185D01*
G37*
%TD.AperFunction*%
%TA.AperFunction,Conductor*%
G36*
X65702041Y-33322185D02*
G01*
X65747796Y-33374989D01*
X65757740Y-33444147D01*
X65736579Y-33497619D01*
X65702466Y-33546339D01*
X65702466Y-33546340D01*
X65702464Y-33546343D01*
X65609107Y-33746548D01*
X65609104Y-33746554D01*
X65551930Y-33959929D01*
X65551929Y-33959937D01*
X65532677Y-34179997D01*
X65532677Y-34180002D01*
X65551929Y-34400062D01*
X65551930Y-34400070D01*
X65609104Y-34613445D01*
X65609105Y-34613447D01*
X65609106Y-34613450D01*
X65642900Y-34685922D01*
X65702466Y-34813662D01*
X65702468Y-34813666D01*
X65829170Y-34994615D01*
X65829175Y-34994621D01*
X65985378Y-35150824D01*
X65985384Y-35150829D01*
X66166333Y-35277531D01*
X66166335Y-35277532D01*
X66166338Y-35277534D01*
X66219310Y-35302235D01*
X66295189Y-35337618D01*
X66347628Y-35383790D01*
X66366780Y-35450984D01*
X66346564Y-35517865D01*
X66295189Y-35562382D01*
X66166340Y-35622465D01*
X66166338Y-35622466D01*
X65985377Y-35749175D01*
X65829175Y-35905377D01*
X65702466Y-36086338D01*
X65702465Y-36086340D01*
X65609107Y-36286548D01*
X65609104Y-36286554D01*
X65551930Y-36499929D01*
X65551929Y-36499937D01*
X65532677Y-36719997D01*
X65532677Y-36720002D01*
X65551929Y-36940062D01*
X65551930Y-36940070D01*
X65609104Y-37153445D01*
X65609105Y-37153447D01*
X65609106Y-37153450D01*
X65675723Y-37296311D01*
X65702466Y-37353662D01*
X65702468Y-37353666D01*
X65829170Y-37534615D01*
X65829175Y-37534621D01*
X65985378Y-37690824D01*
X65985384Y-37690829D01*
X66166333Y-37817531D01*
X66166335Y-37817532D01*
X66166338Y-37817534D01*
X66285748Y-37873215D01*
X66295189Y-37877618D01*
X66347628Y-37923790D01*
X66366780Y-37990984D01*
X66346564Y-38057865D01*
X66295189Y-38102382D01*
X66166340Y-38162465D01*
X66166338Y-38162466D01*
X65985377Y-38289175D01*
X65829175Y-38445377D01*
X65702466Y-38626338D01*
X65702465Y-38626340D01*
X65609107Y-38826548D01*
X65609104Y-38826554D01*
X65551930Y-39039929D01*
X65551929Y-39039937D01*
X65532677Y-39259997D01*
X65532677Y-39260002D01*
X65551929Y-39480062D01*
X65551930Y-39480070D01*
X65609104Y-39693445D01*
X65609105Y-39693447D01*
X65609106Y-39693450D01*
X65653871Y-39789449D01*
X65702466Y-39893662D01*
X65702468Y-39893666D01*
X65829170Y-40074615D01*
X65829175Y-40074621D01*
X65985378Y-40230824D01*
X65985384Y-40230829D01*
X66166333Y-40357531D01*
X66166335Y-40357532D01*
X66166338Y-40357534D01*
X66259674Y-40401057D01*
X66295189Y-40417618D01*
X66347628Y-40463790D01*
X66366780Y-40530984D01*
X66346564Y-40597865D01*
X66295189Y-40642382D01*
X66166340Y-40702465D01*
X66166338Y-40702466D01*
X65985377Y-40829175D01*
X65829175Y-40985377D01*
X65702466Y-41166338D01*
X65702465Y-41166340D01*
X65609107Y-41366548D01*
X65609104Y-41366554D01*
X65551930Y-41579929D01*
X65551929Y-41579937D01*
X65532677Y-41799997D01*
X65532677Y-41800002D01*
X65543582Y-41924650D01*
X65529815Y-41993150D01*
X65481200Y-42043333D01*
X65413171Y-42059266D01*
X65347328Y-42035890D01*
X65332373Y-42023138D01*
X63269590Y-39960355D01*
X63269588Y-39960352D01*
X63150717Y-39841481D01*
X63150712Y-39841477D01*
X63039161Y-39777074D01*
X63039159Y-39777072D01*
X63013788Y-39762424D01*
X63013787Y-39762423D01*
X62945504Y-39744127D01*
X62861057Y-39721499D01*
X62702943Y-39721499D01*
X62695347Y-39721499D01*
X62695331Y-39721500D01*
X52904978Y-39721500D01*
X52837939Y-39701815D01*
X52792184Y-39649011D01*
X52782240Y-39579853D01*
X52785201Y-39565414D01*
X52808070Y-39480068D01*
X52827323Y-39260000D01*
X52827279Y-39259500D01*
X52812832Y-39094367D01*
X52808070Y-39039932D01*
X52750894Y-38826550D01*
X52657534Y-38626339D01*
X52532339Y-38447541D01*
X52530827Y-38445381D01*
X52497774Y-38412328D01*
X52374620Y-38289174D01*
X52374616Y-38289171D01*
X52374615Y-38289170D01*
X52193666Y-38162468D01*
X52193658Y-38162464D01*
X52064811Y-38102382D01*
X52012371Y-38056210D01*
X51993219Y-37989017D01*
X52013435Y-37922135D01*
X52064811Y-37877618D01*
X52070802Y-37874824D01*
X52193662Y-37817534D01*
X52374620Y-37690826D01*
X52530826Y-37534620D01*
X52657534Y-37353662D01*
X52750894Y-37153450D01*
X52808070Y-36940068D01*
X52827323Y-36720000D01*
X52825917Y-36703933D01*
X52816418Y-36595350D01*
X52808070Y-36499932D01*
X52750894Y-36286550D01*
X52657534Y-36086339D01*
X52530826Y-35905380D01*
X52374620Y-35749174D01*
X52374616Y-35749171D01*
X52374615Y-35749170D01*
X52193666Y-35622468D01*
X52193658Y-35622464D01*
X52064811Y-35562382D01*
X52012371Y-35516210D01*
X51993219Y-35449017D01*
X52013435Y-35382135D01*
X52064811Y-35337618D01*
X52070802Y-35334824D01*
X52193662Y-35277534D01*
X52374620Y-35150826D01*
X52530826Y-34994620D01*
X52657534Y-34813662D01*
X52750894Y-34613450D01*
X52808070Y-34400068D01*
X52827323Y-34180000D01*
X52826362Y-34169020D01*
X52814419Y-34032500D01*
X52808070Y-33959932D01*
X52750894Y-33746550D01*
X52657534Y-33546339D01*
X52623421Y-33497620D01*
X52601095Y-33431416D01*
X52618107Y-33363649D01*
X52669055Y-33315837D01*
X52724998Y-33302500D01*
X65635002Y-33302500D01*
X65702041Y-33322185D01*
G37*
%TD.AperFunction*%
%TA.AperFunction,Conductor*%
G36*
X50297602Y-23520185D02*
G01*
X50343357Y-23572989D01*
X50353301Y-23642147D01*
X50350339Y-23656587D01*
X50334256Y-23716609D01*
X50311930Y-23799930D01*
X50311929Y-23799937D01*
X50292677Y-24019997D01*
X50292677Y-24020002D01*
X50311929Y-24240062D01*
X50311930Y-24240070D01*
X50369104Y-24453445D01*
X50369105Y-24453447D01*
X50369106Y-24453450D01*
X50446265Y-24618918D01*
X50462466Y-24653662D01*
X50462468Y-24653666D01*
X50589170Y-24834615D01*
X50589175Y-24834621D01*
X50745378Y-24990824D01*
X50745384Y-24990829D01*
X50926333Y-25117531D01*
X50926335Y-25117532D01*
X50926338Y-25117534D01*
X51045748Y-25173215D01*
X51055189Y-25177618D01*
X51107628Y-25223790D01*
X51126780Y-25290984D01*
X51106564Y-25357865D01*
X51055189Y-25402382D01*
X50926340Y-25462465D01*
X50926338Y-25462466D01*
X50745377Y-25589175D01*
X50589175Y-25745377D01*
X50462466Y-25926338D01*
X50462465Y-25926340D01*
X50369107Y-26126548D01*
X50369104Y-26126554D01*
X50311930Y-26339929D01*
X50311929Y-26339937D01*
X50292677Y-26559997D01*
X50292677Y-26560002D01*
X50311929Y-26780062D01*
X50311930Y-26780070D01*
X50369104Y-26993445D01*
X50369105Y-26993447D01*
X50369106Y-26993450D01*
X50409390Y-27079839D01*
X50462466Y-27193662D01*
X50462468Y-27193666D01*
X50589170Y-27374615D01*
X50589175Y-27374621D01*
X50745378Y-27530824D01*
X50745384Y-27530829D01*
X50926333Y-27657531D01*
X50926335Y-27657532D01*
X50926338Y-27657534D01*
X51045748Y-27713215D01*
X51055189Y-27717618D01*
X51107628Y-27763790D01*
X51126780Y-27830984D01*
X51106564Y-27897865D01*
X51055189Y-27942382D01*
X50926340Y-28002465D01*
X50926338Y-28002466D01*
X50745377Y-28129175D01*
X50589175Y-28285377D01*
X50462466Y-28466338D01*
X50462465Y-28466340D01*
X50369107Y-28666548D01*
X50369104Y-28666554D01*
X50311930Y-28879929D01*
X50311929Y-28879937D01*
X50292677Y-29099997D01*
X50292677Y-29100002D01*
X50311929Y-29320062D01*
X50311930Y-29320070D01*
X50369104Y-29533445D01*
X50369105Y-29533447D01*
X50369106Y-29533450D01*
X50425804Y-29655040D01*
X50462466Y-29733662D01*
X50462468Y-29733666D01*
X50589170Y-29914615D01*
X50589175Y-29914621D01*
X50745378Y-30070824D01*
X50745384Y-30070829D01*
X50926333Y-30197531D01*
X50926335Y-30197532D01*
X50926338Y-30197534D01*
X51045748Y-30253215D01*
X51055189Y-30257618D01*
X51107628Y-30303790D01*
X51126780Y-30370984D01*
X51106564Y-30437865D01*
X51055189Y-30482382D01*
X50926340Y-30542465D01*
X50926338Y-30542466D01*
X50745377Y-30669175D01*
X50589175Y-30825377D01*
X50462466Y-31006338D01*
X50462465Y-31006340D01*
X50369107Y-31206548D01*
X50369104Y-31206554D01*
X50311930Y-31419929D01*
X50311929Y-31419937D01*
X50292677Y-31639997D01*
X50292677Y-31640002D01*
X50311929Y-31860062D01*
X50311930Y-31860069D01*
X50311931Y-31860073D01*
X50334796Y-31945407D01*
X50333134Y-32015256D01*
X50293972Y-32073119D01*
X50229744Y-32100623D01*
X50215022Y-32101500D01*
X40498568Y-32101500D01*
X40431529Y-32081815D01*
X40385774Y-32029011D01*
X40375830Y-31959853D01*
X40404855Y-31896297D01*
X40410887Y-31889819D01*
X48763887Y-23536819D01*
X48825210Y-23503334D01*
X48851568Y-23500500D01*
X50230563Y-23500500D01*
X50297602Y-23520185D01*
G37*
%TD.AperFunction*%
%TA.AperFunction,Conductor*%
G36*
X65446942Y-23520185D02*
G01*
X65467584Y-23536819D01*
X65539084Y-23608319D01*
X65572569Y-23669642D01*
X65571178Y-23728092D01*
X65551932Y-23799923D01*
X65551929Y-23799937D01*
X65532677Y-24019997D01*
X65532677Y-24020002D01*
X65551929Y-24240062D01*
X65551930Y-24240070D01*
X65609104Y-24453445D01*
X65609105Y-24453447D01*
X65609106Y-24453450D01*
X65686265Y-24618918D01*
X65702466Y-24653662D01*
X65702468Y-24653666D01*
X65829170Y-24834615D01*
X65829175Y-24834621D01*
X65985378Y-24990824D01*
X65985384Y-24990829D01*
X66166333Y-25117531D01*
X66166335Y-25117532D01*
X66166338Y-25117534D01*
X66295189Y-25177618D01*
X66295781Y-25177894D01*
X66348220Y-25224066D01*
X66367372Y-25291260D01*
X66347156Y-25358141D01*
X66295781Y-25402658D01*
X66166590Y-25462901D01*
X66101811Y-25508258D01*
X66711415Y-26117861D01*
X66626306Y-26140667D01*
X66523694Y-26199910D01*
X66439910Y-26283694D01*
X66380667Y-26386306D01*
X66357861Y-26471414D01*
X65748258Y-25861811D01*
X65702901Y-25926590D01*
X65609579Y-26126720D01*
X65609575Y-26126729D01*
X65552426Y-26340013D01*
X65552424Y-26340023D01*
X65533179Y-26559999D01*
X65533179Y-26560000D01*
X65552424Y-26779976D01*
X65552426Y-26779986D01*
X65609575Y-26993270D01*
X65609580Y-26993284D01*
X65702898Y-27193405D01*
X65702901Y-27193411D01*
X65748258Y-27258187D01*
X65748258Y-27258188D01*
X66357861Y-26648584D01*
X66380667Y-26733694D01*
X66439910Y-26836306D01*
X66523694Y-26920090D01*
X66626306Y-26979333D01*
X66711414Y-27002137D01*
X66101810Y-27611740D01*
X66166589Y-27657098D01*
X66295781Y-27717342D01*
X66348220Y-27763514D01*
X66367372Y-27830708D01*
X66347156Y-27897589D01*
X66295781Y-27942106D01*
X66166340Y-28002465D01*
X66166338Y-28002466D01*
X65985377Y-28129175D01*
X65829175Y-28285377D01*
X65702466Y-28466338D01*
X65702465Y-28466340D01*
X65609107Y-28666548D01*
X65609104Y-28666554D01*
X65551930Y-28879929D01*
X65551929Y-28879937D01*
X65532677Y-29099997D01*
X65532677Y-29100002D01*
X65551929Y-29320062D01*
X65551930Y-29320070D01*
X65609104Y-29533445D01*
X65609105Y-29533447D01*
X65609106Y-29533450D01*
X65665804Y-29655040D01*
X65702466Y-29733662D01*
X65702468Y-29733666D01*
X65829170Y-29914615D01*
X65829175Y-29914621D01*
X65985378Y-30070824D01*
X65985384Y-30070829D01*
X66166333Y-30197531D01*
X66166335Y-30197532D01*
X66166338Y-30197534D01*
X66285748Y-30253215D01*
X66295189Y-30257618D01*
X66347628Y-30303790D01*
X66366780Y-30370984D01*
X66346564Y-30437865D01*
X66295189Y-30482382D01*
X66166340Y-30542465D01*
X66166338Y-30542466D01*
X65985377Y-30669175D01*
X65829175Y-30825377D01*
X65702466Y-31006338D01*
X65702465Y-31006340D01*
X65609107Y-31206548D01*
X65609104Y-31206554D01*
X65551930Y-31419929D01*
X65551929Y-31419937D01*
X65532677Y-31639997D01*
X65532677Y-31640002D01*
X65551929Y-31860062D01*
X65551931Y-31860073D01*
X65571178Y-31931904D01*
X65569515Y-32001754D01*
X65539091Y-32051672D01*
X65525590Y-32065175D01*
X65464269Y-32098664D01*
X65437902Y-32101500D01*
X52904978Y-32101500D01*
X52837939Y-32081815D01*
X52792184Y-32029011D01*
X52782240Y-31959853D01*
X52785201Y-31945414D01*
X52808070Y-31860068D01*
X52822509Y-31695017D01*
X52827323Y-31640002D01*
X52827323Y-31639997D01*
X52811946Y-31464234D01*
X52808070Y-31419932D01*
X52750894Y-31206550D01*
X52657534Y-31006339D01*
X52530826Y-30825380D01*
X52374620Y-30669174D01*
X52374616Y-30669171D01*
X52374615Y-30669170D01*
X52193666Y-30542468D01*
X52193658Y-30542464D01*
X52064811Y-30482382D01*
X52012371Y-30436210D01*
X51993219Y-30369017D01*
X52013435Y-30302135D01*
X52064811Y-30257618D01*
X52070802Y-30254824D01*
X52193662Y-30197534D01*
X52374620Y-30070826D01*
X52530826Y-29914620D01*
X52657534Y-29733662D01*
X52750894Y-29533450D01*
X52808070Y-29320068D01*
X52827323Y-29100000D01*
X52822838Y-29048740D01*
X52813889Y-28946442D01*
X52808070Y-28879932D01*
X52750894Y-28666550D01*
X52657534Y-28466339D01*
X52578227Y-28353076D01*
X52530827Y-28285381D01*
X52460179Y-28214733D01*
X52374620Y-28129174D01*
X52374616Y-28129171D01*
X52374615Y-28129170D01*
X52193666Y-28002468D01*
X52193658Y-28002464D01*
X52064811Y-27942382D01*
X52012371Y-27896210D01*
X51993219Y-27829017D01*
X52013435Y-27762135D01*
X52064811Y-27717618D01*
X52070802Y-27714824D01*
X52193662Y-27657534D01*
X52374620Y-27530826D01*
X52530826Y-27374620D01*
X52657534Y-27193662D01*
X52750894Y-26993450D01*
X52808070Y-26780068D01*
X52827323Y-26560000D01*
X52826733Y-26553261D01*
X52819655Y-26472355D01*
X52808070Y-26339932D01*
X52750894Y-26126550D01*
X52657534Y-25926339D01*
X52559158Y-25785842D01*
X52530827Y-25745381D01*
X52520469Y-25735023D01*
X52374620Y-25589174D01*
X52374616Y-25589171D01*
X52374615Y-25589170D01*
X52193666Y-25462468D01*
X52193658Y-25462464D01*
X52064811Y-25402382D01*
X52012371Y-25356210D01*
X51993219Y-25289017D01*
X52013435Y-25222135D01*
X52064811Y-25177618D01*
X52070802Y-25174824D01*
X52193662Y-25117534D01*
X52374620Y-24990826D01*
X52530826Y-24834620D01*
X52657534Y-24653662D01*
X52750894Y-24453450D01*
X52808070Y-24240068D01*
X52827323Y-24020000D01*
X52822457Y-23964385D01*
X52808070Y-23799937D01*
X52808070Y-23799932D01*
X52769662Y-23656592D01*
X52771325Y-23586744D01*
X52810487Y-23528881D01*
X52874716Y-23501377D01*
X52889437Y-23500500D01*
X65379903Y-23500500D01*
X65446942Y-23520185D01*
G37*
%TD.AperFunction*%
%TD*%
M02*
