%TF.GenerationSoftware,KiCad,Pcbnew,8.0.8*%
%TF.CreationDate,2025-09-27T22:11:16+09:00*%
%TF.ProjectId,esp_bluepill_board,6573705f-626c-4756-9570-696c6c5f626f,rev?*%
%TF.SameCoordinates,Original*%
%TF.FileFunction,Soldermask,Top*%
%TF.FilePolarity,Negative*%
%FSLAX46Y46*%
G04 Gerber Fmt 4.6, Leading zero omitted, Abs format (unit mm)*
G04 Created by KiCad (PCBNEW 8.0.8) date 2025-09-27 22:11:16*
%MOMM*%
%LPD*%
G01*
G04 APERTURE LIST*
G04 Aperture macros list*
%AMRoundRect*
0 Rectangle with rounded corners*
0 $1 Rounding radius*
0 $2 $3 $4 $5 $6 $7 $8 $9 X,Y pos of 4 corners*
0 Add a 4 corners polygon primitive as box body*
4,1,4,$2,$3,$4,$5,$6,$7,$8,$9,$2,$3,0*
0 Add four circle primitives for the rounded corners*
1,1,$1+$1,$2,$3*
1,1,$1+$1,$4,$5*
1,1,$1+$1,$6,$7*
1,1,$1+$1,$8,$9*
0 Add four rect primitives between the rounded corners*
20,1,$1+$1,$2,$3,$4,$5,0*
20,1,$1+$1,$4,$5,$6,$7,0*
20,1,$1+$1,$6,$7,$8,$9,0*
20,1,$1+$1,$8,$9,$2,$3,0*%
G04 Aperture macros list end*
%ADD10C,0.650000*%
%ADD11R,1.045000X0.600000*%
%ADD12R,1.240000X0.300000*%
%ADD13O,2.100000X1.000000*%
%ADD14O,1.800000X1.000000*%
%ADD15R,1.700000X1.700000*%
%ADD16O,1.700000X1.700000*%
%ADD17RoundRect,0.250000X-0.600000X-0.725000X0.600000X-0.725000X0.600000X0.725000X-0.600000X0.725000X0*%
%ADD18O,1.700000X1.950000*%
%ADD19RoundRect,0.243750X-0.243750X-0.456250X0.243750X-0.456250X0.243750X0.456250X-0.243750X0.456250X0*%
%ADD20C,3.251200*%
%ADD21C,1.397000*%
%ADD22C,2.133600*%
%ADD23C,3.000000*%
%ADD24RoundRect,0.102000X0.457200X0.609600X-0.457200X0.609600X-0.457200X-0.609600X0.457200X-0.609600X0*%
%ADD25RoundRect,0.135000X-0.135000X-0.185000X0.135000X-0.185000X0.135000X0.185000X-0.135000X0.185000X0*%
%ADD26RoundRect,0.250000X-0.600000X-0.750000X0.600000X-0.750000X0.600000X0.750000X-0.600000X0.750000X0*%
%ADD27O,1.700000X2.000000*%
%ADD28RoundRect,0.135000X0.185000X-0.135000X0.185000X0.135000X-0.185000X0.135000X-0.185000X-0.135000X0*%
%ADD29RoundRect,0.135000X-0.185000X0.135000X-0.185000X-0.135000X0.185000X-0.135000X0.185000X0.135000X0*%
%ADD30RoundRect,0.243750X0.456250X-0.243750X0.456250X0.243750X-0.456250X0.243750X-0.456250X-0.243750X0*%
%ADD31RoundRect,0.102000X-0.285000X0.805000X-0.285000X-0.805000X0.285000X-0.805000X0.285000X0.805000X0*%
%ADD32RoundRect,0.102000X-0.754000X0.754000X-0.754000X-0.754000X0.754000X-0.754000X0.754000X0.754000X0*%
%ADD33C,1.712000*%
%ADD34RoundRect,0.135000X0.135000X0.185000X-0.135000X0.185000X-0.135000X-0.185000X0.135000X-0.185000X0*%
%ADD35R,0.558800X2.286000*%
%ADD36RoundRect,0.102000X-0.775000X-0.300000X0.775000X-0.300000X0.775000X0.300000X-0.775000X0.300000X0*%
%ADD37RoundRect,0.250000X-0.750000X0.600000X-0.750000X-0.600000X0.750000X-0.600000X0.750000X0.600000X0*%
%ADD38O,2.000000X1.700000*%
%ADD39R,1.050000X2.000000*%
%ADD40RoundRect,0.250000X-0.475000X0.250000X-0.475000X-0.250000X0.475000X-0.250000X0.475000X0.250000X0*%
%ADD41C,1.524000*%
%ADD42R,2.000000X1.905000*%
%ADD43O,2.000000X1.905000*%
%ADD44RoundRect,0.760000X-1.140000X-1.140000X1.140000X-1.140000X1.140000X1.140000X-1.140000X1.140000X0*%
%ADD45C,4.000000*%
G04 APERTURE END LIST*
D10*
%TO.C,J19*%
X97820000Y-54690000D03*
X97820000Y-48910000D03*
D11*
X96602500Y-55000000D03*
X96602500Y-54200000D03*
D12*
X96700000Y-53050000D03*
X96700000Y-52050000D03*
X96700000Y-51550000D03*
X96700000Y-50550000D03*
D11*
X96602500Y-49400000D03*
X96602500Y-48600000D03*
D12*
X96700000Y-50050000D03*
X96700000Y-51050000D03*
X96700000Y-52550000D03*
X96700000Y-53550000D03*
D13*
X97300000Y-56120000D03*
D14*
X101500000Y-56120000D03*
D13*
X97300000Y-47480000D03*
D14*
X101500000Y-47480000D03*
%TD*%
D15*
%TO.C,J20*%
X39900000Y-37320000D03*
D16*
X39900000Y-39860000D03*
X39900000Y-42400000D03*
%TD*%
D15*
%TO.C,SW2*%
X84125000Y-54600000D03*
D16*
X81585000Y-54600000D03*
X79045000Y-54600000D03*
%TD*%
D15*
%TO.C,J4*%
X77760000Y-25100000D03*
D16*
X80300000Y-25100000D03*
X82840000Y-25100000D03*
%TD*%
D15*
%TO.C,J1*%
X93700000Y-72700000D03*
D16*
X91160000Y-72700000D03*
X88620000Y-72700000D03*
%TD*%
D17*
%TO.C,J14*%
X36000000Y-52000000D03*
D18*
X38500000Y-52000000D03*
X41000000Y-52000000D03*
%TD*%
D19*
%TO.C,D3*%
X45522500Y-30000000D03*
X47397500Y-30000000D03*
%TD*%
D20*
%TO.C,J3*%
X23271000Y-29778000D03*
X23271000Y-42478000D03*
D21*
X25811000Y-39684000D03*
X27589000Y-38668000D03*
X25811000Y-37652000D03*
X27589000Y-36636000D03*
X25811000Y-35620000D03*
X27589000Y-34604000D03*
X25811000Y-33588000D03*
X27589000Y-32572000D03*
X32415000Y-42986000D03*
X32415000Y-40700000D03*
X32415000Y-31556000D03*
X32415000Y-29270000D03*
D22*
X26700000Y-28000000D03*
X26700000Y-44256000D03*
%TD*%
D23*
%TO.C,REF\u002A\u002A*%
X101400000Y-23300000D03*
%TD*%
D24*
%TO.C,D6*%
X65691700Y-85717500D03*
X68968300Y-85717500D03*
%TD*%
D25*
%TO.C,R10*%
X42050000Y-26500000D03*
X43070000Y-26500000D03*
%TD*%
D26*
%TO.C,J12*%
X44000000Y-90600000D03*
D27*
X46500000Y-90600000D03*
%TD*%
D25*
%TO.C,R11*%
X42050000Y-30000000D03*
X43070000Y-30000000D03*
%TD*%
%TO.C,R16*%
X35000000Y-31600000D03*
X36020000Y-31600000D03*
%TD*%
D28*
%TO.C,R12*%
X80300000Y-22810000D03*
X80300000Y-21790000D03*
%TD*%
D29*
%TO.C,R4*%
X87800000Y-55690000D03*
X87800000Y-56710000D03*
%TD*%
D20*
%TO.C,J2*%
X101429000Y-42522000D03*
X101429000Y-29822000D03*
D21*
X98889000Y-32616000D03*
X97111000Y-33632000D03*
X98889000Y-34648000D03*
X97111000Y-35664000D03*
X98889000Y-36680000D03*
X97111000Y-37696000D03*
X98889000Y-38712000D03*
X97111000Y-39728000D03*
X92285000Y-29314000D03*
X92285000Y-31600000D03*
X92285000Y-40744000D03*
X92285000Y-43030000D03*
D22*
X98000000Y-44300000D03*
X98000000Y-28044000D03*
%TD*%
D28*
%TO.C,R5*%
X93900000Y-56710000D03*
X93900000Y-55690000D03*
%TD*%
D30*
%TO.C,D4*%
X75800000Y-63837500D03*
X75800000Y-61962500D03*
%TD*%
D31*
%TO.C,U6*%
X63100000Y-76600000D03*
X60560000Y-76600000D03*
X60560000Y-83100000D03*
X63100000Y-83100000D03*
%TD*%
D32*
%TO.C,PS1*%
X80400000Y-85820000D03*
D33*
X80400000Y-88360000D03*
X80400000Y-90900000D03*
%TD*%
D28*
%TO.C,R7*%
X78100000Y-66310000D03*
X78100000Y-65290000D03*
%TD*%
D34*
%TO.C,R15*%
X89910000Y-40700000D03*
X88890000Y-40700000D03*
%TD*%
D17*
%TO.C,J16*%
X36100000Y-63200000D03*
D18*
X38600000Y-63200000D03*
X41100000Y-63200000D03*
%TD*%
D25*
%TO.C,R21*%
X88890000Y-35700000D03*
X89910000Y-35700000D03*
%TD*%
D17*
%TO.C,J8*%
X89600000Y-90300000D03*
D18*
X92100000Y-90300000D03*
X94600000Y-90300000D03*
%TD*%
D25*
%TO.C,R23*%
X88890000Y-34500000D03*
X89910000Y-34500000D03*
%TD*%
D24*
%TO.C,D9*%
X49291700Y-85617500D03*
X52568300Y-85617500D03*
%TD*%
D29*
%TO.C,R18*%
X59130000Y-75507500D03*
X59130000Y-76527500D03*
%TD*%
D35*
%TO.C,U4*%
X78895000Y-33614600D03*
X80165000Y-33614600D03*
X81435000Y-33614600D03*
X82705000Y-33614600D03*
X82705000Y-28585400D03*
X81435000Y-28585400D03*
X80165000Y-28585400D03*
X78895000Y-28585400D03*
%TD*%
D19*
%TO.C,D2*%
X45522500Y-26500000D03*
X47397500Y-26500000D03*
%TD*%
D26*
%TO.C,J11*%
X53200000Y-90600000D03*
D27*
X55700000Y-90600000D03*
%TD*%
D29*
%TO.C,R2*%
X89800000Y-55690000D03*
X89800000Y-56710000D03*
%TD*%
D17*
%TO.C,J18*%
X36200000Y-74700000D03*
D18*
X38700000Y-74700000D03*
X41200000Y-74700000D03*
%TD*%
D36*
%TO.C,U2*%
X75400000Y-75590000D03*
X75400000Y-76860000D03*
X75400000Y-78130000D03*
X75400000Y-79400000D03*
X80800000Y-75590000D03*
X80800000Y-76860000D03*
X80800000Y-78130000D03*
X80800000Y-79400000D03*
%TD*%
D31*
%TO.C,U5*%
X68500000Y-76600000D03*
X65960000Y-76600000D03*
X65960000Y-83100000D03*
X68500000Y-83100000D03*
%TD*%
D26*
%TO.C,J9*%
X71500000Y-90600000D03*
D27*
X74000000Y-90600000D03*
%TD*%
D34*
%TO.C,R22*%
X35910000Y-34100000D03*
X34890000Y-34100000D03*
%TD*%
D31*
%TO.C,U8*%
X57700000Y-76600000D03*
X55160000Y-76600000D03*
X55160000Y-83100000D03*
X57700000Y-83100000D03*
%TD*%
D34*
%TO.C,R24*%
X35900000Y-37200000D03*
X34880000Y-37200000D03*
%TD*%
D23*
%TO.C,REF\u002A\u002A*%
X23300000Y-92500000D03*
%TD*%
D37*
%TO.C,J5*%
X92400000Y-49200000D03*
D38*
X92400000Y-51700000D03*
%TD*%
D39*
%TO.C,SW1*%
X98575000Y-72000000D03*
X103025000Y-72000000D03*
%TD*%
D25*
%TO.C,R14*%
X34990000Y-42800000D03*
X36010000Y-42800000D03*
%TD*%
D40*
%TO.C,C2*%
X79800000Y-46350000D03*
X79800000Y-48250000D03*
%TD*%
D30*
%TO.C,D5*%
X78100000Y-63837500D03*
X78100000Y-61962500D03*
%TD*%
D28*
%TO.C,R6*%
X92900000Y-56710000D03*
X92900000Y-55690000D03*
%TD*%
D17*
%TO.C,J15*%
X23700000Y-63000000D03*
D18*
X26200000Y-63000000D03*
X28700000Y-63000000D03*
%TD*%
D29*
%TO.C,R17*%
X64530000Y-75507500D03*
X64530000Y-76527500D03*
%TD*%
D34*
%TO.C,R13*%
X89910000Y-29300000D03*
X88890000Y-29300000D03*
%TD*%
D29*
%TO.C,R3*%
X88800000Y-55690000D03*
X88800000Y-56710000D03*
%TD*%
D41*
%TO.C,U1*%
X66800000Y-24020000D03*
X51560000Y-67200000D03*
X66800000Y-29100000D03*
X66800000Y-26560000D03*
X51560000Y-72280000D03*
X51560000Y-69740000D03*
X51560000Y-64660000D03*
X51560000Y-34180000D03*
X51560000Y-36720000D03*
X51560000Y-39260000D03*
X51560000Y-41800000D03*
X51560000Y-44340000D03*
X51560000Y-46880000D03*
X51560000Y-49420000D03*
X51560000Y-51960000D03*
X66800000Y-62120000D03*
X66800000Y-59580000D03*
X66800000Y-57040000D03*
X66800000Y-54500000D03*
X66800000Y-51960000D03*
X66800000Y-49420000D03*
X51560000Y-54500000D03*
X51560000Y-57040000D03*
X66800000Y-46880000D03*
X66800000Y-44340000D03*
X66800000Y-41800000D03*
X66800000Y-39260000D03*
X66800000Y-36720000D03*
X66800000Y-34180000D03*
X66800000Y-31640000D03*
X51560000Y-59580000D03*
X51560000Y-62120000D03*
X66800000Y-72280000D03*
X66800000Y-69740000D03*
X66800000Y-67200000D03*
X66800000Y-64660000D03*
X51560000Y-26560000D03*
X51560000Y-29100000D03*
X51560000Y-31640000D03*
X51560000Y-24020000D03*
%TD*%
D17*
%TO.C,J7*%
X89000000Y-78000000D03*
D18*
X91500000Y-78000000D03*
X94000000Y-78000000D03*
X96500000Y-78000000D03*
X99000000Y-78000000D03*
X101500000Y-78000000D03*
%TD*%
D26*
%TO.C,J10*%
X62350000Y-90575000D03*
D27*
X64850000Y-90575000D03*
%TD*%
D24*
%TO.C,D8*%
X54891700Y-85717500D03*
X58168300Y-85717500D03*
%TD*%
D23*
%TO.C,REF\u002A\u002A*%
X101400000Y-92500000D03*
%TD*%
D17*
%TO.C,J13*%
X23700000Y-52000000D03*
D18*
X26200000Y-52000000D03*
X28700000Y-52000000D03*
%TD*%
D29*
%TO.C,R20*%
X48130000Y-75607500D03*
X48130000Y-76627500D03*
%TD*%
D40*
%TO.C,C1*%
X87200000Y-47550000D03*
X87200000Y-49450000D03*
%TD*%
D23*
%TO.C,REF\u002A\u002A*%
X23300000Y-23300000D03*
%TD*%
D29*
%TO.C,R1*%
X90800000Y-55690000D03*
X90800000Y-56710000D03*
%TD*%
D19*
%TO.C,D1*%
X45522500Y-33500000D03*
X47397500Y-33500000D03*
%TD*%
D42*
%TO.C,U3*%
X82555000Y-44660000D03*
D43*
X82555000Y-47200000D03*
X82555000Y-49740000D03*
%TD*%
D25*
%TO.C,R9*%
X41950000Y-33300000D03*
X42970000Y-33300000D03*
%TD*%
D31*
%TO.C,U9*%
X52300000Y-76600000D03*
X49760000Y-76600000D03*
X49760000Y-83100000D03*
X52300000Y-83100000D03*
%TD*%
D28*
%TO.C,R8*%
X75800000Y-66310000D03*
X75800000Y-65290000D03*
%TD*%
D41*
%TO.C,U7*%
X103200000Y-59780000D03*
X100660000Y-59780000D03*
X98120000Y-59780000D03*
X95580000Y-59780000D03*
X93040000Y-59780000D03*
X90500000Y-59780000D03*
X87960000Y-59780000D03*
X85420000Y-59780000D03*
X82880000Y-59780000D03*
X103200000Y-67400000D03*
X100660000Y-67400000D03*
X98120000Y-67400000D03*
X95580000Y-67400000D03*
X93040000Y-67400000D03*
X90500000Y-67400000D03*
X87960000Y-67400000D03*
X85420000Y-67400000D03*
X82880000Y-67400000D03*
%TD*%
D17*
%TO.C,J17*%
X23300000Y-74400000D03*
D18*
X25800000Y-74400000D03*
X28300000Y-74400000D03*
%TD*%
D24*
%TO.C,D7*%
X60191700Y-85717500D03*
X63468300Y-85717500D03*
%TD*%
D44*
%TO.C,J6*%
X31300000Y-90200000D03*
D45*
X36300000Y-90200000D03*
%TD*%
D29*
%TO.C,R19*%
X53730000Y-75507500D03*
X53730000Y-76527500D03*
%TD*%
M02*
