%TF.GenerationSoftware,KiCad,Pcbnew,8.0.8*%
%TF.CreationDate,2025-09-27T22:11:16+09:00*%
%TF.ProjectId,esp_bluepill_board,6573705f-626c-4756-9570-696c6c5f626f,rev?*%
%TF.SameCoordinates,Original*%
%TF.FileFunction,Legend,Bot*%
%TF.FilePolarity,Positive*%
%FSLAX46Y46*%
G04 Gerber Fmt 4.6, Leading zero omitted, Abs format (unit mm)*
G04 Created by KiCad (PCBNEW 8.0.8) date 2025-09-27 22:11:16*
%MOMM*%
%LPD*%
G01*
G04 APERTURE LIST*
%ADD10C,0.100000*%
%ADD11C,0.152400*%
G04 APERTURE END LIST*
D10*
X79696115Y-80665276D02*
X79124687Y-80665276D01*
X79124687Y-80665276D02*
X79124687Y-81331942D01*
X79124687Y-81331942D02*
X79696115Y-81331942D01*
X78648496Y-80617657D02*
X78458020Y-80808133D01*
X78648496Y-81379561D02*
X78410401Y-81331942D01*
X78410401Y-81331942D02*
X78267544Y-81189085D01*
X78267544Y-81189085D02*
X78172306Y-81046228D01*
X78172306Y-81046228D02*
X78077068Y-80712895D01*
X77315163Y-80427180D02*
X77315163Y-81474800D01*
X77315163Y-80855752D02*
X77029449Y-81093847D01*
X76553258Y-80617657D02*
X76553258Y-81284323D01*
X76553258Y-80617657D02*
X75981830Y-80617657D01*
X75981830Y-80617657D02*
X75981830Y-81284323D01*
X75981830Y-81284323D02*
X76553258Y-81284323D01*
X75600877Y-80998609D02*
X74838973Y-80998609D01*
X74410401Y-80570038D02*
X73934211Y-80570038D01*
X74505639Y-80808133D02*
X73886592Y-80808133D01*
X73886592Y-80808133D02*
X73886592Y-81046228D01*
X73886592Y-81046228D02*
X73981830Y-81189085D01*
X73981830Y-81189085D02*
X74124687Y-81331942D01*
X74124687Y-81331942D02*
X74315163Y-81474800D01*
X73505639Y-80998609D02*
X72743735Y-80998609D01*
X71315163Y-81141466D02*
X70553259Y-81141466D01*
X70743735Y-81331942D02*
X70553259Y-81141466D01*
X70553259Y-81141466D02*
X70743735Y-80950990D01*
X69029449Y-81522419D02*
X69029449Y-80522419D01*
X69029449Y-80522419D02*
X68648497Y-80522419D01*
X68648497Y-80522419D02*
X68553259Y-80570038D01*
X68553259Y-80570038D02*
X68505640Y-80617657D01*
X68505640Y-80617657D02*
X68458021Y-80712895D01*
X68458021Y-80712895D02*
X68458021Y-80855752D01*
X68458021Y-80855752D02*
X68505640Y-80950990D01*
X68505640Y-80950990D02*
X68553259Y-80998609D01*
X68553259Y-80998609D02*
X68648497Y-81046228D01*
X68648497Y-81046228D02*
X69029449Y-81046228D01*
X67458021Y-81427180D02*
X67505640Y-81474800D01*
X67505640Y-81474800D02*
X67648497Y-81522419D01*
X67648497Y-81522419D02*
X67743735Y-81522419D01*
X67743735Y-81522419D02*
X67886592Y-81474800D01*
X67886592Y-81474800D02*
X67981830Y-81379561D01*
X67981830Y-81379561D02*
X68029449Y-81284323D01*
X68029449Y-81284323D02*
X68077068Y-81093847D01*
X68077068Y-81093847D02*
X68077068Y-80950990D01*
X68077068Y-80950990D02*
X68029449Y-80760514D01*
X68029449Y-80760514D02*
X67981830Y-80665276D01*
X67981830Y-80665276D02*
X67886592Y-80570038D01*
X67886592Y-80570038D02*
X67743735Y-80522419D01*
X67743735Y-80522419D02*
X67648497Y-80522419D01*
X67648497Y-80522419D02*
X67505640Y-80570038D01*
X67505640Y-80570038D02*
X67458021Y-80617657D01*
X65981830Y-81141466D02*
X65219926Y-81141466D01*
X65410402Y-81331942D02*
X65219926Y-81141466D01*
X65219926Y-81141466D02*
X65410402Y-80950990D01*
X63696116Y-80998609D02*
X63362783Y-80998609D01*
X63219926Y-81522419D02*
X63696116Y-81522419D01*
X63696116Y-81522419D02*
X63696116Y-80522419D01*
X63696116Y-80522419D02*
X63219926Y-80522419D01*
X62838973Y-81474800D02*
X62696116Y-81522419D01*
X62696116Y-81522419D02*
X62458021Y-81522419D01*
X62458021Y-81522419D02*
X62362783Y-81474800D01*
X62362783Y-81474800D02*
X62315164Y-81427180D01*
X62315164Y-81427180D02*
X62267545Y-81331942D01*
X62267545Y-81331942D02*
X62267545Y-81236704D01*
X62267545Y-81236704D02*
X62315164Y-81141466D01*
X62315164Y-81141466D02*
X62362783Y-81093847D01*
X62362783Y-81093847D02*
X62458021Y-81046228D01*
X62458021Y-81046228D02*
X62648497Y-80998609D01*
X62648497Y-80998609D02*
X62743735Y-80950990D01*
X62743735Y-80950990D02*
X62791354Y-80903371D01*
X62791354Y-80903371D02*
X62838973Y-80808133D01*
X62838973Y-80808133D02*
X62838973Y-80712895D01*
X62838973Y-80712895D02*
X62791354Y-80617657D01*
X62791354Y-80617657D02*
X62743735Y-80570038D01*
X62743735Y-80570038D02*
X62648497Y-80522419D01*
X62648497Y-80522419D02*
X62410402Y-80522419D01*
X62410402Y-80522419D02*
X62267545Y-80570038D01*
X61838973Y-81522419D02*
X61838973Y-80522419D01*
X61838973Y-80522419D02*
X61458021Y-80522419D01*
X61458021Y-80522419D02*
X61362783Y-80570038D01*
X61362783Y-80570038D02*
X61315164Y-80617657D01*
X61315164Y-80617657D02*
X61267545Y-80712895D01*
X61267545Y-80712895D02*
X61267545Y-80855752D01*
X61267545Y-80855752D02*
X61315164Y-80950990D01*
X61315164Y-80950990D02*
X61362783Y-80998609D01*
X61362783Y-80998609D02*
X61458021Y-81046228D01*
X61458021Y-81046228D02*
X61838973Y-81046228D01*
X59791354Y-81141466D02*
X59029450Y-81141466D01*
X59219926Y-81331942D02*
X59029450Y-81141466D01*
X59029450Y-81141466D02*
X59219926Y-80950990D01*
X57172307Y-80998609D02*
X57029450Y-81046228D01*
X57029450Y-81046228D02*
X56981831Y-81093847D01*
X56981831Y-81093847D02*
X56934212Y-81189085D01*
X56934212Y-81189085D02*
X56934212Y-81331942D01*
X56934212Y-81331942D02*
X56981831Y-81427180D01*
X56981831Y-81427180D02*
X57029450Y-81474800D01*
X57029450Y-81474800D02*
X57124688Y-81522419D01*
X57124688Y-81522419D02*
X57505640Y-81522419D01*
X57505640Y-81522419D02*
X57505640Y-80522419D01*
X57505640Y-80522419D02*
X57172307Y-80522419D01*
X57172307Y-80522419D02*
X57077069Y-80570038D01*
X57077069Y-80570038D02*
X57029450Y-80617657D01*
X57029450Y-80617657D02*
X56981831Y-80712895D01*
X56981831Y-80712895D02*
X56981831Y-80808133D01*
X56981831Y-80808133D02*
X57029450Y-80903371D01*
X57029450Y-80903371D02*
X57077069Y-80950990D01*
X57077069Y-80950990D02*
X57172307Y-80998609D01*
X57172307Y-80998609D02*
X57505640Y-80998609D01*
X56362783Y-81522419D02*
X56458021Y-81474800D01*
X56458021Y-81474800D02*
X56505640Y-81379561D01*
X56505640Y-81379561D02*
X56505640Y-80522419D01*
X55553259Y-80855752D02*
X55553259Y-81522419D01*
X55981830Y-80855752D02*
X55981830Y-81379561D01*
X55981830Y-81379561D02*
X55934211Y-81474800D01*
X55934211Y-81474800D02*
X55838973Y-81522419D01*
X55838973Y-81522419D02*
X55696116Y-81522419D01*
X55696116Y-81522419D02*
X55600878Y-81474800D01*
X55600878Y-81474800D02*
X55553259Y-81427180D01*
X54696116Y-81474800D02*
X54791354Y-81522419D01*
X54791354Y-81522419D02*
X54981830Y-81522419D01*
X54981830Y-81522419D02*
X55077068Y-81474800D01*
X55077068Y-81474800D02*
X55124687Y-81379561D01*
X55124687Y-81379561D02*
X55124687Y-80998609D01*
X55124687Y-80998609D02*
X55077068Y-80903371D01*
X55077068Y-80903371D02*
X54981830Y-80855752D01*
X54981830Y-80855752D02*
X54791354Y-80855752D01*
X54791354Y-80855752D02*
X54696116Y-80903371D01*
X54696116Y-80903371D02*
X54648497Y-80998609D01*
X54648497Y-80998609D02*
X54648497Y-81093847D01*
X54648497Y-81093847D02*
X55124687Y-81189085D01*
X54219925Y-80855752D02*
X54219925Y-81855752D01*
X54219925Y-80903371D02*
X54124687Y-80855752D01*
X54124687Y-80855752D02*
X53934211Y-80855752D01*
X53934211Y-80855752D02*
X53838973Y-80903371D01*
X53838973Y-80903371D02*
X53791354Y-80950990D01*
X53791354Y-80950990D02*
X53743735Y-81046228D01*
X53743735Y-81046228D02*
X53743735Y-81331942D01*
X53743735Y-81331942D02*
X53791354Y-81427180D01*
X53791354Y-81427180D02*
X53838973Y-81474800D01*
X53838973Y-81474800D02*
X53934211Y-81522419D01*
X53934211Y-81522419D02*
X54124687Y-81522419D01*
X54124687Y-81522419D02*
X54219925Y-81474800D01*
X53315163Y-81522419D02*
X53315163Y-80855752D01*
X53315163Y-80522419D02*
X53362782Y-80570038D01*
X53362782Y-80570038D02*
X53315163Y-80617657D01*
X53315163Y-80617657D02*
X53267544Y-80570038D01*
X53267544Y-80570038D02*
X53315163Y-80522419D01*
X53315163Y-80522419D02*
X53315163Y-80617657D01*
X52696116Y-81522419D02*
X52791354Y-81474800D01*
X52791354Y-81474800D02*
X52838973Y-81379561D01*
X52838973Y-81379561D02*
X52838973Y-80522419D01*
X52172306Y-81522419D02*
X52267544Y-81474800D01*
X52267544Y-81474800D02*
X52315163Y-81379561D01*
X52315163Y-81379561D02*
X52315163Y-80522419D01*
X50743734Y-81141466D02*
X49981830Y-81141466D01*
X50172306Y-81331942D02*
X49981830Y-81141466D01*
X49981830Y-81141466D02*
X50172306Y-80950990D01*
X48505639Y-80570038D02*
X47838973Y-80570038D01*
X47838973Y-80570038D02*
X47886592Y-80665276D01*
X47886592Y-80665276D02*
X47981830Y-80808133D01*
X47981830Y-80808133D02*
X48124687Y-80903371D01*
X48219925Y-80712895D02*
X48219925Y-81046228D01*
X48219925Y-81046228D02*
X48219925Y-81141466D01*
X48219925Y-81141466D02*
X48267544Y-81284323D01*
X48267544Y-81284323D02*
X48362782Y-81522419D01*
X47172306Y-80427180D02*
X47219925Y-80665276D01*
X47219925Y-80665276D02*
X47315163Y-80808133D01*
X47315163Y-80808133D02*
X47410401Y-80998609D01*
X47172306Y-80617657D02*
X46886592Y-80617657D01*
X46886592Y-80617657D02*
X46886592Y-80808133D01*
X46886592Y-80808133D02*
X46934211Y-80998609D01*
X46934211Y-80998609D02*
X47029449Y-81189085D01*
X47029449Y-81189085D02*
X47124687Y-81331942D01*
X47124687Y-81331942D02*
X47315163Y-81474800D01*
X46410401Y-80903371D02*
X45743735Y-80903371D01*
X45886592Y-80474800D02*
X45981830Y-80522419D01*
X45981830Y-80522419D02*
X46124687Y-80570038D01*
X46124687Y-80570038D02*
X46315163Y-80617657D01*
X46029449Y-80570038D02*
X46029449Y-80855752D01*
X46029449Y-80855752D02*
X46077068Y-81046228D01*
X46077068Y-81046228D02*
X46124687Y-81236704D01*
X46124687Y-81236704D02*
X46172306Y-81331942D01*
X46172306Y-81331942D02*
X46315163Y-81474800D01*
X45172306Y-80808133D02*
X44886592Y-80808133D01*
X44886592Y-80808133D02*
X44886592Y-81284323D01*
X45267544Y-81284323D02*
X44743735Y-81284323D01*
X44267544Y-80665276D02*
X43696116Y-80665276D01*
X44315163Y-81331942D02*
X43648497Y-81331942D01*
X43981830Y-80665276D02*
X43981830Y-81331942D01*
X43315163Y-80998609D02*
X42553259Y-80998609D01*
X42029449Y-80808133D02*
X41791354Y-81093847D01*
X41981830Y-80427180D02*
X42029449Y-80617657D01*
X42029449Y-80617657D02*
X42077068Y-80808133D01*
X42077068Y-80808133D02*
X42172306Y-80998609D01*
X41981830Y-80617657D02*
X41648497Y-80617657D01*
X41648497Y-80617657D02*
X41696116Y-80808133D01*
X41696116Y-80808133D02*
X41743735Y-80998609D01*
X41743735Y-80998609D02*
X41791354Y-81189085D01*
X41791354Y-81189085D02*
X41886592Y-81331942D01*
X41886592Y-81331942D02*
X42029449Y-81474800D01*
X41219925Y-80998609D02*
X40458021Y-80998609D01*
X31239597Y-81042587D02*
X31239597Y-80042587D01*
X31239597Y-80042587D02*
X31001502Y-80042587D01*
X31001502Y-80042587D02*
X30858645Y-80090206D01*
X30858645Y-80090206D02*
X30763407Y-80185444D01*
X30763407Y-80185444D02*
X30715788Y-80280682D01*
X30715788Y-80280682D02*
X30668169Y-80471158D01*
X30668169Y-80471158D02*
X30668169Y-80614015D01*
X30668169Y-80614015D02*
X30715788Y-80804491D01*
X30715788Y-80804491D02*
X30763407Y-80899729D01*
X30763407Y-80899729D02*
X30858645Y-80994968D01*
X30858645Y-80994968D02*
X31001502Y-81042587D01*
X31001502Y-81042587D02*
X31239597Y-81042587D01*
X29668169Y-80947348D02*
X29715788Y-80994968D01*
X29715788Y-80994968D02*
X29858645Y-81042587D01*
X29858645Y-81042587D02*
X29953883Y-81042587D01*
X29953883Y-81042587D02*
X30096740Y-80994968D01*
X30096740Y-80994968D02*
X30191978Y-80899729D01*
X30191978Y-80899729D02*
X30239597Y-80804491D01*
X30239597Y-80804491D02*
X30287216Y-80614015D01*
X30287216Y-80614015D02*
X30287216Y-80471158D01*
X30287216Y-80471158D02*
X30239597Y-80280682D01*
X30239597Y-80280682D02*
X30191978Y-80185444D01*
X30191978Y-80185444D02*
X30096740Y-80090206D01*
X30096740Y-80090206D02*
X29953883Y-80042587D01*
X29953883Y-80042587D02*
X29858645Y-80042587D01*
X29858645Y-80042587D02*
X29715788Y-80090206D01*
X29715788Y-80090206D02*
X29668169Y-80137825D01*
X29191978Y-80090206D02*
X28715788Y-80090206D01*
X29334835Y-80471158D02*
X28572931Y-80471158D01*
X29001502Y-80090206D02*
X29001502Y-80947348D01*
X29001502Y-80947348D02*
X28715788Y-80947348D01*
X28287216Y-80518777D02*
X27525312Y-80518777D01*
X27001502Y-80328301D02*
X26763407Y-80614015D01*
X26953883Y-79947348D02*
X27001502Y-80137825D01*
X27001502Y-80137825D02*
X27049121Y-80328301D01*
X27049121Y-80328301D02*
X27144359Y-80518777D01*
X26953883Y-80137825D02*
X26620550Y-80137825D01*
X26620550Y-80137825D02*
X26668169Y-80328301D01*
X26668169Y-80328301D02*
X26715788Y-80518777D01*
X26715788Y-80518777D02*
X26763407Y-80709253D01*
X26763407Y-80709253D02*
X26858645Y-80852110D01*
X26858645Y-80852110D02*
X27001502Y-80994968D01*
X26191978Y-80518777D02*
X25430074Y-80518777D01*
X23525312Y-80042587D02*
X23715788Y-80042587D01*
X23715788Y-80042587D02*
X23811026Y-80090206D01*
X23811026Y-80090206D02*
X23858645Y-80137825D01*
X23858645Y-80137825D02*
X23953883Y-80280682D01*
X23953883Y-80280682D02*
X24001502Y-80471158D01*
X24001502Y-80471158D02*
X24001502Y-80852110D01*
X24001502Y-80852110D02*
X23953883Y-80947348D01*
X23953883Y-80947348D02*
X23906264Y-80994968D01*
X23906264Y-80994968D02*
X23811026Y-81042587D01*
X23811026Y-81042587D02*
X23620550Y-81042587D01*
X23620550Y-81042587D02*
X23525312Y-80994968D01*
X23525312Y-80994968D02*
X23477693Y-80947348D01*
X23477693Y-80947348D02*
X23430074Y-80852110D01*
X23430074Y-80852110D02*
X23430074Y-80614015D01*
X23430074Y-80614015D02*
X23477693Y-80518777D01*
X23477693Y-80518777D02*
X23525312Y-80471158D01*
X23525312Y-80471158D02*
X23620550Y-80423539D01*
X23620550Y-80423539D02*
X23811026Y-80423539D01*
X23811026Y-80423539D02*
X23906264Y-80471158D01*
X23906264Y-80471158D02*
X23953883Y-80518777D01*
X23953883Y-80518777D02*
X24001502Y-80614015D01*
X23049121Y-80328301D02*
X21953883Y-80328301D01*
X22906264Y-80994968D02*
X22049121Y-80994968D01*
X22906264Y-80566396D02*
X22906264Y-81042587D01*
X22906264Y-80566396D02*
X22049121Y-80566396D01*
X22049121Y-80566396D02*
X22049121Y-81042587D01*
X22191979Y-80090206D02*
X21858645Y-80423539D01*
X22668169Y-79947348D02*
X22906264Y-80328301D01*
X29525310Y-81604912D02*
X28525310Y-81604912D01*
X29477691Y-81890626D02*
X29191977Y-81890626D01*
X28906263Y-81890626D02*
X28572929Y-81890626D01*
X29525310Y-82033483D02*
X29191977Y-82033483D01*
X28906263Y-82033483D02*
X28525310Y-82033483D01*
X29477691Y-82319197D02*
X28525310Y-82319197D01*
X29477691Y-82509673D02*
X28525310Y-82509673D01*
X29001501Y-82652531D02*
X28430072Y-82652531D01*
X29620548Y-81747769D02*
X29620548Y-81938245D01*
X29477691Y-82176340D02*
X29477691Y-82557292D01*
X29049120Y-81604912D02*
X29049120Y-82081102D01*
X29001501Y-82176340D02*
X29001501Y-82652531D01*
X29477691Y-82176340D02*
X28525310Y-82176340D01*
X28525310Y-82176340D02*
X28525310Y-82509673D01*
X29620548Y-81747769D02*
X28430072Y-81747769D01*
X28430072Y-81747769D02*
X28430072Y-81938245D01*
X28382453Y-82509673D02*
X28430072Y-82652531D01*
X28144358Y-81604912D02*
X27715787Y-81604912D01*
X27668168Y-81747769D02*
X26906263Y-81747769D01*
X28001501Y-82509673D02*
X27763406Y-82509673D01*
X28001501Y-81890626D02*
X28001501Y-82604912D01*
X28049120Y-82033483D02*
X27763406Y-82033483D01*
X27763406Y-82033483D02*
X27763406Y-82509673D01*
X27668168Y-82081102D02*
X27477692Y-82271578D01*
X27287216Y-82128721D02*
X27096739Y-82319197D01*
X27525311Y-81509673D02*
X27477692Y-81700150D01*
X27096739Y-81843007D02*
X27239597Y-82128721D01*
X27001501Y-82033483D02*
X27287216Y-82604912D01*
X27477692Y-81843007D02*
X27620549Y-82128721D01*
X27382454Y-82033483D02*
X27668168Y-82604912D01*
X27096739Y-81509673D02*
X27144358Y-81700150D01*
X27953882Y-81700150D02*
X28144358Y-82271578D01*
X27953882Y-81652531D02*
X28096739Y-82176340D01*
X27430073Y-82414435D02*
X27382454Y-82604912D01*
X27382454Y-82604912D02*
X27715787Y-82604912D01*
X27001501Y-82414435D02*
X26953882Y-82604912D01*
X26953882Y-82604912D02*
X27287216Y-82604912D01*
X26620549Y-81843007D02*
X25525311Y-81843007D01*
X26668168Y-82176340D02*
X25430073Y-82176340D01*
X25763407Y-81938245D02*
X25763407Y-82652531D01*
X25715787Y-81700150D02*
X25477692Y-81938245D01*
X26239597Y-81557292D02*
X26430073Y-81843007D01*
X26287216Y-81890626D02*
X26287216Y-82176340D01*
X26287216Y-82176340D02*
X26382454Y-82414435D01*
X26382454Y-82414435D02*
X26572930Y-82652531D01*
X23572931Y-81985864D02*
X23572931Y-82652531D01*
X23811026Y-81604912D02*
X24049121Y-82319197D01*
X24049121Y-82319197D02*
X23430074Y-82319197D01*
X23049121Y-81938245D02*
X21953883Y-81938245D01*
X22906264Y-82604912D02*
X22049121Y-82604912D01*
X22906264Y-82176340D02*
X22906264Y-82652531D01*
X22906264Y-82176340D02*
X22049121Y-82176340D01*
X22049121Y-82176340D02*
X22049121Y-82652531D01*
X22191979Y-81700150D02*
X21858645Y-82033483D01*
X22668169Y-81557292D02*
X22906264Y-81938245D01*
X35525311Y-83262475D02*
X35096740Y-83262475D01*
X35096740Y-83262475D02*
X35144359Y-83548189D01*
X35144359Y-83548189D02*
X35239597Y-83738665D01*
X35239597Y-83738665D02*
X35334835Y-83881522D01*
X35334835Y-83881522D02*
X35430073Y-84024379D01*
X35430073Y-84024379D02*
X35572930Y-84167236D01*
X35239597Y-83786284D02*
X35144359Y-83929141D01*
X35144359Y-83929141D02*
X35001502Y-84167236D01*
X34382454Y-83310094D02*
X34001502Y-83310094D01*
X34525311Y-83595808D02*
X33858645Y-83595808D01*
X34191978Y-83595808D02*
X34191978Y-83833903D01*
X34191978Y-83833903D02*
X34287216Y-84024379D01*
X34287216Y-84024379D02*
X34430073Y-84214856D01*
X33430073Y-83548189D02*
X33334835Y-83786284D01*
X33191978Y-83500570D02*
X33144359Y-83738665D01*
X32906264Y-83548189D02*
X32906264Y-83786284D01*
X32906264Y-83786284D02*
X32953883Y-83929141D01*
X32953883Y-83929141D02*
X33096740Y-84071998D01*
X33096740Y-84071998D02*
X33239597Y-84167236D01*
X32382454Y-83262475D02*
X32382454Y-84167236D01*
X32382454Y-84167236D02*
X31811026Y-84167236D01*
X31858645Y-83452951D02*
X32049121Y-83595808D01*
X32049121Y-83595808D02*
X32191978Y-83643427D01*
X32191978Y-83643427D02*
X32334835Y-83691046D01*
X31811026Y-83262475D02*
X31763407Y-83262475D01*
X31763407Y-83262475D02*
X31715788Y-83310094D01*
X31715788Y-83310094D02*
X31715788Y-83357713D01*
X31715788Y-83357713D02*
X31763407Y-83405332D01*
X31763407Y-83405332D02*
X31811026Y-83405332D01*
X31811026Y-83405332D02*
X31858645Y-83357713D01*
X31858645Y-83357713D02*
X31858645Y-83310094D01*
X31858645Y-83310094D02*
X31811026Y-83262475D01*
X31334835Y-83357713D02*
X31144359Y-83548189D01*
X31334835Y-84119617D02*
X31096740Y-84071998D01*
X31096740Y-84071998D02*
X30953883Y-83929141D01*
X30953883Y-83929141D02*
X30858645Y-83786284D01*
X30858645Y-83786284D02*
X30763407Y-83452951D01*
X30049121Y-83167236D02*
X30096740Y-83405332D01*
X30096740Y-83405332D02*
X30191978Y-83548189D01*
X30191978Y-83548189D02*
X30287216Y-83691046D01*
X30049121Y-83310094D02*
X29715788Y-83310094D01*
X29715788Y-83310094D02*
X29763407Y-83548189D01*
X29763407Y-83548189D02*
X29811026Y-83738665D01*
X29811026Y-83738665D02*
X29906264Y-83929141D01*
X29906264Y-83929141D02*
X30001502Y-84071998D01*
X30001502Y-84071998D02*
X30191978Y-84214856D01*
X29763407Y-83167236D02*
X29668169Y-83262475D01*
X29620550Y-83119617D02*
X29525312Y-83214856D01*
X29191978Y-83310094D02*
X28715788Y-83310094D01*
X29334835Y-83691046D02*
X28572931Y-83691046D01*
X29001502Y-83310094D02*
X29001502Y-84167236D01*
X29001502Y-84167236D02*
X28715788Y-84167236D01*
X28287216Y-83738665D02*
X27525312Y-83738665D01*
X27001502Y-83548189D02*
X26763407Y-83833903D01*
X26953883Y-83167236D02*
X27001502Y-83357713D01*
X27001502Y-83357713D02*
X27049121Y-83548189D01*
X27049121Y-83548189D02*
X27144359Y-83738665D01*
X26953883Y-83357713D02*
X26620550Y-83357713D01*
X26620550Y-83357713D02*
X26668169Y-83548189D01*
X26668169Y-83548189D02*
X26715788Y-83738665D01*
X26715788Y-83738665D02*
X26763407Y-83929141D01*
X26763407Y-83929141D02*
X26858645Y-84071998D01*
X26858645Y-84071998D02*
X27001502Y-84214856D01*
X26191978Y-83738665D02*
X25430074Y-83738665D01*
X23430074Y-84262475D02*
X24001502Y-84262475D01*
X23715788Y-84262475D02*
X23715788Y-83262475D01*
X23715788Y-83262475D02*
X23811026Y-83405332D01*
X23811026Y-83405332D02*
X23906264Y-83500570D01*
X23906264Y-83500570D02*
X24001502Y-83548189D01*
X23049121Y-83548189D02*
X21953883Y-83548189D01*
X22906264Y-84214856D02*
X22049121Y-84214856D01*
X22906264Y-83786284D02*
X22906264Y-84262475D01*
X22906264Y-83786284D02*
X22049121Y-83786284D01*
X22049121Y-83786284D02*
X22049121Y-84262475D01*
X22191979Y-83310094D02*
X21858645Y-83643427D01*
X22668169Y-83167236D02*
X22906264Y-83548189D01*
X31430074Y-85872419D02*
X31430074Y-84872419D01*
X31430074Y-84872419D02*
X30858646Y-85872419D01*
X30858646Y-85872419D02*
X30858646Y-84872419D01*
X30001503Y-85824800D02*
X30096741Y-85872419D01*
X30096741Y-85872419D02*
X30287217Y-85872419D01*
X30287217Y-85872419D02*
X30382455Y-85824800D01*
X30382455Y-85824800D02*
X30430074Y-85729561D01*
X30430074Y-85729561D02*
X30430074Y-85348609D01*
X30430074Y-85348609D02*
X30382455Y-85253371D01*
X30382455Y-85253371D02*
X30287217Y-85205752D01*
X30287217Y-85205752D02*
X30096741Y-85205752D01*
X30096741Y-85205752D02*
X30001503Y-85253371D01*
X30001503Y-85253371D02*
X29953884Y-85348609D01*
X29953884Y-85348609D02*
X29953884Y-85443847D01*
X29953884Y-85443847D02*
X30430074Y-85539085D01*
X29382455Y-85872419D02*
X29477693Y-85824800D01*
X29477693Y-85824800D02*
X29525312Y-85777180D01*
X29525312Y-85777180D02*
X29572931Y-85681942D01*
X29572931Y-85681942D02*
X29572931Y-85396228D01*
X29572931Y-85396228D02*
X29525312Y-85300990D01*
X29525312Y-85300990D02*
X29477693Y-85253371D01*
X29477693Y-85253371D02*
X29382455Y-85205752D01*
X29382455Y-85205752D02*
X29239598Y-85205752D01*
X29239598Y-85205752D02*
X29144360Y-85253371D01*
X29144360Y-85253371D02*
X29096741Y-85300990D01*
X29096741Y-85300990D02*
X29049122Y-85396228D01*
X29049122Y-85396228D02*
X29049122Y-85681942D01*
X29049122Y-85681942D02*
X29096741Y-85777180D01*
X29096741Y-85777180D02*
X29144360Y-85824800D01*
X29144360Y-85824800D02*
X29239598Y-85872419D01*
X29239598Y-85872419D02*
X29382455Y-85872419D01*
X28620550Y-85205752D02*
X28620550Y-86205752D01*
X28620550Y-85253371D02*
X28525312Y-85205752D01*
X28525312Y-85205752D02*
X28334836Y-85205752D01*
X28334836Y-85205752D02*
X28239598Y-85253371D01*
X28239598Y-85253371D02*
X28191979Y-85300990D01*
X28191979Y-85300990D02*
X28144360Y-85396228D01*
X28144360Y-85396228D02*
X28144360Y-85681942D01*
X28144360Y-85681942D02*
X28191979Y-85777180D01*
X28191979Y-85777180D02*
X28239598Y-85824800D01*
X28239598Y-85824800D02*
X28334836Y-85872419D01*
X28334836Y-85872419D02*
X28525312Y-85872419D01*
X28525312Y-85872419D02*
X28620550Y-85824800D01*
X27715788Y-85872419D02*
X27715788Y-85205752D01*
X27715788Y-84872419D02*
X27763407Y-84920038D01*
X27763407Y-84920038D02*
X27715788Y-84967657D01*
X27715788Y-84967657D02*
X27668169Y-84920038D01*
X27668169Y-84920038D02*
X27715788Y-84872419D01*
X27715788Y-84872419D02*
X27715788Y-84967657D01*
X27334836Y-85872419D02*
X26811027Y-85205752D01*
X27334836Y-85205752D02*
X26811027Y-85872419D01*
X26049122Y-85824800D02*
X26144360Y-85872419D01*
X26144360Y-85872419D02*
X26334836Y-85872419D01*
X26334836Y-85872419D02*
X26430074Y-85824800D01*
X26430074Y-85824800D02*
X26477693Y-85729561D01*
X26477693Y-85729561D02*
X26477693Y-85348609D01*
X26477693Y-85348609D02*
X26430074Y-85253371D01*
X26430074Y-85253371D02*
X26334836Y-85205752D01*
X26334836Y-85205752D02*
X26144360Y-85205752D01*
X26144360Y-85205752D02*
X26049122Y-85253371D01*
X26049122Y-85253371D02*
X26001503Y-85348609D01*
X26001503Y-85348609D02*
X26001503Y-85443847D01*
X26001503Y-85443847D02*
X26477693Y-85539085D01*
X25430074Y-85872419D02*
X25525312Y-85824800D01*
X25525312Y-85824800D02*
X25572931Y-85729561D01*
X25572931Y-85729561D02*
X25572931Y-84872419D01*
X23430074Y-85872419D02*
X24001502Y-85872419D01*
X23715788Y-85872419D02*
X23715788Y-84872419D01*
X23715788Y-84872419D02*
X23811026Y-85015276D01*
X23811026Y-85015276D02*
X23906264Y-85110514D01*
X23906264Y-85110514D02*
X24001502Y-85158133D01*
X23049121Y-85062895D02*
X21906264Y-85062895D01*
X22763407Y-85634323D02*
X22191979Y-85634323D01*
X22477693Y-84729561D02*
X22477693Y-85872419D01*
X22477693Y-85062895D02*
X22572931Y-85205752D01*
X22572931Y-85205752D02*
X22953883Y-85586704D01*
X22953883Y-85586704D02*
X23096740Y-85634323D01*
X22477693Y-85062895D02*
X22382455Y-85253371D01*
X22382455Y-85253371D02*
X22049121Y-85539085D01*
X22049121Y-85539085D02*
X21858645Y-85634323D01*
X47717544Y-95124800D02*
X47812782Y-95172419D01*
X47812782Y-95172419D02*
X48003258Y-95172419D01*
X48003258Y-95172419D02*
X48098496Y-95124800D01*
X48098496Y-95124800D02*
X48146115Y-95077180D01*
X48146115Y-95077180D02*
X48193734Y-94981942D01*
X48193734Y-94981942D02*
X48193734Y-94696228D01*
X48193734Y-94696228D02*
X48146115Y-94600990D01*
X48146115Y-94600990D02*
X48098496Y-94553371D01*
X48098496Y-94553371D02*
X48003258Y-94505752D01*
X48003258Y-94505752D02*
X47812782Y-94505752D01*
X47812782Y-94505752D02*
X47717544Y-94553371D01*
X47288972Y-95172419D02*
X47288972Y-94505752D01*
X47288972Y-94696228D02*
X47241353Y-94600990D01*
X47241353Y-94600990D02*
X47193734Y-94553371D01*
X47193734Y-94553371D02*
X47098496Y-94505752D01*
X47098496Y-94505752D02*
X47003258Y-94505752D01*
X46288972Y-95124800D02*
X46384210Y-95172419D01*
X46384210Y-95172419D02*
X46574686Y-95172419D01*
X46574686Y-95172419D02*
X46669924Y-95124800D01*
X46669924Y-95124800D02*
X46717543Y-95029561D01*
X46717543Y-95029561D02*
X46717543Y-94648609D01*
X46717543Y-94648609D02*
X46669924Y-94553371D01*
X46669924Y-94553371D02*
X46574686Y-94505752D01*
X46574686Y-94505752D02*
X46384210Y-94505752D01*
X46384210Y-94505752D02*
X46288972Y-94553371D01*
X46288972Y-94553371D02*
X46241353Y-94648609D01*
X46241353Y-94648609D02*
X46241353Y-94743847D01*
X46241353Y-94743847D02*
X46717543Y-94839085D01*
X45384210Y-95172419D02*
X45384210Y-94648609D01*
X45384210Y-94648609D02*
X45431829Y-94553371D01*
X45431829Y-94553371D02*
X45527067Y-94505752D01*
X45527067Y-94505752D02*
X45717543Y-94505752D01*
X45717543Y-94505752D02*
X45812781Y-94553371D01*
X45384210Y-95124800D02*
X45479448Y-95172419D01*
X45479448Y-95172419D02*
X45717543Y-95172419D01*
X45717543Y-95172419D02*
X45812781Y-95124800D01*
X45812781Y-95124800D02*
X45860400Y-95029561D01*
X45860400Y-95029561D02*
X45860400Y-94934323D01*
X45860400Y-94934323D02*
X45812781Y-94839085D01*
X45812781Y-94839085D02*
X45717543Y-94791466D01*
X45717543Y-94791466D02*
X45479448Y-94791466D01*
X45479448Y-94791466D02*
X45384210Y-94743847D01*
X45050876Y-94505752D02*
X44669924Y-94505752D01*
X44908019Y-94172419D02*
X44908019Y-95029561D01*
X44908019Y-95029561D02*
X44860400Y-95124800D01*
X44860400Y-95124800D02*
X44765162Y-95172419D01*
X44765162Y-95172419D02*
X44669924Y-95172419D01*
X43955638Y-95124800D02*
X44050876Y-95172419D01*
X44050876Y-95172419D02*
X44241352Y-95172419D01*
X44241352Y-95172419D02*
X44336590Y-95124800D01*
X44336590Y-95124800D02*
X44384209Y-95029561D01*
X44384209Y-95029561D02*
X44384209Y-94648609D01*
X44384209Y-94648609D02*
X44336590Y-94553371D01*
X44336590Y-94553371D02*
X44241352Y-94505752D01*
X44241352Y-94505752D02*
X44050876Y-94505752D01*
X44050876Y-94505752D02*
X43955638Y-94553371D01*
X43955638Y-94553371D02*
X43908019Y-94648609D01*
X43908019Y-94648609D02*
X43908019Y-94743847D01*
X43908019Y-94743847D02*
X44384209Y-94839085D01*
X43050876Y-95172419D02*
X43050876Y-94172419D01*
X43050876Y-95124800D02*
X43146114Y-95172419D01*
X43146114Y-95172419D02*
X43336590Y-95172419D01*
X43336590Y-95172419D02*
X43431828Y-95124800D01*
X43431828Y-95124800D02*
X43479447Y-95077180D01*
X43479447Y-95077180D02*
X43527066Y-94981942D01*
X43527066Y-94981942D02*
X43527066Y-94696228D01*
X43527066Y-94696228D02*
X43479447Y-94600990D01*
X43479447Y-94600990D02*
X43431828Y-94553371D01*
X43431828Y-94553371D02*
X43336590Y-94505752D01*
X43336590Y-94505752D02*
X43146114Y-94505752D01*
X43146114Y-94505752D02*
X43050876Y-94553371D01*
X41812780Y-95172419D02*
X41812780Y-94172419D01*
X41812780Y-94553371D02*
X41717542Y-94505752D01*
X41717542Y-94505752D02*
X41527066Y-94505752D01*
X41527066Y-94505752D02*
X41431828Y-94553371D01*
X41431828Y-94553371D02*
X41384209Y-94600990D01*
X41384209Y-94600990D02*
X41336590Y-94696228D01*
X41336590Y-94696228D02*
X41336590Y-94981942D01*
X41336590Y-94981942D02*
X41384209Y-95077180D01*
X41384209Y-95077180D02*
X41431828Y-95124800D01*
X41431828Y-95124800D02*
X41527066Y-95172419D01*
X41527066Y-95172419D02*
X41717542Y-95172419D01*
X41717542Y-95172419D02*
X41812780Y-95124800D01*
X41003256Y-94505752D02*
X40765161Y-95172419D01*
X40527066Y-94505752D02*
X40765161Y-95172419D01*
X40765161Y-95172419D02*
X40860399Y-95410514D01*
X40860399Y-95410514D02*
X40908018Y-95458133D01*
X40908018Y-95458133D02*
X41003256Y-95505752D01*
X39384208Y-95172419D02*
X39384208Y-94505752D01*
X39384208Y-94696228D02*
X39336589Y-94600990D01*
X39336589Y-94600990D02*
X39288970Y-94553371D01*
X39288970Y-94553371D02*
X39193732Y-94505752D01*
X39193732Y-94505752D02*
X39098494Y-94505752D01*
X38384208Y-95124800D02*
X38479446Y-95172419D01*
X38479446Y-95172419D02*
X38669922Y-95172419D01*
X38669922Y-95172419D02*
X38765160Y-95124800D01*
X38765160Y-95124800D02*
X38812779Y-95029561D01*
X38812779Y-95029561D02*
X38812779Y-94648609D01*
X38812779Y-94648609D02*
X38765160Y-94553371D01*
X38765160Y-94553371D02*
X38669922Y-94505752D01*
X38669922Y-94505752D02*
X38479446Y-94505752D01*
X38479446Y-94505752D02*
X38384208Y-94553371D01*
X38384208Y-94553371D02*
X38336589Y-94648609D01*
X38336589Y-94648609D02*
X38336589Y-94743847D01*
X38336589Y-94743847D02*
X38812779Y-94839085D01*
X37908017Y-95172419D02*
X37908017Y-94505752D01*
X37908017Y-94172419D02*
X37955636Y-94220038D01*
X37955636Y-94220038D02*
X37908017Y-94267657D01*
X37908017Y-94267657D02*
X37860398Y-94220038D01*
X37860398Y-94220038D02*
X37908017Y-94172419D01*
X37908017Y-94172419D02*
X37908017Y-94267657D01*
X37431827Y-94505752D02*
X37431827Y-95362895D01*
X37431827Y-95362895D02*
X37479446Y-95458133D01*
X37479446Y-95458133D02*
X37574684Y-95505752D01*
X37574684Y-95505752D02*
X37622303Y-95505752D01*
X37431827Y-94172419D02*
X37479446Y-94220038D01*
X37479446Y-94220038D02*
X37431827Y-94267657D01*
X37431827Y-94267657D02*
X37384208Y-94220038D01*
X37384208Y-94220038D02*
X37431827Y-94172419D01*
X37431827Y-94172419D02*
X37431827Y-94267657D01*
X36955637Y-95172419D02*
X36955637Y-94505752D01*
X36955637Y-94172419D02*
X37003256Y-94220038D01*
X37003256Y-94220038D02*
X36955637Y-94267657D01*
X36955637Y-94267657D02*
X36908018Y-94220038D01*
X36908018Y-94220038D02*
X36955637Y-94172419D01*
X36955637Y-94172419D02*
X36955637Y-94267657D01*
X35003256Y-94267657D02*
X34955637Y-94220038D01*
X34955637Y-94220038D02*
X34860399Y-94172419D01*
X34860399Y-94172419D02*
X34622304Y-94172419D01*
X34622304Y-94172419D02*
X34527066Y-94220038D01*
X34527066Y-94220038D02*
X34479447Y-94267657D01*
X34479447Y-94267657D02*
X34431828Y-94362895D01*
X34431828Y-94362895D02*
X34431828Y-94458133D01*
X34431828Y-94458133D02*
X34479447Y-94600990D01*
X34479447Y-94600990D02*
X35050875Y-95172419D01*
X35050875Y-95172419D02*
X34431828Y-95172419D01*
X33812780Y-94172419D02*
X33717542Y-94172419D01*
X33717542Y-94172419D02*
X33622304Y-94220038D01*
X33622304Y-94220038D02*
X33574685Y-94267657D01*
X33574685Y-94267657D02*
X33527066Y-94362895D01*
X33527066Y-94362895D02*
X33479447Y-94553371D01*
X33479447Y-94553371D02*
X33479447Y-94791466D01*
X33479447Y-94791466D02*
X33527066Y-94981942D01*
X33527066Y-94981942D02*
X33574685Y-95077180D01*
X33574685Y-95077180D02*
X33622304Y-95124800D01*
X33622304Y-95124800D02*
X33717542Y-95172419D01*
X33717542Y-95172419D02*
X33812780Y-95172419D01*
X33812780Y-95172419D02*
X33908018Y-95124800D01*
X33908018Y-95124800D02*
X33955637Y-95077180D01*
X33955637Y-95077180D02*
X34003256Y-94981942D01*
X34003256Y-94981942D02*
X34050875Y-94791466D01*
X34050875Y-94791466D02*
X34050875Y-94553371D01*
X34050875Y-94553371D02*
X34003256Y-94362895D01*
X34003256Y-94362895D02*
X33955637Y-94267657D01*
X33955637Y-94267657D02*
X33908018Y-94220038D01*
X33908018Y-94220038D02*
X33812780Y-94172419D01*
X33098494Y-94267657D02*
X33050875Y-94220038D01*
X33050875Y-94220038D02*
X32955637Y-94172419D01*
X32955637Y-94172419D02*
X32717542Y-94172419D01*
X32717542Y-94172419D02*
X32622304Y-94220038D01*
X32622304Y-94220038D02*
X32574685Y-94267657D01*
X32574685Y-94267657D02*
X32527066Y-94362895D01*
X32527066Y-94362895D02*
X32527066Y-94458133D01*
X32527066Y-94458133D02*
X32574685Y-94600990D01*
X32574685Y-94600990D02*
X33146113Y-95172419D01*
X33146113Y-95172419D02*
X32527066Y-95172419D01*
X31622304Y-94172419D02*
X32098494Y-94172419D01*
X32098494Y-94172419D02*
X32146113Y-94648609D01*
X32146113Y-94648609D02*
X32098494Y-94600990D01*
X32098494Y-94600990D02*
X32003256Y-94553371D01*
X32003256Y-94553371D02*
X31765161Y-94553371D01*
X31765161Y-94553371D02*
X31669923Y-94600990D01*
X31669923Y-94600990D02*
X31622304Y-94648609D01*
X31622304Y-94648609D02*
X31574685Y-94743847D01*
X31574685Y-94743847D02*
X31574685Y-94981942D01*
X31574685Y-94981942D02*
X31622304Y-95077180D01*
X31622304Y-95077180D02*
X31669923Y-95124800D01*
X31669923Y-95124800D02*
X31765161Y-95172419D01*
X31765161Y-95172419D02*
X32003256Y-95172419D01*
X32003256Y-95172419D02*
X32098494Y-95124800D01*
X32098494Y-95124800D02*
X32146113Y-95077180D01*
X30431828Y-94124800D02*
X31288970Y-95410514D01*
X30050875Y-95172419D02*
X29860399Y-95172419D01*
X29860399Y-95172419D02*
X29765161Y-95124800D01*
X29765161Y-95124800D02*
X29717542Y-95077180D01*
X29717542Y-95077180D02*
X29622304Y-94934323D01*
X29622304Y-94934323D02*
X29574685Y-94743847D01*
X29574685Y-94743847D02*
X29574685Y-94362895D01*
X29574685Y-94362895D02*
X29622304Y-94267657D01*
X29622304Y-94267657D02*
X29669923Y-94220038D01*
X29669923Y-94220038D02*
X29765161Y-94172419D01*
X29765161Y-94172419D02*
X29955637Y-94172419D01*
X29955637Y-94172419D02*
X30050875Y-94220038D01*
X30050875Y-94220038D02*
X30098494Y-94267657D01*
X30098494Y-94267657D02*
X30146113Y-94362895D01*
X30146113Y-94362895D02*
X30146113Y-94600990D01*
X30146113Y-94600990D02*
X30098494Y-94696228D01*
X30098494Y-94696228D02*
X30050875Y-94743847D01*
X30050875Y-94743847D02*
X29955637Y-94791466D01*
X29955637Y-94791466D02*
X29765161Y-94791466D01*
X29765161Y-94791466D02*
X29669923Y-94743847D01*
X29669923Y-94743847D02*
X29622304Y-94696228D01*
X29622304Y-94696228D02*
X29574685Y-94600990D01*
X28431828Y-94124800D02*
X29288970Y-95410514D01*
X28146113Y-94267657D02*
X28098494Y-94220038D01*
X28098494Y-94220038D02*
X28003256Y-94172419D01*
X28003256Y-94172419D02*
X27765161Y-94172419D01*
X27765161Y-94172419D02*
X27669923Y-94220038D01*
X27669923Y-94220038D02*
X27622304Y-94267657D01*
X27622304Y-94267657D02*
X27574685Y-94362895D01*
X27574685Y-94362895D02*
X27574685Y-94458133D01*
X27574685Y-94458133D02*
X27622304Y-94600990D01*
X27622304Y-94600990D02*
X28193732Y-95172419D01*
X28193732Y-95172419D02*
X27574685Y-95172419D01*
X27003256Y-94600990D02*
X27098494Y-94553371D01*
X27098494Y-94553371D02*
X27146113Y-94505752D01*
X27146113Y-94505752D02*
X27193732Y-94410514D01*
X27193732Y-94410514D02*
X27193732Y-94362895D01*
X27193732Y-94362895D02*
X27146113Y-94267657D01*
X27146113Y-94267657D02*
X27098494Y-94220038D01*
X27098494Y-94220038D02*
X27003256Y-94172419D01*
X27003256Y-94172419D02*
X26812780Y-94172419D01*
X26812780Y-94172419D02*
X26717542Y-94220038D01*
X26717542Y-94220038D02*
X26669923Y-94267657D01*
X26669923Y-94267657D02*
X26622304Y-94362895D01*
X26622304Y-94362895D02*
X26622304Y-94410514D01*
X26622304Y-94410514D02*
X26669923Y-94505752D01*
X26669923Y-94505752D02*
X26717542Y-94553371D01*
X26717542Y-94553371D02*
X26812780Y-94600990D01*
X26812780Y-94600990D02*
X27003256Y-94600990D01*
X27003256Y-94600990D02*
X27098494Y-94648609D01*
X27098494Y-94648609D02*
X27146113Y-94696228D01*
X27146113Y-94696228D02*
X27193732Y-94791466D01*
X27193732Y-94791466D02*
X27193732Y-94981942D01*
X27193732Y-94981942D02*
X27146113Y-95077180D01*
X27146113Y-95077180D02*
X27098494Y-95124800D01*
X27098494Y-95124800D02*
X27003256Y-95172419D01*
X27003256Y-95172419D02*
X26812780Y-95172419D01*
X26812780Y-95172419D02*
X26717542Y-95124800D01*
X26717542Y-95124800D02*
X26669923Y-95077180D01*
X26669923Y-95077180D02*
X26622304Y-94981942D01*
X26622304Y-94981942D02*
X26622304Y-94791466D01*
X26622304Y-94791466D02*
X26669923Y-94696228D01*
X26669923Y-94696228D02*
X26717542Y-94648609D01*
X26717542Y-94648609D02*
X26812780Y-94600990D01*
D11*
%TO.C,J3*%
X26192000Y-45145000D02*
G75*
G02*
X25430000Y-45145000I-381000J0D01*
G01*
X25430000Y-45145000D02*
G75*
G02*
X26192000Y-45145000I381000J0D01*
G01*
%TO.C,J2*%
X99270000Y-27155000D02*
G75*
G02*
X98508000Y-27155000I-381000J0D01*
G01*
X98508000Y-27155000D02*
G75*
G02*
X99270000Y-27155000I381000J0D01*
G01*
%TD*%
M02*
