%TF.GenerationSoftware,KiCad,Pcbnew,8.0.8*%
%TF.CreationDate,2025-09-27T22:11:16+09:00*%
%TF.ProjectId,esp_bluepill_board,6573705f-626c-4756-9570-696c6c5f626f,rev?*%
%TF.SameCoordinates,Original*%
%TF.FileFunction,Paste,Top*%
%TF.FilePolarity,Positive*%
%FSLAX46Y46*%
G04 Gerber Fmt 4.6, Leading zero omitted, Abs format (unit mm)*
G04 Created by KiCad (PCBNEW 8.0.8) date 2025-09-27 22:11:16*
%MOMM*%
%LPD*%
G01*
G04 APERTURE LIST*
G04 Aperture macros list*
%AMRoundRect*
0 Rectangle with rounded corners*
0 $1 Rounding radius*
0 $2 $3 $4 $5 $6 $7 $8 $9 X,Y pos of 4 corners*
0 Add a 4 corners polygon primitive as box body*
4,1,4,$2,$3,$4,$5,$6,$7,$8,$9,$2,$3,0*
0 Add four circle primitives for the rounded corners*
1,1,$1+$1,$2,$3*
1,1,$1+$1,$4,$5*
1,1,$1+$1,$6,$7*
1,1,$1+$1,$8,$9*
0 Add four rect primitives between the rounded corners*
20,1,$1+$1,$2,$3,$4,$5,0*
20,1,$1+$1,$4,$5,$6,$7,0*
20,1,$1+$1,$6,$7,$8,$9,0*
20,1,$1+$1,$8,$9,$2,$3,0*%
G04 Aperture macros list end*
%ADD10R,1.045000X0.600000*%
%ADD11R,1.240000X0.300000*%
%ADD12RoundRect,0.243750X-0.243750X-0.456250X0.243750X-0.456250X0.243750X0.456250X-0.243750X0.456250X0*%
%ADD13R,0.914400X1.219200*%
%ADD14RoundRect,0.135000X-0.135000X-0.185000X0.135000X-0.185000X0.135000X0.185000X-0.135000X0.185000X0*%
%ADD15RoundRect,0.135000X0.185000X-0.135000X0.185000X0.135000X-0.185000X0.135000X-0.185000X-0.135000X0*%
%ADD16RoundRect,0.135000X-0.185000X0.135000X-0.185000X-0.135000X0.185000X-0.135000X0.185000X0.135000X0*%
%ADD17RoundRect,0.243750X0.456250X-0.243750X0.456250X0.243750X-0.456250X0.243750X-0.456250X-0.243750X0*%
%ADD18R,0.570000X1.610000*%
%ADD19RoundRect,0.135000X0.135000X0.185000X-0.135000X0.185000X-0.135000X-0.185000X0.135000X-0.185000X0*%
%ADD20R,0.558800X2.286000*%
%ADD21R,1.550000X0.600000*%
%ADD22R,1.050000X2.000000*%
%ADD23RoundRect,0.250000X-0.475000X0.250000X-0.475000X-0.250000X0.475000X-0.250000X0.475000X0.250000X0*%
G04 APERTURE END LIST*
D10*
%TO.C,J19*%
X96602500Y-55000000D03*
X96602500Y-54200000D03*
D11*
X96700000Y-53050000D03*
X96700000Y-52050000D03*
X96700000Y-51550000D03*
X96700000Y-50550000D03*
D10*
X96602500Y-49400000D03*
X96602500Y-48600000D03*
D11*
X96700000Y-50050000D03*
X96700000Y-51050000D03*
X96700000Y-52550000D03*
X96700000Y-53550000D03*
%TD*%
D12*
%TO.C,D3*%
X45522500Y-30000000D03*
X47397500Y-30000000D03*
%TD*%
D13*
%TO.C,D6*%
X65691700Y-85717500D03*
X68968300Y-85717500D03*
%TD*%
D14*
%TO.C,R10*%
X42050000Y-26500000D03*
X43070000Y-26500000D03*
%TD*%
%TO.C,R11*%
X42050000Y-30000000D03*
X43070000Y-30000000D03*
%TD*%
%TO.C,R16*%
X35000000Y-31600000D03*
X36020000Y-31600000D03*
%TD*%
D15*
%TO.C,R12*%
X80300000Y-22810000D03*
X80300000Y-21790000D03*
%TD*%
D16*
%TO.C,R4*%
X87800000Y-55690000D03*
X87800000Y-56710000D03*
%TD*%
D15*
%TO.C,R5*%
X93900000Y-56710000D03*
X93900000Y-55690000D03*
%TD*%
D17*
%TO.C,D4*%
X75800000Y-63837500D03*
X75800000Y-61962500D03*
%TD*%
D18*
%TO.C,U6*%
X63100000Y-76600000D03*
X60560000Y-76600000D03*
X60560000Y-83100000D03*
X63100000Y-83100000D03*
%TD*%
D15*
%TO.C,R7*%
X78100000Y-66310000D03*
X78100000Y-65290000D03*
%TD*%
D19*
%TO.C,R15*%
X89910000Y-40700000D03*
X88890000Y-40700000D03*
%TD*%
D14*
%TO.C,R21*%
X88890000Y-35700000D03*
X89910000Y-35700000D03*
%TD*%
%TO.C,R23*%
X88890000Y-34500000D03*
X89910000Y-34500000D03*
%TD*%
D13*
%TO.C,D9*%
X49291700Y-85617500D03*
X52568300Y-85617500D03*
%TD*%
D16*
%TO.C,R18*%
X59130000Y-75507500D03*
X59130000Y-76527500D03*
%TD*%
D20*
%TO.C,U4*%
X78895000Y-33614600D03*
X80165000Y-33614600D03*
X81435000Y-33614600D03*
X82705000Y-33614600D03*
X82705000Y-28585400D03*
X81435000Y-28585400D03*
X80165000Y-28585400D03*
X78895000Y-28585400D03*
%TD*%
D12*
%TO.C,D2*%
X45522500Y-26500000D03*
X47397500Y-26500000D03*
%TD*%
D16*
%TO.C,R2*%
X89800000Y-55690000D03*
X89800000Y-56710000D03*
%TD*%
D21*
%TO.C,U2*%
X75400000Y-75590000D03*
X75400000Y-76860000D03*
X75400000Y-78130000D03*
X75400000Y-79400000D03*
X80800000Y-75590000D03*
X80800000Y-76860000D03*
X80800000Y-78130000D03*
X80800000Y-79400000D03*
%TD*%
D18*
%TO.C,U5*%
X68500000Y-76600000D03*
X65960000Y-76600000D03*
X65960000Y-83100000D03*
X68500000Y-83100000D03*
%TD*%
D19*
%TO.C,R22*%
X35910000Y-34100000D03*
X34890000Y-34100000D03*
%TD*%
D18*
%TO.C,U8*%
X57700000Y-76600000D03*
X55160000Y-76600000D03*
X55160000Y-83100000D03*
X57700000Y-83100000D03*
%TD*%
D19*
%TO.C,R24*%
X35900000Y-37200000D03*
X34880000Y-37200000D03*
%TD*%
D22*
%TO.C,SW1*%
X98575000Y-72000000D03*
X103025000Y-72000000D03*
%TD*%
D14*
%TO.C,R14*%
X34990000Y-42800000D03*
X36010000Y-42800000D03*
%TD*%
D23*
%TO.C,C2*%
X79800000Y-46350000D03*
X79800000Y-48250000D03*
%TD*%
D17*
%TO.C,D5*%
X78100000Y-63837500D03*
X78100000Y-61962500D03*
%TD*%
D15*
%TO.C,R6*%
X92900000Y-56710000D03*
X92900000Y-55690000D03*
%TD*%
D16*
%TO.C,R17*%
X64530000Y-75507500D03*
X64530000Y-76527500D03*
%TD*%
D19*
%TO.C,R13*%
X89910000Y-29300000D03*
X88890000Y-29300000D03*
%TD*%
D16*
%TO.C,R3*%
X88800000Y-55690000D03*
X88800000Y-56710000D03*
%TD*%
D13*
%TO.C,D8*%
X54891700Y-85717500D03*
X58168300Y-85717500D03*
%TD*%
D16*
%TO.C,R20*%
X48130000Y-75607500D03*
X48130000Y-76627500D03*
%TD*%
D23*
%TO.C,C1*%
X87200000Y-47550000D03*
X87200000Y-49450000D03*
%TD*%
D16*
%TO.C,R1*%
X90800000Y-55690000D03*
X90800000Y-56710000D03*
%TD*%
D12*
%TO.C,D1*%
X45522500Y-33500000D03*
X47397500Y-33500000D03*
%TD*%
D14*
%TO.C,R9*%
X41950000Y-33300000D03*
X42970000Y-33300000D03*
%TD*%
D18*
%TO.C,U9*%
X52300000Y-76600000D03*
X49760000Y-76600000D03*
X49760000Y-83100000D03*
X52300000Y-83100000D03*
%TD*%
D15*
%TO.C,R8*%
X75800000Y-66310000D03*
X75800000Y-65290000D03*
%TD*%
D13*
%TO.C,D7*%
X60191700Y-85717500D03*
X63468300Y-85717500D03*
%TD*%
D16*
%TO.C,R19*%
X53730000Y-75507500D03*
X53730000Y-76527500D03*
%TD*%
M02*
