%TF.GenerationSoftware,KiCad,Pcbnew,8.0.8*%
%TF.CreationDate,2025-09-27T22:11:16+09:00*%
%TF.ProjectId,esp_bluepill_board,6573705f-626c-4756-9570-696c6c5f626f,rev?*%
%TF.SameCoordinates,Original*%
%TF.FileFunction,Soldermask,Bot*%
%TF.FilePolarity,Negative*%
%FSLAX46Y46*%
G04 Gerber Fmt 4.6, Leading zero omitted, Abs format (unit mm)*
G04 Created by KiCad (PCBNEW 8.0.8) date 2025-09-27 22:11:16*
%MOMM*%
%LPD*%
G01*
G04 APERTURE LIST*
G04 Aperture macros list*
%AMRoundRect*
0 Rectangle with rounded corners*
0 $1 Rounding radius*
0 $2 $3 $4 $5 $6 $7 $8 $9 X,Y pos of 4 corners*
0 Add a 4 corners polygon primitive as box body*
4,1,4,$2,$3,$4,$5,$6,$7,$8,$9,$2,$3,0*
0 Add four circle primitives for the rounded corners*
1,1,$1+$1,$2,$3*
1,1,$1+$1,$4,$5*
1,1,$1+$1,$6,$7*
1,1,$1+$1,$8,$9*
0 Add four rect primitives between the rounded corners*
20,1,$1+$1,$2,$3,$4,$5,0*
20,1,$1+$1,$4,$5,$6,$7,0*
20,1,$1+$1,$6,$7,$8,$9,0*
20,1,$1+$1,$8,$9,$2,$3,0*%
G04 Aperture macros list end*
%ADD10C,0.650000*%
%ADD11O,2.100000X1.000000*%
%ADD12O,1.800000X1.000000*%
%ADD13R,1.700000X1.700000*%
%ADD14O,1.700000X1.700000*%
%ADD15RoundRect,0.250000X-0.600000X-0.725000X0.600000X-0.725000X0.600000X0.725000X-0.600000X0.725000X0*%
%ADD16O,1.700000X1.950000*%
%ADD17C,3.251200*%
%ADD18C,1.397000*%
%ADD19C,2.133600*%
%ADD20C,3.000000*%
%ADD21RoundRect,0.250000X-0.600000X-0.750000X0.600000X-0.750000X0.600000X0.750000X-0.600000X0.750000X0*%
%ADD22O,1.700000X2.000000*%
%ADD23RoundRect,0.102000X-0.754000X0.754000X-0.754000X-0.754000X0.754000X-0.754000X0.754000X0.754000X0*%
%ADD24C,1.712000*%
%ADD25RoundRect,0.250000X-0.750000X0.600000X-0.750000X-0.600000X0.750000X-0.600000X0.750000X0.600000X0*%
%ADD26O,2.000000X1.700000*%
%ADD27C,1.524000*%
%ADD28R,2.000000X1.905000*%
%ADD29O,2.000000X1.905000*%
%ADD30RoundRect,0.760000X-1.140000X-1.140000X1.140000X-1.140000X1.140000X1.140000X-1.140000X1.140000X0*%
%ADD31C,4.000000*%
G04 APERTURE END LIST*
D10*
%TO.C,J19*%
X97820000Y-54690000D03*
X97820000Y-48910000D03*
D11*
X97300000Y-56120000D03*
D12*
X101500000Y-56120000D03*
D11*
X97300000Y-47480000D03*
D12*
X101500000Y-47480000D03*
%TD*%
D13*
%TO.C,J20*%
X39900000Y-37320000D03*
D14*
X39900000Y-39860000D03*
X39900000Y-42400000D03*
%TD*%
D13*
%TO.C,SW2*%
X84125000Y-54600000D03*
D14*
X81585000Y-54600000D03*
X79045000Y-54600000D03*
%TD*%
D13*
%TO.C,J4*%
X77760000Y-25100000D03*
D14*
X80300000Y-25100000D03*
X82840000Y-25100000D03*
%TD*%
D13*
%TO.C,J1*%
X93700000Y-72700000D03*
D14*
X91160000Y-72700000D03*
X88620000Y-72700000D03*
%TD*%
D15*
%TO.C,J14*%
X36000000Y-52000000D03*
D16*
X38500000Y-52000000D03*
X41000000Y-52000000D03*
%TD*%
D17*
%TO.C,J3*%
X23271000Y-29778000D03*
X23271000Y-42478000D03*
D18*
X25811000Y-39684000D03*
X27589000Y-38668000D03*
X25811000Y-37652000D03*
X27589000Y-36636000D03*
X25811000Y-35620000D03*
X27589000Y-34604000D03*
X25811000Y-33588000D03*
X27589000Y-32572000D03*
X32415000Y-42986000D03*
X32415000Y-40700000D03*
X32415000Y-31556000D03*
X32415000Y-29270000D03*
D19*
X26700000Y-28000000D03*
X26700000Y-44256000D03*
%TD*%
D20*
%TO.C,REF\u002A\u002A*%
X101400000Y-23300000D03*
%TD*%
D21*
%TO.C,J12*%
X44000000Y-90600000D03*
D22*
X46500000Y-90600000D03*
%TD*%
D17*
%TO.C,J2*%
X101429000Y-42522000D03*
X101429000Y-29822000D03*
D18*
X98889000Y-32616000D03*
X97111000Y-33632000D03*
X98889000Y-34648000D03*
X97111000Y-35664000D03*
X98889000Y-36680000D03*
X97111000Y-37696000D03*
X98889000Y-38712000D03*
X97111000Y-39728000D03*
X92285000Y-29314000D03*
X92285000Y-31600000D03*
X92285000Y-40744000D03*
X92285000Y-43030000D03*
D19*
X98000000Y-44300000D03*
X98000000Y-28044000D03*
%TD*%
D23*
%TO.C,PS1*%
X80400000Y-85820000D03*
D24*
X80400000Y-88360000D03*
X80400000Y-90900000D03*
%TD*%
D15*
%TO.C,J16*%
X36100000Y-63200000D03*
D16*
X38600000Y-63200000D03*
X41100000Y-63200000D03*
%TD*%
D15*
%TO.C,J8*%
X89600000Y-90300000D03*
D16*
X92100000Y-90300000D03*
X94600000Y-90300000D03*
%TD*%
D21*
%TO.C,J11*%
X53200000Y-90600000D03*
D22*
X55700000Y-90600000D03*
%TD*%
D15*
%TO.C,J18*%
X36200000Y-74700000D03*
D16*
X38700000Y-74700000D03*
X41200000Y-74700000D03*
%TD*%
D21*
%TO.C,J9*%
X71500000Y-90600000D03*
D22*
X74000000Y-90600000D03*
%TD*%
D20*
%TO.C,REF\u002A\u002A*%
X23300000Y-92500000D03*
%TD*%
D25*
%TO.C,J5*%
X92400000Y-49200000D03*
D26*
X92400000Y-51700000D03*
%TD*%
D15*
%TO.C,J15*%
X23700000Y-63000000D03*
D16*
X26200000Y-63000000D03*
X28700000Y-63000000D03*
%TD*%
D27*
%TO.C,U1*%
X66800000Y-24020000D03*
X51560000Y-67200000D03*
X66800000Y-29100000D03*
X66800000Y-26560000D03*
X51560000Y-72280000D03*
X51560000Y-69740000D03*
X51560000Y-64660000D03*
X51560000Y-34180000D03*
X51560000Y-36720000D03*
X51560000Y-39260000D03*
X51560000Y-41800000D03*
X51560000Y-44340000D03*
X51560000Y-46880000D03*
X51560000Y-49420000D03*
X51560000Y-51960000D03*
X66800000Y-62120000D03*
X66800000Y-59580000D03*
X66800000Y-57040000D03*
X66800000Y-54500000D03*
X66800000Y-51960000D03*
X66800000Y-49420000D03*
X51560000Y-54500000D03*
X51560000Y-57040000D03*
X66800000Y-46880000D03*
X66800000Y-44340000D03*
X66800000Y-41800000D03*
X66800000Y-39260000D03*
X66800000Y-36720000D03*
X66800000Y-34180000D03*
X66800000Y-31640000D03*
X51560000Y-59580000D03*
X51560000Y-62120000D03*
X66800000Y-72280000D03*
X66800000Y-69740000D03*
X66800000Y-67200000D03*
X66800000Y-64660000D03*
X51560000Y-26560000D03*
X51560000Y-29100000D03*
X51560000Y-31640000D03*
X51560000Y-24020000D03*
%TD*%
D15*
%TO.C,J7*%
X89000000Y-78000000D03*
D16*
X91500000Y-78000000D03*
X94000000Y-78000000D03*
X96500000Y-78000000D03*
X99000000Y-78000000D03*
X101500000Y-78000000D03*
%TD*%
D21*
%TO.C,J10*%
X62350000Y-90575000D03*
D22*
X64850000Y-90575000D03*
%TD*%
D20*
%TO.C,REF\u002A\u002A*%
X101400000Y-92500000D03*
%TD*%
D15*
%TO.C,J13*%
X23700000Y-52000000D03*
D16*
X26200000Y-52000000D03*
X28700000Y-52000000D03*
%TD*%
D20*
%TO.C,REF\u002A\u002A*%
X23300000Y-23300000D03*
%TD*%
D28*
%TO.C,U3*%
X82555000Y-44660000D03*
D29*
X82555000Y-47200000D03*
X82555000Y-49740000D03*
%TD*%
D27*
%TO.C,U7*%
X103200000Y-59780000D03*
X100660000Y-59780000D03*
X98120000Y-59780000D03*
X95580000Y-59780000D03*
X93040000Y-59780000D03*
X90500000Y-59780000D03*
X87960000Y-59780000D03*
X85420000Y-59780000D03*
X82880000Y-59780000D03*
X103200000Y-67400000D03*
X100660000Y-67400000D03*
X98120000Y-67400000D03*
X95580000Y-67400000D03*
X93040000Y-67400000D03*
X90500000Y-67400000D03*
X87960000Y-67400000D03*
X85420000Y-67400000D03*
X82880000Y-67400000D03*
%TD*%
D15*
%TO.C,J17*%
X23300000Y-74400000D03*
D16*
X25800000Y-74400000D03*
X28300000Y-74400000D03*
%TD*%
D30*
%TO.C,J6*%
X31300000Y-90200000D03*
D31*
X36300000Y-90200000D03*
%TD*%
M02*
