M48
; DRILL file {KiCad 8.0.8} date 2025-09-27T22:11:25+0900
; FORMAT={-:-/ absolute / metric / decimal}
; #@! TF.CreationDate,2025-09-27T22:11:25+09:00
; #@! TF.GenerationSoftware,Kicad,Pcbnew,8.0.8
; #@! TF.FileFunction,Plated,1,2,PTH
FMAT,2
METRIC
; #@! TA.AperFunction,Plated,PTH,ViaDrill
T1C0.300
; #@! TA.AperFunction,Plated,PTH,ComponentDrill
T2C0.600
; #@! TA.AperFunction,Plated,PTH,ComponentDrill
T3C0.762
; #@! TA.AperFunction,Plated,PTH,ComponentDrill
T4C0.889
; #@! TA.AperFunction,Plated,PTH,ComponentDrill
T5C0.900
; #@! TA.AperFunction,Plated,PTH,ComponentDrill
T6C0.950
; #@! TA.AperFunction,Plated,PTH,ComponentDrill
T7C1.000
; #@! TA.AperFunction,Plated,PTH,ComponentDrill
T8C1.100
; #@! TA.AperFunction,Plated,PTH,ComponentDrill
T9C1.626
; #@! TA.AperFunction,Plated,PTH,ComponentDrill
T10C2.700
%
G90
G05
T1
X20.8Y-20.8
X20.8Y-80.7
X22.5Y-33.2
X22.5Y-38.9
X23.4Y-55.2
X23.5Y-69.2
X23.8Y-61.0
X27.9Y-57.6
X28.3Y-23.5
X28.7Y-33.4
X28.8Y-31.3
X29.1Y-71.2
X29.3Y-56.2
X29.3Y-59.1
X30.2Y-80.7
X31.4Y-47.4
X32.1Y-37.3
X33.5Y-41.9
X33.9Y-57.5
X35.5Y-20.9
X35.5Y-68.6
X36.0Y-32.8
X36.1Y-35.3
X36.9Y-54.3
X37.1Y-22.4
X37.2Y-32.4
X37.3Y-40.1
X37.6Y-61.2
X38.4Y-33.9
X38.4Y-71.9
X38.6Y-27.3
X39.0Y-45.3
X39.2Y-47.5
X39.6Y-34.0
X39.6Y-57.0
X39.8Y-80.6
X39.9Y-69.6
X40.3Y-32.1
X41.0Y-56.0
X41.2Y-58.6
X41.4Y-41.1
X42.5Y-57.1
X43.1Y-66.3
X43.7Y-43.2
X44.1Y-38.55
X44.2Y-28.8
X44.6Y-57.6
X45.1Y-44.4
X46.1Y-66.35
X46.4Y-22.8
X46.9Y-49.7
X47.6Y-32.0
X47.6Y-39.4
X48.8Y-23.7
X49.9Y-39.4
X49.9Y-57.4
X49.9Y-69.9
X49.9Y-71.9
X50.0Y-33.7
X50.0Y-45.4
X50.0Y-67.7
X50.1Y-36.9
X50.15Y-60.18
X50.309Y-52.125
X50.4Y-27.9
X50.5Y-25.3
X50.6Y-48.1
X51.0Y-76.1
X53.3Y-31.7
X53.3Y-44.3
X53.4Y-53.2
X53.4Y-60.4
X53.5Y-33.7
X53.5Y-47.2
X53.5Y-57.7
X53.6Y-27.7
X53.7Y-24.3
X53.7Y-78.3
X53.9Y-39.2
X54.0Y-72.1
X54.8Y-70.1
X56.1Y-60.3
X56.4Y-63.5
X56.4Y-67.0
X56.4Y-76.2
X56.7Y-58.1
X56.9Y-72.5
X57.4Y-22.2
X57.7Y-64.3
X58.1Y-36.9
X58.4Y-67.1
X58.5Y-49.6
X58.7Y-65.5
X59.2Y-78.4
X59.5Y-63.8
X60.0Y-33.6
X60.2Y-67.8
X60.5Y-57.1
X60.7Y-69.8
X61.0Y-72.2
X62.0Y-76.3
X62.6Y-27.3
X62.8Y-67.0
X63.4Y-44.5
X64.5Y-78.4
X64.6Y-62.3
X64.9Y-65.2
X65.0Y-69.8
X65.1Y-31.6
X65.1Y-41.5
X65.2Y-38.9
X65.2Y-50.4
X65.3Y-71.8
X67.1Y-76.1
X68.1Y-42.3
X68.5Y-51.6
X68.5Y-62.7
X69.1Y-66.8
X69.9Y-54.4
X70.9Y-44.8
X71.5Y-22.4
X72.1Y-37.7
X72.4Y-63.1
X73.3Y-63.6
X73.3Y-70.1
X73.9Y-43.6
X74.2Y-50.7
X74.2Y-80.7
X74.4Y-60.5
X74.4Y-64.9
X74.8Y-69.5
X75.8Y-28.2
X75.9Y-46.6
X76.0Y-22.4
X76.1Y-53.0
X76.7Y-80.7
X76.8Y-43.1
X76.8Y-67.0
X77.3Y-32.9
X77.7Y-47.4
X77.8Y-39.2
X78.5Y-70.9
X79.4Y-26.7
X79.4Y-63.0
X79.5Y-30.9
X79.5Y-58.9
X79.7Y-35.5
X80.8Y-36.7
X81.0Y-20.8
X81.3Y-42.1
X81.4Y-67.9
X81.8Y-37.6
X82.3Y-84.4
X82.4Y-26.6
X84.0Y-34.3
X84.2Y-68.5
X84.3Y-51.4
X84.4Y-75.1
X84.9Y-45.3
X85.1Y-58.1
X85.4Y-63.8
X85.7Y-53.9
X86.2Y-28.7
X86.9Y-32.5
X87.2Y-37.6
X87.4Y-21.6
X87.7Y-51.4
X88.2Y-45.5
X88.2Y-80.6
X89.2Y-36.9
X89.3Y-39.3
X89.4Y-24.6
X89.8Y-55.0
X91.2Y-30.5
X91.5Y-80.4
X91.8Y-55.4
X93.3Y-22.2
X94.6Y-36.7
X95.8Y-34.8
X96.1Y-23.0
X96.1Y-31.2
X96.6Y-80.4
X96.9Y-68.6
X97.2Y-62.3
X99.5Y-45.7
X100.8Y-72.0
X101.9Y-39.4
X103.8Y-45.7
X103.9Y-20.8
X103.9Y-61.3
X103.9Y-80.7
T3
X82.88Y-59.78
X82.88Y-67.4
X85.42Y-59.78
X85.42Y-67.4
X87.96Y-59.78
X87.96Y-67.4
X90.5Y-59.78
X90.5Y-67.4
X93.04Y-59.78
X93.04Y-67.4
X95.58Y-59.78
X95.58Y-67.4
X98.12Y-59.78
X98.12Y-67.4
X100.66Y-59.78
X100.66Y-67.4
X103.2Y-59.78
X103.2Y-67.4
T4
X25.811Y-33.588
X25.811Y-35.62
X25.811Y-37.652
X25.811Y-39.684
X27.589Y-32.572
X27.589Y-34.604
X27.589Y-36.636
X27.589Y-38.668
X32.415Y-29.27
X32.415Y-31.556
X32.415Y-40.7
X32.415Y-42.986
X92.285Y-29.314
X92.285Y-31.6
X92.285Y-40.744
X92.285Y-43.03
X97.111Y-33.632
X97.111Y-35.664
X97.111Y-37.696
X97.111Y-39.728
X98.889Y-32.616
X98.889Y-34.648
X98.889Y-36.68
X98.889Y-38.712
T5
X51.56Y-24.02
X51.56Y-26.56
X51.56Y-29.1
X51.56Y-31.64
X51.56Y-34.18
X51.56Y-36.72
X51.56Y-39.26
X51.56Y-41.8
X51.56Y-44.34
X51.56Y-46.88
X51.56Y-49.42
X51.56Y-51.96
X51.56Y-54.5
X51.56Y-57.04
X51.56Y-59.58
X51.56Y-62.12
X51.56Y-64.66
X51.56Y-67.2
X51.56Y-69.74
X51.56Y-72.28
X66.8Y-24.02
X66.8Y-26.56
X66.8Y-29.1
X66.8Y-31.64
X66.8Y-34.18
X66.8Y-36.72
X66.8Y-39.26
X66.8Y-41.8
X66.8Y-44.34
X66.8Y-46.88
X66.8Y-49.42
X66.8Y-51.96
X66.8Y-54.5
X66.8Y-57.04
X66.8Y-59.58
X66.8Y-62.12
X66.8Y-64.66
X66.8Y-67.2
X66.8Y-69.74
X66.8Y-72.28
T6
X23.3Y-74.4
X23.7Y-52.0
X23.7Y-63.0
X25.8Y-74.4
X26.2Y-52.0
X26.2Y-63.0
X28.3Y-74.4
X28.7Y-52.0
X28.7Y-63.0
X36.0Y-52.0
X36.1Y-63.2
X36.2Y-74.7
X38.5Y-52.0
X38.6Y-63.2
X38.7Y-74.7
X41.0Y-52.0
X41.1Y-63.2
X41.2Y-74.7
X89.0Y-78.0
X89.6Y-90.3
X91.5Y-78.0
X92.1Y-90.3
X94.0Y-78.0
X94.6Y-90.3
X96.5Y-78.0
X99.0Y-78.0
X101.5Y-78.0
T7
X39.9Y-37.32
X39.9Y-39.86
X39.9Y-42.4
X44.0Y-90.6
X46.5Y-90.6
X53.2Y-90.6
X55.7Y-90.6
X62.35Y-90.575
X64.85Y-90.575
X71.5Y-90.6
X74.0Y-90.6
X77.76Y-25.1
X79.045Y-54.6
X80.3Y-25.1
X80.4Y-85.82
X80.4Y-88.36
X80.4Y-90.9
X81.585Y-54.6
X82.84Y-25.1
X84.125Y-54.6
X88.62Y-72.7
X91.16Y-72.7
X92.4Y-49.2
X92.4Y-51.7
X93.7Y-72.7
T8
X82.555Y-44.66
X82.555Y-47.2
X82.555Y-49.74
T9
X26.7Y-28.0
X26.7Y-44.256
X98.0Y-28.044
X98.0Y-44.3
T10
X31.3Y-90.2
X36.3Y-90.2
T2
X96.75Y-47.48G85X97.85Y-47.48
G05
X96.75Y-56.12G85X97.85Y-56.12
G05
X101.1Y-47.48G85X101.9Y-47.48
G05
X101.1Y-56.12G85X101.9Y-56.12
G05
M30
