%TF.GenerationSoftware,KiCad,Pcbnew,8.0.8*%
%TF.CreationDate,2025-09-27T22:11:26+09:00*%
%TF.ProjectId,esp_bluepill_board,6573705f-626c-4756-9570-696c6c5f626f,rev?*%
%TF.SameCoordinates,Original*%
%TF.FileFunction,Drillmap*%
%TF.FilePolarity,Positive*%
%FSLAX45Y45*%
G04 Gerber Fmt 4.5, Leading zero omitted, Abs format (unit mm)*
G04 Created by KiCad (PCBNEW 8.0.8) date 2025-09-27 22:11:26*
%MOMM*%
%LPD*%
G01*
G04 APERTURE LIST*
%ADD10C,0.050000*%
%ADD11C,0.200000*%
%ADD12C,0.100000*%
%ADD13C,0.110000*%
%ADD14C,0.162560*%
%ADD15C,0.270000*%
G04 APERTURE END LIST*
D10*
X2000000Y-9580000D02*
X2000000Y-2000000D01*
X10470000Y-9580000D02*
X2000000Y-9580000D01*
X10470000Y-5750000D02*
X10470000Y-9580000D01*
X10320000Y-5600000D02*
X10470000Y-5750000D01*
X10320000Y-4750000D02*
X10320000Y-5600000D01*
X10470000Y-4600000D02*
X10320000Y-4750000D01*
X10470000Y-2000000D02*
X10470000Y-4600000D01*
X2000000Y-2000000D02*
X10470000Y-2000000D01*
D11*
D12*
X2065000Y-2065000D02*
X2095000Y-2095000D01*
X2095000Y-2065000D02*
X2065000Y-2095000D01*
X2065000Y-8055000D02*
X2095000Y-8085000D01*
X2095000Y-8055000D02*
X2065000Y-8085000D01*
X2235000Y-3305000D02*
X2265000Y-3335000D01*
X2265000Y-3305000D02*
X2235000Y-3335000D01*
X2235000Y-3875000D02*
X2265000Y-3905000D01*
X2265000Y-3875000D02*
X2235000Y-3905000D01*
X2325000Y-5505000D02*
X2355000Y-5535000D01*
X2355000Y-5505000D02*
X2325000Y-5535000D01*
X2335000Y-6905000D02*
X2365000Y-6935000D01*
X2365000Y-6905000D02*
X2335000Y-6935000D01*
X2365000Y-6085000D02*
X2395000Y-6115000D01*
X2395000Y-6085000D02*
X2365000Y-6115000D01*
X2775000Y-5745000D02*
X2805000Y-5775000D01*
X2805000Y-5745000D02*
X2775000Y-5775000D01*
X2815000Y-2335000D02*
X2845000Y-2365000D01*
X2845000Y-2335000D02*
X2815000Y-2365000D01*
X2855000Y-3325000D02*
X2885000Y-3355000D01*
X2885000Y-3325000D02*
X2855000Y-3355000D01*
X2865000Y-3115000D02*
X2895000Y-3145000D01*
X2895000Y-3115000D02*
X2865000Y-3145000D01*
X2895000Y-7105000D02*
X2925000Y-7135000D01*
X2925000Y-7105000D02*
X2895000Y-7135000D01*
X2915000Y-5605000D02*
X2945000Y-5635000D01*
X2945000Y-5605000D02*
X2915000Y-5635000D01*
X2915000Y-5895000D02*
X2945000Y-5925000D01*
X2945000Y-5895000D02*
X2915000Y-5925000D01*
X3005000Y-8055000D02*
X3035000Y-8085000D01*
X3035000Y-8055000D02*
X3005000Y-8085000D01*
X3125000Y-4725000D02*
X3155000Y-4755000D01*
X3155000Y-4725000D02*
X3125000Y-4755000D01*
X3195000Y-3715000D02*
X3225000Y-3745000D01*
X3225000Y-3715000D02*
X3195000Y-3745000D01*
X3335000Y-4175000D02*
X3365000Y-4205000D01*
X3365000Y-4175000D02*
X3335000Y-4205000D01*
X3375000Y-5735000D02*
X3405000Y-5765000D01*
X3405000Y-5735000D02*
X3375000Y-5765000D01*
X3535000Y-2075000D02*
X3565000Y-2105000D01*
X3565000Y-2075000D02*
X3535000Y-2105000D01*
X3535000Y-6845000D02*
X3565000Y-6875000D01*
X3565000Y-6845000D02*
X3535000Y-6875000D01*
X3585000Y-3265000D02*
X3615000Y-3295000D01*
X3615000Y-3265000D02*
X3585000Y-3295000D01*
X3595000Y-3515000D02*
X3625000Y-3545000D01*
X3625000Y-3515000D02*
X3595000Y-3545000D01*
X3675000Y-5415000D02*
X3705000Y-5445000D01*
X3705000Y-5415000D02*
X3675000Y-5445000D01*
X3695000Y-2225000D02*
X3725000Y-2255000D01*
X3725000Y-2225000D02*
X3695000Y-2255000D01*
X3705000Y-3225000D02*
X3735000Y-3255000D01*
X3735000Y-3225000D02*
X3705000Y-3255000D01*
X3715000Y-3995000D02*
X3745000Y-4025000D01*
X3745000Y-3995000D02*
X3715000Y-4025000D01*
X3745000Y-6105000D02*
X3775000Y-6135000D01*
X3775000Y-6105000D02*
X3745000Y-6135000D01*
X3825000Y-3375000D02*
X3855000Y-3405000D01*
X3855000Y-3375000D02*
X3825000Y-3405000D01*
X3825000Y-7175000D02*
X3855000Y-7205000D01*
X3855000Y-7175000D02*
X3825000Y-7205000D01*
X3845000Y-2715000D02*
X3875000Y-2745000D01*
X3875000Y-2715000D02*
X3845000Y-2745000D01*
X3885000Y-4515000D02*
X3915000Y-4545000D01*
X3915000Y-4515000D02*
X3885000Y-4545000D01*
X3905000Y-4735000D02*
X3935000Y-4765000D01*
X3935000Y-4735000D02*
X3905000Y-4765000D01*
X3945000Y-3385000D02*
X3975000Y-3415000D01*
X3975000Y-3385000D02*
X3945000Y-3415000D01*
X3945000Y-5685000D02*
X3975000Y-5715000D01*
X3975000Y-5685000D02*
X3945000Y-5715000D01*
X3965000Y-8045000D02*
X3995000Y-8075000D01*
X3995000Y-8045000D02*
X3965000Y-8075000D01*
X3975000Y-6945000D02*
X4005000Y-6975000D01*
X4005000Y-6945000D02*
X3975000Y-6975000D01*
X4015000Y-3195000D02*
X4045000Y-3225000D01*
X4045000Y-3195000D02*
X4015000Y-3225000D01*
X4085000Y-5585000D02*
X4115000Y-5615000D01*
X4115000Y-5585000D02*
X4085000Y-5615000D01*
X4105000Y-5845000D02*
X4135000Y-5875000D01*
X4135000Y-5845000D02*
X4105000Y-5875000D01*
X4125000Y-4095000D02*
X4155000Y-4125000D01*
X4155000Y-4095000D02*
X4125000Y-4125000D01*
X4235000Y-5695000D02*
X4265000Y-5725000D01*
X4265000Y-5695000D02*
X4235000Y-5725000D01*
X4295000Y-6615000D02*
X4325000Y-6645000D01*
X4325000Y-6615000D02*
X4295000Y-6645000D01*
X4355000Y-4305000D02*
X4385000Y-4335000D01*
X4385000Y-4305000D02*
X4355000Y-4335000D01*
X4395000Y-3840000D02*
X4425000Y-3870000D01*
X4425000Y-3840000D02*
X4395000Y-3870000D01*
X4405000Y-2865000D02*
X4435000Y-2895000D01*
X4435000Y-2865000D02*
X4405000Y-2895000D01*
X4445000Y-5745000D02*
X4475000Y-5775000D01*
X4475000Y-5745000D02*
X4445000Y-5775000D01*
X4495000Y-4425000D02*
X4525000Y-4455000D01*
X4525000Y-4425000D02*
X4495000Y-4455000D01*
X4595000Y-6620000D02*
X4625000Y-6650000D01*
X4625000Y-6620000D02*
X4595000Y-6650000D01*
X4625000Y-2265000D02*
X4655000Y-2295000D01*
X4655000Y-2265000D02*
X4625000Y-2295000D01*
X4675000Y-4955000D02*
X4705000Y-4985000D01*
X4705000Y-4955000D02*
X4675000Y-4985000D01*
X4745000Y-3185000D02*
X4775000Y-3215000D01*
X4775000Y-3185000D02*
X4745000Y-3215000D01*
X4745000Y-3925000D02*
X4775000Y-3955000D01*
X4775000Y-3925000D02*
X4745000Y-3955000D01*
X4865000Y-2355000D02*
X4895000Y-2385000D01*
X4895000Y-2355000D02*
X4865000Y-2385000D01*
X4975000Y-3925000D02*
X5005000Y-3955000D01*
X5005000Y-3925000D02*
X4975000Y-3955000D01*
X4975000Y-5725000D02*
X5005000Y-5755000D01*
X5005000Y-5725000D02*
X4975000Y-5755000D01*
X4975000Y-6975000D02*
X5005000Y-7005000D01*
X5005000Y-6975000D02*
X4975000Y-7005000D01*
X4975000Y-7175000D02*
X5005000Y-7205000D01*
X5005000Y-7175000D02*
X4975000Y-7205000D01*
X4985000Y-3355000D02*
X5015000Y-3385000D01*
X5015000Y-3355000D02*
X4985000Y-3385000D01*
X4985000Y-4525000D02*
X5015000Y-4555000D01*
X5015000Y-4525000D02*
X4985000Y-4555000D01*
X4985000Y-6755000D02*
X5015000Y-6785000D01*
X5015000Y-6755000D02*
X4985000Y-6785000D01*
X4995000Y-3675000D02*
X5025000Y-3705000D01*
X5025000Y-3675000D02*
X4995000Y-3705000D01*
X5000000Y-6003000D02*
X5030000Y-6033000D01*
X5030000Y-6003000D02*
X5000000Y-6033000D01*
X5015886Y-5197525D02*
X5045886Y-5227525D01*
X5045886Y-5197525D02*
X5015886Y-5227525D01*
X5025000Y-2775000D02*
X5055000Y-2805000D01*
X5055000Y-2775000D02*
X5025000Y-2805000D01*
X5035000Y-2515000D02*
X5065000Y-2545000D01*
X5065000Y-2515000D02*
X5035000Y-2545000D01*
X5045000Y-4795000D02*
X5075000Y-4825000D01*
X5075000Y-4795000D02*
X5045000Y-4825000D01*
X5085000Y-7595000D02*
X5115000Y-7625000D01*
X5115000Y-7595000D02*
X5085000Y-7625000D01*
X5315000Y-3155000D02*
X5345000Y-3185000D01*
X5345000Y-3155000D02*
X5315000Y-3185000D01*
X5315000Y-4415000D02*
X5345000Y-4445000D01*
X5345000Y-4415000D02*
X5315000Y-4445000D01*
X5325000Y-5305000D02*
X5355000Y-5335000D01*
X5355000Y-5305000D02*
X5325000Y-5335000D01*
X5325000Y-6025000D02*
X5355000Y-6055000D01*
X5355000Y-6025000D02*
X5325000Y-6055000D01*
X5335000Y-3355000D02*
X5365000Y-3385000D01*
X5365000Y-3355000D02*
X5335000Y-3385000D01*
X5335000Y-4705000D02*
X5365000Y-4735000D01*
X5365000Y-4705000D02*
X5335000Y-4735000D01*
X5335000Y-5755000D02*
X5365000Y-5785000D01*
X5365000Y-5755000D02*
X5335000Y-5785000D01*
X5345000Y-2755000D02*
X5375000Y-2785000D01*
X5375000Y-2755000D02*
X5345000Y-2785000D01*
X5355000Y-2415000D02*
X5385000Y-2445000D01*
X5385000Y-2415000D02*
X5355000Y-2445000D01*
X5355000Y-7815000D02*
X5385000Y-7845000D01*
X5385000Y-7815000D02*
X5355000Y-7845000D01*
X5375000Y-3905000D02*
X5405000Y-3935000D01*
X5405000Y-3905000D02*
X5375000Y-3935000D01*
X5385000Y-7195000D02*
X5415000Y-7225000D01*
X5415000Y-7195000D02*
X5385000Y-7225000D01*
X5465000Y-6995000D02*
X5495000Y-7025000D01*
X5495000Y-6995000D02*
X5465000Y-7025000D01*
X5595000Y-6015000D02*
X5625000Y-6045000D01*
X5625000Y-6015000D02*
X5595000Y-6045000D01*
X5625000Y-6335000D02*
X5655000Y-6365000D01*
X5655000Y-6335000D02*
X5625000Y-6365000D01*
X5625000Y-6685000D02*
X5655000Y-6715000D01*
X5655000Y-6685000D02*
X5625000Y-6715000D01*
X5625000Y-7605000D02*
X5655000Y-7635000D01*
X5655000Y-7605000D02*
X5625000Y-7635000D01*
X5655000Y-5795000D02*
X5685000Y-5825000D01*
X5685000Y-5795000D02*
X5655000Y-5825000D01*
X5675000Y-7235000D02*
X5705000Y-7265000D01*
X5705000Y-7235000D02*
X5675000Y-7265000D01*
X5725000Y-2205000D02*
X5755000Y-2235000D01*
X5755000Y-2205000D02*
X5725000Y-2235000D01*
X5755000Y-6415000D02*
X5785000Y-6445000D01*
X5785000Y-6415000D02*
X5755000Y-6445000D01*
X5795000Y-3675000D02*
X5825000Y-3705000D01*
X5825000Y-3675000D02*
X5795000Y-3705000D01*
X5825000Y-6695000D02*
X5855000Y-6725000D01*
X5855000Y-6695000D02*
X5825000Y-6725000D01*
X5835000Y-4945000D02*
X5865000Y-4975000D01*
X5865000Y-4945000D02*
X5835000Y-4975000D01*
X5855000Y-6535000D02*
X5885000Y-6565000D01*
X5885000Y-6535000D02*
X5855000Y-6565000D01*
X5905000Y-7825000D02*
X5935000Y-7855000D01*
X5935000Y-7825000D02*
X5905000Y-7855000D01*
X5935000Y-6365000D02*
X5965000Y-6395000D01*
X5965000Y-6365000D02*
X5935000Y-6395000D01*
X5985000Y-3345000D02*
X6015000Y-3375000D01*
X6015000Y-3345000D02*
X5985000Y-3375000D01*
X6005000Y-6765000D02*
X6035000Y-6795000D01*
X6035000Y-6765000D02*
X6005000Y-6795000D01*
X6035000Y-5695000D02*
X6065000Y-5725000D01*
X6065000Y-5695000D02*
X6035000Y-5725000D01*
X6055000Y-6965000D02*
X6085000Y-6995000D01*
X6085000Y-6965000D02*
X6055000Y-6995000D01*
X6085000Y-7205000D02*
X6115000Y-7235000D01*
X6115000Y-7205000D02*
X6085000Y-7235000D01*
X6185000Y-7615000D02*
X6215000Y-7645000D01*
X6215000Y-7615000D02*
X6185000Y-7645000D01*
X6245000Y-2715000D02*
X6275000Y-2745000D01*
X6275000Y-2715000D02*
X6245000Y-2745000D01*
X6265000Y-6685000D02*
X6295000Y-6715000D01*
X6295000Y-6685000D02*
X6265000Y-6715000D01*
X6325000Y-4435000D02*
X6355000Y-4465000D01*
X6355000Y-4435000D02*
X6325000Y-4465000D01*
X6435000Y-7825000D02*
X6465000Y-7855000D01*
X6465000Y-7825000D02*
X6435000Y-7855000D01*
X6445000Y-6215000D02*
X6475000Y-6245000D01*
X6475000Y-6215000D02*
X6445000Y-6245000D01*
X6475000Y-6505000D02*
X6505000Y-6535000D01*
X6505000Y-6505000D02*
X6475000Y-6535000D01*
X6485000Y-6965000D02*
X6515000Y-6995000D01*
X6515000Y-6965000D02*
X6485000Y-6995000D01*
X6495000Y-3145000D02*
X6525000Y-3175000D01*
X6525000Y-3145000D02*
X6495000Y-3175000D01*
X6495000Y-4135000D02*
X6525000Y-4165000D01*
X6525000Y-4135000D02*
X6495000Y-4165000D01*
X6505000Y-3875000D02*
X6535000Y-3905000D01*
X6535000Y-3875000D02*
X6505000Y-3905000D01*
X6505000Y-5025000D02*
X6535000Y-5055000D01*
X6535000Y-5025000D02*
X6505000Y-5055000D01*
X6515000Y-7165000D02*
X6545000Y-7195000D01*
X6545000Y-7165000D02*
X6515000Y-7195000D01*
X6695000Y-7595000D02*
X6725000Y-7625000D01*
X6725000Y-7595000D02*
X6695000Y-7625000D01*
X6795000Y-4215000D02*
X6825000Y-4245000D01*
X6825000Y-4215000D02*
X6795000Y-4245000D01*
X6835000Y-5145000D02*
X6865000Y-5175000D01*
X6865000Y-5145000D02*
X6835000Y-5175000D01*
X6835000Y-6255000D02*
X6865000Y-6285000D01*
X6865000Y-6255000D02*
X6835000Y-6285000D01*
X6895000Y-6665000D02*
X6925000Y-6695000D01*
X6925000Y-6665000D02*
X6895000Y-6695000D01*
X6975000Y-5425000D02*
X7005000Y-5455000D01*
X7005000Y-5425000D02*
X6975000Y-5455000D01*
X7075000Y-4465000D02*
X7105000Y-4495000D01*
X7105000Y-4465000D02*
X7075000Y-4495000D01*
X7135000Y-2225000D02*
X7165000Y-2255000D01*
X7165000Y-2225000D02*
X7135000Y-2255000D01*
X7195000Y-3755000D02*
X7225000Y-3785000D01*
X7225000Y-3755000D02*
X7195000Y-3785000D01*
X7225000Y-6295000D02*
X7255000Y-6325000D01*
X7255000Y-6295000D02*
X7225000Y-6325000D01*
X7315000Y-6345000D02*
X7345000Y-6375000D01*
X7345000Y-6345000D02*
X7315000Y-6375000D01*
X7315000Y-6995000D02*
X7345000Y-7025000D01*
X7345000Y-6995000D02*
X7315000Y-7025000D01*
X7375000Y-4345000D02*
X7405000Y-4375000D01*
X7405000Y-4345000D02*
X7375000Y-4375000D01*
X7405000Y-5055000D02*
X7435000Y-5085000D01*
X7435000Y-5055000D02*
X7405000Y-5085000D01*
X7405000Y-8055000D02*
X7435000Y-8085000D01*
X7435000Y-8055000D02*
X7405000Y-8085000D01*
X7425000Y-6035000D02*
X7455000Y-6065000D01*
X7455000Y-6035000D02*
X7425000Y-6065000D01*
X7425000Y-6475000D02*
X7455000Y-6505000D01*
X7455000Y-6475000D02*
X7425000Y-6505000D01*
X7465000Y-6935000D02*
X7495000Y-6965000D01*
X7495000Y-6935000D02*
X7465000Y-6965000D01*
X7565000Y-2805000D02*
X7595000Y-2835000D01*
X7595000Y-2805000D02*
X7565000Y-2835000D01*
X7575000Y-4645000D02*
X7605000Y-4675000D01*
X7605000Y-4645000D02*
X7575000Y-4675000D01*
X7585000Y-2225000D02*
X7615000Y-2255000D01*
X7615000Y-2225000D02*
X7585000Y-2255000D01*
X7595000Y-5285000D02*
X7625000Y-5315000D01*
X7625000Y-5285000D02*
X7595000Y-5315000D01*
X7655000Y-8055000D02*
X7685000Y-8085000D01*
X7685000Y-8055000D02*
X7655000Y-8085000D01*
X7665000Y-4295000D02*
X7695000Y-4325000D01*
X7695000Y-4295000D02*
X7665000Y-4325000D01*
X7665000Y-6685000D02*
X7695000Y-6715000D01*
X7695000Y-6685000D02*
X7665000Y-6715000D01*
X7715000Y-3275000D02*
X7745000Y-3305000D01*
X7745000Y-3275000D02*
X7715000Y-3305000D01*
X7755000Y-4725000D02*
X7785000Y-4755000D01*
X7785000Y-4725000D02*
X7755000Y-4755000D01*
X7765000Y-3905000D02*
X7795000Y-3935000D01*
X7795000Y-3905000D02*
X7765000Y-3935000D01*
X7835000Y-7075000D02*
X7865000Y-7105000D01*
X7865000Y-7075000D02*
X7835000Y-7105000D01*
X7925000Y-2655000D02*
X7955000Y-2685000D01*
X7955000Y-2655000D02*
X7925000Y-2685000D01*
X7925000Y-6285000D02*
X7955000Y-6315000D01*
X7955000Y-6285000D02*
X7925000Y-6315000D01*
X7935000Y-3075000D02*
X7965000Y-3105000D01*
X7965000Y-3075000D02*
X7935000Y-3105000D01*
X7935000Y-5875000D02*
X7965000Y-5905000D01*
X7965000Y-5875000D02*
X7935000Y-5905000D01*
X7955000Y-3535000D02*
X7985000Y-3565000D01*
X7985000Y-3535000D02*
X7955000Y-3565000D01*
X8065000Y-3655000D02*
X8095000Y-3685000D01*
X8095000Y-3655000D02*
X8065000Y-3685000D01*
X8085000Y-2065000D02*
X8115000Y-2095000D01*
X8115000Y-2065000D02*
X8085000Y-2095000D01*
X8115000Y-4195000D02*
X8145000Y-4225000D01*
X8145000Y-4195000D02*
X8115000Y-4225000D01*
X8125000Y-6775000D02*
X8155000Y-6805000D01*
X8155000Y-6775000D02*
X8125000Y-6805000D01*
X8165000Y-3745000D02*
X8195000Y-3775000D01*
X8195000Y-3745000D02*
X8165000Y-3775000D01*
X8215000Y-8425000D02*
X8245000Y-8455000D01*
X8245000Y-8425000D02*
X8215000Y-8455000D01*
X8225000Y-2645000D02*
X8255000Y-2675000D01*
X8255000Y-2645000D02*
X8225000Y-2675000D01*
X8385000Y-3415000D02*
X8415000Y-3445000D01*
X8415000Y-3415000D02*
X8385000Y-3445000D01*
X8405000Y-6835000D02*
X8435000Y-6865000D01*
X8435000Y-6835000D02*
X8405000Y-6865000D01*
X8415000Y-5125000D02*
X8445000Y-5155000D01*
X8445000Y-5125000D02*
X8415000Y-5155000D01*
X8425000Y-7495000D02*
X8455000Y-7525000D01*
X8455000Y-7495000D02*
X8425000Y-7525000D01*
X8475000Y-4515000D02*
X8505000Y-4545000D01*
X8505000Y-4515000D02*
X8475000Y-4545000D01*
X8495000Y-5795000D02*
X8525000Y-5825000D01*
X8525000Y-5795000D02*
X8495000Y-5825000D01*
X8525000Y-6365000D02*
X8555000Y-6395000D01*
X8555000Y-6365000D02*
X8525000Y-6395000D01*
X8555000Y-5375000D02*
X8585000Y-5405000D01*
X8585000Y-5375000D02*
X8555000Y-5405000D01*
X8605000Y-2855000D02*
X8635000Y-2885000D01*
X8635000Y-2855000D02*
X8605000Y-2885000D01*
X8675000Y-3235000D02*
X8705000Y-3265000D01*
X8705000Y-3235000D02*
X8675000Y-3265000D01*
X8705000Y-3745000D02*
X8735000Y-3775000D01*
X8735000Y-3745000D02*
X8705000Y-3775000D01*
X8725000Y-2145000D02*
X8755000Y-2175000D01*
X8755000Y-2145000D02*
X8725000Y-2175000D01*
X8755000Y-5125000D02*
X8785000Y-5155000D01*
X8785000Y-5125000D02*
X8755000Y-5155000D01*
X8805000Y-4535000D02*
X8835000Y-4565000D01*
X8835000Y-4535000D02*
X8805000Y-4565000D01*
X8805000Y-8045000D02*
X8835000Y-8075000D01*
X8835000Y-8045000D02*
X8805000Y-8075000D01*
X8905000Y-3675000D02*
X8935000Y-3705000D01*
X8935000Y-3675000D02*
X8905000Y-3705000D01*
X8915000Y-3915000D02*
X8945000Y-3945000D01*
X8945000Y-3915000D02*
X8915000Y-3945000D01*
X8925000Y-2445000D02*
X8955000Y-2475000D01*
X8955000Y-2445000D02*
X8925000Y-2475000D01*
X8965000Y-5485000D02*
X8995000Y-5515000D01*
X8995000Y-5485000D02*
X8965000Y-5515000D01*
X9105000Y-3035000D02*
X9135000Y-3065000D01*
X9135000Y-3035000D02*
X9105000Y-3065000D01*
X9135000Y-8025000D02*
X9165000Y-8055000D01*
X9165000Y-8025000D02*
X9135000Y-8055000D01*
X9165000Y-5525000D02*
X9195000Y-5555000D01*
X9195000Y-5525000D02*
X9165000Y-5555000D01*
X9315000Y-2205000D02*
X9345000Y-2235000D01*
X9345000Y-2205000D02*
X9315000Y-2235000D01*
X9445000Y-3655000D02*
X9475000Y-3685000D01*
X9475000Y-3655000D02*
X9445000Y-3685000D01*
X9565000Y-3465000D02*
X9595000Y-3495000D01*
X9595000Y-3465000D02*
X9565000Y-3495000D01*
X9595000Y-2285000D02*
X9625000Y-2315000D01*
X9625000Y-2285000D02*
X9595000Y-2315000D01*
X9595000Y-3105000D02*
X9625000Y-3135000D01*
X9625000Y-3105000D02*
X9595000Y-3135000D01*
X9645000Y-8025000D02*
X9675000Y-8055000D01*
X9675000Y-8025000D02*
X9645000Y-8055000D01*
X9675000Y-6845000D02*
X9705000Y-6875000D01*
X9705000Y-6845000D02*
X9675000Y-6875000D01*
X9705000Y-6215000D02*
X9735000Y-6245000D01*
X9735000Y-6215000D02*
X9705000Y-6245000D01*
X9935000Y-4555000D02*
X9965000Y-4585000D01*
X9965000Y-4555000D02*
X9935000Y-4585000D01*
X10065000Y-7185000D02*
X10095000Y-7215000D01*
X10095000Y-7185000D02*
X10065000Y-7215000D01*
X10175000Y-3925000D02*
X10205000Y-3955000D01*
X10205000Y-3925000D02*
X10175000Y-3955000D01*
X10365000Y-4555000D02*
X10395000Y-4585000D01*
X10395000Y-4555000D02*
X10365000Y-4585000D01*
X10375000Y-2065000D02*
X10405000Y-2095000D01*
X10405000Y-2065000D02*
X10375000Y-2095000D01*
X10375000Y-6115000D02*
X10405000Y-6145000D01*
X10405000Y-6115000D02*
X10375000Y-6145000D01*
X10375000Y-8055000D02*
X10405000Y-8085000D01*
X10405000Y-8055000D02*
X10375000Y-8085000D01*
X9760000Y-4748000D02*
G75*
G02*
X9700000Y-4748000I-30000J0D01*
G01*
X9700000Y-4748000D02*
G75*
G02*
X9760000Y-4748000I30000J0D01*
G01*
X9675000Y-4778000D02*
X9785000Y-4778000D01*
X9785000Y-4718000D02*
G75*
G02*
X9785000Y-4778000I0J-30000D01*
G01*
X9785000Y-4718000D02*
X9675000Y-4718000D01*
X9675000Y-4718000D02*
G75*
G03*
X9675000Y-4778000I0J-30000D01*
G01*
X9760000Y-5612000D02*
G75*
G02*
X9700000Y-5612000I-30000J0D01*
G01*
X9700000Y-5612000D02*
G75*
G02*
X9760000Y-5612000I30000J0D01*
G01*
X9675000Y-5642000D02*
X9785000Y-5642000D01*
X9785000Y-5582000D02*
G75*
G02*
X9785000Y-5642000I0J-30000D01*
G01*
X9785000Y-5582000D02*
X9675000Y-5582000D01*
X9675000Y-5582000D02*
G75*
G03*
X9675000Y-5642000I0J-30000D01*
G01*
X10180000Y-4748000D02*
G75*
G02*
X10120000Y-4748000I-30000J0D01*
G01*
X10120000Y-4748000D02*
G75*
G02*
X10180000Y-4748000I30000J0D01*
G01*
X10110000Y-4778000D02*
X10190000Y-4778000D01*
X10190000Y-4718000D02*
G75*
G02*
X10190000Y-4778000I0J-30000D01*
G01*
X10190000Y-4718000D02*
X10110000Y-4718000D01*
X10110000Y-4718000D02*
G75*
G03*
X10110000Y-4778000I0J-30000D01*
G01*
X10180000Y-5612000D02*
G75*
G02*
X10120000Y-5612000I-30000J0D01*
G01*
X10120000Y-5612000D02*
G75*
G02*
X10180000Y-5612000I30000J0D01*
G01*
X10110000Y-5642000D02*
X10190000Y-5642000D01*
X10190000Y-5582000D02*
G75*
G02*
X10190000Y-5642000I0J-30000D01*
G01*
X10190000Y-5582000D02*
X10110000Y-5582000D01*
X10110000Y-5582000D02*
G75*
G03*
X10110000Y-5642000I0J-30000D01*
G01*
X8288000Y-5939900D02*
X8288000Y-6016100D01*
X8249900Y-5978000D02*
X8326100Y-5978000D01*
X8288000Y-6701900D02*
X8288000Y-6778100D01*
X8249900Y-6740000D02*
X8326100Y-6740000D01*
X8542000Y-5939900D02*
X8542000Y-6016100D01*
X8503900Y-5978000D02*
X8580100Y-5978000D01*
X8542000Y-6701900D02*
X8542000Y-6778100D01*
X8503900Y-6740000D02*
X8580100Y-6740000D01*
X8796000Y-5939900D02*
X8796000Y-6016100D01*
X8757900Y-5978000D02*
X8834100Y-5978000D01*
X8796000Y-6701900D02*
X8796000Y-6778100D01*
X8757900Y-6740000D02*
X8834100Y-6740000D01*
X9050000Y-5939900D02*
X9050000Y-6016100D01*
X9011900Y-5978000D02*
X9088100Y-5978000D01*
X9050000Y-6701900D02*
X9050000Y-6778100D01*
X9011900Y-6740000D02*
X9088100Y-6740000D01*
X9304000Y-5939900D02*
X9304000Y-6016100D01*
X9265900Y-5978000D02*
X9342100Y-5978000D01*
X9304000Y-6701900D02*
X9304000Y-6778100D01*
X9265900Y-6740000D02*
X9342100Y-6740000D01*
X9558000Y-5939900D02*
X9558000Y-6016100D01*
X9519900Y-5978000D02*
X9596100Y-5978000D01*
X9558000Y-6701900D02*
X9558000Y-6778100D01*
X9519900Y-6740000D02*
X9596100Y-6740000D01*
X9812000Y-5939900D02*
X9812000Y-6016100D01*
X9773900Y-5978000D02*
X9850100Y-5978000D01*
X9812000Y-6701900D02*
X9812000Y-6778100D01*
X9773900Y-6740000D02*
X9850100Y-6740000D01*
X10066000Y-5939900D02*
X10066000Y-6016100D01*
X10027900Y-5978000D02*
X10104100Y-5978000D01*
X10066000Y-6701900D02*
X10066000Y-6778100D01*
X10027900Y-6740000D02*
X10104100Y-6740000D01*
X10320000Y-5939900D02*
X10320000Y-6016100D01*
X10281900Y-5978000D02*
X10358100Y-5978000D01*
X10320000Y-6701900D02*
X10320000Y-6778100D01*
X10281900Y-6740000D02*
X10358100Y-6740000D01*
X2612531Y-3390231D02*
X2612531Y-3327369D01*
X2549669Y-3327369D01*
X2549669Y-3390231D01*
X2612531Y-3390231D01*
X2612531Y-3593431D02*
X2612531Y-3530569D01*
X2549669Y-3530569D01*
X2549669Y-3593431D01*
X2612531Y-3593431D01*
X2612531Y-3796631D02*
X2612531Y-3733769D01*
X2549669Y-3733769D01*
X2549669Y-3796631D01*
X2612531Y-3796631D01*
X2612531Y-3999831D02*
X2612531Y-3936969D01*
X2549669Y-3936969D01*
X2549669Y-3999831D01*
X2612531Y-3999831D01*
X2790331Y-3288631D02*
X2790331Y-3225769D01*
X2727469Y-3225769D01*
X2727469Y-3288631D01*
X2790331Y-3288631D01*
X2790331Y-3491831D02*
X2790331Y-3428969D01*
X2727469Y-3428969D01*
X2727469Y-3491831D01*
X2790331Y-3491831D01*
X2790331Y-3695031D02*
X2790331Y-3632169D01*
X2727469Y-3632169D01*
X2727469Y-3695031D01*
X2790331Y-3695031D01*
X2790331Y-3898231D02*
X2790331Y-3835369D01*
X2727469Y-3835369D01*
X2727469Y-3898231D01*
X2790331Y-3898231D01*
X3272931Y-2958431D02*
X3272931Y-2895569D01*
X3210069Y-2895569D01*
X3210069Y-2958431D01*
X3272931Y-2958431D01*
X3272931Y-3187031D02*
X3272931Y-3124169D01*
X3210069Y-3124169D01*
X3210069Y-3187031D01*
X3272931Y-3187031D01*
X3272931Y-4101431D02*
X3272931Y-4038569D01*
X3210069Y-4038569D01*
X3210069Y-4101431D01*
X3272931Y-4101431D01*
X3272931Y-4330031D02*
X3272931Y-4267169D01*
X3210069Y-4267169D01*
X3210069Y-4330031D01*
X3272931Y-4330031D01*
X9259931Y-2962831D02*
X9259931Y-2899969D01*
X9197069Y-2899969D01*
X9197069Y-2962831D01*
X9259931Y-2962831D01*
X9259931Y-3191431D02*
X9259931Y-3128569D01*
X9197069Y-3128569D01*
X9197069Y-3191431D01*
X9259931Y-3191431D01*
X9259931Y-4105831D02*
X9259931Y-4042969D01*
X9197069Y-4042969D01*
X9197069Y-4105831D01*
X9259931Y-4105831D01*
X9259931Y-4334431D02*
X9259931Y-4271569D01*
X9197069Y-4271569D01*
X9197069Y-4334431D01*
X9259931Y-4334431D01*
X9742531Y-3394631D02*
X9742531Y-3331769D01*
X9679669Y-3331769D01*
X9679669Y-3394631D01*
X9742531Y-3394631D01*
X9742531Y-3597831D02*
X9742531Y-3534969D01*
X9679669Y-3534969D01*
X9679669Y-3597831D01*
X9742531Y-3597831D01*
X9742531Y-3801031D02*
X9742531Y-3738169D01*
X9679669Y-3738169D01*
X9679669Y-3801031D01*
X9742531Y-3801031D01*
X9742531Y-4004231D02*
X9742531Y-3941369D01*
X9679669Y-3941369D01*
X9679669Y-4004231D01*
X9742531Y-4004231D01*
X9920331Y-3293031D02*
X9920331Y-3230169D01*
X9857469Y-3230169D01*
X9857469Y-3293031D01*
X9920331Y-3293031D01*
X9920331Y-3496231D02*
X9920331Y-3433369D01*
X9857469Y-3433369D01*
X9857469Y-3496231D01*
X9920331Y-3496231D01*
X9920331Y-3699431D02*
X9920331Y-3636569D01*
X9857469Y-3636569D01*
X9857469Y-3699431D01*
X9920331Y-3699431D01*
X9920331Y-3902631D02*
X9920331Y-3839769D01*
X9857469Y-3839769D01*
X9857469Y-3902631D01*
X9920331Y-3902631D01*
X5156000Y-2447000D02*
X5201000Y-2402000D01*
X5156000Y-2357000D01*
X5111000Y-2402000D01*
X5156000Y-2447000D01*
X5156000Y-2701000D02*
X5201000Y-2656000D01*
X5156000Y-2611000D01*
X5111000Y-2656000D01*
X5156000Y-2701000D01*
X5156000Y-2955000D02*
X5201000Y-2910000D01*
X5156000Y-2865000D01*
X5111000Y-2910000D01*
X5156000Y-2955000D01*
X5156000Y-3209000D02*
X5201000Y-3164000D01*
X5156000Y-3119000D01*
X5111000Y-3164000D01*
X5156000Y-3209000D01*
X5156000Y-3463000D02*
X5201000Y-3418000D01*
X5156000Y-3373000D01*
X5111000Y-3418000D01*
X5156000Y-3463000D01*
X5156000Y-3717000D02*
X5201000Y-3672000D01*
X5156000Y-3627000D01*
X5111000Y-3672000D01*
X5156000Y-3717000D01*
X5156000Y-3971000D02*
X5201000Y-3926000D01*
X5156000Y-3881000D01*
X5111000Y-3926000D01*
X5156000Y-3971000D01*
X5156000Y-4225000D02*
X5201000Y-4180000D01*
X5156000Y-4135000D01*
X5111000Y-4180000D01*
X5156000Y-4225000D01*
X5156000Y-4479000D02*
X5201000Y-4434000D01*
X5156000Y-4389000D01*
X5111000Y-4434000D01*
X5156000Y-4479000D01*
X5156000Y-4733000D02*
X5201000Y-4688000D01*
X5156000Y-4643000D01*
X5111000Y-4688000D01*
X5156000Y-4733000D01*
X5156000Y-4987000D02*
X5201000Y-4942000D01*
X5156000Y-4897000D01*
X5111000Y-4942000D01*
X5156000Y-4987000D01*
X5156000Y-5241000D02*
X5201000Y-5196000D01*
X5156000Y-5151000D01*
X5111000Y-5196000D01*
X5156000Y-5241000D01*
X5156000Y-5495000D02*
X5201000Y-5450000D01*
X5156000Y-5405000D01*
X5111000Y-5450000D01*
X5156000Y-5495000D01*
X5156000Y-5749000D02*
X5201000Y-5704000D01*
X5156000Y-5659000D01*
X5111000Y-5704000D01*
X5156000Y-5749000D01*
X5156000Y-6003000D02*
X5201000Y-5958000D01*
X5156000Y-5913000D01*
X5111000Y-5958000D01*
X5156000Y-6003000D01*
X5156000Y-6257000D02*
X5201000Y-6212000D01*
X5156000Y-6167000D01*
X5111000Y-6212000D01*
X5156000Y-6257000D01*
X5156000Y-6511000D02*
X5201000Y-6466000D01*
X5156000Y-6421000D01*
X5111000Y-6466000D01*
X5156000Y-6511000D01*
X5156000Y-6765000D02*
X5201000Y-6720000D01*
X5156000Y-6675000D01*
X5111000Y-6720000D01*
X5156000Y-6765000D01*
X5156000Y-7019000D02*
X5201000Y-6974000D01*
X5156000Y-6929000D01*
X5111000Y-6974000D01*
X5156000Y-7019000D01*
X5156000Y-7273000D02*
X5201000Y-7228000D01*
X5156000Y-7183000D01*
X5111000Y-7228000D01*
X5156000Y-7273000D01*
X6680000Y-2447000D02*
X6725000Y-2402000D01*
X6680000Y-2357000D01*
X6635000Y-2402000D01*
X6680000Y-2447000D01*
X6680000Y-2701000D02*
X6725000Y-2656000D01*
X6680000Y-2611000D01*
X6635000Y-2656000D01*
X6680000Y-2701000D01*
X6680000Y-2955000D02*
X6725000Y-2910000D01*
X6680000Y-2865000D01*
X6635000Y-2910000D01*
X6680000Y-2955000D01*
X6680000Y-3209000D02*
X6725000Y-3164000D01*
X6680000Y-3119000D01*
X6635000Y-3164000D01*
X6680000Y-3209000D01*
X6680000Y-3463000D02*
X6725000Y-3418000D01*
X6680000Y-3373000D01*
X6635000Y-3418000D01*
X6680000Y-3463000D01*
X6680000Y-3717000D02*
X6725000Y-3672000D01*
X6680000Y-3627000D01*
X6635000Y-3672000D01*
X6680000Y-3717000D01*
X6680000Y-3971000D02*
X6725000Y-3926000D01*
X6680000Y-3881000D01*
X6635000Y-3926000D01*
X6680000Y-3971000D01*
X6680000Y-4225000D02*
X6725000Y-4180000D01*
X6680000Y-4135000D01*
X6635000Y-4180000D01*
X6680000Y-4225000D01*
X6680000Y-4479000D02*
X6725000Y-4434000D01*
X6680000Y-4389000D01*
X6635000Y-4434000D01*
X6680000Y-4479000D01*
X6680000Y-4733000D02*
X6725000Y-4688000D01*
X6680000Y-4643000D01*
X6635000Y-4688000D01*
X6680000Y-4733000D01*
X6680000Y-4987000D02*
X6725000Y-4942000D01*
X6680000Y-4897000D01*
X6635000Y-4942000D01*
X6680000Y-4987000D01*
X6680000Y-5241000D02*
X6725000Y-5196000D01*
X6680000Y-5151000D01*
X6635000Y-5196000D01*
X6680000Y-5241000D01*
X6680000Y-5495000D02*
X6725000Y-5450000D01*
X6680000Y-5405000D01*
X6635000Y-5450000D01*
X6680000Y-5495000D01*
X6680000Y-5749000D02*
X6725000Y-5704000D01*
X6680000Y-5659000D01*
X6635000Y-5704000D01*
X6680000Y-5749000D01*
X6680000Y-6003000D02*
X6725000Y-5958000D01*
X6680000Y-5913000D01*
X6635000Y-5958000D01*
X6680000Y-6003000D01*
X6680000Y-6257000D02*
X6725000Y-6212000D01*
X6680000Y-6167000D01*
X6635000Y-6212000D01*
X6680000Y-6257000D01*
X6680000Y-6511000D02*
X6725000Y-6466000D01*
X6680000Y-6421000D01*
X6635000Y-6466000D01*
X6680000Y-6511000D01*
X6680000Y-6765000D02*
X6725000Y-6720000D01*
X6680000Y-6675000D01*
X6635000Y-6720000D01*
X6680000Y-6765000D01*
X6680000Y-7019000D02*
X6725000Y-6974000D01*
X6680000Y-6929000D01*
X6635000Y-6974000D01*
X6680000Y-7019000D01*
X6680000Y-7273000D02*
X6725000Y-7228000D01*
X6680000Y-7183000D01*
X6635000Y-7228000D01*
X6680000Y-7273000D01*
X2282500Y-7392500D02*
X2377500Y-7487500D01*
X2377500Y-7392500D02*
X2282500Y-7487500D01*
X2377500Y-7440000D02*
G75*
G02*
X2282500Y-7440000I-47500J0D01*
G01*
X2282500Y-7440000D02*
G75*
G02*
X2377500Y-7440000I47500J0D01*
G01*
X2322500Y-5152500D02*
X2417500Y-5247500D01*
X2417500Y-5152500D02*
X2322500Y-5247500D01*
X2417500Y-5200000D02*
G75*
G02*
X2322500Y-5200000I-47500J0D01*
G01*
X2322500Y-5200000D02*
G75*
G02*
X2417500Y-5200000I47500J0D01*
G01*
X2322500Y-6252500D02*
X2417500Y-6347500D01*
X2417500Y-6252500D02*
X2322500Y-6347500D01*
X2417500Y-6300000D02*
G75*
G02*
X2322500Y-6300000I-47500J0D01*
G01*
X2322500Y-6300000D02*
G75*
G02*
X2417500Y-6300000I47500J0D01*
G01*
X2532500Y-7392500D02*
X2627500Y-7487500D01*
X2627500Y-7392500D02*
X2532500Y-7487500D01*
X2627500Y-7440000D02*
G75*
G02*
X2532500Y-7440000I-47500J0D01*
G01*
X2532500Y-7440000D02*
G75*
G02*
X2627500Y-7440000I47500J0D01*
G01*
X2572500Y-5152500D02*
X2667500Y-5247500D01*
X2667500Y-5152500D02*
X2572500Y-5247500D01*
X2667500Y-5200000D02*
G75*
G02*
X2572500Y-5200000I-47500J0D01*
G01*
X2572500Y-5200000D02*
G75*
G02*
X2667500Y-5200000I47500J0D01*
G01*
X2572500Y-6252500D02*
X2667500Y-6347500D01*
X2667500Y-6252500D02*
X2572500Y-6347500D01*
X2667500Y-6300000D02*
G75*
G02*
X2572500Y-6300000I-47500J0D01*
G01*
X2572500Y-6300000D02*
G75*
G02*
X2667500Y-6300000I47500J0D01*
G01*
X2782500Y-7392500D02*
X2877500Y-7487500D01*
X2877500Y-7392500D02*
X2782500Y-7487500D01*
X2877500Y-7440000D02*
G75*
G02*
X2782500Y-7440000I-47500J0D01*
G01*
X2782500Y-7440000D02*
G75*
G02*
X2877500Y-7440000I47500J0D01*
G01*
X2822500Y-5152500D02*
X2917500Y-5247500D01*
X2917500Y-5152500D02*
X2822500Y-5247500D01*
X2917500Y-5200000D02*
G75*
G02*
X2822500Y-5200000I-47500J0D01*
G01*
X2822500Y-5200000D02*
G75*
G02*
X2917500Y-5200000I47500J0D01*
G01*
X2822500Y-6252500D02*
X2917500Y-6347500D01*
X2917500Y-6252500D02*
X2822500Y-6347500D01*
X2917500Y-6300000D02*
G75*
G02*
X2822500Y-6300000I-47500J0D01*
G01*
X2822500Y-6300000D02*
G75*
G02*
X2917500Y-6300000I47500J0D01*
G01*
X3552500Y-5152500D02*
X3647500Y-5247500D01*
X3647500Y-5152500D02*
X3552500Y-5247500D01*
X3647500Y-5200000D02*
G75*
G02*
X3552500Y-5200000I-47500J0D01*
G01*
X3552500Y-5200000D02*
G75*
G02*
X3647500Y-5200000I47500J0D01*
G01*
X3562500Y-6272500D02*
X3657500Y-6367500D01*
X3657500Y-6272500D02*
X3562500Y-6367500D01*
X3657500Y-6320000D02*
G75*
G02*
X3562500Y-6320000I-47500J0D01*
G01*
X3562500Y-6320000D02*
G75*
G02*
X3657500Y-6320000I47500J0D01*
G01*
X3572500Y-7422500D02*
X3667500Y-7517500D01*
X3667500Y-7422500D02*
X3572500Y-7517500D01*
X3667500Y-7470000D02*
G75*
G02*
X3572500Y-7470000I-47500J0D01*
G01*
X3572500Y-7470000D02*
G75*
G02*
X3667500Y-7470000I47500J0D01*
G01*
X3802500Y-5152500D02*
X3897500Y-5247500D01*
X3897500Y-5152500D02*
X3802500Y-5247500D01*
X3897500Y-5200000D02*
G75*
G02*
X3802500Y-5200000I-47500J0D01*
G01*
X3802500Y-5200000D02*
G75*
G02*
X3897500Y-5200000I47500J0D01*
G01*
X3812500Y-6272500D02*
X3907500Y-6367500D01*
X3907500Y-6272500D02*
X3812500Y-6367500D01*
X3907500Y-6320000D02*
G75*
G02*
X3812500Y-6320000I-47500J0D01*
G01*
X3812500Y-6320000D02*
G75*
G02*
X3907500Y-6320000I47500J0D01*
G01*
X3822500Y-7422500D02*
X3917500Y-7517500D01*
X3917500Y-7422500D02*
X3822500Y-7517500D01*
X3917500Y-7470000D02*
G75*
G02*
X3822500Y-7470000I-47500J0D01*
G01*
X3822500Y-7470000D02*
G75*
G02*
X3917500Y-7470000I47500J0D01*
G01*
X4052500Y-5152500D02*
X4147500Y-5247500D01*
X4147500Y-5152500D02*
X4052500Y-5247500D01*
X4147500Y-5200000D02*
G75*
G02*
X4052500Y-5200000I-47500J0D01*
G01*
X4052500Y-5200000D02*
G75*
G02*
X4147500Y-5200000I47500J0D01*
G01*
X4062500Y-6272500D02*
X4157500Y-6367500D01*
X4157500Y-6272500D02*
X4062500Y-6367500D01*
X4157500Y-6320000D02*
G75*
G02*
X4062500Y-6320000I-47500J0D01*
G01*
X4062500Y-6320000D02*
G75*
G02*
X4157500Y-6320000I47500J0D01*
G01*
X4072500Y-7422500D02*
X4167500Y-7517500D01*
X4167500Y-7422500D02*
X4072500Y-7517500D01*
X4167500Y-7470000D02*
G75*
G02*
X4072500Y-7470000I-47500J0D01*
G01*
X4072500Y-7470000D02*
G75*
G02*
X4167500Y-7470000I47500J0D01*
G01*
X8852500Y-7752500D02*
X8947500Y-7847500D01*
X8947500Y-7752500D02*
X8852500Y-7847500D01*
X8947500Y-7800000D02*
G75*
G02*
X8852500Y-7800000I-47500J0D01*
G01*
X8852500Y-7800000D02*
G75*
G02*
X8947500Y-7800000I47500J0D01*
G01*
X8912500Y-8982500D02*
X9007500Y-9077500D01*
X9007500Y-8982500D02*
X8912500Y-9077500D01*
X9007500Y-9030000D02*
G75*
G02*
X8912500Y-9030000I-47500J0D01*
G01*
X8912500Y-9030000D02*
G75*
G02*
X9007500Y-9030000I47500J0D01*
G01*
X9102500Y-7752500D02*
X9197500Y-7847500D01*
X9197500Y-7752500D02*
X9102500Y-7847500D01*
X9197500Y-7800000D02*
G75*
G02*
X9102500Y-7800000I-47500J0D01*
G01*
X9102500Y-7800000D02*
G75*
G02*
X9197500Y-7800000I47500J0D01*
G01*
X9162500Y-8982500D02*
X9257500Y-9077500D01*
X9257500Y-8982500D02*
X9162500Y-9077500D01*
X9257500Y-9030000D02*
G75*
G02*
X9162500Y-9030000I-47500J0D01*
G01*
X9162500Y-9030000D02*
G75*
G02*
X9257500Y-9030000I47500J0D01*
G01*
X9352500Y-7752500D02*
X9447500Y-7847500D01*
X9447500Y-7752500D02*
X9352500Y-7847500D01*
X9447500Y-7800000D02*
G75*
G02*
X9352500Y-7800000I-47500J0D01*
G01*
X9352500Y-7800000D02*
G75*
G02*
X9447500Y-7800000I47500J0D01*
G01*
X9412500Y-8982500D02*
X9507500Y-9077500D01*
X9507500Y-8982500D02*
X9412500Y-9077500D01*
X9507500Y-9030000D02*
G75*
G02*
X9412500Y-9030000I-47500J0D01*
G01*
X9412500Y-9030000D02*
G75*
G02*
X9507500Y-9030000I47500J0D01*
G01*
X9602500Y-7752500D02*
X9697500Y-7847500D01*
X9697500Y-7752500D02*
X9602500Y-7847500D01*
X9697500Y-7800000D02*
G75*
G02*
X9602500Y-7800000I-47500J0D01*
G01*
X9602500Y-7800000D02*
G75*
G02*
X9697500Y-7800000I47500J0D01*
G01*
X9852500Y-7752500D02*
X9947500Y-7847500D01*
X9947500Y-7752500D02*
X9852500Y-7847500D01*
X9947500Y-7800000D02*
G75*
G02*
X9852500Y-7800000I-47500J0D01*
G01*
X9852500Y-7800000D02*
G75*
G02*
X9947500Y-7800000I47500J0D01*
G01*
X10102500Y-7752500D02*
X10197500Y-7847500D01*
X10197500Y-7752500D02*
X10102500Y-7847500D01*
X10197500Y-7800000D02*
G75*
G02*
X10102500Y-7800000I-47500J0D01*
G01*
X10102500Y-7800000D02*
G75*
G02*
X10197500Y-7800000I47500J0D01*
G01*
X3940000Y-3682000D02*
X4040000Y-3782000D01*
X4040000Y-3682000D02*
X3940000Y-3782000D01*
X3990000Y-3682000D02*
X3990000Y-3782000D01*
X3940000Y-3732000D02*
X4040000Y-3732000D01*
X3940000Y-3936000D02*
X4040000Y-4036000D01*
X4040000Y-3936000D02*
X3940000Y-4036000D01*
X3990000Y-3936000D02*
X3990000Y-4036000D01*
X3940000Y-3986000D02*
X4040000Y-3986000D01*
X3940000Y-4190000D02*
X4040000Y-4290000D01*
X4040000Y-4190000D02*
X3940000Y-4290000D01*
X3990000Y-4190000D02*
X3990000Y-4290000D01*
X3940000Y-4240000D02*
X4040000Y-4240000D01*
X4350000Y-9010000D02*
X4450000Y-9110000D01*
X4450000Y-9010000D02*
X4350000Y-9110000D01*
X4400000Y-9010000D02*
X4400000Y-9110000D01*
X4350000Y-9060000D02*
X4450000Y-9060000D01*
X4600000Y-9010000D02*
X4700000Y-9110000D01*
X4700000Y-9010000D02*
X4600000Y-9110000D01*
X4650000Y-9010000D02*
X4650000Y-9110000D01*
X4600000Y-9060000D02*
X4700000Y-9060000D01*
X5270000Y-9010000D02*
X5370000Y-9110000D01*
X5370000Y-9010000D02*
X5270000Y-9110000D01*
X5320000Y-9010000D02*
X5320000Y-9110000D01*
X5270000Y-9060000D02*
X5370000Y-9060000D01*
X5520000Y-9010000D02*
X5620000Y-9110000D01*
X5620000Y-9010000D02*
X5520000Y-9110000D01*
X5570000Y-9010000D02*
X5570000Y-9110000D01*
X5520000Y-9060000D02*
X5620000Y-9060000D01*
X6185000Y-9007500D02*
X6285000Y-9107500D01*
X6285000Y-9007500D02*
X6185000Y-9107500D01*
X6235000Y-9007500D02*
X6235000Y-9107500D01*
X6185000Y-9057500D02*
X6285000Y-9057500D01*
X6435000Y-9007500D02*
X6535000Y-9107500D01*
X6535000Y-9007500D02*
X6435000Y-9107500D01*
X6485000Y-9007500D02*
X6485000Y-9107500D01*
X6435000Y-9057500D02*
X6535000Y-9057500D01*
X7100000Y-9010000D02*
X7200000Y-9110000D01*
X7200000Y-9010000D02*
X7100000Y-9110000D01*
X7150000Y-9010000D02*
X7150000Y-9110000D01*
X7100000Y-9060000D02*
X7200000Y-9060000D01*
X7350000Y-9010000D02*
X7450000Y-9110000D01*
X7450000Y-9010000D02*
X7350000Y-9110000D01*
X7400000Y-9010000D02*
X7400000Y-9110000D01*
X7350000Y-9060000D02*
X7450000Y-9060000D01*
X7726000Y-2460000D02*
X7826000Y-2560000D01*
X7826000Y-2460000D02*
X7726000Y-2560000D01*
X7776000Y-2460000D02*
X7776000Y-2560000D01*
X7726000Y-2510000D02*
X7826000Y-2510000D01*
X7854500Y-5410000D02*
X7954500Y-5510000D01*
X7954500Y-5410000D02*
X7854500Y-5510000D01*
X7904500Y-5410000D02*
X7904500Y-5510000D01*
X7854500Y-5460000D02*
X7954500Y-5460000D01*
X7980000Y-2460000D02*
X8080000Y-2560000D01*
X8080000Y-2460000D02*
X7980000Y-2560000D01*
X8030000Y-2460000D02*
X8030000Y-2560000D01*
X7980000Y-2510000D02*
X8080000Y-2510000D01*
X7990000Y-8532000D02*
X8090000Y-8632000D01*
X8090000Y-8532000D02*
X7990000Y-8632000D01*
X8040000Y-8532000D02*
X8040000Y-8632000D01*
X7990000Y-8582000D02*
X8090000Y-8582000D01*
X7990000Y-8786000D02*
X8090000Y-8886000D01*
X8090000Y-8786000D02*
X7990000Y-8886000D01*
X8040000Y-8786000D02*
X8040000Y-8886000D01*
X7990000Y-8836000D02*
X8090000Y-8836000D01*
X7990000Y-9040000D02*
X8090000Y-9140000D01*
X8090000Y-9040000D02*
X7990000Y-9140000D01*
X8040000Y-9040000D02*
X8040000Y-9140000D01*
X7990000Y-9090000D02*
X8090000Y-9090000D01*
X8108500Y-5410000D02*
X8208500Y-5510000D01*
X8208500Y-5410000D02*
X8108500Y-5510000D01*
X8158500Y-5410000D02*
X8158500Y-5510000D01*
X8108500Y-5460000D02*
X8208500Y-5460000D01*
X8234000Y-2460000D02*
X8334000Y-2560000D01*
X8334000Y-2460000D02*
X8234000Y-2560000D01*
X8284000Y-2460000D02*
X8284000Y-2560000D01*
X8234000Y-2510000D02*
X8334000Y-2510000D01*
X8362500Y-5410000D02*
X8462500Y-5510000D01*
X8462500Y-5410000D02*
X8362500Y-5510000D01*
X8412500Y-5410000D02*
X8412500Y-5510000D01*
X8362500Y-5460000D02*
X8462500Y-5460000D01*
X8812000Y-7220000D02*
X8912000Y-7320000D01*
X8912000Y-7220000D02*
X8812000Y-7320000D01*
X8862000Y-7220000D02*
X8862000Y-7320000D01*
X8812000Y-7270000D02*
X8912000Y-7270000D01*
X9066000Y-7220000D02*
X9166000Y-7320000D01*
X9166000Y-7220000D02*
X9066000Y-7320000D01*
X9116000Y-7220000D02*
X9116000Y-7320000D01*
X9066000Y-7270000D02*
X9166000Y-7270000D01*
X9190000Y-4870000D02*
X9290000Y-4970000D01*
X9290000Y-4870000D02*
X9190000Y-4970000D01*
X9240000Y-4870000D02*
X9240000Y-4970000D01*
X9190000Y-4920000D02*
X9290000Y-4920000D01*
X9190000Y-5120000D02*
X9290000Y-5220000D01*
X9290000Y-5120000D02*
X9190000Y-5220000D01*
X9240000Y-5120000D02*
X9240000Y-5220000D01*
X9190000Y-5170000D02*
X9290000Y-5170000D01*
X9320000Y-7220000D02*
X9420000Y-7320000D01*
X9420000Y-7220000D02*
X9320000Y-7320000D01*
X9370000Y-7220000D02*
X9370000Y-7320000D01*
X9320000Y-7270000D02*
X9420000Y-7270000D01*
D13*
X8200500Y-4411000D02*
X8310500Y-4521000D01*
X8310500Y-4411000D02*
X8200500Y-4521000D01*
X8294391Y-4504891D02*
X8294391Y-4427109D01*
X8216609Y-4427109D01*
X8216609Y-4504891D01*
X8294391Y-4504891D01*
X8200500Y-4665000D02*
X8310500Y-4775000D01*
X8310500Y-4665000D02*
X8200500Y-4775000D01*
X8294391Y-4758891D02*
X8294391Y-4681109D01*
X8216609Y-4681109D01*
X8216609Y-4758891D01*
X8294391Y-4758891D01*
X8200500Y-4919000D02*
X8310500Y-5029000D01*
X8310500Y-4919000D02*
X8200500Y-5029000D01*
X8294391Y-5012891D02*
X8294391Y-4935109D01*
X8216609Y-4935109D01*
X8216609Y-5012891D01*
X8294391Y-5012891D01*
D14*
X2588720Y-2718720D02*
X2751280Y-2881280D01*
X2751280Y-2718720D02*
X2588720Y-2881280D01*
X2670000Y-2881280D02*
X2751280Y-2800000D01*
X2670000Y-2718720D01*
X2588720Y-2800000D01*
X2670000Y-2881280D01*
X2588720Y-4344320D02*
X2751280Y-4506880D01*
X2751280Y-4344320D02*
X2588720Y-4506880D01*
X2670000Y-4506880D02*
X2751280Y-4425600D01*
X2670000Y-4344320D01*
X2588720Y-4425600D01*
X2670000Y-4506880D01*
X9718720Y-2723120D02*
X9881280Y-2885680D01*
X9881280Y-2723120D02*
X9718720Y-2885680D01*
X9800000Y-2885680D02*
X9881280Y-2804400D01*
X9800000Y-2723120D01*
X9718720Y-2804400D01*
X9800000Y-2885680D01*
X9718720Y-4348720D02*
X9881280Y-4511280D01*
X9881280Y-4348720D02*
X9718720Y-4511280D01*
X9800000Y-4511280D02*
X9881280Y-4430000D01*
X9800000Y-4348720D01*
X9718720Y-4430000D01*
X9800000Y-4511280D01*
D15*
X3130000Y-8885000D02*
X3130000Y-9155000D01*
X2995000Y-9020000D02*
X3265000Y-9020000D01*
X3265000Y-9020000D02*
G75*
G02*
X2995000Y-9020000I-135000J0D01*
G01*
X2995000Y-9020000D02*
G75*
G02*
X3265000Y-9020000I135000J0D01*
G01*
X3630000Y-8885000D02*
X3630000Y-9155000D01*
X3495000Y-9020000D02*
X3765000Y-9020000D01*
X3765000Y-9020000D02*
G75*
G02*
X3495000Y-9020000I-135000J0D01*
G01*
X3495000Y-9020000D02*
G75*
G02*
X3765000Y-9020000I135000J0D01*
G01*
D11*
X2258277Y-9893984D02*
X2258277Y-9693984D01*
X2258277Y-9693984D02*
X2305896Y-9693984D01*
X2305896Y-9693984D02*
X2334467Y-9703508D01*
X2334467Y-9703508D02*
X2353515Y-9722555D01*
X2353515Y-9722555D02*
X2363039Y-9741603D01*
X2363039Y-9741603D02*
X2372563Y-9779698D01*
X2372563Y-9779698D02*
X2372563Y-9808270D01*
X2372563Y-9808270D02*
X2363039Y-9846365D01*
X2363039Y-9846365D02*
X2353515Y-9865412D01*
X2353515Y-9865412D02*
X2334467Y-9884460D01*
X2334467Y-9884460D02*
X2305896Y-9893984D01*
X2305896Y-9893984D02*
X2258277Y-9893984D01*
X2458277Y-9893984D02*
X2458277Y-9760650D01*
X2458277Y-9798746D02*
X2467801Y-9779698D01*
X2467801Y-9779698D02*
X2477324Y-9770174D01*
X2477324Y-9770174D02*
X2496372Y-9760650D01*
X2496372Y-9760650D02*
X2515420Y-9760650D01*
X2582086Y-9893984D02*
X2582086Y-9760650D01*
X2582086Y-9693984D02*
X2572563Y-9703508D01*
X2572563Y-9703508D02*
X2582086Y-9713031D01*
X2582086Y-9713031D02*
X2591610Y-9703508D01*
X2591610Y-9703508D02*
X2582086Y-9693984D01*
X2582086Y-9693984D02*
X2582086Y-9713031D01*
X2705896Y-9893984D02*
X2686848Y-9884460D01*
X2686848Y-9884460D02*
X2677324Y-9865412D01*
X2677324Y-9865412D02*
X2677324Y-9693984D01*
X2810658Y-9893984D02*
X2791610Y-9884460D01*
X2791610Y-9884460D02*
X2782086Y-9865412D01*
X2782086Y-9865412D02*
X2782086Y-9693984D01*
X3039229Y-9893984D02*
X3039229Y-9693984D01*
X3039229Y-9693984D02*
X3105896Y-9836841D01*
X3105896Y-9836841D02*
X3172562Y-9693984D01*
X3172562Y-9693984D02*
X3172562Y-9893984D01*
X3353515Y-9893984D02*
X3353515Y-9789222D01*
X3353515Y-9789222D02*
X3343991Y-9770174D01*
X3343991Y-9770174D02*
X3324943Y-9760650D01*
X3324943Y-9760650D02*
X3286848Y-9760650D01*
X3286848Y-9760650D02*
X3267801Y-9770174D01*
X3353515Y-9884460D02*
X3334467Y-9893984D01*
X3334467Y-9893984D02*
X3286848Y-9893984D01*
X3286848Y-9893984D02*
X3267801Y-9884460D01*
X3267801Y-9884460D02*
X3258277Y-9865412D01*
X3258277Y-9865412D02*
X3258277Y-9846365D01*
X3258277Y-9846365D02*
X3267801Y-9827317D01*
X3267801Y-9827317D02*
X3286848Y-9817793D01*
X3286848Y-9817793D02*
X3334467Y-9817793D01*
X3334467Y-9817793D02*
X3353515Y-9808270D01*
X3448753Y-9760650D02*
X3448753Y-9960650D01*
X3448753Y-9770174D02*
X3467801Y-9760650D01*
X3467801Y-9760650D02*
X3505896Y-9760650D01*
X3505896Y-9760650D02*
X3524943Y-9770174D01*
X3524943Y-9770174D02*
X3534467Y-9779698D01*
X3534467Y-9779698D02*
X3543991Y-9798746D01*
X3543991Y-9798746D02*
X3543991Y-9855889D01*
X3543991Y-9855889D02*
X3534467Y-9874936D01*
X3534467Y-9874936D02*
X3524943Y-9884460D01*
X3524943Y-9884460D02*
X3505896Y-9893984D01*
X3505896Y-9893984D02*
X3467801Y-9893984D01*
X3467801Y-9893984D02*
X3448753Y-9884460D01*
X3629705Y-9874936D02*
X3639229Y-9884460D01*
X3639229Y-9884460D02*
X3629705Y-9893984D01*
X3629705Y-9893984D02*
X3620182Y-9884460D01*
X3620182Y-9884460D02*
X3629705Y-9874936D01*
X3629705Y-9874936D02*
X3629705Y-9893984D01*
X3629705Y-9770174D02*
X3639229Y-9779698D01*
X3639229Y-9779698D02*
X3629705Y-9789222D01*
X3629705Y-9789222D02*
X3620182Y-9779698D01*
X3620182Y-9779698D02*
X3629705Y-9770174D01*
X3629705Y-9770174D02*
X3629705Y-9789222D01*
D12*
X1967500Y-10207500D02*
X1997500Y-10237500D01*
X1997500Y-10207500D02*
X1967500Y-10237500D01*
D11*
X2296372Y-10113984D02*
X2315420Y-10113984D01*
X2315420Y-10113984D02*
X2334467Y-10123508D01*
X2334467Y-10123508D02*
X2343991Y-10133031D01*
X2343991Y-10133031D02*
X2353515Y-10152079D01*
X2353515Y-10152079D02*
X2363039Y-10190174D01*
X2363039Y-10190174D02*
X2363039Y-10237793D01*
X2363039Y-10237793D02*
X2353515Y-10275889D01*
X2353515Y-10275889D02*
X2343991Y-10294936D01*
X2343991Y-10294936D02*
X2334467Y-10304460D01*
X2334467Y-10304460D02*
X2315420Y-10313984D01*
X2315420Y-10313984D02*
X2296372Y-10313984D01*
X2296372Y-10313984D02*
X2277324Y-10304460D01*
X2277324Y-10304460D02*
X2267801Y-10294936D01*
X2267801Y-10294936D02*
X2258277Y-10275889D01*
X2258277Y-10275889D02*
X2248753Y-10237793D01*
X2248753Y-10237793D02*
X2248753Y-10190174D01*
X2248753Y-10190174D02*
X2258277Y-10152079D01*
X2258277Y-10152079D02*
X2267801Y-10133031D01*
X2267801Y-10133031D02*
X2277324Y-10123508D01*
X2277324Y-10123508D02*
X2296372Y-10113984D01*
X2448753Y-10294936D02*
X2458277Y-10304460D01*
X2458277Y-10304460D02*
X2448753Y-10313984D01*
X2448753Y-10313984D02*
X2439229Y-10304460D01*
X2439229Y-10304460D02*
X2448753Y-10294936D01*
X2448753Y-10294936D02*
X2448753Y-10313984D01*
X2524944Y-10113984D02*
X2648753Y-10113984D01*
X2648753Y-10113984D02*
X2582086Y-10190174D01*
X2582086Y-10190174D02*
X2610658Y-10190174D01*
X2610658Y-10190174D02*
X2629705Y-10199698D01*
X2629705Y-10199698D02*
X2639229Y-10209222D01*
X2639229Y-10209222D02*
X2648753Y-10228270D01*
X2648753Y-10228270D02*
X2648753Y-10275889D01*
X2648753Y-10275889D02*
X2639229Y-10294936D01*
X2639229Y-10294936D02*
X2629705Y-10304460D01*
X2629705Y-10304460D02*
X2610658Y-10313984D01*
X2610658Y-10313984D02*
X2553515Y-10313984D01*
X2553515Y-10313984D02*
X2534467Y-10304460D01*
X2534467Y-10304460D02*
X2524944Y-10294936D01*
X2772563Y-10113984D02*
X2791610Y-10113984D01*
X2791610Y-10113984D02*
X2810658Y-10123508D01*
X2810658Y-10123508D02*
X2820182Y-10133031D01*
X2820182Y-10133031D02*
X2829705Y-10152079D01*
X2829705Y-10152079D02*
X2839229Y-10190174D01*
X2839229Y-10190174D02*
X2839229Y-10237793D01*
X2839229Y-10237793D02*
X2829705Y-10275889D01*
X2829705Y-10275889D02*
X2820182Y-10294936D01*
X2820182Y-10294936D02*
X2810658Y-10304460D01*
X2810658Y-10304460D02*
X2791610Y-10313984D01*
X2791610Y-10313984D02*
X2772563Y-10313984D01*
X2772563Y-10313984D02*
X2753515Y-10304460D01*
X2753515Y-10304460D02*
X2743991Y-10294936D01*
X2743991Y-10294936D02*
X2734467Y-10275889D01*
X2734467Y-10275889D02*
X2724944Y-10237793D01*
X2724944Y-10237793D02*
X2724944Y-10190174D01*
X2724944Y-10190174D02*
X2734467Y-10152079D01*
X2734467Y-10152079D02*
X2743991Y-10133031D01*
X2743991Y-10133031D02*
X2753515Y-10123508D01*
X2753515Y-10123508D02*
X2772563Y-10113984D01*
X2963039Y-10113984D02*
X2982086Y-10113984D01*
X2982086Y-10113984D02*
X3001134Y-10123508D01*
X3001134Y-10123508D02*
X3010658Y-10133031D01*
X3010658Y-10133031D02*
X3020182Y-10152079D01*
X3020182Y-10152079D02*
X3029705Y-10190174D01*
X3029705Y-10190174D02*
X3029705Y-10237793D01*
X3029705Y-10237793D02*
X3020182Y-10275889D01*
X3020182Y-10275889D02*
X3010658Y-10294936D01*
X3010658Y-10294936D02*
X3001134Y-10304460D01*
X3001134Y-10304460D02*
X2982086Y-10313984D01*
X2982086Y-10313984D02*
X2963039Y-10313984D01*
X2963039Y-10313984D02*
X2943991Y-10304460D01*
X2943991Y-10304460D02*
X2934467Y-10294936D01*
X2934467Y-10294936D02*
X2924943Y-10275889D01*
X2924943Y-10275889D02*
X2915420Y-10237793D01*
X2915420Y-10237793D02*
X2915420Y-10190174D01*
X2915420Y-10190174D02*
X2924943Y-10152079D01*
X2924943Y-10152079D02*
X2934467Y-10133031D01*
X2934467Y-10133031D02*
X2943991Y-10123508D01*
X2943991Y-10123508D02*
X2963039Y-10113984D01*
X3115420Y-10313984D02*
X3115420Y-10180650D01*
X3115420Y-10199698D02*
X3124943Y-10190174D01*
X3124943Y-10190174D02*
X3143991Y-10180650D01*
X3143991Y-10180650D02*
X3172563Y-10180650D01*
X3172563Y-10180650D02*
X3191610Y-10190174D01*
X3191610Y-10190174D02*
X3201134Y-10209222D01*
X3201134Y-10209222D02*
X3201134Y-10313984D01*
X3201134Y-10209222D02*
X3210658Y-10190174D01*
X3210658Y-10190174D02*
X3229705Y-10180650D01*
X3229705Y-10180650D02*
X3258277Y-10180650D01*
X3258277Y-10180650D02*
X3277324Y-10190174D01*
X3277324Y-10190174D02*
X3286848Y-10209222D01*
X3286848Y-10209222D02*
X3286848Y-10313984D01*
X3382086Y-10313984D02*
X3382086Y-10180650D01*
X3382086Y-10199698D02*
X3391610Y-10190174D01*
X3391610Y-10190174D02*
X3410658Y-10180650D01*
X3410658Y-10180650D02*
X3439229Y-10180650D01*
X3439229Y-10180650D02*
X3458277Y-10190174D01*
X3458277Y-10190174D02*
X3467801Y-10209222D01*
X3467801Y-10209222D02*
X3467801Y-10313984D01*
X3467801Y-10209222D02*
X3477324Y-10190174D01*
X3477324Y-10190174D02*
X3496372Y-10180650D01*
X3496372Y-10180650D02*
X3524943Y-10180650D01*
X3524943Y-10180650D02*
X3543991Y-10190174D01*
X3543991Y-10190174D02*
X3553515Y-10209222D01*
X3553515Y-10209222D02*
X3553515Y-10313984D01*
X3943991Y-10104460D02*
X3772563Y-10361603D01*
X4201134Y-10113984D02*
X4220182Y-10113984D01*
X4220182Y-10113984D02*
X4239229Y-10123508D01*
X4239229Y-10123508D02*
X4248753Y-10133031D01*
X4248753Y-10133031D02*
X4258277Y-10152079D01*
X4258277Y-10152079D02*
X4267801Y-10190174D01*
X4267801Y-10190174D02*
X4267801Y-10237793D01*
X4267801Y-10237793D02*
X4258277Y-10275889D01*
X4258277Y-10275889D02*
X4248753Y-10294936D01*
X4248753Y-10294936D02*
X4239229Y-10304460D01*
X4239229Y-10304460D02*
X4220182Y-10313984D01*
X4220182Y-10313984D02*
X4201134Y-10313984D01*
X4201134Y-10313984D02*
X4182086Y-10304460D01*
X4182086Y-10304460D02*
X4172563Y-10294936D01*
X4172563Y-10294936D02*
X4163039Y-10275889D01*
X4163039Y-10275889D02*
X4153515Y-10237793D01*
X4153515Y-10237793D02*
X4153515Y-10190174D01*
X4153515Y-10190174D02*
X4163039Y-10152079D01*
X4163039Y-10152079D02*
X4172563Y-10133031D01*
X4172563Y-10133031D02*
X4182086Y-10123508D01*
X4182086Y-10123508D02*
X4201134Y-10113984D01*
X4353515Y-10294936D02*
X4363039Y-10304460D01*
X4363039Y-10304460D02*
X4353515Y-10313984D01*
X4353515Y-10313984D02*
X4343991Y-10304460D01*
X4343991Y-10304460D02*
X4353515Y-10294936D01*
X4353515Y-10294936D02*
X4353515Y-10313984D01*
X4486848Y-10113984D02*
X4505896Y-10113984D01*
X4505896Y-10113984D02*
X4524944Y-10123508D01*
X4524944Y-10123508D02*
X4534468Y-10133031D01*
X4534468Y-10133031D02*
X4543991Y-10152079D01*
X4543991Y-10152079D02*
X4553515Y-10190174D01*
X4553515Y-10190174D02*
X4553515Y-10237793D01*
X4553515Y-10237793D02*
X4543991Y-10275889D01*
X4543991Y-10275889D02*
X4534468Y-10294936D01*
X4534468Y-10294936D02*
X4524944Y-10304460D01*
X4524944Y-10304460D02*
X4505896Y-10313984D01*
X4505896Y-10313984D02*
X4486848Y-10313984D01*
X4486848Y-10313984D02*
X4467801Y-10304460D01*
X4467801Y-10304460D02*
X4458277Y-10294936D01*
X4458277Y-10294936D02*
X4448753Y-10275889D01*
X4448753Y-10275889D02*
X4439229Y-10237793D01*
X4439229Y-10237793D02*
X4439229Y-10190174D01*
X4439229Y-10190174D02*
X4448753Y-10152079D01*
X4448753Y-10152079D02*
X4458277Y-10133031D01*
X4458277Y-10133031D02*
X4467801Y-10123508D01*
X4467801Y-10123508D02*
X4486848Y-10113984D01*
X4743991Y-10313984D02*
X4629706Y-10313984D01*
X4686848Y-10313984D02*
X4686848Y-10113984D01*
X4686848Y-10113984D02*
X4667801Y-10142555D01*
X4667801Y-10142555D02*
X4648753Y-10161603D01*
X4648753Y-10161603D02*
X4629706Y-10171127D01*
X4934468Y-10313984D02*
X4820182Y-10313984D01*
X4877325Y-10313984D02*
X4877325Y-10113984D01*
X4877325Y-10113984D02*
X4858277Y-10142555D01*
X4858277Y-10142555D02*
X4839229Y-10161603D01*
X4839229Y-10161603D02*
X4820182Y-10171127D01*
X5048753Y-10199698D02*
X5029706Y-10190174D01*
X5029706Y-10190174D02*
X5020182Y-10180650D01*
X5020182Y-10180650D02*
X5010658Y-10161603D01*
X5010658Y-10161603D02*
X5010658Y-10152079D01*
X5010658Y-10152079D02*
X5020182Y-10133031D01*
X5020182Y-10133031D02*
X5029706Y-10123508D01*
X5029706Y-10123508D02*
X5048753Y-10113984D01*
X5048753Y-10113984D02*
X5086849Y-10113984D01*
X5086849Y-10113984D02*
X5105896Y-10123508D01*
X5105896Y-10123508D02*
X5115420Y-10133031D01*
X5115420Y-10133031D02*
X5124944Y-10152079D01*
X5124944Y-10152079D02*
X5124944Y-10161603D01*
X5124944Y-10161603D02*
X5115420Y-10180650D01*
X5115420Y-10180650D02*
X5105896Y-10190174D01*
X5105896Y-10190174D02*
X5086849Y-10199698D01*
X5086849Y-10199698D02*
X5048753Y-10199698D01*
X5048753Y-10199698D02*
X5029706Y-10209222D01*
X5029706Y-10209222D02*
X5020182Y-10218746D01*
X5020182Y-10218746D02*
X5010658Y-10237793D01*
X5010658Y-10237793D02*
X5010658Y-10275889D01*
X5010658Y-10275889D02*
X5020182Y-10294936D01*
X5020182Y-10294936D02*
X5029706Y-10304460D01*
X5029706Y-10304460D02*
X5048753Y-10313984D01*
X5048753Y-10313984D02*
X5086849Y-10313984D01*
X5086849Y-10313984D02*
X5105896Y-10304460D01*
X5105896Y-10304460D02*
X5115420Y-10294936D01*
X5115420Y-10294936D02*
X5124944Y-10275889D01*
X5124944Y-10275889D02*
X5124944Y-10237793D01*
X5124944Y-10237793D02*
X5115420Y-10218746D01*
X5115420Y-10218746D02*
X5105896Y-10209222D01*
X5105896Y-10209222D02*
X5086849Y-10199698D01*
X5201134Y-10113984D02*
X5201134Y-10152079D01*
X5277325Y-10113984D02*
X5277325Y-10152079D01*
X5572563Y-10390174D02*
X5563039Y-10380650D01*
X5563039Y-10380650D02*
X5543991Y-10352079D01*
X5543991Y-10352079D02*
X5534468Y-10333031D01*
X5534468Y-10333031D02*
X5524944Y-10304460D01*
X5524944Y-10304460D02*
X5515420Y-10256841D01*
X5515420Y-10256841D02*
X5515420Y-10218746D01*
X5515420Y-10218746D02*
X5524944Y-10171127D01*
X5524944Y-10171127D02*
X5534468Y-10142555D01*
X5534468Y-10142555D02*
X5543991Y-10123508D01*
X5543991Y-10123508D02*
X5563039Y-10094936D01*
X5563039Y-10094936D02*
X5572563Y-10085412D01*
X5753515Y-10313984D02*
X5639229Y-10313984D01*
X5696372Y-10313984D02*
X5696372Y-10113984D01*
X5696372Y-10113984D02*
X5677325Y-10142555D01*
X5677325Y-10142555D02*
X5658277Y-10161603D01*
X5658277Y-10161603D02*
X5639229Y-10171127D01*
X5848753Y-10313984D02*
X5886848Y-10313984D01*
X5886848Y-10313984D02*
X5905896Y-10304460D01*
X5905896Y-10304460D02*
X5915420Y-10294936D01*
X5915420Y-10294936D02*
X5934468Y-10266365D01*
X5934468Y-10266365D02*
X5943991Y-10228270D01*
X5943991Y-10228270D02*
X5943991Y-10152079D01*
X5943991Y-10152079D02*
X5934468Y-10133031D01*
X5934468Y-10133031D02*
X5924944Y-10123508D01*
X5924944Y-10123508D02*
X5905896Y-10113984D01*
X5905896Y-10113984D02*
X5867801Y-10113984D01*
X5867801Y-10113984D02*
X5848753Y-10123508D01*
X5848753Y-10123508D02*
X5839229Y-10133031D01*
X5839229Y-10133031D02*
X5829706Y-10152079D01*
X5829706Y-10152079D02*
X5829706Y-10199698D01*
X5829706Y-10199698D02*
X5839229Y-10218746D01*
X5839229Y-10218746D02*
X5848753Y-10228270D01*
X5848753Y-10228270D02*
X5867801Y-10237793D01*
X5867801Y-10237793D02*
X5905896Y-10237793D01*
X5905896Y-10237793D02*
X5924944Y-10228270D01*
X5924944Y-10228270D02*
X5934468Y-10218746D01*
X5934468Y-10218746D02*
X5943991Y-10199698D01*
X6134468Y-10313984D02*
X6020182Y-10313984D01*
X6077325Y-10313984D02*
X6077325Y-10113984D01*
X6077325Y-10113984D02*
X6058277Y-10142555D01*
X6058277Y-10142555D02*
X6039229Y-10161603D01*
X6039229Y-10161603D02*
X6020182Y-10171127D01*
X6372563Y-10313984D02*
X6372563Y-10113984D01*
X6458277Y-10313984D02*
X6458277Y-10209222D01*
X6458277Y-10209222D02*
X6448753Y-10190174D01*
X6448753Y-10190174D02*
X6429706Y-10180650D01*
X6429706Y-10180650D02*
X6401134Y-10180650D01*
X6401134Y-10180650D02*
X6382087Y-10190174D01*
X6382087Y-10190174D02*
X6372563Y-10199698D01*
X6582087Y-10313984D02*
X6563039Y-10304460D01*
X6563039Y-10304460D02*
X6553515Y-10294936D01*
X6553515Y-10294936D02*
X6543991Y-10275889D01*
X6543991Y-10275889D02*
X6543991Y-10218746D01*
X6543991Y-10218746D02*
X6553515Y-10199698D01*
X6553515Y-10199698D02*
X6563039Y-10190174D01*
X6563039Y-10190174D02*
X6582087Y-10180650D01*
X6582087Y-10180650D02*
X6610658Y-10180650D01*
X6610658Y-10180650D02*
X6629706Y-10190174D01*
X6629706Y-10190174D02*
X6639230Y-10199698D01*
X6639230Y-10199698D02*
X6648753Y-10218746D01*
X6648753Y-10218746D02*
X6648753Y-10275889D01*
X6648753Y-10275889D02*
X6639230Y-10294936D01*
X6639230Y-10294936D02*
X6629706Y-10304460D01*
X6629706Y-10304460D02*
X6610658Y-10313984D01*
X6610658Y-10313984D02*
X6582087Y-10313984D01*
X6763039Y-10313984D02*
X6743991Y-10304460D01*
X6743991Y-10304460D02*
X6734468Y-10285412D01*
X6734468Y-10285412D02*
X6734468Y-10113984D01*
X6915420Y-10304460D02*
X6896372Y-10313984D01*
X6896372Y-10313984D02*
X6858277Y-10313984D01*
X6858277Y-10313984D02*
X6839230Y-10304460D01*
X6839230Y-10304460D02*
X6829706Y-10285412D01*
X6829706Y-10285412D02*
X6829706Y-10209222D01*
X6829706Y-10209222D02*
X6839230Y-10190174D01*
X6839230Y-10190174D02*
X6858277Y-10180650D01*
X6858277Y-10180650D02*
X6896372Y-10180650D01*
X6896372Y-10180650D02*
X6915420Y-10190174D01*
X6915420Y-10190174D02*
X6924944Y-10209222D01*
X6924944Y-10209222D02*
X6924944Y-10228270D01*
X6924944Y-10228270D02*
X6829706Y-10247317D01*
X7001134Y-10304460D02*
X7020182Y-10313984D01*
X7020182Y-10313984D02*
X7058277Y-10313984D01*
X7058277Y-10313984D02*
X7077325Y-10304460D01*
X7077325Y-10304460D02*
X7086849Y-10285412D01*
X7086849Y-10285412D02*
X7086849Y-10275889D01*
X7086849Y-10275889D02*
X7077325Y-10256841D01*
X7077325Y-10256841D02*
X7058277Y-10247317D01*
X7058277Y-10247317D02*
X7029706Y-10247317D01*
X7029706Y-10247317D02*
X7010658Y-10237793D01*
X7010658Y-10237793D02*
X7001134Y-10218746D01*
X7001134Y-10218746D02*
X7001134Y-10209222D01*
X7001134Y-10209222D02*
X7010658Y-10190174D01*
X7010658Y-10190174D02*
X7029706Y-10180650D01*
X7029706Y-10180650D02*
X7058277Y-10180650D01*
X7058277Y-10180650D02*
X7077325Y-10190174D01*
X7153515Y-10390174D02*
X7163039Y-10380650D01*
X7163039Y-10380650D02*
X7182087Y-10352079D01*
X7182087Y-10352079D02*
X7191611Y-10333031D01*
X7191611Y-10333031D02*
X7201134Y-10304460D01*
X7201134Y-10304460D02*
X7210658Y-10256841D01*
X7210658Y-10256841D02*
X7210658Y-10218746D01*
X7210658Y-10218746D02*
X7201134Y-10171127D01*
X7201134Y-10171127D02*
X7191611Y-10142555D01*
X7191611Y-10142555D02*
X7182087Y-10123508D01*
X7182087Y-10123508D02*
X7163039Y-10094936D01*
X7163039Y-10094936D02*
X7153515Y-10085412D01*
D12*
X1997500Y-10486500D02*
G75*
G02*
X1937500Y-10486500I-30000J0D01*
G01*
X1937500Y-10486500D02*
G75*
G02*
X1997500Y-10486500I30000J0D01*
G01*
D11*
X2296372Y-10377984D02*
X2315420Y-10377984D01*
X2315420Y-10377984D02*
X2334467Y-10387508D01*
X2334467Y-10387508D02*
X2343991Y-10397031D01*
X2343991Y-10397031D02*
X2353515Y-10416079D01*
X2353515Y-10416079D02*
X2363039Y-10454174D01*
X2363039Y-10454174D02*
X2363039Y-10501793D01*
X2363039Y-10501793D02*
X2353515Y-10539889D01*
X2353515Y-10539889D02*
X2343991Y-10558936D01*
X2343991Y-10558936D02*
X2334467Y-10568460D01*
X2334467Y-10568460D02*
X2315420Y-10577984D01*
X2315420Y-10577984D02*
X2296372Y-10577984D01*
X2296372Y-10577984D02*
X2277324Y-10568460D01*
X2277324Y-10568460D02*
X2267801Y-10558936D01*
X2267801Y-10558936D02*
X2258277Y-10539889D01*
X2258277Y-10539889D02*
X2248753Y-10501793D01*
X2248753Y-10501793D02*
X2248753Y-10454174D01*
X2248753Y-10454174D02*
X2258277Y-10416079D01*
X2258277Y-10416079D02*
X2267801Y-10397031D01*
X2267801Y-10397031D02*
X2277324Y-10387508D01*
X2277324Y-10387508D02*
X2296372Y-10377984D01*
X2448753Y-10558936D02*
X2458277Y-10568460D01*
X2458277Y-10568460D02*
X2448753Y-10577984D01*
X2448753Y-10577984D02*
X2439229Y-10568460D01*
X2439229Y-10568460D02*
X2448753Y-10558936D01*
X2448753Y-10558936D02*
X2448753Y-10577984D01*
X2629705Y-10377984D02*
X2591610Y-10377984D01*
X2591610Y-10377984D02*
X2572563Y-10387508D01*
X2572563Y-10387508D02*
X2563039Y-10397031D01*
X2563039Y-10397031D02*
X2543991Y-10425603D01*
X2543991Y-10425603D02*
X2534467Y-10463698D01*
X2534467Y-10463698D02*
X2534467Y-10539889D01*
X2534467Y-10539889D02*
X2543991Y-10558936D01*
X2543991Y-10558936D02*
X2553515Y-10568460D01*
X2553515Y-10568460D02*
X2572563Y-10577984D01*
X2572563Y-10577984D02*
X2610658Y-10577984D01*
X2610658Y-10577984D02*
X2629705Y-10568460D01*
X2629705Y-10568460D02*
X2639229Y-10558936D01*
X2639229Y-10558936D02*
X2648753Y-10539889D01*
X2648753Y-10539889D02*
X2648753Y-10492270D01*
X2648753Y-10492270D02*
X2639229Y-10473222D01*
X2639229Y-10473222D02*
X2629705Y-10463698D01*
X2629705Y-10463698D02*
X2610658Y-10454174D01*
X2610658Y-10454174D02*
X2572563Y-10454174D01*
X2572563Y-10454174D02*
X2553515Y-10463698D01*
X2553515Y-10463698D02*
X2543991Y-10473222D01*
X2543991Y-10473222D02*
X2534467Y-10492270D01*
X2772563Y-10377984D02*
X2791610Y-10377984D01*
X2791610Y-10377984D02*
X2810658Y-10387508D01*
X2810658Y-10387508D02*
X2820182Y-10397031D01*
X2820182Y-10397031D02*
X2829705Y-10416079D01*
X2829705Y-10416079D02*
X2839229Y-10454174D01*
X2839229Y-10454174D02*
X2839229Y-10501793D01*
X2839229Y-10501793D02*
X2829705Y-10539889D01*
X2829705Y-10539889D02*
X2820182Y-10558936D01*
X2820182Y-10558936D02*
X2810658Y-10568460D01*
X2810658Y-10568460D02*
X2791610Y-10577984D01*
X2791610Y-10577984D02*
X2772563Y-10577984D01*
X2772563Y-10577984D02*
X2753515Y-10568460D01*
X2753515Y-10568460D02*
X2743991Y-10558936D01*
X2743991Y-10558936D02*
X2734467Y-10539889D01*
X2734467Y-10539889D02*
X2724944Y-10501793D01*
X2724944Y-10501793D02*
X2724944Y-10454174D01*
X2724944Y-10454174D02*
X2734467Y-10416079D01*
X2734467Y-10416079D02*
X2743991Y-10397031D01*
X2743991Y-10397031D02*
X2753515Y-10387508D01*
X2753515Y-10387508D02*
X2772563Y-10377984D01*
X2963039Y-10377984D02*
X2982086Y-10377984D01*
X2982086Y-10377984D02*
X3001134Y-10387508D01*
X3001134Y-10387508D02*
X3010658Y-10397031D01*
X3010658Y-10397031D02*
X3020182Y-10416079D01*
X3020182Y-10416079D02*
X3029705Y-10454174D01*
X3029705Y-10454174D02*
X3029705Y-10501793D01*
X3029705Y-10501793D02*
X3020182Y-10539889D01*
X3020182Y-10539889D02*
X3010658Y-10558936D01*
X3010658Y-10558936D02*
X3001134Y-10568460D01*
X3001134Y-10568460D02*
X2982086Y-10577984D01*
X2982086Y-10577984D02*
X2963039Y-10577984D01*
X2963039Y-10577984D02*
X2943991Y-10568460D01*
X2943991Y-10568460D02*
X2934467Y-10558936D01*
X2934467Y-10558936D02*
X2924943Y-10539889D01*
X2924943Y-10539889D02*
X2915420Y-10501793D01*
X2915420Y-10501793D02*
X2915420Y-10454174D01*
X2915420Y-10454174D02*
X2924943Y-10416079D01*
X2924943Y-10416079D02*
X2934467Y-10397031D01*
X2934467Y-10397031D02*
X2943991Y-10387508D01*
X2943991Y-10387508D02*
X2963039Y-10377984D01*
X3115420Y-10577984D02*
X3115420Y-10444650D01*
X3115420Y-10463698D02*
X3124943Y-10454174D01*
X3124943Y-10454174D02*
X3143991Y-10444650D01*
X3143991Y-10444650D02*
X3172563Y-10444650D01*
X3172563Y-10444650D02*
X3191610Y-10454174D01*
X3191610Y-10454174D02*
X3201134Y-10473222D01*
X3201134Y-10473222D02*
X3201134Y-10577984D01*
X3201134Y-10473222D02*
X3210658Y-10454174D01*
X3210658Y-10454174D02*
X3229705Y-10444650D01*
X3229705Y-10444650D02*
X3258277Y-10444650D01*
X3258277Y-10444650D02*
X3277324Y-10454174D01*
X3277324Y-10454174D02*
X3286848Y-10473222D01*
X3286848Y-10473222D02*
X3286848Y-10577984D01*
X3382086Y-10577984D02*
X3382086Y-10444650D01*
X3382086Y-10463698D02*
X3391610Y-10454174D01*
X3391610Y-10454174D02*
X3410658Y-10444650D01*
X3410658Y-10444650D02*
X3439229Y-10444650D01*
X3439229Y-10444650D02*
X3458277Y-10454174D01*
X3458277Y-10454174D02*
X3467801Y-10473222D01*
X3467801Y-10473222D02*
X3467801Y-10577984D01*
X3467801Y-10473222D02*
X3477324Y-10454174D01*
X3477324Y-10454174D02*
X3496372Y-10444650D01*
X3496372Y-10444650D02*
X3524943Y-10444650D01*
X3524943Y-10444650D02*
X3543991Y-10454174D01*
X3543991Y-10454174D02*
X3553515Y-10473222D01*
X3553515Y-10473222D02*
X3553515Y-10577984D01*
X3943991Y-10368460D02*
X3772563Y-10625603D01*
X4201134Y-10377984D02*
X4220182Y-10377984D01*
X4220182Y-10377984D02*
X4239229Y-10387508D01*
X4239229Y-10387508D02*
X4248753Y-10397031D01*
X4248753Y-10397031D02*
X4258277Y-10416079D01*
X4258277Y-10416079D02*
X4267801Y-10454174D01*
X4267801Y-10454174D02*
X4267801Y-10501793D01*
X4267801Y-10501793D02*
X4258277Y-10539889D01*
X4258277Y-10539889D02*
X4248753Y-10558936D01*
X4248753Y-10558936D02*
X4239229Y-10568460D01*
X4239229Y-10568460D02*
X4220182Y-10577984D01*
X4220182Y-10577984D02*
X4201134Y-10577984D01*
X4201134Y-10577984D02*
X4182086Y-10568460D01*
X4182086Y-10568460D02*
X4172563Y-10558936D01*
X4172563Y-10558936D02*
X4163039Y-10539889D01*
X4163039Y-10539889D02*
X4153515Y-10501793D01*
X4153515Y-10501793D02*
X4153515Y-10454174D01*
X4153515Y-10454174D02*
X4163039Y-10416079D01*
X4163039Y-10416079D02*
X4172563Y-10397031D01*
X4172563Y-10397031D02*
X4182086Y-10387508D01*
X4182086Y-10387508D02*
X4201134Y-10377984D01*
X4353515Y-10558936D02*
X4363039Y-10568460D01*
X4363039Y-10568460D02*
X4353515Y-10577984D01*
X4353515Y-10577984D02*
X4343991Y-10568460D01*
X4343991Y-10568460D02*
X4353515Y-10558936D01*
X4353515Y-10558936D02*
X4353515Y-10577984D01*
X4486848Y-10377984D02*
X4505896Y-10377984D01*
X4505896Y-10377984D02*
X4524944Y-10387508D01*
X4524944Y-10387508D02*
X4534468Y-10397031D01*
X4534468Y-10397031D02*
X4543991Y-10416079D01*
X4543991Y-10416079D02*
X4553515Y-10454174D01*
X4553515Y-10454174D02*
X4553515Y-10501793D01*
X4553515Y-10501793D02*
X4543991Y-10539889D01*
X4543991Y-10539889D02*
X4534468Y-10558936D01*
X4534468Y-10558936D02*
X4524944Y-10568460D01*
X4524944Y-10568460D02*
X4505896Y-10577984D01*
X4505896Y-10577984D02*
X4486848Y-10577984D01*
X4486848Y-10577984D02*
X4467801Y-10568460D01*
X4467801Y-10568460D02*
X4458277Y-10558936D01*
X4458277Y-10558936D02*
X4448753Y-10539889D01*
X4448753Y-10539889D02*
X4439229Y-10501793D01*
X4439229Y-10501793D02*
X4439229Y-10454174D01*
X4439229Y-10454174D02*
X4448753Y-10416079D01*
X4448753Y-10416079D02*
X4458277Y-10397031D01*
X4458277Y-10397031D02*
X4467801Y-10387508D01*
X4467801Y-10387508D02*
X4486848Y-10377984D01*
X4629706Y-10397031D02*
X4639229Y-10387508D01*
X4639229Y-10387508D02*
X4658277Y-10377984D01*
X4658277Y-10377984D02*
X4705896Y-10377984D01*
X4705896Y-10377984D02*
X4724944Y-10387508D01*
X4724944Y-10387508D02*
X4734468Y-10397031D01*
X4734468Y-10397031D02*
X4743991Y-10416079D01*
X4743991Y-10416079D02*
X4743991Y-10435127D01*
X4743991Y-10435127D02*
X4734468Y-10463698D01*
X4734468Y-10463698D02*
X4620182Y-10577984D01*
X4620182Y-10577984D02*
X4743991Y-10577984D01*
X4810658Y-10377984D02*
X4934468Y-10377984D01*
X4934468Y-10377984D02*
X4867801Y-10454174D01*
X4867801Y-10454174D02*
X4896372Y-10454174D01*
X4896372Y-10454174D02*
X4915420Y-10463698D01*
X4915420Y-10463698D02*
X4924944Y-10473222D01*
X4924944Y-10473222D02*
X4934468Y-10492270D01*
X4934468Y-10492270D02*
X4934468Y-10539889D01*
X4934468Y-10539889D02*
X4924944Y-10558936D01*
X4924944Y-10558936D02*
X4915420Y-10568460D01*
X4915420Y-10568460D02*
X4896372Y-10577984D01*
X4896372Y-10577984D02*
X4839229Y-10577984D01*
X4839229Y-10577984D02*
X4820182Y-10568460D01*
X4820182Y-10568460D02*
X4810658Y-10558936D01*
X5105896Y-10377984D02*
X5067801Y-10377984D01*
X5067801Y-10377984D02*
X5048753Y-10387508D01*
X5048753Y-10387508D02*
X5039229Y-10397031D01*
X5039229Y-10397031D02*
X5020182Y-10425603D01*
X5020182Y-10425603D02*
X5010658Y-10463698D01*
X5010658Y-10463698D02*
X5010658Y-10539889D01*
X5010658Y-10539889D02*
X5020182Y-10558936D01*
X5020182Y-10558936D02*
X5029706Y-10568460D01*
X5029706Y-10568460D02*
X5048753Y-10577984D01*
X5048753Y-10577984D02*
X5086849Y-10577984D01*
X5086849Y-10577984D02*
X5105896Y-10568460D01*
X5105896Y-10568460D02*
X5115420Y-10558936D01*
X5115420Y-10558936D02*
X5124944Y-10539889D01*
X5124944Y-10539889D02*
X5124944Y-10492270D01*
X5124944Y-10492270D02*
X5115420Y-10473222D01*
X5115420Y-10473222D02*
X5105896Y-10463698D01*
X5105896Y-10463698D02*
X5086849Y-10454174D01*
X5086849Y-10454174D02*
X5048753Y-10454174D01*
X5048753Y-10454174D02*
X5029706Y-10463698D01*
X5029706Y-10463698D02*
X5020182Y-10473222D01*
X5020182Y-10473222D02*
X5010658Y-10492270D01*
X5201134Y-10377984D02*
X5201134Y-10416079D01*
X5277325Y-10377984D02*
X5277325Y-10416079D01*
X5572563Y-10654174D02*
X5563039Y-10644650D01*
X5563039Y-10644650D02*
X5543991Y-10616079D01*
X5543991Y-10616079D02*
X5534468Y-10597031D01*
X5534468Y-10597031D02*
X5524944Y-10568460D01*
X5524944Y-10568460D02*
X5515420Y-10520841D01*
X5515420Y-10520841D02*
X5515420Y-10482746D01*
X5515420Y-10482746D02*
X5524944Y-10435127D01*
X5524944Y-10435127D02*
X5534468Y-10406555D01*
X5534468Y-10406555D02*
X5543991Y-10387508D01*
X5543991Y-10387508D02*
X5563039Y-10358936D01*
X5563039Y-10358936D02*
X5572563Y-10349412D01*
X5686848Y-10377984D02*
X5705896Y-10377984D01*
X5705896Y-10377984D02*
X5724944Y-10387508D01*
X5724944Y-10387508D02*
X5734468Y-10397031D01*
X5734468Y-10397031D02*
X5743991Y-10416079D01*
X5743991Y-10416079D02*
X5753515Y-10454174D01*
X5753515Y-10454174D02*
X5753515Y-10501793D01*
X5753515Y-10501793D02*
X5743991Y-10539889D01*
X5743991Y-10539889D02*
X5734468Y-10558936D01*
X5734468Y-10558936D02*
X5724944Y-10568460D01*
X5724944Y-10568460D02*
X5705896Y-10577984D01*
X5705896Y-10577984D02*
X5686848Y-10577984D01*
X5686848Y-10577984D02*
X5667801Y-10568460D01*
X5667801Y-10568460D02*
X5658277Y-10558936D01*
X5658277Y-10558936D02*
X5648753Y-10539889D01*
X5648753Y-10539889D02*
X5639229Y-10501793D01*
X5639229Y-10501793D02*
X5639229Y-10454174D01*
X5639229Y-10454174D02*
X5648753Y-10416079D01*
X5648753Y-10416079D02*
X5658277Y-10397031D01*
X5658277Y-10397031D02*
X5667801Y-10387508D01*
X5667801Y-10387508D02*
X5686848Y-10377984D01*
X5991610Y-10577984D02*
X5991610Y-10377984D01*
X6077325Y-10577984D02*
X6077325Y-10473222D01*
X6077325Y-10473222D02*
X6067801Y-10454174D01*
X6067801Y-10454174D02*
X6048753Y-10444650D01*
X6048753Y-10444650D02*
X6020182Y-10444650D01*
X6020182Y-10444650D02*
X6001134Y-10454174D01*
X6001134Y-10454174D02*
X5991610Y-10463698D01*
X6201134Y-10577984D02*
X6182087Y-10568460D01*
X6182087Y-10568460D02*
X6172563Y-10558936D01*
X6172563Y-10558936D02*
X6163039Y-10539889D01*
X6163039Y-10539889D02*
X6163039Y-10482746D01*
X6163039Y-10482746D02*
X6172563Y-10463698D01*
X6172563Y-10463698D02*
X6182087Y-10454174D01*
X6182087Y-10454174D02*
X6201134Y-10444650D01*
X6201134Y-10444650D02*
X6229706Y-10444650D01*
X6229706Y-10444650D02*
X6248753Y-10454174D01*
X6248753Y-10454174D02*
X6258277Y-10463698D01*
X6258277Y-10463698D02*
X6267801Y-10482746D01*
X6267801Y-10482746D02*
X6267801Y-10539889D01*
X6267801Y-10539889D02*
X6258277Y-10558936D01*
X6258277Y-10558936D02*
X6248753Y-10568460D01*
X6248753Y-10568460D02*
X6229706Y-10577984D01*
X6229706Y-10577984D02*
X6201134Y-10577984D01*
X6382087Y-10577984D02*
X6363039Y-10568460D01*
X6363039Y-10568460D02*
X6353515Y-10549412D01*
X6353515Y-10549412D02*
X6353515Y-10377984D01*
X6534468Y-10568460D02*
X6515420Y-10577984D01*
X6515420Y-10577984D02*
X6477325Y-10577984D01*
X6477325Y-10577984D02*
X6458277Y-10568460D01*
X6458277Y-10568460D02*
X6448753Y-10549412D01*
X6448753Y-10549412D02*
X6448753Y-10473222D01*
X6448753Y-10473222D02*
X6458277Y-10454174D01*
X6458277Y-10454174D02*
X6477325Y-10444650D01*
X6477325Y-10444650D02*
X6515420Y-10444650D01*
X6515420Y-10444650D02*
X6534468Y-10454174D01*
X6534468Y-10454174D02*
X6543991Y-10473222D01*
X6543991Y-10473222D02*
X6543991Y-10492270D01*
X6543991Y-10492270D02*
X6448753Y-10511317D01*
X6620182Y-10568460D02*
X6639230Y-10577984D01*
X6639230Y-10577984D02*
X6677325Y-10577984D01*
X6677325Y-10577984D02*
X6696372Y-10568460D01*
X6696372Y-10568460D02*
X6705896Y-10549412D01*
X6705896Y-10549412D02*
X6705896Y-10539889D01*
X6705896Y-10539889D02*
X6696372Y-10520841D01*
X6696372Y-10520841D02*
X6677325Y-10511317D01*
X6677325Y-10511317D02*
X6648753Y-10511317D01*
X6648753Y-10511317D02*
X6629706Y-10501793D01*
X6629706Y-10501793D02*
X6620182Y-10482746D01*
X6620182Y-10482746D02*
X6620182Y-10473222D01*
X6620182Y-10473222D02*
X6629706Y-10454174D01*
X6629706Y-10454174D02*
X6648753Y-10444650D01*
X6648753Y-10444650D02*
X6677325Y-10444650D01*
X6677325Y-10444650D02*
X6696372Y-10454174D01*
X6943992Y-10501793D02*
X7096373Y-10501793D01*
X7020182Y-10577984D02*
X7020182Y-10425603D01*
X7429706Y-10444650D02*
X7429706Y-10577984D01*
X7382087Y-10368460D02*
X7334468Y-10511317D01*
X7334468Y-10511317D02*
X7458277Y-10511317D01*
X7677325Y-10568460D02*
X7696373Y-10577984D01*
X7696373Y-10577984D02*
X7734468Y-10577984D01*
X7734468Y-10577984D02*
X7753515Y-10568460D01*
X7753515Y-10568460D02*
X7763039Y-10549412D01*
X7763039Y-10549412D02*
X7763039Y-10539889D01*
X7763039Y-10539889D02*
X7753515Y-10520841D01*
X7753515Y-10520841D02*
X7734468Y-10511317D01*
X7734468Y-10511317D02*
X7705896Y-10511317D01*
X7705896Y-10511317D02*
X7686849Y-10501793D01*
X7686849Y-10501793D02*
X7677325Y-10482746D01*
X7677325Y-10482746D02*
X7677325Y-10473222D01*
X7677325Y-10473222D02*
X7686849Y-10454174D01*
X7686849Y-10454174D02*
X7705896Y-10444650D01*
X7705896Y-10444650D02*
X7734468Y-10444650D01*
X7734468Y-10444650D02*
X7753515Y-10454174D01*
X7877325Y-10577984D02*
X7858277Y-10568460D01*
X7858277Y-10568460D02*
X7848754Y-10549412D01*
X7848754Y-10549412D02*
X7848754Y-10377984D01*
X7982087Y-10577984D02*
X7963039Y-10568460D01*
X7963039Y-10568460D02*
X7953515Y-10558936D01*
X7953515Y-10558936D02*
X7943992Y-10539889D01*
X7943992Y-10539889D02*
X7943992Y-10482746D01*
X7943992Y-10482746D02*
X7953515Y-10463698D01*
X7953515Y-10463698D02*
X7963039Y-10454174D01*
X7963039Y-10454174D02*
X7982087Y-10444650D01*
X7982087Y-10444650D02*
X8010658Y-10444650D01*
X8010658Y-10444650D02*
X8029706Y-10454174D01*
X8029706Y-10454174D02*
X8039230Y-10463698D01*
X8039230Y-10463698D02*
X8048754Y-10482746D01*
X8048754Y-10482746D02*
X8048754Y-10539889D01*
X8048754Y-10539889D02*
X8039230Y-10558936D01*
X8039230Y-10558936D02*
X8029706Y-10568460D01*
X8029706Y-10568460D02*
X8010658Y-10577984D01*
X8010658Y-10577984D02*
X7982087Y-10577984D01*
X8105896Y-10444650D02*
X8182087Y-10444650D01*
X8134468Y-10377984D02*
X8134468Y-10549412D01*
X8134468Y-10549412D02*
X8143992Y-10568460D01*
X8143992Y-10568460D02*
X8163039Y-10577984D01*
X8163039Y-10577984D02*
X8182087Y-10577984D01*
X8239230Y-10568460D02*
X8258277Y-10577984D01*
X8258277Y-10577984D02*
X8296373Y-10577984D01*
X8296373Y-10577984D02*
X8315420Y-10568460D01*
X8315420Y-10568460D02*
X8324944Y-10549412D01*
X8324944Y-10549412D02*
X8324944Y-10539889D01*
X8324944Y-10539889D02*
X8315420Y-10520841D01*
X8315420Y-10520841D02*
X8296373Y-10511317D01*
X8296373Y-10511317D02*
X8267801Y-10511317D01*
X8267801Y-10511317D02*
X8248754Y-10501793D01*
X8248754Y-10501793D02*
X8239230Y-10482746D01*
X8239230Y-10482746D02*
X8239230Y-10473222D01*
X8239230Y-10473222D02*
X8248754Y-10454174D01*
X8248754Y-10454174D02*
X8267801Y-10444650D01*
X8267801Y-10444650D02*
X8296373Y-10444650D01*
X8296373Y-10444650D02*
X8315420Y-10454174D01*
X8391611Y-10654174D02*
X8401135Y-10644650D01*
X8401135Y-10644650D02*
X8420182Y-10616079D01*
X8420182Y-10616079D02*
X8429706Y-10597031D01*
X8429706Y-10597031D02*
X8439230Y-10568460D01*
X8439230Y-10568460D02*
X8448754Y-10520841D01*
X8448754Y-10520841D02*
X8448754Y-10482746D01*
X8448754Y-10482746D02*
X8439230Y-10435127D01*
X8439230Y-10435127D02*
X8429706Y-10406555D01*
X8429706Y-10406555D02*
X8420182Y-10387508D01*
X8420182Y-10387508D02*
X8401135Y-10358936D01*
X8401135Y-10358936D02*
X8391611Y-10349412D01*
D12*
X1959400Y-10712400D02*
X1959400Y-10788600D01*
X1921300Y-10750500D02*
X1997500Y-10750500D01*
D11*
X2296372Y-10641984D02*
X2315420Y-10641984D01*
X2315420Y-10641984D02*
X2334467Y-10651508D01*
X2334467Y-10651508D02*
X2343991Y-10661031D01*
X2343991Y-10661031D02*
X2353515Y-10680079D01*
X2353515Y-10680079D02*
X2363039Y-10718174D01*
X2363039Y-10718174D02*
X2363039Y-10765793D01*
X2363039Y-10765793D02*
X2353515Y-10803889D01*
X2353515Y-10803889D02*
X2343991Y-10822936D01*
X2343991Y-10822936D02*
X2334467Y-10832460D01*
X2334467Y-10832460D02*
X2315420Y-10841984D01*
X2315420Y-10841984D02*
X2296372Y-10841984D01*
X2296372Y-10841984D02*
X2277324Y-10832460D01*
X2277324Y-10832460D02*
X2267801Y-10822936D01*
X2267801Y-10822936D02*
X2258277Y-10803889D01*
X2258277Y-10803889D02*
X2248753Y-10765793D01*
X2248753Y-10765793D02*
X2248753Y-10718174D01*
X2248753Y-10718174D02*
X2258277Y-10680079D01*
X2258277Y-10680079D02*
X2267801Y-10661031D01*
X2267801Y-10661031D02*
X2277324Y-10651508D01*
X2277324Y-10651508D02*
X2296372Y-10641984D01*
X2448753Y-10822936D02*
X2458277Y-10832460D01*
X2458277Y-10832460D02*
X2448753Y-10841984D01*
X2448753Y-10841984D02*
X2439229Y-10832460D01*
X2439229Y-10832460D02*
X2448753Y-10822936D01*
X2448753Y-10822936D02*
X2448753Y-10841984D01*
X2524944Y-10641984D02*
X2658277Y-10641984D01*
X2658277Y-10641984D02*
X2572563Y-10841984D01*
X2820182Y-10641984D02*
X2782086Y-10641984D01*
X2782086Y-10641984D02*
X2763039Y-10651508D01*
X2763039Y-10651508D02*
X2753515Y-10661031D01*
X2753515Y-10661031D02*
X2734467Y-10689603D01*
X2734467Y-10689603D02*
X2724944Y-10727698D01*
X2724944Y-10727698D02*
X2724944Y-10803889D01*
X2724944Y-10803889D02*
X2734467Y-10822936D01*
X2734467Y-10822936D02*
X2743991Y-10832460D01*
X2743991Y-10832460D02*
X2763039Y-10841984D01*
X2763039Y-10841984D02*
X2801134Y-10841984D01*
X2801134Y-10841984D02*
X2820182Y-10832460D01*
X2820182Y-10832460D02*
X2829705Y-10822936D01*
X2829705Y-10822936D02*
X2839229Y-10803889D01*
X2839229Y-10803889D02*
X2839229Y-10756270D01*
X2839229Y-10756270D02*
X2829705Y-10737222D01*
X2829705Y-10737222D02*
X2820182Y-10727698D01*
X2820182Y-10727698D02*
X2801134Y-10718174D01*
X2801134Y-10718174D02*
X2763039Y-10718174D01*
X2763039Y-10718174D02*
X2743991Y-10727698D01*
X2743991Y-10727698D02*
X2734467Y-10737222D01*
X2734467Y-10737222D02*
X2724944Y-10756270D01*
X2915420Y-10661031D02*
X2924943Y-10651508D01*
X2924943Y-10651508D02*
X2943991Y-10641984D01*
X2943991Y-10641984D02*
X2991610Y-10641984D01*
X2991610Y-10641984D02*
X3010658Y-10651508D01*
X3010658Y-10651508D02*
X3020182Y-10661031D01*
X3020182Y-10661031D02*
X3029705Y-10680079D01*
X3029705Y-10680079D02*
X3029705Y-10699127D01*
X3029705Y-10699127D02*
X3020182Y-10727698D01*
X3020182Y-10727698D02*
X2905896Y-10841984D01*
X2905896Y-10841984D02*
X3029705Y-10841984D01*
X3115420Y-10841984D02*
X3115420Y-10708650D01*
X3115420Y-10727698D02*
X3124943Y-10718174D01*
X3124943Y-10718174D02*
X3143991Y-10708650D01*
X3143991Y-10708650D02*
X3172563Y-10708650D01*
X3172563Y-10708650D02*
X3191610Y-10718174D01*
X3191610Y-10718174D02*
X3201134Y-10737222D01*
X3201134Y-10737222D02*
X3201134Y-10841984D01*
X3201134Y-10737222D02*
X3210658Y-10718174D01*
X3210658Y-10718174D02*
X3229705Y-10708650D01*
X3229705Y-10708650D02*
X3258277Y-10708650D01*
X3258277Y-10708650D02*
X3277324Y-10718174D01*
X3277324Y-10718174D02*
X3286848Y-10737222D01*
X3286848Y-10737222D02*
X3286848Y-10841984D01*
X3382086Y-10841984D02*
X3382086Y-10708650D01*
X3382086Y-10727698D02*
X3391610Y-10718174D01*
X3391610Y-10718174D02*
X3410658Y-10708650D01*
X3410658Y-10708650D02*
X3439229Y-10708650D01*
X3439229Y-10708650D02*
X3458277Y-10718174D01*
X3458277Y-10718174D02*
X3467801Y-10737222D01*
X3467801Y-10737222D02*
X3467801Y-10841984D01*
X3467801Y-10737222D02*
X3477324Y-10718174D01*
X3477324Y-10718174D02*
X3496372Y-10708650D01*
X3496372Y-10708650D02*
X3524943Y-10708650D01*
X3524943Y-10708650D02*
X3543991Y-10718174D01*
X3543991Y-10718174D02*
X3553515Y-10737222D01*
X3553515Y-10737222D02*
X3553515Y-10841984D01*
X3943991Y-10632460D02*
X3772563Y-10889603D01*
X4201134Y-10641984D02*
X4220182Y-10641984D01*
X4220182Y-10641984D02*
X4239229Y-10651508D01*
X4239229Y-10651508D02*
X4248753Y-10661031D01*
X4248753Y-10661031D02*
X4258277Y-10680079D01*
X4258277Y-10680079D02*
X4267801Y-10718174D01*
X4267801Y-10718174D02*
X4267801Y-10765793D01*
X4267801Y-10765793D02*
X4258277Y-10803889D01*
X4258277Y-10803889D02*
X4248753Y-10822936D01*
X4248753Y-10822936D02*
X4239229Y-10832460D01*
X4239229Y-10832460D02*
X4220182Y-10841984D01*
X4220182Y-10841984D02*
X4201134Y-10841984D01*
X4201134Y-10841984D02*
X4182086Y-10832460D01*
X4182086Y-10832460D02*
X4172563Y-10822936D01*
X4172563Y-10822936D02*
X4163039Y-10803889D01*
X4163039Y-10803889D02*
X4153515Y-10765793D01*
X4153515Y-10765793D02*
X4153515Y-10718174D01*
X4153515Y-10718174D02*
X4163039Y-10680079D01*
X4163039Y-10680079D02*
X4172563Y-10661031D01*
X4172563Y-10661031D02*
X4182086Y-10651508D01*
X4182086Y-10651508D02*
X4201134Y-10641984D01*
X4353515Y-10822936D02*
X4363039Y-10832460D01*
X4363039Y-10832460D02*
X4353515Y-10841984D01*
X4353515Y-10841984D02*
X4343991Y-10832460D01*
X4343991Y-10832460D02*
X4353515Y-10822936D01*
X4353515Y-10822936D02*
X4353515Y-10841984D01*
X4486848Y-10641984D02*
X4505896Y-10641984D01*
X4505896Y-10641984D02*
X4524944Y-10651508D01*
X4524944Y-10651508D02*
X4534468Y-10661031D01*
X4534468Y-10661031D02*
X4543991Y-10680079D01*
X4543991Y-10680079D02*
X4553515Y-10718174D01*
X4553515Y-10718174D02*
X4553515Y-10765793D01*
X4553515Y-10765793D02*
X4543991Y-10803889D01*
X4543991Y-10803889D02*
X4534468Y-10822936D01*
X4534468Y-10822936D02*
X4524944Y-10832460D01*
X4524944Y-10832460D02*
X4505896Y-10841984D01*
X4505896Y-10841984D02*
X4486848Y-10841984D01*
X4486848Y-10841984D02*
X4467801Y-10832460D01*
X4467801Y-10832460D02*
X4458277Y-10822936D01*
X4458277Y-10822936D02*
X4448753Y-10803889D01*
X4448753Y-10803889D02*
X4439229Y-10765793D01*
X4439229Y-10765793D02*
X4439229Y-10718174D01*
X4439229Y-10718174D02*
X4448753Y-10680079D01*
X4448753Y-10680079D02*
X4458277Y-10661031D01*
X4458277Y-10661031D02*
X4467801Y-10651508D01*
X4467801Y-10651508D02*
X4486848Y-10641984D01*
X4620182Y-10641984D02*
X4743991Y-10641984D01*
X4743991Y-10641984D02*
X4677325Y-10718174D01*
X4677325Y-10718174D02*
X4705896Y-10718174D01*
X4705896Y-10718174D02*
X4724944Y-10727698D01*
X4724944Y-10727698D02*
X4734468Y-10737222D01*
X4734468Y-10737222D02*
X4743991Y-10756270D01*
X4743991Y-10756270D02*
X4743991Y-10803889D01*
X4743991Y-10803889D02*
X4734468Y-10822936D01*
X4734468Y-10822936D02*
X4724944Y-10832460D01*
X4724944Y-10832460D02*
X4705896Y-10841984D01*
X4705896Y-10841984D02*
X4648753Y-10841984D01*
X4648753Y-10841984D02*
X4629706Y-10832460D01*
X4629706Y-10832460D02*
X4620182Y-10822936D01*
X4867801Y-10641984D02*
X4886849Y-10641984D01*
X4886849Y-10641984D02*
X4905896Y-10651508D01*
X4905896Y-10651508D02*
X4915420Y-10661031D01*
X4915420Y-10661031D02*
X4924944Y-10680079D01*
X4924944Y-10680079D02*
X4934468Y-10718174D01*
X4934468Y-10718174D02*
X4934468Y-10765793D01*
X4934468Y-10765793D02*
X4924944Y-10803889D01*
X4924944Y-10803889D02*
X4915420Y-10822936D01*
X4915420Y-10822936D02*
X4905896Y-10832460D01*
X4905896Y-10832460D02*
X4886849Y-10841984D01*
X4886849Y-10841984D02*
X4867801Y-10841984D01*
X4867801Y-10841984D02*
X4848753Y-10832460D01*
X4848753Y-10832460D02*
X4839229Y-10822936D01*
X4839229Y-10822936D02*
X4829706Y-10803889D01*
X4829706Y-10803889D02*
X4820182Y-10765793D01*
X4820182Y-10765793D02*
X4820182Y-10718174D01*
X4820182Y-10718174D02*
X4829706Y-10680079D01*
X4829706Y-10680079D02*
X4839229Y-10661031D01*
X4839229Y-10661031D02*
X4848753Y-10651508D01*
X4848753Y-10651508D02*
X4867801Y-10641984D01*
X5058277Y-10641984D02*
X5077325Y-10641984D01*
X5077325Y-10641984D02*
X5096372Y-10651508D01*
X5096372Y-10651508D02*
X5105896Y-10661031D01*
X5105896Y-10661031D02*
X5115420Y-10680079D01*
X5115420Y-10680079D02*
X5124944Y-10718174D01*
X5124944Y-10718174D02*
X5124944Y-10765793D01*
X5124944Y-10765793D02*
X5115420Y-10803889D01*
X5115420Y-10803889D02*
X5105896Y-10822936D01*
X5105896Y-10822936D02*
X5096372Y-10832460D01*
X5096372Y-10832460D02*
X5077325Y-10841984D01*
X5077325Y-10841984D02*
X5058277Y-10841984D01*
X5058277Y-10841984D02*
X5039229Y-10832460D01*
X5039229Y-10832460D02*
X5029706Y-10822936D01*
X5029706Y-10822936D02*
X5020182Y-10803889D01*
X5020182Y-10803889D02*
X5010658Y-10765793D01*
X5010658Y-10765793D02*
X5010658Y-10718174D01*
X5010658Y-10718174D02*
X5020182Y-10680079D01*
X5020182Y-10680079D02*
X5029706Y-10661031D01*
X5029706Y-10661031D02*
X5039229Y-10651508D01*
X5039229Y-10651508D02*
X5058277Y-10641984D01*
X5201134Y-10641984D02*
X5201134Y-10680079D01*
X5277325Y-10641984D02*
X5277325Y-10680079D01*
X5572563Y-10918174D02*
X5563039Y-10908650D01*
X5563039Y-10908650D02*
X5543991Y-10880079D01*
X5543991Y-10880079D02*
X5534468Y-10861031D01*
X5534468Y-10861031D02*
X5524944Y-10832460D01*
X5524944Y-10832460D02*
X5515420Y-10784841D01*
X5515420Y-10784841D02*
X5515420Y-10746746D01*
X5515420Y-10746746D02*
X5524944Y-10699127D01*
X5524944Y-10699127D02*
X5534468Y-10670555D01*
X5534468Y-10670555D02*
X5543991Y-10651508D01*
X5543991Y-10651508D02*
X5563039Y-10622936D01*
X5563039Y-10622936D02*
X5572563Y-10613412D01*
X5753515Y-10841984D02*
X5639229Y-10841984D01*
X5696372Y-10841984D02*
X5696372Y-10641984D01*
X5696372Y-10641984D02*
X5677325Y-10670555D01*
X5677325Y-10670555D02*
X5658277Y-10689603D01*
X5658277Y-10689603D02*
X5639229Y-10699127D01*
X5867801Y-10727698D02*
X5848753Y-10718174D01*
X5848753Y-10718174D02*
X5839229Y-10708650D01*
X5839229Y-10708650D02*
X5829706Y-10689603D01*
X5829706Y-10689603D02*
X5829706Y-10680079D01*
X5829706Y-10680079D02*
X5839229Y-10661031D01*
X5839229Y-10661031D02*
X5848753Y-10651508D01*
X5848753Y-10651508D02*
X5867801Y-10641984D01*
X5867801Y-10641984D02*
X5905896Y-10641984D01*
X5905896Y-10641984D02*
X5924944Y-10651508D01*
X5924944Y-10651508D02*
X5934468Y-10661031D01*
X5934468Y-10661031D02*
X5943991Y-10680079D01*
X5943991Y-10680079D02*
X5943991Y-10689603D01*
X5943991Y-10689603D02*
X5934468Y-10708650D01*
X5934468Y-10708650D02*
X5924944Y-10718174D01*
X5924944Y-10718174D02*
X5905896Y-10727698D01*
X5905896Y-10727698D02*
X5867801Y-10727698D01*
X5867801Y-10727698D02*
X5848753Y-10737222D01*
X5848753Y-10737222D02*
X5839229Y-10746746D01*
X5839229Y-10746746D02*
X5829706Y-10765793D01*
X5829706Y-10765793D02*
X5829706Y-10803889D01*
X5829706Y-10803889D02*
X5839229Y-10822936D01*
X5839229Y-10822936D02*
X5848753Y-10832460D01*
X5848753Y-10832460D02*
X5867801Y-10841984D01*
X5867801Y-10841984D02*
X5905896Y-10841984D01*
X5905896Y-10841984D02*
X5924944Y-10832460D01*
X5924944Y-10832460D02*
X5934468Y-10822936D01*
X5934468Y-10822936D02*
X5943991Y-10803889D01*
X5943991Y-10803889D02*
X5943991Y-10765793D01*
X5943991Y-10765793D02*
X5934468Y-10746746D01*
X5934468Y-10746746D02*
X5924944Y-10737222D01*
X5924944Y-10737222D02*
X5905896Y-10727698D01*
X6182087Y-10841984D02*
X6182087Y-10641984D01*
X6267801Y-10841984D02*
X6267801Y-10737222D01*
X6267801Y-10737222D02*
X6258277Y-10718174D01*
X6258277Y-10718174D02*
X6239230Y-10708650D01*
X6239230Y-10708650D02*
X6210658Y-10708650D01*
X6210658Y-10708650D02*
X6191610Y-10718174D01*
X6191610Y-10718174D02*
X6182087Y-10727698D01*
X6391610Y-10841984D02*
X6372563Y-10832460D01*
X6372563Y-10832460D02*
X6363039Y-10822936D01*
X6363039Y-10822936D02*
X6353515Y-10803889D01*
X6353515Y-10803889D02*
X6353515Y-10746746D01*
X6353515Y-10746746D02*
X6363039Y-10727698D01*
X6363039Y-10727698D02*
X6372563Y-10718174D01*
X6372563Y-10718174D02*
X6391610Y-10708650D01*
X6391610Y-10708650D02*
X6420182Y-10708650D01*
X6420182Y-10708650D02*
X6439230Y-10718174D01*
X6439230Y-10718174D02*
X6448753Y-10727698D01*
X6448753Y-10727698D02*
X6458277Y-10746746D01*
X6458277Y-10746746D02*
X6458277Y-10803889D01*
X6458277Y-10803889D02*
X6448753Y-10822936D01*
X6448753Y-10822936D02*
X6439230Y-10832460D01*
X6439230Y-10832460D02*
X6420182Y-10841984D01*
X6420182Y-10841984D02*
X6391610Y-10841984D01*
X6572563Y-10841984D02*
X6553515Y-10832460D01*
X6553515Y-10832460D02*
X6543991Y-10813412D01*
X6543991Y-10813412D02*
X6543991Y-10641984D01*
X6724944Y-10832460D02*
X6705896Y-10841984D01*
X6705896Y-10841984D02*
X6667801Y-10841984D01*
X6667801Y-10841984D02*
X6648753Y-10832460D01*
X6648753Y-10832460D02*
X6639230Y-10813412D01*
X6639230Y-10813412D02*
X6639230Y-10737222D01*
X6639230Y-10737222D02*
X6648753Y-10718174D01*
X6648753Y-10718174D02*
X6667801Y-10708650D01*
X6667801Y-10708650D02*
X6705896Y-10708650D01*
X6705896Y-10708650D02*
X6724944Y-10718174D01*
X6724944Y-10718174D02*
X6734468Y-10737222D01*
X6734468Y-10737222D02*
X6734468Y-10756270D01*
X6734468Y-10756270D02*
X6639230Y-10775317D01*
X6810658Y-10832460D02*
X6829706Y-10841984D01*
X6829706Y-10841984D02*
X6867801Y-10841984D01*
X6867801Y-10841984D02*
X6886849Y-10832460D01*
X6886849Y-10832460D02*
X6896372Y-10813412D01*
X6896372Y-10813412D02*
X6896372Y-10803889D01*
X6896372Y-10803889D02*
X6886849Y-10784841D01*
X6886849Y-10784841D02*
X6867801Y-10775317D01*
X6867801Y-10775317D02*
X6839230Y-10775317D01*
X6839230Y-10775317D02*
X6820182Y-10765793D01*
X6820182Y-10765793D02*
X6810658Y-10746746D01*
X6810658Y-10746746D02*
X6810658Y-10737222D01*
X6810658Y-10737222D02*
X6820182Y-10718174D01*
X6820182Y-10718174D02*
X6839230Y-10708650D01*
X6839230Y-10708650D02*
X6867801Y-10708650D01*
X6867801Y-10708650D02*
X6886849Y-10718174D01*
X6963039Y-10918174D02*
X6972563Y-10908650D01*
X6972563Y-10908650D02*
X6991611Y-10880079D01*
X6991611Y-10880079D02*
X7001134Y-10861031D01*
X7001134Y-10861031D02*
X7010658Y-10832460D01*
X7010658Y-10832460D02*
X7020182Y-10784841D01*
X7020182Y-10784841D02*
X7020182Y-10746746D01*
X7020182Y-10746746D02*
X7010658Y-10699127D01*
X7010658Y-10699127D02*
X7001134Y-10670555D01*
X7001134Y-10670555D02*
X6991611Y-10651508D01*
X6991611Y-10651508D02*
X6972563Y-10622936D01*
X6972563Y-10622936D02*
X6963039Y-10613412D01*
D12*
X1984481Y-11045931D02*
X1984481Y-10983069D01*
X1921619Y-10983069D01*
X1921619Y-11045931D01*
X1984481Y-11045931D01*
D11*
X2296372Y-10905984D02*
X2315420Y-10905984D01*
X2315420Y-10905984D02*
X2334467Y-10915508D01*
X2334467Y-10915508D02*
X2343991Y-10925031D01*
X2343991Y-10925031D02*
X2353515Y-10944079D01*
X2353515Y-10944079D02*
X2363039Y-10982174D01*
X2363039Y-10982174D02*
X2363039Y-11029793D01*
X2363039Y-11029793D02*
X2353515Y-11067889D01*
X2353515Y-11067889D02*
X2343991Y-11086936D01*
X2343991Y-11086936D02*
X2334467Y-11096460D01*
X2334467Y-11096460D02*
X2315420Y-11105984D01*
X2315420Y-11105984D02*
X2296372Y-11105984D01*
X2296372Y-11105984D02*
X2277324Y-11096460D01*
X2277324Y-11096460D02*
X2267801Y-11086936D01*
X2267801Y-11086936D02*
X2258277Y-11067889D01*
X2258277Y-11067889D02*
X2248753Y-11029793D01*
X2248753Y-11029793D02*
X2248753Y-10982174D01*
X2248753Y-10982174D02*
X2258277Y-10944079D01*
X2258277Y-10944079D02*
X2267801Y-10925031D01*
X2267801Y-10925031D02*
X2277324Y-10915508D01*
X2277324Y-10915508D02*
X2296372Y-10905984D01*
X2448753Y-11086936D02*
X2458277Y-11096460D01*
X2458277Y-11096460D02*
X2448753Y-11105984D01*
X2448753Y-11105984D02*
X2439229Y-11096460D01*
X2439229Y-11096460D02*
X2448753Y-11086936D01*
X2448753Y-11086936D02*
X2448753Y-11105984D01*
X2572563Y-10991698D02*
X2553515Y-10982174D01*
X2553515Y-10982174D02*
X2543991Y-10972650D01*
X2543991Y-10972650D02*
X2534467Y-10953603D01*
X2534467Y-10953603D02*
X2534467Y-10944079D01*
X2534467Y-10944079D02*
X2543991Y-10925031D01*
X2543991Y-10925031D02*
X2553515Y-10915508D01*
X2553515Y-10915508D02*
X2572563Y-10905984D01*
X2572563Y-10905984D02*
X2610658Y-10905984D01*
X2610658Y-10905984D02*
X2629705Y-10915508D01*
X2629705Y-10915508D02*
X2639229Y-10925031D01*
X2639229Y-10925031D02*
X2648753Y-10944079D01*
X2648753Y-10944079D02*
X2648753Y-10953603D01*
X2648753Y-10953603D02*
X2639229Y-10972650D01*
X2639229Y-10972650D02*
X2629705Y-10982174D01*
X2629705Y-10982174D02*
X2610658Y-10991698D01*
X2610658Y-10991698D02*
X2572563Y-10991698D01*
X2572563Y-10991698D02*
X2553515Y-11001222D01*
X2553515Y-11001222D02*
X2543991Y-11010746D01*
X2543991Y-11010746D02*
X2534467Y-11029793D01*
X2534467Y-11029793D02*
X2534467Y-11067889D01*
X2534467Y-11067889D02*
X2543991Y-11086936D01*
X2543991Y-11086936D02*
X2553515Y-11096460D01*
X2553515Y-11096460D02*
X2572563Y-11105984D01*
X2572563Y-11105984D02*
X2610658Y-11105984D01*
X2610658Y-11105984D02*
X2629705Y-11096460D01*
X2629705Y-11096460D02*
X2639229Y-11086936D01*
X2639229Y-11086936D02*
X2648753Y-11067889D01*
X2648753Y-11067889D02*
X2648753Y-11029793D01*
X2648753Y-11029793D02*
X2639229Y-11010746D01*
X2639229Y-11010746D02*
X2629705Y-11001222D01*
X2629705Y-11001222D02*
X2610658Y-10991698D01*
X2763039Y-10991698D02*
X2743991Y-10982174D01*
X2743991Y-10982174D02*
X2734467Y-10972650D01*
X2734467Y-10972650D02*
X2724944Y-10953603D01*
X2724944Y-10953603D02*
X2724944Y-10944079D01*
X2724944Y-10944079D02*
X2734467Y-10925031D01*
X2734467Y-10925031D02*
X2743991Y-10915508D01*
X2743991Y-10915508D02*
X2763039Y-10905984D01*
X2763039Y-10905984D02*
X2801134Y-10905984D01*
X2801134Y-10905984D02*
X2820182Y-10915508D01*
X2820182Y-10915508D02*
X2829705Y-10925031D01*
X2829705Y-10925031D02*
X2839229Y-10944079D01*
X2839229Y-10944079D02*
X2839229Y-10953603D01*
X2839229Y-10953603D02*
X2829705Y-10972650D01*
X2829705Y-10972650D02*
X2820182Y-10982174D01*
X2820182Y-10982174D02*
X2801134Y-10991698D01*
X2801134Y-10991698D02*
X2763039Y-10991698D01*
X2763039Y-10991698D02*
X2743991Y-11001222D01*
X2743991Y-11001222D02*
X2734467Y-11010746D01*
X2734467Y-11010746D02*
X2724944Y-11029793D01*
X2724944Y-11029793D02*
X2724944Y-11067889D01*
X2724944Y-11067889D02*
X2734467Y-11086936D01*
X2734467Y-11086936D02*
X2743991Y-11096460D01*
X2743991Y-11096460D02*
X2763039Y-11105984D01*
X2763039Y-11105984D02*
X2801134Y-11105984D01*
X2801134Y-11105984D02*
X2820182Y-11096460D01*
X2820182Y-11096460D02*
X2829705Y-11086936D01*
X2829705Y-11086936D02*
X2839229Y-11067889D01*
X2839229Y-11067889D02*
X2839229Y-11029793D01*
X2839229Y-11029793D02*
X2829705Y-11010746D01*
X2829705Y-11010746D02*
X2820182Y-11001222D01*
X2820182Y-11001222D02*
X2801134Y-10991698D01*
X2934467Y-11105984D02*
X2972562Y-11105984D01*
X2972562Y-11105984D02*
X2991610Y-11096460D01*
X2991610Y-11096460D02*
X3001134Y-11086936D01*
X3001134Y-11086936D02*
X3020182Y-11058365D01*
X3020182Y-11058365D02*
X3029705Y-11020270D01*
X3029705Y-11020270D02*
X3029705Y-10944079D01*
X3029705Y-10944079D02*
X3020182Y-10925031D01*
X3020182Y-10925031D02*
X3010658Y-10915508D01*
X3010658Y-10915508D02*
X2991610Y-10905984D01*
X2991610Y-10905984D02*
X2953515Y-10905984D01*
X2953515Y-10905984D02*
X2934467Y-10915508D01*
X2934467Y-10915508D02*
X2924943Y-10925031D01*
X2924943Y-10925031D02*
X2915420Y-10944079D01*
X2915420Y-10944079D02*
X2915420Y-10991698D01*
X2915420Y-10991698D02*
X2924943Y-11010746D01*
X2924943Y-11010746D02*
X2934467Y-11020270D01*
X2934467Y-11020270D02*
X2953515Y-11029793D01*
X2953515Y-11029793D02*
X2991610Y-11029793D01*
X2991610Y-11029793D02*
X3010658Y-11020270D01*
X3010658Y-11020270D02*
X3020182Y-11010746D01*
X3020182Y-11010746D02*
X3029705Y-10991698D01*
X3115420Y-11105984D02*
X3115420Y-10972650D01*
X3115420Y-10991698D02*
X3124943Y-10982174D01*
X3124943Y-10982174D02*
X3143991Y-10972650D01*
X3143991Y-10972650D02*
X3172563Y-10972650D01*
X3172563Y-10972650D02*
X3191610Y-10982174D01*
X3191610Y-10982174D02*
X3201134Y-11001222D01*
X3201134Y-11001222D02*
X3201134Y-11105984D01*
X3201134Y-11001222D02*
X3210658Y-10982174D01*
X3210658Y-10982174D02*
X3229705Y-10972650D01*
X3229705Y-10972650D02*
X3258277Y-10972650D01*
X3258277Y-10972650D02*
X3277324Y-10982174D01*
X3277324Y-10982174D02*
X3286848Y-11001222D01*
X3286848Y-11001222D02*
X3286848Y-11105984D01*
X3382086Y-11105984D02*
X3382086Y-10972650D01*
X3382086Y-10991698D02*
X3391610Y-10982174D01*
X3391610Y-10982174D02*
X3410658Y-10972650D01*
X3410658Y-10972650D02*
X3439229Y-10972650D01*
X3439229Y-10972650D02*
X3458277Y-10982174D01*
X3458277Y-10982174D02*
X3467801Y-11001222D01*
X3467801Y-11001222D02*
X3467801Y-11105984D01*
X3467801Y-11001222D02*
X3477324Y-10982174D01*
X3477324Y-10982174D02*
X3496372Y-10972650D01*
X3496372Y-10972650D02*
X3524943Y-10972650D01*
X3524943Y-10972650D02*
X3543991Y-10982174D01*
X3543991Y-10982174D02*
X3553515Y-11001222D01*
X3553515Y-11001222D02*
X3553515Y-11105984D01*
X3943991Y-10896460D02*
X3772563Y-11153603D01*
X4201134Y-10905984D02*
X4220182Y-10905984D01*
X4220182Y-10905984D02*
X4239229Y-10915508D01*
X4239229Y-10915508D02*
X4248753Y-10925031D01*
X4248753Y-10925031D02*
X4258277Y-10944079D01*
X4258277Y-10944079D02*
X4267801Y-10982174D01*
X4267801Y-10982174D02*
X4267801Y-11029793D01*
X4267801Y-11029793D02*
X4258277Y-11067889D01*
X4258277Y-11067889D02*
X4248753Y-11086936D01*
X4248753Y-11086936D02*
X4239229Y-11096460D01*
X4239229Y-11096460D02*
X4220182Y-11105984D01*
X4220182Y-11105984D02*
X4201134Y-11105984D01*
X4201134Y-11105984D02*
X4182086Y-11096460D01*
X4182086Y-11096460D02*
X4172563Y-11086936D01*
X4172563Y-11086936D02*
X4163039Y-11067889D01*
X4163039Y-11067889D02*
X4153515Y-11029793D01*
X4153515Y-11029793D02*
X4153515Y-10982174D01*
X4153515Y-10982174D02*
X4163039Y-10944079D01*
X4163039Y-10944079D02*
X4172563Y-10925031D01*
X4172563Y-10925031D02*
X4182086Y-10915508D01*
X4182086Y-10915508D02*
X4201134Y-10905984D01*
X4353515Y-11086936D02*
X4363039Y-11096460D01*
X4363039Y-11096460D02*
X4353515Y-11105984D01*
X4353515Y-11105984D02*
X4343991Y-11096460D01*
X4343991Y-11096460D02*
X4353515Y-11086936D01*
X4353515Y-11086936D02*
X4353515Y-11105984D01*
X4486848Y-10905984D02*
X4505896Y-10905984D01*
X4505896Y-10905984D02*
X4524944Y-10915508D01*
X4524944Y-10915508D02*
X4534468Y-10925031D01*
X4534468Y-10925031D02*
X4543991Y-10944079D01*
X4543991Y-10944079D02*
X4553515Y-10982174D01*
X4553515Y-10982174D02*
X4553515Y-11029793D01*
X4553515Y-11029793D02*
X4543991Y-11067889D01*
X4543991Y-11067889D02*
X4534468Y-11086936D01*
X4534468Y-11086936D02*
X4524944Y-11096460D01*
X4524944Y-11096460D02*
X4505896Y-11105984D01*
X4505896Y-11105984D02*
X4486848Y-11105984D01*
X4486848Y-11105984D02*
X4467801Y-11096460D01*
X4467801Y-11096460D02*
X4458277Y-11086936D01*
X4458277Y-11086936D02*
X4448753Y-11067889D01*
X4448753Y-11067889D02*
X4439229Y-11029793D01*
X4439229Y-11029793D02*
X4439229Y-10982174D01*
X4439229Y-10982174D02*
X4448753Y-10944079D01*
X4448753Y-10944079D02*
X4458277Y-10925031D01*
X4458277Y-10925031D02*
X4467801Y-10915508D01*
X4467801Y-10915508D02*
X4486848Y-10905984D01*
X4620182Y-10905984D02*
X4743991Y-10905984D01*
X4743991Y-10905984D02*
X4677325Y-10982174D01*
X4677325Y-10982174D02*
X4705896Y-10982174D01*
X4705896Y-10982174D02*
X4724944Y-10991698D01*
X4724944Y-10991698D02*
X4734468Y-11001222D01*
X4734468Y-11001222D02*
X4743991Y-11020270D01*
X4743991Y-11020270D02*
X4743991Y-11067889D01*
X4743991Y-11067889D02*
X4734468Y-11086936D01*
X4734468Y-11086936D02*
X4724944Y-11096460D01*
X4724944Y-11096460D02*
X4705896Y-11105984D01*
X4705896Y-11105984D02*
X4648753Y-11105984D01*
X4648753Y-11105984D02*
X4629706Y-11096460D01*
X4629706Y-11096460D02*
X4620182Y-11086936D01*
X4924944Y-10905984D02*
X4829706Y-10905984D01*
X4829706Y-10905984D02*
X4820182Y-11001222D01*
X4820182Y-11001222D02*
X4829706Y-10991698D01*
X4829706Y-10991698D02*
X4848753Y-10982174D01*
X4848753Y-10982174D02*
X4896372Y-10982174D01*
X4896372Y-10982174D02*
X4915420Y-10991698D01*
X4915420Y-10991698D02*
X4924944Y-11001222D01*
X4924944Y-11001222D02*
X4934468Y-11020270D01*
X4934468Y-11020270D02*
X4934468Y-11067889D01*
X4934468Y-11067889D02*
X4924944Y-11086936D01*
X4924944Y-11086936D02*
X4915420Y-11096460D01*
X4915420Y-11096460D02*
X4896372Y-11105984D01*
X4896372Y-11105984D02*
X4848753Y-11105984D01*
X4848753Y-11105984D02*
X4829706Y-11096460D01*
X4829706Y-11096460D02*
X4820182Y-11086936D01*
X5058277Y-10905984D02*
X5077325Y-10905984D01*
X5077325Y-10905984D02*
X5096372Y-10915508D01*
X5096372Y-10915508D02*
X5105896Y-10925031D01*
X5105896Y-10925031D02*
X5115420Y-10944079D01*
X5115420Y-10944079D02*
X5124944Y-10982174D01*
X5124944Y-10982174D02*
X5124944Y-11029793D01*
X5124944Y-11029793D02*
X5115420Y-11067889D01*
X5115420Y-11067889D02*
X5105896Y-11086936D01*
X5105896Y-11086936D02*
X5096372Y-11096460D01*
X5096372Y-11096460D02*
X5077325Y-11105984D01*
X5077325Y-11105984D02*
X5058277Y-11105984D01*
X5058277Y-11105984D02*
X5039229Y-11096460D01*
X5039229Y-11096460D02*
X5029706Y-11086936D01*
X5029706Y-11086936D02*
X5020182Y-11067889D01*
X5020182Y-11067889D02*
X5010658Y-11029793D01*
X5010658Y-11029793D02*
X5010658Y-10982174D01*
X5010658Y-10982174D02*
X5020182Y-10944079D01*
X5020182Y-10944079D02*
X5029706Y-10925031D01*
X5029706Y-10925031D02*
X5039229Y-10915508D01*
X5039229Y-10915508D02*
X5058277Y-10905984D01*
X5201134Y-10905984D02*
X5201134Y-10944079D01*
X5277325Y-10905984D02*
X5277325Y-10944079D01*
X5572563Y-11182174D02*
X5563039Y-11172650D01*
X5563039Y-11172650D02*
X5543991Y-11144079D01*
X5543991Y-11144079D02*
X5534468Y-11125031D01*
X5534468Y-11125031D02*
X5524944Y-11096460D01*
X5524944Y-11096460D02*
X5515420Y-11048841D01*
X5515420Y-11048841D02*
X5515420Y-11010746D01*
X5515420Y-11010746D02*
X5524944Y-10963127D01*
X5524944Y-10963127D02*
X5534468Y-10934555D01*
X5534468Y-10934555D02*
X5543991Y-10915508D01*
X5543991Y-10915508D02*
X5563039Y-10886936D01*
X5563039Y-10886936D02*
X5572563Y-10877412D01*
X5639229Y-10925031D02*
X5648753Y-10915508D01*
X5648753Y-10915508D02*
X5667801Y-10905984D01*
X5667801Y-10905984D02*
X5715420Y-10905984D01*
X5715420Y-10905984D02*
X5734468Y-10915508D01*
X5734468Y-10915508D02*
X5743991Y-10925031D01*
X5743991Y-10925031D02*
X5753515Y-10944079D01*
X5753515Y-10944079D02*
X5753515Y-10963127D01*
X5753515Y-10963127D02*
X5743991Y-10991698D01*
X5743991Y-10991698D02*
X5629706Y-11105984D01*
X5629706Y-11105984D02*
X5753515Y-11105984D01*
X5924944Y-10972650D02*
X5924944Y-11105984D01*
X5877325Y-10896460D02*
X5829706Y-11039317D01*
X5829706Y-11039317D02*
X5953515Y-11039317D01*
X6182087Y-11105984D02*
X6182087Y-10905984D01*
X6267801Y-11105984D02*
X6267801Y-11001222D01*
X6267801Y-11001222D02*
X6258277Y-10982174D01*
X6258277Y-10982174D02*
X6239230Y-10972650D01*
X6239230Y-10972650D02*
X6210658Y-10972650D01*
X6210658Y-10972650D02*
X6191610Y-10982174D01*
X6191610Y-10982174D02*
X6182087Y-10991698D01*
X6391610Y-11105984D02*
X6372563Y-11096460D01*
X6372563Y-11096460D02*
X6363039Y-11086936D01*
X6363039Y-11086936D02*
X6353515Y-11067889D01*
X6353515Y-11067889D02*
X6353515Y-11010746D01*
X6353515Y-11010746D02*
X6363039Y-10991698D01*
X6363039Y-10991698D02*
X6372563Y-10982174D01*
X6372563Y-10982174D02*
X6391610Y-10972650D01*
X6391610Y-10972650D02*
X6420182Y-10972650D01*
X6420182Y-10972650D02*
X6439230Y-10982174D01*
X6439230Y-10982174D02*
X6448753Y-10991698D01*
X6448753Y-10991698D02*
X6458277Y-11010746D01*
X6458277Y-11010746D02*
X6458277Y-11067889D01*
X6458277Y-11067889D02*
X6448753Y-11086936D01*
X6448753Y-11086936D02*
X6439230Y-11096460D01*
X6439230Y-11096460D02*
X6420182Y-11105984D01*
X6420182Y-11105984D02*
X6391610Y-11105984D01*
X6572563Y-11105984D02*
X6553515Y-11096460D01*
X6553515Y-11096460D02*
X6543991Y-11077412D01*
X6543991Y-11077412D02*
X6543991Y-10905984D01*
X6724944Y-11096460D02*
X6705896Y-11105984D01*
X6705896Y-11105984D02*
X6667801Y-11105984D01*
X6667801Y-11105984D02*
X6648753Y-11096460D01*
X6648753Y-11096460D02*
X6639230Y-11077412D01*
X6639230Y-11077412D02*
X6639230Y-11001222D01*
X6639230Y-11001222D02*
X6648753Y-10982174D01*
X6648753Y-10982174D02*
X6667801Y-10972650D01*
X6667801Y-10972650D02*
X6705896Y-10972650D01*
X6705896Y-10972650D02*
X6724944Y-10982174D01*
X6724944Y-10982174D02*
X6734468Y-11001222D01*
X6734468Y-11001222D02*
X6734468Y-11020270D01*
X6734468Y-11020270D02*
X6639230Y-11039317D01*
X6810658Y-11096460D02*
X6829706Y-11105984D01*
X6829706Y-11105984D02*
X6867801Y-11105984D01*
X6867801Y-11105984D02*
X6886849Y-11096460D01*
X6886849Y-11096460D02*
X6896372Y-11077412D01*
X6896372Y-11077412D02*
X6896372Y-11067889D01*
X6896372Y-11067889D02*
X6886849Y-11048841D01*
X6886849Y-11048841D02*
X6867801Y-11039317D01*
X6867801Y-11039317D02*
X6839230Y-11039317D01*
X6839230Y-11039317D02*
X6820182Y-11029793D01*
X6820182Y-11029793D02*
X6810658Y-11010746D01*
X6810658Y-11010746D02*
X6810658Y-11001222D01*
X6810658Y-11001222D02*
X6820182Y-10982174D01*
X6820182Y-10982174D02*
X6839230Y-10972650D01*
X6839230Y-10972650D02*
X6867801Y-10972650D01*
X6867801Y-10972650D02*
X6886849Y-10982174D01*
X6963039Y-11182174D02*
X6972563Y-11172650D01*
X6972563Y-11172650D02*
X6991611Y-11144079D01*
X6991611Y-11144079D02*
X7001134Y-11125031D01*
X7001134Y-11125031D02*
X7010658Y-11096460D01*
X7010658Y-11096460D02*
X7020182Y-11048841D01*
X7020182Y-11048841D02*
X7020182Y-11010746D01*
X7020182Y-11010746D02*
X7010658Y-10963127D01*
X7010658Y-10963127D02*
X7001134Y-10934555D01*
X7001134Y-10934555D02*
X6991611Y-10915508D01*
X6991611Y-10915508D02*
X6972563Y-10886936D01*
X6972563Y-10886936D02*
X6963039Y-10877412D01*
D12*
X1952500Y-11323500D02*
X1997500Y-11278500D01*
X1952500Y-11233500D01*
X1907500Y-11278500D01*
X1952500Y-11323500D01*
D11*
X2296372Y-11169984D02*
X2315420Y-11169984D01*
X2315420Y-11169984D02*
X2334467Y-11179508D01*
X2334467Y-11179508D02*
X2343991Y-11189031D01*
X2343991Y-11189031D02*
X2353515Y-11208079D01*
X2353515Y-11208079D02*
X2363039Y-11246174D01*
X2363039Y-11246174D02*
X2363039Y-11293793D01*
X2363039Y-11293793D02*
X2353515Y-11331888D01*
X2353515Y-11331888D02*
X2343991Y-11350936D01*
X2343991Y-11350936D02*
X2334467Y-11360460D01*
X2334467Y-11360460D02*
X2315420Y-11369984D01*
X2315420Y-11369984D02*
X2296372Y-11369984D01*
X2296372Y-11369984D02*
X2277324Y-11360460D01*
X2277324Y-11360460D02*
X2267801Y-11350936D01*
X2267801Y-11350936D02*
X2258277Y-11331888D01*
X2258277Y-11331888D02*
X2248753Y-11293793D01*
X2248753Y-11293793D02*
X2248753Y-11246174D01*
X2248753Y-11246174D02*
X2258277Y-11208079D01*
X2258277Y-11208079D02*
X2267801Y-11189031D01*
X2267801Y-11189031D02*
X2277324Y-11179508D01*
X2277324Y-11179508D02*
X2296372Y-11169984D01*
X2448753Y-11350936D02*
X2458277Y-11360460D01*
X2458277Y-11360460D02*
X2448753Y-11369984D01*
X2448753Y-11369984D02*
X2439229Y-11360460D01*
X2439229Y-11360460D02*
X2448753Y-11350936D01*
X2448753Y-11350936D02*
X2448753Y-11369984D01*
X2553515Y-11369984D02*
X2591610Y-11369984D01*
X2591610Y-11369984D02*
X2610658Y-11360460D01*
X2610658Y-11360460D02*
X2620182Y-11350936D01*
X2620182Y-11350936D02*
X2639229Y-11322365D01*
X2639229Y-11322365D02*
X2648753Y-11284269D01*
X2648753Y-11284269D02*
X2648753Y-11208079D01*
X2648753Y-11208079D02*
X2639229Y-11189031D01*
X2639229Y-11189031D02*
X2629705Y-11179508D01*
X2629705Y-11179508D02*
X2610658Y-11169984D01*
X2610658Y-11169984D02*
X2572563Y-11169984D01*
X2572563Y-11169984D02*
X2553515Y-11179508D01*
X2553515Y-11179508D02*
X2543991Y-11189031D01*
X2543991Y-11189031D02*
X2534467Y-11208079D01*
X2534467Y-11208079D02*
X2534467Y-11255698D01*
X2534467Y-11255698D02*
X2543991Y-11274746D01*
X2543991Y-11274746D02*
X2553515Y-11284269D01*
X2553515Y-11284269D02*
X2572563Y-11293793D01*
X2572563Y-11293793D02*
X2610658Y-11293793D01*
X2610658Y-11293793D02*
X2629705Y-11284269D01*
X2629705Y-11284269D02*
X2639229Y-11274746D01*
X2639229Y-11274746D02*
X2648753Y-11255698D01*
X2772563Y-11169984D02*
X2791610Y-11169984D01*
X2791610Y-11169984D02*
X2810658Y-11179508D01*
X2810658Y-11179508D02*
X2820182Y-11189031D01*
X2820182Y-11189031D02*
X2829705Y-11208079D01*
X2829705Y-11208079D02*
X2839229Y-11246174D01*
X2839229Y-11246174D02*
X2839229Y-11293793D01*
X2839229Y-11293793D02*
X2829705Y-11331888D01*
X2829705Y-11331888D02*
X2820182Y-11350936D01*
X2820182Y-11350936D02*
X2810658Y-11360460D01*
X2810658Y-11360460D02*
X2791610Y-11369984D01*
X2791610Y-11369984D02*
X2772563Y-11369984D01*
X2772563Y-11369984D02*
X2753515Y-11360460D01*
X2753515Y-11360460D02*
X2743991Y-11350936D01*
X2743991Y-11350936D02*
X2734467Y-11331888D01*
X2734467Y-11331888D02*
X2724944Y-11293793D01*
X2724944Y-11293793D02*
X2724944Y-11246174D01*
X2724944Y-11246174D02*
X2734467Y-11208079D01*
X2734467Y-11208079D02*
X2743991Y-11189031D01*
X2743991Y-11189031D02*
X2753515Y-11179508D01*
X2753515Y-11179508D02*
X2772563Y-11169984D01*
X2963039Y-11169984D02*
X2982086Y-11169984D01*
X2982086Y-11169984D02*
X3001134Y-11179508D01*
X3001134Y-11179508D02*
X3010658Y-11189031D01*
X3010658Y-11189031D02*
X3020182Y-11208079D01*
X3020182Y-11208079D02*
X3029705Y-11246174D01*
X3029705Y-11246174D02*
X3029705Y-11293793D01*
X3029705Y-11293793D02*
X3020182Y-11331888D01*
X3020182Y-11331888D02*
X3010658Y-11350936D01*
X3010658Y-11350936D02*
X3001134Y-11360460D01*
X3001134Y-11360460D02*
X2982086Y-11369984D01*
X2982086Y-11369984D02*
X2963039Y-11369984D01*
X2963039Y-11369984D02*
X2943991Y-11360460D01*
X2943991Y-11360460D02*
X2934467Y-11350936D01*
X2934467Y-11350936D02*
X2924943Y-11331888D01*
X2924943Y-11331888D02*
X2915420Y-11293793D01*
X2915420Y-11293793D02*
X2915420Y-11246174D01*
X2915420Y-11246174D02*
X2924943Y-11208079D01*
X2924943Y-11208079D02*
X2934467Y-11189031D01*
X2934467Y-11189031D02*
X2943991Y-11179508D01*
X2943991Y-11179508D02*
X2963039Y-11169984D01*
X3115420Y-11369984D02*
X3115420Y-11236650D01*
X3115420Y-11255698D02*
X3124943Y-11246174D01*
X3124943Y-11246174D02*
X3143991Y-11236650D01*
X3143991Y-11236650D02*
X3172563Y-11236650D01*
X3172563Y-11236650D02*
X3191610Y-11246174D01*
X3191610Y-11246174D02*
X3201134Y-11265222D01*
X3201134Y-11265222D02*
X3201134Y-11369984D01*
X3201134Y-11265222D02*
X3210658Y-11246174D01*
X3210658Y-11246174D02*
X3229705Y-11236650D01*
X3229705Y-11236650D02*
X3258277Y-11236650D01*
X3258277Y-11236650D02*
X3277324Y-11246174D01*
X3277324Y-11246174D02*
X3286848Y-11265222D01*
X3286848Y-11265222D02*
X3286848Y-11369984D01*
X3382086Y-11369984D02*
X3382086Y-11236650D01*
X3382086Y-11255698D02*
X3391610Y-11246174D01*
X3391610Y-11246174D02*
X3410658Y-11236650D01*
X3410658Y-11236650D02*
X3439229Y-11236650D01*
X3439229Y-11236650D02*
X3458277Y-11246174D01*
X3458277Y-11246174D02*
X3467801Y-11265222D01*
X3467801Y-11265222D02*
X3467801Y-11369984D01*
X3467801Y-11265222D02*
X3477324Y-11246174D01*
X3477324Y-11246174D02*
X3496372Y-11236650D01*
X3496372Y-11236650D02*
X3524943Y-11236650D01*
X3524943Y-11236650D02*
X3543991Y-11246174D01*
X3543991Y-11246174D02*
X3553515Y-11265222D01*
X3553515Y-11265222D02*
X3553515Y-11369984D01*
X3943991Y-11160460D02*
X3772563Y-11417603D01*
X4201134Y-11169984D02*
X4220182Y-11169984D01*
X4220182Y-11169984D02*
X4239229Y-11179508D01*
X4239229Y-11179508D02*
X4248753Y-11189031D01*
X4248753Y-11189031D02*
X4258277Y-11208079D01*
X4258277Y-11208079D02*
X4267801Y-11246174D01*
X4267801Y-11246174D02*
X4267801Y-11293793D01*
X4267801Y-11293793D02*
X4258277Y-11331888D01*
X4258277Y-11331888D02*
X4248753Y-11350936D01*
X4248753Y-11350936D02*
X4239229Y-11360460D01*
X4239229Y-11360460D02*
X4220182Y-11369984D01*
X4220182Y-11369984D02*
X4201134Y-11369984D01*
X4201134Y-11369984D02*
X4182086Y-11360460D01*
X4182086Y-11360460D02*
X4172563Y-11350936D01*
X4172563Y-11350936D02*
X4163039Y-11331888D01*
X4163039Y-11331888D02*
X4153515Y-11293793D01*
X4153515Y-11293793D02*
X4153515Y-11246174D01*
X4153515Y-11246174D02*
X4163039Y-11208079D01*
X4163039Y-11208079D02*
X4172563Y-11189031D01*
X4172563Y-11189031D02*
X4182086Y-11179508D01*
X4182086Y-11179508D02*
X4201134Y-11169984D01*
X4353515Y-11350936D02*
X4363039Y-11360460D01*
X4363039Y-11360460D02*
X4353515Y-11369984D01*
X4353515Y-11369984D02*
X4343991Y-11360460D01*
X4343991Y-11360460D02*
X4353515Y-11350936D01*
X4353515Y-11350936D02*
X4353515Y-11369984D01*
X4486848Y-11169984D02*
X4505896Y-11169984D01*
X4505896Y-11169984D02*
X4524944Y-11179508D01*
X4524944Y-11179508D02*
X4534468Y-11189031D01*
X4534468Y-11189031D02*
X4543991Y-11208079D01*
X4543991Y-11208079D02*
X4553515Y-11246174D01*
X4553515Y-11246174D02*
X4553515Y-11293793D01*
X4553515Y-11293793D02*
X4543991Y-11331888D01*
X4543991Y-11331888D02*
X4534468Y-11350936D01*
X4534468Y-11350936D02*
X4524944Y-11360460D01*
X4524944Y-11360460D02*
X4505896Y-11369984D01*
X4505896Y-11369984D02*
X4486848Y-11369984D01*
X4486848Y-11369984D02*
X4467801Y-11360460D01*
X4467801Y-11360460D02*
X4458277Y-11350936D01*
X4458277Y-11350936D02*
X4448753Y-11331888D01*
X4448753Y-11331888D02*
X4439229Y-11293793D01*
X4439229Y-11293793D02*
X4439229Y-11246174D01*
X4439229Y-11246174D02*
X4448753Y-11208079D01*
X4448753Y-11208079D02*
X4458277Y-11189031D01*
X4458277Y-11189031D02*
X4467801Y-11179508D01*
X4467801Y-11179508D02*
X4486848Y-11169984D01*
X4620182Y-11169984D02*
X4743991Y-11169984D01*
X4743991Y-11169984D02*
X4677325Y-11246174D01*
X4677325Y-11246174D02*
X4705896Y-11246174D01*
X4705896Y-11246174D02*
X4724944Y-11255698D01*
X4724944Y-11255698D02*
X4734468Y-11265222D01*
X4734468Y-11265222D02*
X4743991Y-11284269D01*
X4743991Y-11284269D02*
X4743991Y-11331888D01*
X4743991Y-11331888D02*
X4734468Y-11350936D01*
X4734468Y-11350936D02*
X4724944Y-11360460D01*
X4724944Y-11360460D02*
X4705896Y-11369984D01*
X4705896Y-11369984D02*
X4648753Y-11369984D01*
X4648753Y-11369984D02*
X4629706Y-11360460D01*
X4629706Y-11360460D02*
X4620182Y-11350936D01*
X4924944Y-11169984D02*
X4829706Y-11169984D01*
X4829706Y-11169984D02*
X4820182Y-11265222D01*
X4820182Y-11265222D02*
X4829706Y-11255698D01*
X4829706Y-11255698D02*
X4848753Y-11246174D01*
X4848753Y-11246174D02*
X4896372Y-11246174D01*
X4896372Y-11246174D02*
X4915420Y-11255698D01*
X4915420Y-11255698D02*
X4924944Y-11265222D01*
X4924944Y-11265222D02*
X4934468Y-11284269D01*
X4934468Y-11284269D02*
X4934468Y-11331888D01*
X4934468Y-11331888D02*
X4924944Y-11350936D01*
X4924944Y-11350936D02*
X4915420Y-11360460D01*
X4915420Y-11360460D02*
X4896372Y-11369984D01*
X4896372Y-11369984D02*
X4848753Y-11369984D01*
X4848753Y-11369984D02*
X4829706Y-11360460D01*
X4829706Y-11360460D02*
X4820182Y-11350936D01*
X5105896Y-11236650D02*
X5105896Y-11369984D01*
X5058277Y-11160460D02*
X5010658Y-11303317D01*
X5010658Y-11303317D02*
X5134468Y-11303317D01*
X5201134Y-11169984D02*
X5201134Y-11208079D01*
X5277325Y-11169984D02*
X5277325Y-11208079D01*
X5572563Y-11446174D02*
X5563039Y-11436650D01*
X5563039Y-11436650D02*
X5543991Y-11408079D01*
X5543991Y-11408079D02*
X5534468Y-11389031D01*
X5534468Y-11389031D02*
X5524944Y-11360460D01*
X5524944Y-11360460D02*
X5515420Y-11312841D01*
X5515420Y-11312841D02*
X5515420Y-11274746D01*
X5515420Y-11274746D02*
X5524944Y-11227127D01*
X5524944Y-11227127D02*
X5534468Y-11198555D01*
X5534468Y-11198555D02*
X5543991Y-11179508D01*
X5543991Y-11179508D02*
X5563039Y-11150936D01*
X5563039Y-11150936D02*
X5572563Y-11141412D01*
X5734468Y-11236650D02*
X5734468Y-11369984D01*
X5686848Y-11160460D02*
X5639229Y-11303317D01*
X5639229Y-11303317D02*
X5763039Y-11303317D01*
X5877325Y-11169984D02*
X5896372Y-11169984D01*
X5896372Y-11169984D02*
X5915420Y-11179508D01*
X5915420Y-11179508D02*
X5924944Y-11189031D01*
X5924944Y-11189031D02*
X5934468Y-11208079D01*
X5934468Y-11208079D02*
X5943991Y-11246174D01*
X5943991Y-11246174D02*
X5943991Y-11293793D01*
X5943991Y-11293793D02*
X5934468Y-11331888D01*
X5934468Y-11331888D02*
X5924944Y-11350936D01*
X5924944Y-11350936D02*
X5915420Y-11360460D01*
X5915420Y-11360460D02*
X5896372Y-11369984D01*
X5896372Y-11369984D02*
X5877325Y-11369984D01*
X5877325Y-11369984D02*
X5858277Y-11360460D01*
X5858277Y-11360460D02*
X5848753Y-11350936D01*
X5848753Y-11350936D02*
X5839229Y-11331888D01*
X5839229Y-11331888D02*
X5829706Y-11293793D01*
X5829706Y-11293793D02*
X5829706Y-11246174D01*
X5829706Y-11246174D02*
X5839229Y-11208079D01*
X5839229Y-11208079D02*
X5848753Y-11189031D01*
X5848753Y-11189031D02*
X5858277Y-11179508D01*
X5858277Y-11179508D02*
X5877325Y-11169984D01*
X6182087Y-11369984D02*
X6182087Y-11169984D01*
X6267801Y-11369984D02*
X6267801Y-11265222D01*
X6267801Y-11265222D02*
X6258277Y-11246174D01*
X6258277Y-11246174D02*
X6239230Y-11236650D01*
X6239230Y-11236650D02*
X6210658Y-11236650D01*
X6210658Y-11236650D02*
X6191610Y-11246174D01*
X6191610Y-11246174D02*
X6182087Y-11255698D01*
X6391610Y-11369984D02*
X6372563Y-11360460D01*
X6372563Y-11360460D02*
X6363039Y-11350936D01*
X6363039Y-11350936D02*
X6353515Y-11331888D01*
X6353515Y-11331888D02*
X6353515Y-11274746D01*
X6353515Y-11274746D02*
X6363039Y-11255698D01*
X6363039Y-11255698D02*
X6372563Y-11246174D01*
X6372563Y-11246174D02*
X6391610Y-11236650D01*
X6391610Y-11236650D02*
X6420182Y-11236650D01*
X6420182Y-11236650D02*
X6439230Y-11246174D01*
X6439230Y-11246174D02*
X6448753Y-11255698D01*
X6448753Y-11255698D02*
X6458277Y-11274746D01*
X6458277Y-11274746D02*
X6458277Y-11331888D01*
X6458277Y-11331888D02*
X6448753Y-11350936D01*
X6448753Y-11350936D02*
X6439230Y-11360460D01*
X6439230Y-11360460D02*
X6420182Y-11369984D01*
X6420182Y-11369984D02*
X6391610Y-11369984D01*
X6572563Y-11369984D02*
X6553515Y-11360460D01*
X6553515Y-11360460D02*
X6543991Y-11341412D01*
X6543991Y-11341412D02*
X6543991Y-11169984D01*
X6724944Y-11360460D02*
X6705896Y-11369984D01*
X6705896Y-11369984D02*
X6667801Y-11369984D01*
X6667801Y-11369984D02*
X6648753Y-11360460D01*
X6648753Y-11360460D02*
X6639230Y-11341412D01*
X6639230Y-11341412D02*
X6639230Y-11265222D01*
X6639230Y-11265222D02*
X6648753Y-11246174D01*
X6648753Y-11246174D02*
X6667801Y-11236650D01*
X6667801Y-11236650D02*
X6705896Y-11236650D01*
X6705896Y-11236650D02*
X6724944Y-11246174D01*
X6724944Y-11246174D02*
X6734468Y-11265222D01*
X6734468Y-11265222D02*
X6734468Y-11284269D01*
X6734468Y-11284269D02*
X6639230Y-11303317D01*
X6810658Y-11360460D02*
X6829706Y-11369984D01*
X6829706Y-11369984D02*
X6867801Y-11369984D01*
X6867801Y-11369984D02*
X6886849Y-11360460D01*
X6886849Y-11360460D02*
X6896372Y-11341412D01*
X6896372Y-11341412D02*
X6896372Y-11331888D01*
X6896372Y-11331888D02*
X6886849Y-11312841D01*
X6886849Y-11312841D02*
X6867801Y-11303317D01*
X6867801Y-11303317D02*
X6839230Y-11303317D01*
X6839230Y-11303317D02*
X6820182Y-11293793D01*
X6820182Y-11293793D02*
X6810658Y-11274746D01*
X6810658Y-11274746D02*
X6810658Y-11265222D01*
X6810658Y-11265222D02*
X6820182Y-11246174D01*
X6820182Y-11246174D02*
X6839230Y-11236650D01*
X6839230Y-11236650D02*
X6867801Y-11236650D01*
X6867801Y-11236650D02*
X6886849Y-11246174D01*
X6963039Y-11446174D02*
X6972563Y-11436650D01*
X6972563Y-11436650D02*
X6991611Y-11408079D01*
X6991611Y-11408079D02*
X7001134Y-11389031D01*
X7001134Y-11389031D02*
X7010658Y-11360460D01*
X7010658Y-11360460D02*
X7020182Y-11312841D01*
X7020182Y-11312841D02*
X7020182Y-11274746D01*
X7020182Y-11274746D02*
X7010658Y-11227127D01*
X7010658Y-11227127D02*
X7001134Y-11198555D01*
X7001134Y-11198555D02*
X6991611Y-11179508D01*
X6991611Y-11179508D02*
X6972563Y-11150936D01*
X6972563Y-11150936D02*
X6963039Y-11141412D01*
D12*
X1902500Y-11495000D02*
X1997500Y-11590000D01*
X1997500Y-11495000D02*
X1902500Y-11590000D01*
X1997500Y-11542500D02*
G75*
G02*
X1902500Y-11542500I-47500J0D01*
G01*
X1902500Y-11542500D02*
G75*
G02*
X1997500Y-11542500I47500J0D01*
G01*
D11*
X2296372Y-11433984D02*
X2315420Y-11433984D01*
X2315420Y-11433984D02*
X2334467Y-11443508D01*
X2334467Y-11443508D02*
X2343991Y-11453031D01*
X2343991Y-11453031D02*
X2353515Y-11472079D01*
X2353515Y-11472079D02*
X2363039Y-11510174D01*
X2363039Y-11510174D02*
X2363039Y-11557793D01*
X2363039Y-11557793D02*
X2353515Y-11595888D01*
X2353515Y-11595888D02*
X2343991Y-11614936D01*
X2343991Y-11614936D02*
X2334467Y-11624460D01*
X2334467Y-11624460D02*
X2315420Y-11633984D01*
X2315420Y-11633984D02*
X2296372Y-11633984D01*
X2296372Y-11633984D02*
X2277324Y-11624460D01*
X2277324Y-11624460D02*
X2267801Y-11614936D01*
X2267801Y-11614936D02*
X2258277Y-11595888D01*
X2258277Y-11595888D02*
X2248753Y-11557793D01*
X2248753Y-11557793D02*
X2248753Y-11510174D01*
X2248753Y-11510174D02*
X2258277Y-11472079D01*
X2258277Y-11472079D02*
X2267801Y-11453031D01*
X2267801Y-11453031D02*
X2277324Y-11443508D01*
X2277324Y-11443508D02*
X2296372Y-11433984D01*
X2448753Y-11614936D02*
X2458277Y-11624460D01*
X2458277Y-11624460D02*
X2448753Y-11633984D01*
X2448753Y-11633984D02*
X2439229Y-11624460D01*
X2439229Y-11624460D02*
X2448753Y-11614936D01*
X2448753Y-11614936D02*
X2448753Y-11633984D01*
X2553515Y-11633984D02*
X2591610Y-11633984D01*
X2591610Y-11633984D02*
X2610658Y-11624460D01*
X2610658Y-11624460D02*
X2620182Y-11614936D01*
X2620182Y-11614936D02*
X2639229Y-11586365D01*
X2639229Y-11586365D02*
X2648753Y-11548269D01*
X2648753Y-11548269D02*
X2648753Y-11472079D01*
X2648753Y-11472079D02*
X2639229Y-11453031D01*
X2639229Y-11453031D02*
X2629705Y-11443508D01*
X2629705Y-11443508D02*
X2610658Y-11433984D01*
X2610658Y-11433984D02*
X2572563Y-11433984D01*
X2572563Y-11433984D02*
X2553515Y-11443508D01*
X2553515Y-11443508D02*
X2543991Y-11453031D01*
X2543991Y-11453031D02*
X2534467Y-11472079D01*
X2534467Y-11472079D02*
X2534467Y-11519698D01*
X2534467Y-11519698D02*
X2543991Y-11538746D01*
X2543991Y-11538746D02*
X2553515Y-11548269D01*
X2553515Y-11548269D02*
X2572563Y-11557793D01*
X2572563Y-11557793D02*
X2610658Y-11557793D01*
X2610658Y-11557793D02*
X2629705Y-11548269D01*
X2629705Y-11548269D02*
X2639229Y-11538746D01*
X2639229Y-11538746D02*
X2648753Y-11519698D01*
X2829705Y-11433984D02*
X2734467Y-11433984D01*
X2734467Y-11433984D02*
X2724944Y-11529222D01*
X2724944Y-11529222D02*
X2734467Y-11519698D01*
X2734467Y-11519698D02*
X2753515Y-11510174D01*
X2753515Y-11510174D02*
X2801134Y-11510174D01*
X2801134Y-11510174D02*
X2820182Y-11519698D01*
X2820182Y-11519698D02*
X2829705Y-11529222D01*
X2829705Y-11529222D02*
X2839229Y-11548269D01*
X2839229Y-11548269D02*
X2839229Y-11595888D01*
X2839229Y-11595888D02*
X2829705Y-11614936D01*
X2829705Y-11614936D02*
X2820182Y-11624460D01*
X2820182Y-11624460D02*
X2801134Y-11633984D01*
X2801134Y-11633984D02*
X2753515Y-11633984D01*
X2753515Y-11633984D02*
X2734467Y-11624460D01*
X2734467Y-11624460D02*
X2724944Y-11614936D01*
X2963039Y-11433984D02*
X2982086Y-11433984D01*
X2982086Y-11433984D02*
X3001134Y-11443508D01*
X3001134Y-11443508D02*
X3010658Y-11453031D01*
X3010658Y-11453031D02*
X3020182Y-11472079D01*
X3020182Y-11472079D02*
X3029705Y-11510174D01*
X3029705Y-11510174D02*
X3029705Y-11557793D01*
X3029705Y-11557793D02*
X3020182Y-11595888D01*
X3020182Y-11595888D02*
X3010658Y-11614936D01*
X3010658Y-11614936D02*
X3001134Y-11624460D01*
X3001134Y-11624460D02*
X2982086Y-11633984D01*
X2982086Y-11633984D02*
X2963039Y-11633984D01*
X2963039Y-11633984D02*
X2943991Y-11624460D01*
X2943991Y-11624460D02*
X2934467Y-11614936D01*
X2934467Y-11614936D02*
X2924943Y-11595888D01*
X2924943Y-11595888D02*
X2915420Y-11557793D01*
X2915420Y-11557793D02*
X2915420Y-11510174D01*
X2915420Y-11510174D02*
X2924943Y-11472079D01*
X2924943Y-11472079D02*
X2934467Y-11453031D01*
X2934467Y-11453031D02*
X2943991Y-11443508D01*
X2943991Y-11443508D02*
X2963039Y-11433984D01*
X3115420Y-11633984D02*
X3115420Y-11500650D01*
X3115420Y-11519698D02*
X3124943Y-11510174D01*
X3124943Y-11510174D02*
X3143991Y-11500650D01*
X3143991Y-11500650D02*
X3172563Y-11500650D01*
X3172563Y-11500650D02*
X3191610Y-11510174D01*
X3191610Y-11510174D02*
X3201134Y-11529222D01*
X3201134Y-11529222D02*
X3201134Y-11633984D01*
X3201134Y-11529222D02*
X3210658Y-11510174D01*
X3210658Y-11510174D02*
X3229705Y-11500650D01*
X3229705Y-11500650D02*
X3258277Y-11500650D01*
X3258277Y-11500650D02*
X3277324Y-11510174D01*
X3277324Y-11510174D02*
X3286848Y-11529222D01*
X3286848Y-11529222D02*
X3286848Y-11633984D01*
X3382086Y-11633984D02*
X3382086Y-11500650D01*
X3382086Y-11519698D02*
X3391610Y-11510174D01*
X3391610Y-11510174D02*
X3410658Y-11500650D01*
X3410658Y-11500650D02*
X3439229Y-11500650D01*
X3439229Y-11500650D02*
X3458277Y-11510174D01*
X3458277Y-11510174D02*
X3467801Y-11529222D01*
X3467801Y-11529222D02*
X3467801Y-11633984D01*
X3467801Y-11529222D02*
X3477324Y-11510174D01*
X3477324Y-11510174D02*
X3496372Y-11500650D01*
X3496372Y-11500650D02*
X3524943Y-11500650D01*
X3524943Y-11500650D02*
X3543991Y-11510174D01*
X3543991Y-11510174D02*
X3553515Y-11529222D01*
X3553515Y-11529222D02*
X3553515Y-11633984D01*
X3943991Y-11424460D02*
X3772563Y-11681603D01*
X4201134Y-11433984D02*
X4220182Y-11433984D01*
X4220182Y-11433984D02*
X4239229Y-11443508D01*
X4239229Y-11443508D02*
X4248753Y-11453031D01*
X4248753Y-11453031D02*
X4258277Y-11472079D01*
X4258277Y-11472079D02*
X4267801Y-11510174D01*
X4267801Y-11510174D02*
X4267801Y-11557793D01*
X4267801Y-11557793D02*
X4258277Y-11595888D01*
X4258277Y-11595888D02*
X4248753Y-11614936D01*
X4248753Y-11614936D02*
X4239229Y-11624460D01*
X4239229Y-11624460D02*
X4220182Y-11633984D01*
X4220182Y-11633984D02*
X4201134Y-11633984D01*
X4201134Y-11633984D02*
X4182086Y-11624460D01*
X4182086Y-11624460D02*
X4172563Y-11614936D01*
X4172563Y-11614936D02*
X4163039Y-11595888D01*
X4163039Y-11595888D02*
X4153515Y-11557793D01*
X4153515Y-11557793D02*
X4153515Y-11510174D01*
X4153515Y-11510174D02*
X4163039Y-11472079D01*
X4163039Y-11472079D02*
X4172563Y-11453031D01*
X4172563Y-11453031D02*
X4182086Y-11443508D01*
X4182086Y-11443508D02*
X4201134Y-11433984D01*
X4353515Y-11614936D02*
X4363039Y-11624460D01*
X4363039Y-11624460D02*
X4353515Y-11633984D01*
X4353515Y-11633984D02*
X4343991Y-11624460D01*
X4343991Y-11624460D02*
X4353515Y-11614936D01*
X4353515Y-11614936D02*
X4353515Y-11633984D01*
X4486848Y-11433984D02*
X4505896Y-11433984D01*
X4505896Y-11433984D02*
X4524944Y-11443508D01*
X4524944Y-11443508D02*
X4534468Y-11453031D01*
X4534468Y-11453031D02*
X4543991Y-11472079D01*
X4543991Y-11472079D02*
X4553515Y-11510174D01*
X4553515Y-11510174D02*
X4553515Y-11557793D01*
X4553515Y-11557793D02*
X4543991Y-11595888D01*
X4543991Y-11595888D02*
X4534468Y-11614936D01*
X4534468Y-11614936D02*
X4524944Y-11624460D01*
X4524944Y-11624460D02*
X4505896Y-11633984D01*
X4505896Y-11633984D02*
X4486848Y-11633984D01*
X4486848Y-11633984D02*
X4467801Y-11624460D01*
X4467801Y-11624460D02*
X4458277Y-11614936D01*
X4458277Y-11614936D02*
X4448753Y-11595888D01*
X4448753Y-11595888D02*
X4439229Y-11557793D01*
X4439229Y-11557793D02*
X4439229Y-11510174D01*
X4439229Y-11510174D02*
X4448753Y-11472079D01*
X4448753Y-11472079D02*
X4458277Y-11453031D01*
X4458277Y-11453031D02*
X4467801Y-11443508D01*
X4467801Y-11443508D02*
X4486848Y-11433984D01*
X4620182Y-11433984D02*
X4743991Y-11433984D01*
X4743991Y-11433984D02*
X4677325Y-11510174D01*
X4677325Y-11510174D02*
X4705896Y-11510174D01*
X4705896Y-11510174D02*
X4724944Y-11519698D01*
X4724944Y-11519698D02*
X4734468Y-11529222D01*
X4734468Y-11529222D02*
X4743991Y-11548269D01*
X4743991Y-11548269D02*
X4743991Y-11595888D01*
X4743991Y-11595888D02*
X4734468Y-11614936D01*
X4734468Y-11614936D02*
X4724944Y-11624460D01*
X4724944Y-11624460D02*
X4705896Y-11633984D01*
X4705896Y-11633984D02*
X4648753Y-11633984D01*
X4648753Y-11633984D02*
X4629706Y-11624460D01*
X4629706Y-11624460D02*
X4620182Y-11614936D01*
X4810658Y-11433984D02*
X4943991Y-11433984D01*
X4943991Y-11433984D02*
X4858277Y-11633984D01*
X5105896Y-11500650D02*
X5105896Y-11633984D01*
X5058277Y-11424460D02*
X5010658Y-11567317D01*
X5010658Y-11567317D02*
X5134468Y-11567317D01*
X5201134Y-11433984D02*
X5201134Y-11472079D01*
X5277325Y-11433984D02*
X5277325Y-11472079D01*
X5572563Y-11710174D02*
X5563039Y-11700650D01*
X5563039Y-11700650D02*
X5543991Y-11672079D01*
X5543991Y-11672079D02*
X5534468Y-11653031D01*
X5534468Y-11653031D02*
X5524944Y-11624460D01*
X5524944Y-11624460D02*
X5515420Y-11576841D01*
X5515420Y-11576841D02*
X5515420Y-11538746D01*
X5515420Y-11538746D02*
X5524944Y-11491127D01*
X5524944Y-11491127D02*
X5534468Y-11462555D01*
X5534468Y-11462555D02*
X5543991Y-11443508D01*
X5543991Y-11443508D02*
X5563039Y-11414936D01*
X5563039Y-11414936D02*
X5572563Y-11405412D01*
X5639229Y-11453031D02*
X5648753Y-11443508D01*
X5648753Y-11443508D02*
X5667801Y-11433984D01*
X5667801Y-11433984D02*
X5715420Y-11433984D01*
X5715420Y-11433984D02*
X5734468Y-11443508D01*
X5734468Y-11443508D02*
X5743991Y-11453031D01*
X5743991Y-11453031D02*
X5753515Y-11472079D01*
X5753515Y-11472079D02*
X5753515Y-11491127D01*
X5753515Y-11491127D02*
X5743991Y-11519698D01*
X5743991Y-11519698D02*
X5629706Y-11633984D01*
X5629706Y-11633984D02*
X5753515Y-11633984D01*
X5820182Y-11433984D02*
X5953515Y-11433984D01*
X5953515Y-11433984D02*
X5867801Y-11633984D01*
X6182087Y-11633984D02*
X6182087Y-11433984D01*
X6267801Y-11633984D02*
X6267801Y-11529222D01*
X6267801Y-11529222D02*
X6258277Y-11510174D01*
X6258277Y-11510174D02*
X6239230Y-11500650D01*
X6239230Y-11500650D02*
X6210658Y-11500650D01*
X6210658Y-11500650D02*
X6191610Y-11510174D01*
X6191610Y-11510174D02*
X6182087Y-11519698D01*
X6391610Y-11633984D02*
X6372563Y-11624460D01*
X6372563Y-11624460D02*
X6363039Y-11614936D01*
X6363039Y-11614936D02*
X6353515Y-11595888D01*
X6353515Y-11595888D02*
X6353515Y-11538746D01*
X6353515Y-11538746D02*
X6363039Y-11519698D01*
X6363039Y-11519698D02*
X6372563Y-11510174D01*
X6372563Y-11510174D02*
X6391610Y-11500650D01*
X6391610Y-11500650D02*
X6420182Y-11500650D01*
X6420182Y-11500650D02*
X6439230Y-11510174D01*
X6439230Y-11510174D02*
X6448753Y-11519698D01*
X6448753Y-11519698D02*
X6458277Y-11538746D01*
X6458277Y-11538746D02*
X6458277Y-11595888D01*
X6458277Y-11595888D02*
X6448753Y-11614936D01*
X6448753Y-11614936D02*
X6439230Y-11624460D01*
X6439230Y-11624460D02*
X6420182Y-11633984D01*
X6420182Y-11633984D02*
X6391610Y-11633984D01*
X6572563Y-11633984D02*
X6553515Y-11624460D01*
X6553515Y-11624460D02*
X6543991Y-11605412D01*
X6543991Y-11605412D02*
X6543991Y-11433984D01*
X6724944Y-11624460D02*
X6705896Y-11633984D01*
X6705896Y-11633984D02*
X6667801Y-11633984D01*
X6667801Y-11633984D02*
X6648753Y-11624460D01*
X6648753Y-11624460D02*
X6639230Y-11605412D01*
X6639230Y-11605412D02*
X6639230Y-11529222D01*
X6639230Y-11529222D02*
X6648753Y-11510174D01*
X6648753Y-11510174D02*
X6667801Y-11500650D01*
X6667801Y-11500650D02*
X6705896Y-11500650D01*
X6705896Y-11500650D02*
X6724944Y-11510174D01*
X6724944Y-11510174D02*
X6734468Y-11529222D01*
X6734468Y-11529222D02*
X6734468Y-11548269D01*
X6734468Y-11548269D02*
X6639230Y-11567317D01*
X6810658Y-11624460D02*
X6829706Y-11633984D01*
X6829706Y-11633984D02*
X6867801Y-11633984D01*
X6867801Y-11633984D02*
X6886849Y-11624460D01*
X6886849Y-11624460D02*
X6896372Y-11605412D01*
X6896372Y-11605412D02*
X6896372Y-11595888D01*
X6896372Y-11595888D02*
X6886849Y-11576841D01*
X6886849Y-11576841D02*
X6867801Y-11567317D01*
X6867801Y-11567317D02*
X6839230Y-11567317D01*
X6839230Y-11567317D02*
X6820182Y-11557793D01*
X6820182Y-11557793D02*
X6810658Y-11538746D01*
X6810658Y-11538746D02*
X6810658Y-11529222D01*
X6810658Y-11529222D02*
X6820182Y-11510174D01*
X6820182Y-11510174D02*
X6839230Y-11500650D01*
X6839230Y-11500650D02*
X6867801Y-11500650D01*
X6867801Y-11500650D02*
X6886849Y-11510174D01*
X6963039Y-11710174D02*
X6972563Y-11700650D01*
X6972563Y-11700650D02*
X6991611Y-11672079D01*
X6991611Y-11672079D02*
X7001134Y-11653031D01*
X7001134Y-11653031D02*
X7010658Y-11624460D01*
X7010658Y-11624460D02*
X7020182Y-11576841D01*
X7020182Y-11576841D02*
X7020182Y-11538746D01*
X7020182Y-11538746D02*
X7010658Y-11491127D01*
X7010658Y-11491127D02*
X7001134Y-11462555D01*
X7001134Y-11462555D02*
X6991611Y-11443508D01*
X6991611Y-11443508D02*
X6972563Y-11414936D01*
X6972563Y-11414936D02*
X6963039Y-11405412D01*
D12*
X1897500Y-11756500D02*
X1997500Y-11856500D01*
X1997500Y-11756500D02*
X1897500Y-11856500D01*
X1947500Y-11756500D02*
X1947500Y-11856500D01*
X1897500Y-11806500D02*
X1997500Y-11806500D01*
D11*
X2363039Y-11897984D02*
X2248753Y-11897984D01*
X2305896Y-11897984D02*
X2305896Y-11697984D01*
X2305896Y-11697984D02*
X2286848Y-11726555D01*
X2286848Y-11726555D02*
X2267801Y-11745603D01*
X2267801Y-11745603D02*
X2248753Y-11755127D01*
X2448753Y-11878936D02*
X2458277Y-11888460D01*
X2458277Y-11888460D02*
X2448753Y-11897984D01*
X2448753Y-11897984D02*
X2439229Y-11888460D01*
X2439229Y-11888460D02*
X2448753Y-11878936D01*
X2448753Y-11878936D02*
X2448753Y-11897984D01*
X2582086Y-11697984D02*
X2601134Y-11697984D01*
X2601134Y-11697984D02*
X2620182Y-11707508D01*
X2620182Y-11707508D02*
X2629705Y-11717031D01*
X2629705Y-11717031D02*
X2639229Y-11736079D01*
X2639229Y-11736079D02*
X2648753Y-11774174D01*
X2648753Y-11774174D02*
X2648753Y-11821793D01*
X2648753Y-11821793D02*
X2639229Y-11859888D01*
X2639229Y-11859888D02*
X2629705Y-11878936D01*
X2629705Y-11878936D02*
X2620182Y-11888460D01*
X2620182Y-11888460D02*
X2601134Y-11897984D01*
X2601134Y-11897984D02*
X2582086Y-11897984D01*
X2582086Y-11897984D02*
X2563039Y-11888460D01*
X2563039Y-11888460D02*
X2553515Y-11878936D01*
X2553515Y-11878936D02*
X2543991Y-11859888D01*
X2543991Y-11859888D02*
X2534467Y-11821793D01*
X2534467Y-11821793D02*
X2534467Y-11774174D01*
X2534467Y-11774174D02*
X2543991Y-11736079D01*
X2543991Y-11736079D02*
X2553515Y-11717031D01*
X2553515Y-11717031D02*
X2563039Y-11707508D01*
X2563039Y-11707508D02*
X2582086Y-11697984D01*
X2772563Y-11697984D02*
X2791610Y-11697984D01*
X2791610Y-11697984D02*
X2810658Y-11707508D01*
X2810658Y-11707508D02*
X2820182Y-11717031D01*
X2820182Y-11717031D02*
X2829705Y-11736079D01*
X2829705Y-11736079D02*
X2839229Y-11774174D01*
X2839229Y-11774174D02*
X2839229Y-11821793D01*
X2839229Y-11821793D02*
X2829705Y-11859888D01*
X2829705Y-11859888D02*
X2820182Y-11878936D01*
X2820182Y-11878936D02*
X2810658Y-11888460D01*
X2810658Y-11888460D02*
X2791610Y-11897984D01*
X2791610Y-11897984D02*
X2772563Y-11897984D01*
X2772563Y-11897984D02*
X2753515Y-11888460D01*
X2753515Y-11888460D02*
X2743991Y-11878936D01*
X2743991Y-11878936D02*
X2734467Y-11859888D01*
X2734467Y-11859888D02*
X2724944Y-11821793D01*
X2724944Y-11821793D02*
X2724944Y-11774174D01*
X2724944Y-11774174D02*
X2734467Y-11736079D01*
X2734467Y-11736079D02*
X2743991Y-11717031D01*
X2743991Y-11717031D02*
X2753515Y-11707508D01*
X2753515Y-11707508D02*
X2772563Y-11697984D01*
X2963039Y-11697984D02*
X2982086Y-11697984D01*
X2982086Y-11697984D02*
X3001134Y-11707508D01*
X3001134Y-11707508D02*
X3010658Y-11717031D01*
X3010658Y-11717031D02*
X3020182Y-11736079D01*
X3020182Y-11736079D02*
X3029705Y-11774174D01*
X3029705Y-11774174D02*
X3029705Y-11821793D01*
X3029705Y-11821793D02*
X3020182Y-11859888D01*
X3020182Y-11859888D02*
X3010658Y-11878936D01*
X3010658Y-11878936D02*
X3001134Y-11888460D01*
X3001134Y-11888460D02*
X2982086Y-11897984D01*
X2982086Y-11897984D02*
X2963039Y-11897984D01*
X2963039Y-11897984D02*
X2943991Y-11888460D01*
X2943991Y-11888460D02*
X2934467Y-11878936D01*
X2934467Y-11878936D02*
X2924943Y-11859888D01*
X2924943Y-11859888D02*
X2915420Y-11821793D01*
X2915420Y-11821793D02*
X2915420Y-11774174D01*
X2915420Y-11774174D02*
X2924943Y-11736079D01*
X2924943Y-11736079D02*
X2934467Y-11717031D01*
X2934467Y-11717031D02*
X2943991Y-11707508D01*
X2943991Y-11707508D02*
X2963039Y-11697984D01*
X3115420Y-11897984D02*
X3115420Y-11764650D01*
X3115420Y-11783698D02*
X3124943Y-11774174D01*
X3124943Y-11774174D02*
X3143991Y-11764650D01*
X3143991Y-11764650D02*
X3172563Y-11764650D01*
X3172563Y-11764650D02*
X3191610Y-11774174D01*
X3191610Y-11774174D02*
X3201134Y-11793222D01*
X3201134Y-11793222D02*
X3201134Y-11897984D01*
X3201134Y-11793222D02*
X3210658Y-11774174D01*
X3210658Y-11774174D02*
X3229705Y-11764650D01*
X3229705Y-11764650D02*
X3258277Y-11764650D01*
X3258277Y-11764650D02*
X3277324Y-11774174D01*
X3277324Y-11774174D02*
X3286848Y-11793222D01*
X3286848Y-11793222D02*
X3286848Y-11897984D01*
X3382086Y-11897984D02*
X3382086Y-11764650D01*
X3382086Y-11783698D02*
X3391610Y-11774174D01*
X3391610Y-11774174D02*
X3410658Y-11764650D01*
X3410658Y-11764650D02*
X3439229Y-11764650D01*
X3439229Y-11764650D02*
X3458277Y-11774174D01*
X3458277Y-11774174D02*
X3467801Y-11793222D01*
X3467801Y-11793222D02*
X3467801Y-11897984D01*
X3467801Y-11793222D02*
X3477324Y-11774174D01*
X3477324Y-11774174D02*
X3496372Y-11764650D01*
X3496372Y-11764650D02*
X3524943Y-11764650D01*
X3524943Y-11764650D02*
X3543991Y-11774174D01*
X3543991Y-11774174D02*
X3553515Y-11793222D01*
X3553515Y-11793222D02*
X3553515Y-11897984D01*
X3943991Y-11688460D02*
X3772563Y-11945603D01*
X4201134Y-11697984D02*
X4220182Y-11697984D01*
X4220182Y-11697984D02*
X4239229Y-11707508D01*
X4239229Y-11707508D02*
X4248753Y-11717031D01*
X4248753Y-11717031D02*
X4258277Y-11736079D01*
X4258277Y-11736079D02*
X4267801Y-11774174D01*
X4267801Y-11774174D02*
X4267801Y-11821793D01*
X4267801Y-11821793D02*
X4258277Y-11859888D01*
X4258277Y-11859888D02*
X4248753Y-11878936D01*
X4248753Y-11878936D02*
X4239229Y-11888460D01*
X4239229Y-11888460D02*
X4220182Y-11897984D01*
X4220182Y-11897984D02*
X4201134Y-11897984D01*
X4201134Y-11897984D02*
X4182086Y-11888460D01*
X4182086Y-11888460D02*
X4172563Y-11878936D01*
X4172563Y-11878936D02*
X4163039Y-11859888D01*
X4163039Y-11859888D02*
X4153515Y-11821793D01*
X4153515Y-11821793D02*
X4153515Y-11774174D01*
X4153515Y-11774174D02*
X4163039Y-11736079D01*
X4163039Y-11736079D02*
X4172563Y-11717031D01*
X4172563Y-11717031D02*
X4182086Y-11707508D01*
X4182086Y-11707508D02*
X4201134Y-11697984D01*
X4353515Y-11878936D02*
X4363039Y-11888460D01*
X4363039Y-11888460D02*
X4353515Y-11897984D01*
X4353515Y-11897984D02*
X4343991Y-11888460D01*
X4343991Y-11888460D02*
X4353515Y-11878936D01*
X4353515Y-11878936D02*
X4353515Y-11897984D01*
X4486848Y-11697984D02*
X4505896Y-11697984D01*
X4505896Y-11697984D02*
X4524944Y-11707508D01*
X4524944Y-11707508D02*
X4534468Y-11717031D01*
X4534468Y-11717031D02*
X4543991Y-11736079D01*
X4543991Y-11736079D02*
X4553515Y-11774174D01*
X4553515Y-11774174D02*
X4553515Y-11821793D01*
X4553515Y-11821793D02*
X4543991Y-11859888D01*
X4543991Y-11859888D02*
X4534468Y-11878936D01*
X4534468Y-11878936D02*
X4524944Y-11888460D01*
X4524944Y-11888460D02*
X4505896Y-11897984D01*
X4505896Y-11897984D02*
X4486848Y-11897984D01*
X4486848Y-11897984D02*
X4467801Y-11888460D01*
X4467801Y-11888460D02*
X4458277Y-11878936D01*
X4458277Y-11878936D02*
X4448753Y-11859888D01*
X4448753Y-11859888D02*
X4439229Y-11821793D01*
X4439229Y-11821793D02*
X4439229Y-11774174D01*
X4439229Y-11774174D02*
X4448753Y-11736079D01*
X4448753Y-11736079D02*
X4458277Y-11717031D01*
X4458277Y-11717031D02*
X4467801Y-11707508D01*
X4467801Y-11707508D02*
X4486848Y-11697984D01*
X4620182Y-11697984D02*
X4743991Y-11697984D01*
X4743991Y-11697984D02*
X4677325Y-11774174D01*
X4677325Y-11774174D02*
X4705896Y-11774174D01*
X4705896Y-11774174D02*
X4724944Y-11783698D01*
X4724944Y-11783698D02*
X4734468Y-11793222D01*
X4734468Y-11793222D02*
X4743991Y-11812269D01*
X4743991Y-11812269D02*
X4743991Y-11859888D01*
X4743991Y-11859888D02*
X4734468Y-11878936D01*
X4734468Y-11878936D02*
X4724944Y-11888460D01*
X4724944Y-11888460D02*
X4705896Y-11897984D01*
X4705896Y-11897984D02*
X4648753Y-11897984D01*
X4648753Y-11897984D02*
X4629706Y-11888460D01*
X4629706Y-11888460D02*
X4620182Y-11878936D01*
X4839229Y-11897984D02*
X4877325Y-11897984D01*
X4877325Y-11897984D02*
X4896372Y-11888460D01*
X4896372Y-11888460D02*
X4905896Y-11878936D01*
X4905896Y-11878936D02*
X4924944Y-11850365D01*
X4924944Y-11850365D02*
X4934468Y-11812269D01*
X4934468Y-11812269D02*
X4934468Y-11736079D01*
X4934468Y-11736079D02*
X4924944Y-11717031D01*
X4924944Y-11717031D02*
X4915420Y-11707508D01*
X4915420Y-11707508D02*
X4896372Y-11697984D01*
X4896372Y-11697984D02*
X4858277Y-11697984D01*
X4858277Y-11697984D02*
X4839229Y-11707508D01*
X4839229Y-11707508D02*
X4829706Y-11717031D01*
X4829706Y-11717031D02*
X4820182Y-11736079D01*
X4820182Y-11736079D02*
X4820182Y-11783698D01*
X4820182Y-11783698D02*
X4829706Y-11802746D01*
X4829706Y-11802746D02*
X4839229Y-11812269D01*
X4839229Y-11812269D02*
X4858277Y-11821793D01*
X4858277Y-11821793D02*
X4896372Y-11821793D01*
X4896372Y-11821793D02*
X4915420Y-11812269D01*
X4915420Y-11812269D02*
X4924944Y-11802746D01*
X4924944Y-11802746D02*
X4934468Y-11783698D01*
X5105896Y-11764650D02*
X5105896Y-11897984D01*
X5058277Y-11688460D02*
X5010658Y-11831317D01*
X5010658Y-11831317D02*
X5134468Y-11831317D01*
X5201134Y-11697984D02*
X5201134Y-11736079D01*
X5277325Y-11697984D02*
X5277325Y-11736079D01*
X5572563Y-11974174D02*
X5563039Y-11964650D01*
X5563039Y-11964650D02*
X5543991Y-11936079D01*
X5543991Y-11936079D02*
X5534468Y-11917031D01*
X5534468Y-11917031D02*
X5524944Y-11888460D01*
X5524944Y-11888460D02*
X5515420Y-11840841D01*
X5515420Y-11840841D02*
X5515420Y-11802746D01*
X5515420Y-11802746D02*
X5524944Y-11755127D01*
X5524944Y-11755127D02*
X5534468Y-11726555D01*
X5534468Y-11726555D02*
X5543991Y-11707508D01*
X5543991Y-11707508D02*
X5563039Y-11678936D01*
X5563039Y-11678936D02*
X5572563Y-11669412D01*
X5639229Y-11717031D02*
X5648753Y-11707508D01*
X5648753Y-11707508D02*
X5667801Y-11697984D01*
X5667801Y-11697984D02*
X5715420Y-11697984D01*
X5715420Y-11697984D02*
X5734468Y-11707508D01*
X5734468Y-11707508D02*
X5743991Y-11717031D01*
X5743991Y-11717031D02*
X5753515Y-11736079D01*
X5753515Y-11736079D02*
X5753515Y-11755127D01*
X5753515Y-11755127D02*
X5743991Y-11783698D01*
X5743991Y-11783698D02*
X5629706Y-11897984D01*
X5629706Y-11897984D02*
X5753515Y-11897984D01*
X5934468Y-11697984D02*
X5839229Y-11697984D01*
X5839229Y-11697984D02*
X5829706Y-11793222D01*
X5829706Y-11793222D02*
X5839229Y-11783698D01*
X5839229Y-11783698D02*
X5858277Y-11774174D01*
X5858277Y-11774174D02*
X5905896Y-11774174D01*
X5905896Y-11774174D02*
X5924944Y-11783698D01*
X5924944Y-11783698D02*
X5934468Y-11793222D01*
X5934468Y-11793222D02*
X5943991Y-11812269D01*
X5943991Y-11812269D02*
X5943991Y-11859888D01*
X5943991Y-11859888D02*
X5934468Y-11878936D01*
X5934468Y-11878936D02*
X5924944Y-11888460D01*
X5924944Y-11888460D02*
X5905896Y-11897984D01*
X5905896Y-11897984D02*
X5858277Y-11897984D01*
X5858277Y-11897984D02*
X5839229Y-11888460D01*
X5839229Y-11888460D02*
X5829706Y-11878936D01*
X6182087Y-11897984D02*
X6182087Y-11697984D01*
X6267801Y-11897984D02*
X6267801Y-11793222D01*
X6267801Y-11793222D02*
X6258277Y-11774174D01*
X6258277Y-11774174D02*
X6239230Y-11764650D01*
X6239230Y-11764650D02*
X6210658Y-11764650D01*
X6210658Y-11764650D02*
X6191610Y-11774174D01*
X6191610Y-11774174D02*
X6182087Y-11783698D01*
X6391610Y-11897984D02*
X6372563Y-11888460D01*
X6372563Y-11888460D02*
X6363039Y-11878936D01*
X6363039Y-11878936D02*
X6353515Y-11859888D01*
X6353515Y-11859888D02*
X6353515Y-11802746D01*
X6353515Y-11802746D02*
X6363039Y-11783698D01*
X6363039Y-11783698D02*
X6372563Y-11774174D01*
X6372563Y-11774174D02*
X6391610Y-11764650D01*
X6391610Y-11764650D02*
X6420182Y-11764650D01*
X6420182Y-11764650D02*
X6439230Y-11774174D01*
X6439230Y-11774174D02*
X6448753Y-11783698D01*
X6448753Y-11783698D02*
X6458277Y-11802746D01*
X6458277Y-11802746D02*
X6458277Y-11859888D01*
X6458277Y-11859888D02*
X6448753Y-11878936D01*
X6448753Y-11878936D02*
X6439230Y-11888460D01*
X6439230Y-11888460D02*
X6420182Y-11897984D01*
X6420182Y-11897984D02*
X6391610Y-11897984D01*
X6572563Y-11897984D02*
X6553515Y-11888460D01*
X6553515Y-11888460D02*
X6543991Y-11869412D01*
X6543991Y-11869412D02*
X6543991Y-11697984D01*
X6724944Y-11888460D02*
X6705896Y-11897984D01*
X6705896Y-11897984D02*
X6667801Y-11897984D01*
X6667801Y-11897984D02*
X6648753Y-11888460D01*
X6648753Y-11888460D02*
X6639230Y-11869412D01*
X6639230Y-11869412D02*
X6639230Y-11793222D01*
X6639230Y-11793222D02*
X6648753Y-11774174D01*
X6648753Y-11774174D02*
X6667801Y-11764650D01*
X6667801Y-11764650D02*
X6705896Y-11764650D01*
X6705896Y-11764650D02*
X6724944Y-11774174D01*
X6724944Y-11774174D02*
X6734468Y-11793222D01*
X6734468Y-11793222D02*
X6734468Y-11812269D01*
X6734468Y-11812269D02*
X6639230Y-11831317D01*
X6810658Y-11888460D02*
X6829706Y-11897984D01*
X6829706Y-11897984D02*
X6867801Y-11897984D01*
X6867801Y-11897984D02*
X6886849Y-11888460D01*
X6886849Y-11888460D02*
X6896372Y-11869412D01*
X6896372Y-11869412D02*
X6896372Y-11859888D01*
X6896372Y-11859888D02*
X6886849Y-11840841D01*
X6886849Y-11840841D02*
X6867801Y-11831317D01*
X6867801Y-11831317D02*
X6839230Y-11831317D01*
X6839230Y-11831317D02*
X6820182Y-11821793D01*
X6820182Y-11821793D02*
X6810658Y-11802746D01*
X6810658Y-11802746D02*
X6810658Y-11793222D01*
X6810658Y-11793222D02*
X6820182Y-11774174D01*
X6820182Y-11774174D02*
X6839230Y-11764650D01*
X6839230Y-11764650D02*
X6867801Y-11764650D01*
X6867801Y-11764650D02*
X6886849Y-11774174D01*
X6963039Y-11974174D02*
X6972563Y-11964650D01*
X6972563Y-11964650D02*
X6991611Y-11936079D01*
X6991611Y-11936079D02*
X7001134Y-11917031D01*
X7001134Y-11917031D02*
X7010658Y-11888460D01*
X7010658Y-11888460D02*
X7020182Y-11840841D01*
X7020182Y-11840841D02*
X7020182Y-11802746D01*
X7020182Y-11802746D02*
X7010658Y-11755127D01*
X7010658Y-11755127D02*
X7001134Y-11726555D01*
X7001134Y-11726555D02*
X6991611Y-11707508D01*
X6991611Y-11707508D02*
X6972563Y-11678936D01*
X6972563Y-11678936D02*
X6963039Y-11669412D01*
D13*
X1887500Y-12015500D02*
X1997500Y-12125500D01*
X1997500Y-12015500D02*
X1887500Y-12125500D01*
X1981391Y-12109391D02*
X1981391Y-12031609D01*
X1903609Y-12031609D01*
X1903609Y-12109391D01*
X1981391Y-12109391D01*
D11*
X2363039Y-12161984D02*
X2248753Y-12161984D01*
X2305896Y-12161984D02*
X2305896Y-11961984D01*
X2305896Y-11961984D02*
X2286848Y-11990555D01*
X2286848Y-11990555D02*
X2267801Y-12009603D01*
X2267801Y-12009603D02*
X2248753Y-12019127D01*
X2448753Y-12142936D02*
X2458277Y-12152460D01*
X2458277Y-12152460D02*
X2448753Y-12161984D01*
X2448753Y-12161984D02*
X2439229Y-12152460D01*
X2439229Y-12152460D02*
X2448753Y-12142936D01*
X2448753Y-12142936D02*
X2448753Y-12161984D01*
X2648753Y-12161984D02*
X2534467Y-12161984D01*
X2591610Y-12161984D02*
X2591610Y-11961984D01*
X2591610Y-11961984D02*
X2572563Y-11990555D01*
X2572563Y-11990555D02*
X2553515Y-12009603D01*
X2553515Y-12009603D02*
X2534467Y-12019127D01*
X2772563Y-11961984D02*
X2791610Y-11961984D01*
X2791610Y-11961984D02*
X2810658Y-11971508D01*
X2810658Y-11971508D02*
X2820182Y-11981031D01*
X2820182Y-11981031D02*
X2829705Y-12000079D01*
X2829705Y-12000079D02*
X2839229Y-12038174D01*
X2839229Y-12038174D02*
X2839229Y-12085793D01*
X2839229Y-12085793D02*
X2829705Y-12123888D01*
X2829705Y-12123888D02*
X2820182Y-12142936D01*
X2820182Y-12142936D02*
X2810658Y-12152460D01*
X2810658Y-12152460D02*
X2791610Y-12161984D01*
X2791610Y-12161984D02*
X2772563Y-12161984D01*
X2772563Y-12161984D02*
X2753515Y-12152460D01*
X2753515Y-12152460D02*
X2743991Y-12142936D01*
X2743991Y-12142936D02*
X2734467Y-12123888D01*
X2734467Y-12123888D02*
X2724944Y-12085793D01*
X2724944Y-12085793D02*
X2724944Y-12038174D01*
X2724944Y-12038174D02*
X2734467Y-12000079D01*
X2734467Y-12000079D02*
X2743991Y-11981031D01*
X2743991Y-11981031D02*
X2753515Y-11971508D01*
X2753515Y-11971508D02*
X2772563Y-11961984D01*
X2963039Y-11961984D02*
X2982086Y-11961984D01*
X2982086Y-11961984D02*
X3001134Y-11971508D01*
X3001134Y-11971508D02*
X3010658Y-11981031D01*
X3010658Y-11981031D02*
X3020182Y-12000079D01*
X3020182Y-12000079D02*
X3029705Y-12038174D01*
X3029705Y-12038174D02*
X3029705Y-12085793D01*
X3029705Y-12085793D02*
X3020182Y-12123888D01*
X3020182Y-12123888D02*
X3010658Y-12142936D01*
X3010658Y-12142936D02*
X3001134Y-12152460D01*
X3001134Y-12152460D02*
X2982086Y-12161984D01*
X2982086Y-12161984D02*
X2963039Y-12161984D01*
X2963039Y-12161984D02*
X2943991Y-12152460D01*
X2943991Y-12152460D02*
X2934467Y-12142936D01*
X2934467Y-12142936D02*
X2924943Y-12123888D01*
X2924943Y-12123888D02*
X2915420Y-12085793D01*
X2915420Y-12085793D02*
X2915420Y-12038174D01*
X2915420Y-12038174D02*
X2924943Y-12000079D01*
X2924943Y-12000079D02*
X2934467Y-11981031D01*
X2934467Y-11981031D02*
X2943991Y-11971508D01*
X2943991Y-11971508D02*
X2963039Y-11961984D01*
X3115420Y-12161984D02*
X3115420Y-12028650D01*
X3115420Y-12047698D02*
X3124943Y-12038174D01*
X3124943Y-12038174D02*
X3143991Y-12028650D01*
X3143991Y-12028650D02*
X3172563Y-12028650D01*
X3172563Y-12028650D02*
X3191610Y-12038174D01*
X3191610Y-12038174D02*
X3201134Y-12057222D01*
X3201134Y-12057222D02*
X3201134Y-12161984D01*
X3201134Y-12057222D02*
X3210658Y-12038174D01*
X3210658Y-12038174D02*
X3229705Y-12028650D01*
X3229705Y-12028650D02*
X3258277Y-12028650D01*
X3258277Y-12028650D02*
X3277324Y-12038174D01*
X3277324Y-12038174D02*
X3286848Y-12057222D01*
X3286848Y-12057222D02*
X3286848Y-12161984D01*
X3382086Y-12161984D02*
X3382086Y-12028650D01*
X3382086Y-12047698D02*
X3391610Y-12038174D01*
X3391610Y-12038174D02*
X3410658Y-12028650D01*
X3410658Y-12028650D02*
X3439229Y-12028650D01*
X3439229Y-12028650D02*
X3458277Y-12038174D01*
X3458277Y-12038174D02*
X3467801Y-12057222D01*
X3467801Y-12057222D02*
X3467801Y-12161984D01*
X3467801Y-12057222D02*
X3477324Y-12038174D01*
X3477324Y-12038174D02*
X3496372Y-12028650D01*
X3496372Y-12028650D02*
X3524943Y-12028650D01*
X3524943Y-12028650D02*
X3543991Y-12038174D01*
X3543991Y-12038174D02*
X3553515Y-12057222D01*
X3553515Y-12057222D02*
X3553515Y-12161984D01*
X3943991Y-11952460D02*
X3772563Y-12209603D01*
X4201134Y-11961984D02*
X4220182Y-11961984D01*
X4220182Y-11961984D02*
X4239229Y-11971508D01*
X4239229Y-11971508D02*
X4248753Y-11981031D01*
X4248753Y-11981031D02*
X4258277Y-12000079D01*
X4258277Y-12000079D02*
X4267801Y-12038174D01*
X4267801Y-12038174D02*
X4267801Y-12085793D01*
X4267801Y-12085793D02*
X4258277Y-12123888D01*
X4258277Y-12123888D02*
X4248753Y-12142936D01*
X4248753Y-12142936D02*
X4239229Y-12152460D01*
X4239229Y-12152460D02*
X4220182Y-12161984D01*
X4220182Y-12161984D02*
X4201134Y-12161984D01*
X4201134Y-12161984D02*
X4182086Y-12152460D01*
X4182086Y-12152460D02*
X4172563Y-12142936D01*
X4172563Y-12142936D02*
X4163039Y-12123888D01*
X4163039Y-12123888D02*
X4153515Y-12085793D01*
X4153515Y-12085793D02*
X4153515Y-12038174D01*
X4153515Y-12038174D02*
X4163039Y-12000079D01*
X4163039Y-12000079D02*
X4172563Y-11981031D01*
X4172563Y-11981031D02*
X4182086Y-11971508D01*
X4182086Y-11971508D02*
X4201134Y-11961984D01*
X4353515Y-12142936D02*
X4363039Y-12152460D01*
X4363039Y-12152460D02*
X4353515Y-12161984D01*
X4353515Y-12161984D02*
X4343991Y-12152460D01*
X4343991Y-12152460D02*
X4353515Y-12142936D01*
X4353515Y-12142936D02*
X4353515Y-12161984D01*
X4486848Y-11961984D02*
X4505896Y-11961984D01*
X4505896Y-11961984D02*
X4524944Y-11971508D01*
X4524944Y-11971508D02*
X4534468Y-11981031D01*
X4534468Y-11981031D02*
X4543991Y-12000079D01*
X4543991Y-12000079D02*
X4553515Y-12038174D01*
X4553515Y-12038174D02*
X4553515Y-12085793D01*
X4553515Y-12085793D02*
X4543991Y-12123888D01*
X4543991Y-12123888D02*
X4534468Y-12142936D01*
X4534468Y-12142936D02*
X4524944Y-12152460D01*
X4524944Y-12152460D02*
X4505896Y-12161984D01*
X4505896Y-12161984D02*
X4486848Y-12161984D01*
X4486848Y-12161984D02*
X4467801Y-12152460D01*
X4467801Y-12152460D02*
X4458277Y-12142936D01*
X4458277Y-12142936D02*
X4448753Y-12123888D01*
X4448753Y-12123888D02*
X4439229Y-12085793D01*
X4439229Y-12085793D02*
X4439229Y-12038174D01*
X4439229Y-12038174D02*
X4448753Y-12000079D01*
X4448753Y-12000079D02*
X4458277Y-11981031D01*
X4458277Y-11981031D02*
X4467801Y-11971508D01*
X4467801Y-11971508D02*
X4486848Y-11961984D01*
X4724944Y-12028650D02*
X4724944Y-12161984D01*
X4677325Y-11952460D02*
X4629706Y-12095317D01*
X4629706Y-12095317D02*
X4753515Y-12095317D01*
X4810658Y-11961984D02*
X4934468Y-11961984D01*
X4934468Y-11961984D02*
X4867801Y-12038174D01*
X4867801Y-12038174D02*
X4896372Y-12038174D01*
X4896372Y-12038174D02*
X4915420Y-12047698D01*
X4915420Y-12047698D02*
X4924944Y-12057222D01*
X4924944Y-12057222D02*
X4934468Y-12076269D01*
X4934468Y-12076269D02*
X4934468Y-12123888D01*
X4934468Y-12123888D02*
X4924944Y-12142936D01*
X4924944Y-12142936D02*
X4915420Y-12152460D01*
X4915420Y-12152460D02*
X4896372Y-12161984D01*
X4896372Y-12161984D02*
X4839229Y-12161984D01*
X4839229Y-12161984D02*
X4820182Y-12152460D01*
X4820182Y-12152460D02*
X4810658Y-12142936D01*
X5001134Y-11961984D02*
X5124944Y-11961984D01*
X5124944Y-11961984D02*
X5058277Y-12038174D01*
X5058277Y-12038174D02*
X5086849Y-12038174D01*
X5086849Y-12038174D02*
X5105896Y-12047698D01*
X5105896Y-12047698D02*
X5115420Y-12057222D01*
X5115420Y-12057222D02*
X5124944Y-12076269D01*
X5124944Y-12076269D02*
X5124944Y-12123888D01*
X5124944Y-12123888D02*
X5115420Y-12142936D01*
X5115420Y-12142936D02*
X5105896Y-12152460D01*
X5105896Y-12152460D02*
X5086849Y-12161984D01*
X5086849Y-12161984D02*
X5029706Y-12161984D01*
X5029706Y-12161984D02*
X5010658Y-12152460D01*
X5010658Y-12152460D02*
X5001134Y-12142936D01*
X5201134Y-11961984D02*
X5201134Y-12000079D01*
X5277325Y-11961984D02*
X5277325Y-12000079D01*
X5572563Y-12238174D02*
X5563039Y-12228650D01*
X5563039Y-12228650D02*
X5543991Y-12200079D01*
X5543991Y-12200079D02*
X5534468Y-12181031D01*
X5534468Y-12181031D02*
X5524944Y-12152460D01*
X5524944Y-12152460D02*
X5515420Y-12104841D01*
X5515420Y-12104841D02*
X5515420Y-12066746D01*
X5515420Y-12066746D02*
X5524944Y-12019127D01*
X5524944Y-12019127D02*
X5534468Y-11990555D01*
X5534468Y-11990555D02*
X5543991Y-11971508D01*
X5543991Y-11971508D02*
X5563039Y-11942936D01*
X5563039Y-11942936D02*
X5572563Y-11933412D01*
X5629706Y-11961984D02*
X5753515Y-11961984D01*
X5753515Y-11961984D02*
X5686848Y-12038174D01*
X5686848Y-12038174D02*
X5715420Y-12038174D01*
X5715420Y-12038174D02*
X5734468Y-12047698D01*
X5734468Y-12047698D02*
X5743991Y-12057222D01*
X5743991Y-12057222D02*
X5753515Y-12076269D01*
X5753515Y-12076269D02*
X5753515Y-12123888D01*
X5753515Y-12123888D02*
X5743991Y-12142936D01*
X5743991Y-12142936D02*
X5734468Y-12152460D01*
X5734468Y-12152460D02*
X5715420Y-12161984D01*
X5715420Y-12161984D02*
X5658277Y-12161984D01*
X5658277Y-12161984D02*
X5639229Y-12152460D01*
X5639229Y-12152460D02*
X5629706Y-12142936D01*
X5991610Y-12161984D02*
X5991610Y-11961984D01*
X6077325Y-12161984D02*
X6077325Y-12057222D01*
X6077325Y-12057222D02*
X6067801Y-12038174D01*
X6067801Y-12038174D02*
X6048753Y-12028650D01*
X6048753Y-12028650D02*
X6020182Y-12028650D01*
X6020182Y-12028650D02*
X6001134Y-12038174D01*
X6001134Y-12038174D02*
X5991610Y-12047698D01*
X6201134Y-12161984D02*
X6182087Y-12152460D01*
X6182087Y-12152460D02*
X6172563Y-12142936D01*
X6172563Y-12142936D02*
X6163039Y-12123888D01*
X6163039Y-12123888D02*
X6163039Y-12066746D01*
X6163039Y-12066746D02*
X6172563Y-12047698D01*
X6172563Y-12047698D02*
X6182087Y-12038174D01*
X6182087Y-12038174D02*
X6201134Y-12028650D01*
X6201134Y-12028650D02*
X6229706Y-12028650D01*
X6229706Y-12028650D02*
X6248753Y-12038174D01*
X6248753Y-12038174D02*
X6258277Y-12047698D01*
X6258277Y-12047698D02*
X6267801Y-12066746D01*
X6267801Y-12066746D02*
X6267801Y-12123888D01*
X6267801Y-12123888D02*
X6258277Y-12142936D01*
X6258277Y-12142936D02*
X6248753Y-12152460D01*
X6248753Y-12152460D02*
X6229706Y-12161984D01*
X6229706Y-12161984D02*
X6201134Y-12161984D01*
X6382087Y-12161984D02*
X6363039Y-12152460D01*
X6363039Y-12152460D02*
X6353515Y-12133412D01*
X6353515Y-12133412D02*
X6353515Y-11961984D01*
X6534468Y-12152460D02*
X6515420Y-12161984D01*
X6515420Y-12161984D02*
X6477325Y-12161984D01*
X6477325Y-12161984D02*
X6458277Y-12152460D01*
X6458277Y-12152460D02*
X6448753Y-12133412D01*
X6448753Y-12133412D02*
X6448753Y-12057222D01*
X6448753Y-12057222D02*
X6458277Y-12038174D01*
X6458277Y-12038174D02*
X6477325Y-12028650D01*
X6477325Y-12028650D02*
X6515420Y-12028650D01*
X6515420Y-12028650D02*
X6534468Y-12038174D01*
X6534468Y-12038174D02*
X6543991Y-12057222D01*
X6543991Y-12057222D02*
X6543991Y-12076269D01*
X6543991Y-12076269D02*
X6448753Y-12095317D01*
X6620182Y-12152460D02*
X6639230Y-12161984D01*
X6639230Y-12161984D02*
X6677325Y-12161984D01*
X6677325Y-12161984D02*
X6696372Y-12152460D01*
X6696372Y-12152460D02*
X6705896Y-12133412D01*
X6705896Y-12133412D02*
X6705896Y-12123888D01*
X6705896Y-12123888D02*
X6696372Y-12104841D01*
X6696372Y-12104841D02*
X6677325Y-12095317D01*
X6677325Y-12095317D02*
X6648753Y-12095317D01*
X6648753Y-12095317D02*
X6629706Y-12085793D01*
X6629706Y-12085793D02*
X6620182Y-12066746D01*
X6620182Y-12066746D02*
X6620182Y-12057222D01*
X6620182Y-12057222D02*
X6629706Y-12038174D01*
X6629706Y-12038174D02*
X6648753Y-12028650D01*
X6648753Y-12028650D02*
X6677325Y-12028650D01*
X6677325Y-12028650D02*
X6696372Y-12038174D01*
X6772563Y-12238174D02*
X6782087Y-12228650D01*
X6782087Y-12228650D02*
X6801134Y-12200079D01*
X6801134Y-12200079D02*
X6810658Y-12181031D01*
X6810658Y-12181031D02*
X6820182Y-12152460D01*
X6820182Y-12152460D02*
X6829706Y-12104841D01*
X6829706Y-12104841D02*
X6829706Y-12066746D01*
X6829706Y-12066746D02*
X6820182Y-12019127D01*
X6820182Y-12019127D02*
X6810658Y-11990555D01*
X6810658Y-11990555D02*
X6801134Y-11971508D01*
X6801134Y-11971508D02*
X6782087Y-11942936D01*
X6782087Y-11942936D02*
X6772563Y-11933412D01*
D14*
X1834940Y-12253220D02*
X1997500Y-12415780D01*
X1997500Y-12253220D02*
X1834940Y-12415780D01*
X1916220Y-12415780D02*
X1997500Y-12334500D01*
X1916220Y-12253220D01*
X1834940Y-12334500D01*
X1916220Y-12415780D01*
D11*
X2363039Y-12425984D02*
X2248753Y-12425984D01*
X2305896Y-12425984D02*
X2305896Y-12225984D01*
X2305896Y-12225984D02*
X2286848Y-12254555D01*
X2286848Y-12254555D02*
X2267801Y-12273603D01*
X2267801Y-12273603D02*
X2248753Y-12283127D01*
X2448753Y-12406936D02*
X2458277Y-12416460D01*
X2458277Y-12416460D02*
X2448753Y-12425984D01*
X2448753Y-12425984D02*
X2439229Y-12416460D01*
X2439229Y-12416460D02*
X2448753Y-12406936D01*
X2448753Y-12406936D02*
X2448753Y-12425984D01*
X2629705Y-12225984D02*
X2591610Y-12225984D01*
X2591610Y-12225984D02*
X2572563Y-12235508D01*
X2572563Y-12235508D02*
X2563039Y-12245031D01*
X2563039Y-12245031D02*
X2543991Y-12273603D01*
X2543991Y-12273603D02*
X2534467Y-12311698D01*
X2534467Y-12311698D02*
X2534467Y-12387888D01*
X2534467Y-12387888D02*
X2543991Y-12406936D01*
X2543991Y-12406936D02*
X2553515Y-12416460D01*
X2553515Y-12416460D02*
X2572563Y-12425984D01*
X2572563Y-12425984D02*
X2610658Y-12425984D01*
X2610658Y-12425984D02*
X2629705Y-12416460D01*
X2629705Y-12416460D02*
X2639229Y-12406936D01*
X2639229Y-12406936D02*
X2648753Y-12387888D01*
X2648753Y-12387888D02*
X2648753Y-12340269D01*
X2648753Y-12340269D02*
X2639229Y-12321222D01*
X2639229Y-12321222D02*
X2629705Y-12311698D01*
X2629705Y-12311698D02*
X2610658Y-12302174D01*
X2610658Y-12302174D02*
X2572563Y-12302174D01*
X2572563Y-12302174D02*
X2553515Y-12311698D01*
X2553515Y-12311698D02*
X2543991Y-12321222D01*
X2543991Y-12321222D02*
X2534467Y-12340269D01*
X2724944Y-12245031D02*
X2734467Y-12235508D01*
X2734467Y-12235508D02*
X2753515Y-12225984D01*
X2753515Y-12225984D02*
X2801134Y-12225984D01*
X2801134Y-12225984D02*
X2820182Y-12235508D01*
X2820182Y-12235508D02*
X2829705Y-12245031D01*
X2829705Y-12245031D02*
X2839229Y-12264079D01*
X2839229Y-12264079D02*
X2839229Y-12283127D01*
X2839229Y-12283127D02*
X2829705Y-12311698D01*
X2829705Y-12311698D02*
X2715420Y-12425984D01*
X2715420Y-12425984D02*
X2839229Y-12425984D01*
X3010658Y-12225984D02*
X2972562Y-12225984D01*
X2972562Y-12225984D02*
X2953515Y-12235508D01*
X2953515Y-12235508D02*
X2943991Y-12245031D01*
X2943991Y-12245031D02*
X2924943Y-12273603D01*
X2924943Y-12273603D02*
X2915420Y-12311698D01*
X2915420Y-12311698D02*
X2915420Y-12387888D01*
X2915420Y-12387888D02*
X2924943Y-12406936D01*
X2924943Y-12406936D02*
X2934467Y-12416460D01*
X2934467Y-12416460D02*
X2953515Y-12425984D01*
X2953515Y-12425984D02*
X2991610Y-12425984D01*
X2991610Y-12425984D02*
X3010658Y-12416460D01*
X3010658Y-12416460D02*
X3020182Y-12406936D01*
X3020182Y-12406936D02*
X3029705Y-12387888D01*
X3029705Y-12387888D02*
X3029705Y-12340269D01*
X3029705Y-12340269D02*
X3020182Y-12321222D01*
X3020182Y-12321222D02*
X3010658Y-12311698D01*
X3010658Y-12311698D02*
X2991610Y-12302174D01*
X2991610Y-12302174D02*
X2953515Y-12302174D01*
X2953515Y-12302174D02*
X2934467Y-12311698D01*
X2934467Y-12311698D02*
X2924943Y-12321222D01*
X2924943Y-12321222D02*
X2915420Y-12340269D01*
X3115420Y-12425984D02*
X3115420Y-12292650D01*
X3115420Y-12311698D02*
X3124943Y-12302174D01*
X3124943Y-12302174D02*
X3143991Y-12292650D01*
X3143991Y-12292650D02*
X3172563Y-12292650D01*
X3172563Y-12292650D02*
X3191610Y-12302174D01*
X3191610Y-12302174D02*
X3201134Y-12321222D01*
X3201134Y-12321222D02*
X3201134Y-12425984D01*
X3201134Y-12321222D02*
X3210658Y-12302174D01*
X3210658Y-12302174D02*
X3229705Y-12292650D01*
X3229705Y-12292650D02*
X3258277Y-12292650D01*
X3258277Y-12292650D02*
X3277324Y-12302174D01*
X3277324Y-12302174D02*
X3286848Y-12321222D01*
X3286848Y-12321222D02*
X3286848Y-12425984D01*
X3382086Y-12425984D02*
X3382086Y-12292650D01*
X3382086Y-12311698D02*
X3391610Y-12302174D01*
X3391610Y-12302174D02*
X3410658Y-12292650D01*
X3410658Y-12292650D02*
X3439229Y-12292650D01*
X3439229Y-12292650D02*
X3458277Y-12302174D01*
X3458277Y-12302174D02*
X3467801Y-12321222D01*
X3467801Y-12321222D02*
X3467801Y-12425984D01*
X3467801Y-12321222D02*
X3477324Y-12302174D01*
X3477324Y-12302174D02*
X3496372Y-12292650D01*
X3496372Y-12292650D02*
X3524943Y-12292650D01*
X3524943Y-12292650D02*
X3543991Y-12302174D01*
X3543991Y-12302174D02*
X3553515Y-12321222D01*
X3553515Y-12321222D02*
X3553515Y-12425984D01*
X3943991Y-12216460D02*
X3772563Y-12473603D01*
X4201134Y-12225984D02*
X4220182Y-12225984D01*
X4220182Y-12225984D02*
X4239229Y-12235508D01*
X4239229Y-12235508D02*
X4248753Y-12245031D01*
X4248753Y-12245031D02*
X4258277Y-12264079D01*
X4258277Y-12264079D02*
X4267801Y-12302174D01*
X4267801Y-12302174D02*
X4267801Y-12349793D01*
X4267801Y-12349793D02*
X4258277Y-12387888D01*
X4258277Y-12387888D02*
X4248753Y-12406936D01*
X4248753Y-12406936D02*
X4239229Y-12416460D01*
X4239229Y-12416460D02*
X4220182Y-12425984D01*
X4220182Y-12425984D02*
X4201134Y-12425984D01*
X4201134Y-12425984D02*
X4182086Y-12416460D01*
X4182086Y-12416460D02*
X4172563Y-12406936D01*
X4172563Y-12406936D02*
X4163039Y-12387888D01*
X4163039Y-12387888D02*
X4153515Y-12349793D01*
X4153515Y-12349793D02*
X4153515Y-12302174D01*
X4153515Y-12302174D02*
X4163039Y-12264079D01*
X4163039Y-12264079D02*
X4172563Y-12245031D01*
X4172563Y-12245031D02*
X4182086Y-12235508D01*
X4182086Y-12235508D02*
X4201134Y-12225984D01*
X4353515Y-12406936D02*
X4363039Y-12416460D01*
X4363039Y-12416460D02*
X4353515Y-12425984D01*
X4353515Y-12425984D02*
X4343991Y-12416460D01*
X4343991Y-12416460D02*
X4353515Y-12406936D01*
X4353515Y-12406936D02*
X4353515Y-12425984D01*
X4486848Y-12225984D02*
X4505896Y-12225984D01*
X4505896Y-12225984D02*
X4524944Y-12235508D01*
X4524944Y-12235508D02*
X4534468Y-12245031D01*
X4534468Y-12245031D02*
X4543991Y-12264079D01*
X4543991Y-12264079D02*
X4553515Y-12302174D01*
X4553515Y-12302174D02*
X4553515Y-12349793D01*
X4553515Y-12349793D02*
X4543991Y-12387888D01*
X4543991Y-12387888D02*
X4534468Y-12406936D01*
X4534468Y-12406936D02*
X4524944Y-12416460D01*
X4524944Y-12416460D02*
X4505896Y-12425984D01*
X4505896Y-12425984D02*
X4486848Y-12425984D01*
X4486848Y-12425984D02*
X4467801Y-12416460D01*
X4467801Y-12416460D02*
X4458277Y-12406936D01*
X4458277Y-12406936D02*
X4448753Y-12387888D01*
X4448753Y-12387888D02*
X4439229Y-12349793D01*
X4439229Y-12349793D02*
X4439229Y-12302174D01*
X4439229Y-12302174D02*
X4448753Y-12264079D01*
X4448753Y-12264079D02*
X4458277Y-12245031D01*
X4458277Y-12245031D02*
X4467801Y-12235508D01*
X4467801Y-12235508D02*
X4486848Y-12225984D01*
X4724944Y-12225984D02*
X4686848Y-12225984D01*
X4686848Y-12225984D02*
X4667801Y-12235508D01*
X4667801Y-12235508D02*
X4658277Y-12245031D01*
X4658277Y-12245031D02*
X4639229Y-12273603D01*
X4639229Y-12273603D02*
X4629706Y-12311698D01*
X4629706Y-12311698D02*
X4629706Y-12387888D01*
X4629706Y-12387888D02*
X4639229Y-12406936D01*
X4639229Y-12406936D02*
X4648753Y-12416460D01*
X4648753Y-12416460D02*
X4667801Y-12425984D01*
X4667801Y-12425984D02*
X4705896Y-12425984D01*
X4705896Y-12425984D02*
X4724944Y-12416460D01*
X4724944Y-12416460D02*
X4734468Y-12406936D01*
X4734468Y-12406936D02*
X4743991Y-12387888D01*
X4743991Y-12387888D02*
X4743991Y-12340269D01*
X4743991Y-12340269D02*
X4734468Y-12321222D01*
X4734468Y-12321222D02*
X4724944Y-12311698D01*
X4724944Y-12311698D02*
X4705896Y-12302174D01*
X4705896Y-12302174D02*
X4667801Y-12302174D01*
X4667801Y-12302174D02*
X4648753Y-12311698D01*
X4648753Y-12311698D02*
X4639229Y-12321222D01*
X4639229Y-12321222D02*
X4629706Y-12340269D01*
X4915420Y-12292650D02*
X4915420Y-12425984D01*
X4867801Y-12216460D02*
X4820182Y-12359317D01*
X4820182Y-12359317D02*
X4943991Y-12359317D01*
X5058277Y-12225984D02*
X5077325Y-12225984D01*
X5077325Y-12225984D02*
X5096372Y-12235508D01*
X5096372Y-12235508D02*
X5105896Y-12245031D01*
X5105896Y-12245031D02*
X5115420Y-12264079D01*
X5115420Y-12264079D02*
X5124944Y-12302174D01*
X5124944Y-12302174D02*
X5124944Y-12349793D01*
X5124944Y-12349793D02*
X5115420Y-12387888D01*
X5115420Y-12387888D02*
X5105896Y-12406936D01*
X5105896Y-12406936D02*
X5096372Y-12416460D01*
X5096372Y-12416460D02*
X5077325Y-12425984D01*
X5077325Y-12425984D02*
X5058277Y-12425984D01*
X5058277Y-12425984D02*
X5039229Y-12416460D01*
X5039229Y-12416460D02*
X5029706Y-12406936D01*
X5029706Y-12406936D02*
X5020182Y-12387888D01*
X5020182Y-12387888D02*
X5010658Y-12349793D01*
X5010658Y-12349793D02*
X5010658Y-12302174D01*
X5010658Y-12302174D02*
X5020182Y-12264079D01*
X5020182Y-12264079D02*
X5029706Y-12245031D01*
X5029706Y-12245031D02*
X5039229Y-12235508D01*
X5039229Y-12235508D02*
X5058277Y-12225984D01*
X5201134Y-12225984D02*
X5201134Y-12264079D01*
X5277325Y-12225984D02*
X5277325Y-12264079D01*
X5572563Y-12502174D02*
X5563039Y-12492650D01*
X5563039Y-12492650D02*
X5543991Y-12464079D01*
X5543991Y-12464079D02*
X5534468Y-12445031D01*
X5534468Y-12445031D02*
X5524944Y-12416460D01*
X5524944Y-12416460D02*
X5515420Y-12368841D01*
X5515420Y-12368841D02*
X5515420Y-12330746D01*
X5515420Y-12330746D02*
X5524944Y-12283127D01*
X5524944Y-12283127D02*
X5534468Y-12254555D01*
X5534468Y-12254555D02*
X5543991Y-12235508D01*
X5543991Y-12235508D02*
X5563039Y-12206936D01*
X5563039Y-12206936D02*
X5572563Y-12197412D01*
X5734468Y-12292650D02*
X5734468Y-12425984D01*
X5686848Y-12216460D02*
X5639229Y-12359317D01*
X5639229Y-12359317D02*
X5763039Y-12359317D01*
X5991610Y-12425984D02*
X5991610Y-12225984D01*
X6077325Y-12425984D02*
X6077325Y-12321222D01*
X6077325Y-12321222D02*
X6067801Y-12302174D01*
X6067801Y-12302174D02*
X6048753Y-12292650D01*
X6048753Y-12292650D02*
X6020182Y-12292650D01*
X6020182Y-12292650D02*
X6001134Y-12302174D01*
X6001134Y-12302174D02*
X5991610Y-12311698D01*
X6201134Y-12425984D02*
X6182087Y-12416460D01*
X6182087Y-12416460D02*
X6172563Y-12406936D01*
X6172563Y-12406936D02*
X6163039Y-12387888D01*
X6163039Y-12387888D02*
X6163039Y-12330746D01*
X6163039Y-12330746D02*
X6172563Y-12311698D01*
X6172563Y-12311698D02*
X6182087Y-12302174D01*
X6182087Y-12302174D02*
X6201134Y-12292650D01*
X6201134Y-12292650D02*
X6229706Y-12292650D01*
X6229706Y-12292650D02*
X6248753Y-12302174D01*
X6248753Y-12302174D02*
X6258277Y-12311698D01*
X6258277Y-12311698D02*
X6267801Y-12330746D01*
X6267801Y-12330746D02*
X6267801Y-12387888D01*
X6267801Y-12387888D02*
X6258277Y-12406936D01*
X6258277Y-12406936D02*
X6248753Y-12416460D01*
X6248753Y-12416460D02*
X6229706Y-12425984D01*
X6229706Y-12425984D02*
X6201134Y-12425984D01*
X6382087Y-12425984D02*
X6363039Y-12416460D01*
X6363039Y-12416460D02*
X6353515Y-12397412D01*
X6353515Y-12397412D02*
X6353515Y-12225984D01*
X6534468Y-12416460D02*
X6515420Y-12425984D01*
X6515420Y-12425984D02*
X6477325Y-12425984D01*
X6477325Y-12425984D02*
X6458277Y-12416460D01*
X6458277Y-12416460D02*
X6448753Y-12397412D01*
X6448753Y-12397412D02*
X6448753Y-12321222D01*
X6448753Y-12321222D02*
X6458277Y-12302174D01*
X6458277Y-12302174D02*
X6477325Y-12292650D01*
X6477325Y-12292650D02*
X6515420Y-12292650D01*
X6515420Y-12292650D02*
X6534468Y-12302174D01*
X6534468Y-12302174D02*
X6543991Y-12321222D01*
X6543991Y-12321222D02*
X6543991Y-12340269D01*
X6543991Y-12340269D02*
X6448753Y-12359317D01*
X6620182Y-12416460D02*
X6639230Y-12425984D01*
X6639230Y-12425984D02*
X6677325Y-12425984D01*
X6677325Y-12425984D02*
X6696372Y-12416460D01*
X6696372Y-12416460D02*
X6705896Y-12397412D01*
X6705896Y-12397412D02*
X6705896Y-12387888D01*
X6705896Y-12387888D02*
X6696372Y-12368841D01*
X6696372Y-12368841D02*
X6677325Y-12359317D01*
X6677325Y-12359317D02*
X6648753Y-12359317D01*
X6648753Y-12359317D02*
X6629706Y-12349793D01*
X6629706Y-12349793D02*
X6620182Y-12330746D01*
X6620182Y-12330746D02*
X6620182Y-12321222D01*
X6620182Y-12321222D02*
X6629706Y-12302174D01*
X6629706Y-12302174D02*
X6648753Y-12292650D01*
X6648753Y-12292650D02*
X6677325Y-12292650D01*
X6677325Y-12292650D02*
X6696372Y-12302174D01*
X6772563Y-12502174D02*
X6782087Y-12492650D01*
X6782087Y-12492650D02*
X6801134Y-12464079D01*
X6801134Y-12464079D02*
X6810658Y-12445031D01*
X6810658Y-12445031D02*
X6820182Y-12416460D01*
X6820182Y-12416460D02*
X6829706Y-12368841D01*
X6829706Y-12368841D02*
X6829706Y-12330746D01*
X6829706Y-12330746D02*
X6820182Y-12283127D01*
X6820182Y-12283127D02*
X6810658Y-12254555D01*
X6810658Y-12254555D02*
X6801134Y-12235508D01*
X6801134Y-12235508D02*
X6782087Y-12206936D01*
X6782087Y-12206936D02*
X6772563Y-12197412D01*
X1897500Y-12517060D02*
X1897500Y-12717060D01*
X1797500Y-12617060D02*
X1997500Y-12617060D01*
X1997500Y-12617060D02*
G75*
G02*
X1797500Y-12617060I-100000J0D01*
G01*
X1797500Y-12617060D02*
G75*
G02*
X1997500Y-12617060I100000J0D01*
G01*
X2248753Y-12527591D02*
X2258277Y-12518068D01*
X2258277Y-12518068D02*
X2277324Y-12508544D01*
X2277324Y-12508544D02*
X2324944Y-12508544D01*
X2324944Y-12508544D02*
X2343991Y-12518068D01*
X2343991Y-12518068D02*
X2353515Y-12527591D01*
X2353515Y-12527591D02*
X2363039Y-12546639D01*
X2363039Y-12546639D02*
X2363039Y-12565687D01*
X2363039Y-12565687D02*
X2353515Y-12594258D01*
X2353515Y-12594258D02*
X2239229Y-12708544D01*
X2239229Y-12708544D02*
X2363039Y-12708544D01*
X2448753Y-12689496D02*
X2458277Y-12699020D01*
X2458277Y-12699020D02*
X2448753Y-12708544D01*
X2448753Y-12708544D02*
X2439229Y-12699020D01*
X2439229Y-12699020D02*
X2448753Y-12689496D01*
X2448753Y-12689496D02*
X2448753Y-12708544D01*
X2524944Y-12508544D02*
X2658277Y-12508544D01*
X2658277Y-12508544D02*
X2572563Y-12708544D01*
X2772563Y-12508544D02*
X2791610Y-12508544D01*
X2791610Y-12508544D02*
X2810658Y-12518068D01*
X2810658Y-12518068D02*
X2820182Y-12527591D01*
X2820182Y-12527591D02*
X2829705Y-12546639D01*
X2829705Y-12546639D02*
X2839229Y-12584734D01*
X2839229Y-12584734D02*
X2839229Y-12632353D01*
X2839229Y-12632353D02*
X2829705Y-12670448D01*
X2829705Y-12670448D02*
X2820182Y-12689496D01*
X2820182Y-12689496D02*
X2810658Y-12699020D01*
X2810658Y-12699020D02*
X2791610Y-12708544D01*
X2791610Y-12708544D02*
X2772563Y-12708544D01*
X2772563Y-12708544D02*
X2753515Y-12699020D01*
X2753515Y-12699020D02*
X2743991Y-12689496D01*
X2743991Y-12689496D02*
X2734467Y-12670448D01*
X2734467Y-12670448D02*
X2724944Y-12632353D01*
X2724944Y-12632353D02*
X2724944Y-12584734D01*
X2724944Y-12584734D02*
X2734467Y-12546639D01*
X2734467Y-12546639D02*
X2743991Y-12527591D01*
X2743991Y-12527591D02*
X2753515Y-12518068D01*
X2753515Y-12518068D02*
X2772563Y-12508544D01*
X2963039Y-12508544D02*
X2982086Y-12508544D01*
X2982086Y-12508544D02*
X3001134Y-12518068D01*
X3001134Y-12518068D02*
X3010658Y-12527591D01*
X3010658Y-12527591D02*
X3020182Y-12546639D01*
X3020182Y-12546639D02*
X3029705Y-12584734D01*
X3029705Y-12584734D02*
X3029705Y-12632353D01*
X3029705Y-12632353D02*
X3020182Y-12670448D01*
X3020182Y-12670448D02*
X3010658Y-12689496D01*
X3010658Y-12689496D02*
X3001134Y-12699020D01*
X3001134Y-12699020D02*
X2982086Y-12708544D01*
X2982086Y-12708544D02*
X2963039Y-12708544D01*
X2963039Y-12708544D02*
X2943991Y-12699020D01*
X2943991Y-12699020D02*
X2934467Y-12689496D01*
X2934467Y-12689496D02*
X2924943Y-12670448D01*
X2924943Y-12670448D02*
X2915420Y-12632353D01*
X2915420Y-12632353D02*
X2915420Y-12584734D01*
X2915420Y-12584734D02*
X2924943Y-12546639D01*
X2924943Y-12546639D02*
X2934467Y-12527591D01*
X2934467Y-12527591D02*
X2943991Y-12518068D01*
X2943991Y-12518068D02*
X2963039Y-12508544D01*
X3115420Y-12708544D02*
X3115420Y-12575210D01*
X3115420Y-12594258D02*
X3124943Y-12584734D01*
X3124943Y-12584734D02*
X3143991Y-12575210D01*
X3143991Y-12575210D02*
X3172563Y-12575210D01*
X3172563Y-12575210D02*
X3191610Y-12584734D01*
X3191610Y-12584734D02*
X3201134Y-12603782D01*
X3201134Y-12603782D02*
X3201134Y-12708544D01*
X3201134Y-12603782D02*
X3210658Y-12584734D01*
X3210658Y-12584734D02*
X3229705Y-12575210D01*
X3229705Y-12575210D02*
X3258277Y-12575210D01*
X3258277Y-12575210D02*
X3277324Y-12584734D01*
X3277324Y-12584734D02*
X3286848Y-12603782D01*
X3286848Y-12603782D02*
X3286848Y-12708544D01*
X3382086Y-12708544D02*
X3382086Y-12575210D01*
X3382086Y-12594258D02*
X3391610Y-12584734D01*
X3391610Y-12584734D02*
X3410658Y-12575210D01*
X3410658Y-12575210D02*
X3439229Y-12575210D01*
X3439229Y-12575210D02*
X3458277Y-12584734D01*
X3458277Y-12584734D02*
X3467801Y-12603782D01*
X3467801Y-12603782D02*
X3467801Y-12708544D01*
X3467801Y-12603782D02*
X3477324Y-12584734D01*
X3477324Y-12584734D02*
X3496372Y-12575210D01*
X3496372Y-12575210D02*
X3524943Y-12575210D01*
X3524943Y-12575210D02*
X3543991Y-12584734D01*
X3543991Y-12584734D02*
X3553515Y-12603782D01*
X3553515Y-12603782D02*
X3553515Y-12708544D01*
X3943991Y-12499020D02*
X3772563Y-12756163D01*
X4201134Y-12508544D02*
X4220182Y-12508544D01*
X4220182Y-12508544D02*
X4239229Y-12518068D01*
X4239229Y-12518068D02*
X4248753Y-12527591D01*
X4248753Y-12527591D02*
X4258277Y-12546639D01*
X4258277Y-12546639D02*
X4267801Y-12584734D01*
X4267801Y-12584734D02*
X4267801Y-12632353D01*
X4267801Y-12632353D02*
X4258277Y-12670448D01*
X4258277Y-12670448D02*
X4248753Y-12689496D01*
X4248753Y-12689496D02*
X4239229Y-12699020D01*
X4239229Y-12699020D02*
X4220182Y-12708544D01*
X4220182Y-12708544D02*
X4201134Y-12708544D01*
X4201134Y-12708544D02*
X4182086Y-12699020D01*
X4182086Y-12699020D02*
X4172563Y-12689496D01*
X4172563Y-12689496D02*
X4163039Y-12670448D01*
X4163039Y-12670448D02*
X4153515Y-12632353D01*
X4153515Y-12632353D02*
X4153515Y-12584734D01*
X4153515Y-12584734D02*
X4163039Y-12546639D01*
X4163039Y-12546639D02*
X4172563Y-12527591D01*
X4172563Y-12527591D02*
X4182086Y-12518068D01*
X4182086Y-12518068D02*
X4201134Y-12508544D01*
X4353515Y-12689496D02*
X4363039Y-12699020D01*
X4363039Y-12699020D02*
X4353515Y-12708544D01*
X4353515Y-12708544D02*
X4343991Y-12699020D01*
X4343991Y-12699020D02*
X4353515Y-12689496D01*
X4353515Y-12689496D02*
X4353515Y-12708544D01*
X4553515Y-12708544D02*
X4439229Y-12708544D01*
X4496372Y-12708544D02*
X4496372Y-12508544D01*
X4496372Y-12508544D02*
X4477325Y-12537115D01*
X4477325Y-12537115D02*
X4458277Y-12556163D01*
X4458277Y-12556163D02*
X4439229Y-12565687D01*
X4677325Y-12508544D02*
X4696372Y-12508544D01*
X4696372Y-12508544D02*
X4715420Y-12518068D01*
X4715420Y-12518068D02*
X4724944Y-12527591D01*
X4724944Y-12527591D02*
X4734468Y-12546639D01*
X4734468Y-12546639D02*
X4743991Y-12584734D01*
X4743991Y-12584734D02*
X4743991Y-12632353D01*
X4743991Y-12632353D02*
X4734468Y-12670448D01*
X4734468Y-12670448D02*
X4724944Y-12689496D01*
X4724944Y-12689496D02*
X4715420Y-12699020D01*
X4715420Y-12699020D02*
X4696372Y-12708544D01*
X4696372Y-12708544D02*
X4677325Y-12708544D01*
X4677325Y-12708544D02*
X4658277Y-12699020D01*
X4658277Y-12699020D02*
X4648753Y-12689496D01*
X4648753Y-12689496D02*
X4639229Y-12670448D01*
X4639229Y-12670448D02*
X4629706Y-12632353D01*
X4629706Y-12632353D02*
X4629706Y-12584734D01*
X4629706Y-12584734D02*
X4639229Y-12546639D01*
X4639229Y-12546639D02*
X4648753Y-12527591D01*
X4648753Y-12527591D02*
X4658277Y-12518068D01*
X4658277Y-12518068D02*
X4677325Y-12508544D01*
X4915420Y-12508544D02*
X4877325Y-12508544D01*
X4877325Y-12508544D02*
X4858277Y-12518068D01*
X4858277Y-12518068D02*
X4848753Y-12527591D01*
X4848753Y-12527591D02*
X4829706Y-12556163D01*
X4829706Y-12556163D02*
X4820182Y-12594258D01*
X4820182Y-12594258D02*
X4820182Y-12670448D01*
X4820182Y-12670448D02*
X4829706Y-12689496D01*
X4829706Y-12689496D02*
X4839229Y-12699020D01*
X4839229Y-12699020D02*
X4858277Y-12708544D01*
X4858277Y-12708544D02*
X4896372Y-12708544D01*
X4896372Y-12708544D02*
X4915420Y-12699020D01*
X4915420Y-12699020D02*
X4924944Y-12689496D01*
X4924944Y-12689496D02*
X4934468Y-12670448D01*
X4934468Y-12670448D02*
X4934468Y-12622829D01*
X4934468Y-12622829D02*
X4924944Y-12603782D01*
X4924944Y-12603782D02*
X4915420Y-12594258D01*
X4915420Y-12594258D02*
X4896372Y-12584734D01*
X4896372Y-12584734D02*
X4858277Y-12584734D01*
X4858277Y-12584734D02*
X4839229Y-12594258D01*
X4839229Y-12594258D02*
X4829706Y-12603782D01*
X4829706Y-12603782D02*
X4820182Y-12622829D01*
X5001134Y-12508544D02*
X5124944Y-12508544D01*
X5124944Y-12508544D02*
X5058277Y-12584734D01*
X5058277Y-12584734D02*
X5086849Y-12584734D01*
X5086849Y-12584734D02*
X5105896Y-12594258D01*
X5105896Y-12594258D02*
X5115420Y-12603782D01*
X5115420Y-12603782D02*
X5124944Y-12622829D01*
X5124944Y-12622829D02*
X5124944Y-12670448D01*
X5124944Y-12670448D02*
X5115420Y-12689496D01*
X5115420Y-12689496D02*
X5105896Y-12699020D01*
X5105896Y-12699020D02*
X5086849Y-12708544D01*
X5086849Y-12708544D02*
X5029706Y-12708544D01*
X5029706Y-12708544D02*
X5010658Y-12699020D01*
X5010658Y-12699020D02*
X5001134Y-12689496D01*
X5201134Y-12508544D02*
X5201134Y-12546639D01*
X5277325Y-12508544D02*
X5277325Y-12546639D01*
X5572563Y-12784734D02*
X5563039Y-12775210D01*
X5563039Y-12775210D02*
X5543991Y-12746639D01*
X5543991Y-12746639D02*
X5534468Y-12727591D01*
X5534468Y-12727591D02*
X5524944Y-12699020D01*
X5524944Y-12699020D02*
X5515420Y-12651401D01*
X5515420Y-12651401D02*
X5515420Y-12613306D01*
X5515420Y-12613306D02*
X5524944Y-12565687D01*
X5524944Y-12565687D02*
X5534468Y-12537115D01*
X5534468Y-12537115D02*
X5543991Y-12518068D01*
X5543991Y-12518068D02*
X5563039Y-12489496D01*
X5563039Y-12489496D02*
X5572563Y-12479972D01*
X5639229Y-12527591D02*
X5648753Y-12518068D01*
X5648753Y-12518068D02*
X5667801Y-12508544D01*
X5667801Y-12508544D02*
X5715420Y-12508544D01*
X5715420Y-12508544D02*
X5734468Y-12518068D01*
X5734468Y-12518068D02*
X5743991Y-12527591D01*
X5743991Y-12527591D02*
X5753515Y-12546639D01*
X5753515Y-12546639D02*
X5753515Y-12565687D01*
X5753515Y-12565687D02*
X5743991Y-12594258D01*
X5743991Y-12594258D02*
X5629706Y-12708544D01*
X5629706Y-12708544D02*
X5753515Y-12708544D01*
X5991610Y-12708544D02*
X5991610Y-12508544D01*
X6077325Y-12708544D02*
X6077325Y-12603782D01*
X6077325Y-12603782D02*
X6067801Y-12584734D01*
X6067801Y-12584734D02*
X6048753Y-12575210D01*
X6048753Y-12575210D02*
X6020182Y-12575210D01*
X6020182Y-12575210D02*
X6001134Y-12584734D01*
X6001134Y-12584734D02*
X5991610Y-12594258D01*
X6201134Y-12708544D02*
X6182087Y-12699020D01*
X6182087Y-12699020D02*
X6172563Y-12689496D01*
X6172563Y-12689496D02*
X6163039Y-12670448D01*
X6163039Y-12670448D02*
X6163039Y-12613306D01*
X6163039Y-12613306D02*
X6172563Y-12594258D01*
X6172563Y-12594258D02*
X6182087Y-12584734D01*
X6182087Y-12584734D02*
X6201134Y-12575210D01*
X6201134Y-12575210D02*
X6229706Y-12575210D01*
X6229706Y-12575210D02*
X6248753Y-12584734D01*
X6248753Y-12584734D02*
X6258277Y-12594258D01*
X6258277Y-12594258D02*
X6267801Y-12613306D01*
X6267801Y-12613306D02*
X6267801Y-12670448D01*
X6267801Y-12670448D02*
X6258277Y-12689496D01*
X6258277Y-12689496D02*
X6248753Y-12699020D01*
X6248753Y-12699020D02*
X6229706Y-12708544D01*
X6229706Y-12708544D02*
X6201134Y-12708544D01*
X6382087Y-12708544D02*
X6363039Y-12699020D01*
X6363039Y-12699020D02*
X6353515Y-12679972D01*
X6353515Y-12679972D02*
X6353515Y-12508544D01*
X6534468Y-12699020D02*
X6515420Y-12708544D01*
X6515420Y-12708544D02*
X6477325Y-12708544D01*
X6477325Y-12708544D02*
X6458277Y-12699020D01*
X6458277Y-12699020D02*
X6448753Y-12679972D01*
X6448753Y-12679972D02*
X6448753Y-12603782D01*
X6448753Y-12603782D02*
X6458277Y-12584734D01*
X6458277Y-12584734D02*
X6477325Y-12575210D01*
X6477325Y-12575210D02*
X6515420Y-12575210D01*
X6515420Y-12575210D02*
X6534468Y-12584734D01*
X6534468Y-12584734D02*
X6543991Y-12603782D01*
X6543991Y-12603782D02*
X6543991Y-12622829D01*
X6543991Y-12622829D02*
X6448753Y-12641877D01*
X6620182Y-12699020D02*
X6639230Y-12708544D01*
X6639230Y-12708544D02*
X6677325Y-12708544D01*
X6677325Y-12708544D02*
X6696372Y-12699020D01*
X6696372Y-12699020D02*
X6705896Y-12679972D01*
X6705896Y-12679972D02*
X6705896Y-12670448D01*
X6705896Y-12670448D02*
X6696372Y-12651401D01*
X6696372Y-12651401D02*
X6677325Y-12641877D01*
X6677325Y-12641877D02*
X6648753Y-12641877D01*
X6648753Y-12641877D02*
X6629706Y-12632353D01*
X6629706Y-12632353D02*
X6620182Y-12613306D01*
X6620182Y-12613306D02*
X6620182Y-12603782D01*
X6620182Y-12603782D02*
X6629706Y-12584734D01*
X6629706Y-12584734D02*
X6648753Y-12575210D01*
X6648753Y-12575210D02*
X6677325Y-12575210D01*
X6677325Y-12575210D02*
X6696372Y-12584734D01*
X6772563Y-12784734D02*
X6782087Y-12775210D01*
X6782087Y-12775210D02*
X6801134Y-12746639D01*
X6801134Y-12746639D02*
X6810658Y-12727591D01*
X6810658Y-12727591D02*
X6820182Y-12699020D01*
X6820182Y-12699020D02*
X6829706Y-12651401D01*
X6829706Y-12651401D02*
X6829706Y-12613306D01*
X6829706Y-12613306D02*
X6820182Y-12565687D01*
X6820182Y-12565687D02*
X6810658Y-12537115D01*
X6810658Y-12537115D02*
X6801134Y-12518068D01*
X6801134Y-12518068D02*
X6782087Y-12489496D01*
X6782087Y-12489496D02*
X6772563Y-12479972D01*
M02*
